<svg width="49" height="49" viewBox="0 0 49 49" fill="none" xmlns="http://www.w3.org/2000/svg"><mask id="a" maskUnits="userSpaceOnUse" x="3" y="0" width="46" height="45"><path d="M3.304.043h44.897v44.572H3.304V.043z" fill="#fff"/></mask><g mask="url(#a)"><path fill-rule="evenodd" clip-rule="evenodd" d="M15.699 35.896c-1.042.969-2.077 1.925-3.136 2.908-.627-.605-.968-1.343-1.165-2.16-.286-1.154-.236-2.309-.027-3.457.024-.136.082-.295.176-.382.783-.741 1.577-1.47 2.413-2.247-.1 2.052.685 3.73 1.739 5.338zm-1.365-4.816c-.021-.649.194-1.127.694-1.552.938-.791 2.012-1.185 3.163-1.409.826-.161 1.512.27 1.623 1.158.077.599.068 1.313-.179 1.818-.815 1.67-2.045 3.008-3.366 4.317-1.059-1.294-1.877-2.625-1.935-4.332zm-2.33 8.264c-1.483 1.459-2.907 2.933-4.825 3.681-1.277.494-2.619-.62-2.575-2.113.039-1.22.633-2.204 1.4-2.989 1.29-1.319 2.693-2.52 4.046-3.77.23-.215.459-.429.691-.643-.264 2.123-.067 4.075 1.263 5.834zm34.92-25.426c-.752 1.56-1.682 2.951-3.02 4.06-.904.747-1.607 1.759-2.428 2.621a230.323 230.323 0 0 1-4.316 4.45c-.764.764-1.762.913-2.744.615-.971-.291-1.898-.76-2.84-1.167-.776-.332-1.53-.754-2.33-1.014-1.085-.354-2.035.05-2.824.834-1.391 1.385-2.621 2.918-3.607 4.659-.156.276-.306.276-.55.164-.809-.366-1.38-1.018-1.87-1.76-.301-.459-.569-.937-.895-1.48.409-.164.776-.3 1.135-.462.956-.425 1.907-.863 2.863-1.294.809-.363 1.389-1.012 1.892-1.741.488-.705.617-1.555.423-2.374-.291-1.217-.715-2.4-1.088-3.594-.35-1.124-.75-2.235-1.053-3.37-.253-.96.114-1.707.82-2.331a152.305 152.305 0 0 0 3.73-3.408c1.398-1.316 2.754-2.678 4.16-3.985.674-.624 1.363-1.266 2.148-1.697.603-.332 1.368-.342 2.063-.497.026.04.053.087.08.13-.507.674-.99 1.366-1.528 2.008a377.789 377.789 0 0 1-5.022 5.931c-.75.863-1.6 1.623-2.377 2.455a9.472 9.472 0 0 0-.944 1.232c-.8 1.216.268 4.18 1.647 4.55.977.26 1.839-.143 2.513-.773a76.334 76.334 0 0 0 4.08-4.137c1.939-2.117 3.954-4.109 6.584-5.257.206-.09.421-.165.698-.276-.592 1.89-1.23 3.67-2.683 4.928-2.063 1.784-4.157 3.535-6.237 5.304-.489.412-.977.822-1.445 1.26-.87.81-1.038 1.775-.497 2.883.43.881 1.091 1.508 1.983 1.828 1.03.369 1.797.077 2.392-.879.073-.114.208-.189.308-.288 1.342-1.32 2.719-2.6 4.016-3.966 1.621-1.707 3.157-3.51 5.305-4.522.5-.236 1.03-.413 1.547-.615.047.034.091.069.139.106-.071.289-.098.608-.227.869zm-3.409-8.373c-.256.04-.518.056-.765.127-2.168.618-4.118 1.71-5.76 3.283-1.715 1.645-3.295 3.445-4.925 5.193-.78.837-1.547 1.678-2.592 2.16-.633.294-1.238.083-1.565-.562-.103-.202-.08-.469-.17-.68-.313-.732-.236-1.446.179-2.048.465-.677 1.012-1.297 1.57-1.89.68-.73 1.46-1.36 2.113-2.11 1.38-1.593 2.73-3.213 4.045-4.864.848-1.058 1.627-2.184 2.41-3.299.109-.155.156-.527.065-.63-.13-.145-.43-.21-.636-.17C36.7.2 35.922.399 35.14.576c-.953.217-1.844.546-2.386 1.496-.05.084-.161.13-.244.192-.503.391-1.018.764-1.503 1.18-2.342 2.005-4.63 4.084-7.026 6.017-1.459 1.18-1.988 2.58-1.432 4.432.382 1.27.853 2.514 1.277 3.768.261.766.567 1.52.756 2.305.17.708 0 1.344-.433 1.962-.6.86-1.436 1.365-2.248 1.905-.803.537-1.676.95-2.506 1.447-.203.124-.5.406-.47.561.087.463-.169.596-.448.736-.78.394-1.583.738-2.345 1.167-.806.456-1.624.915-2.35 1.492-1.386 1.105-2.716 2.278-4.052 3.445-1.453 1.27-2.927 2.52-4.315 3.867-1.03.996-1.825 2.207-2.057 3.734-.23 1.49.3 2.709 1.36 3.662.952.853 2.076.822 3.115.304.997-.5 1.994-1.058 2.842-1.79 2.315-1.984 4.572-4.045 6.805-6.13 1.797-1.68 3.206-3.712 4.436-5.906.138.04.303.109.474.133.441.06.665-.17.782-.614.086-.31.206-.655.418-.869 1.206-1.238 2.445-2.436 3.672-3.65.67-.664 1.433-.86 2.303-.44.512.245 1.012.533 1.533.748 1.08.434 2.154.921 3.266 1.232 1.318.369 2.56.043 3.556-.922a111.126 111.126 0 0 0 3.958-4.047 82.5 82.5 0 0 0 3.436-3.889 14.035 14.035 0 0 0 1.624-2.458c.459-.89.759-1.877 1.13-2.82.294-.748.123-.988-.65-.904-1.722.193-3.243.938-4.499 2.117-1.742 1.642-3.348 3.442-5.04 5.145a59.033 59.033 0 0 1-3.012 2.834c-.489.428-1.071.26-1.557-.121-.576-.453-1.091-.993-1.067-1.819.005-.239.205-.506.382-.686.394-.412.812-.8 1.247-1.16 1.58-1.313 3.128-2.682 4.77-3.901 2.782-2.073 4.186-5.08 5.224-8.367-.114-.137-.232-.28-.35-.42z" fill="#FEFEFE"/></g><path fill-rule="evenodd" clip-rule="evenodd" d="M4.696 24.998c-.215-.226-.454-.437-.643-.682-.313-.395-.19-.843.264-1.08.402-.211.821-.08 1.04.369.488 1 1.303 1.775 2.07 2.587.496.524.967 1.07 1.42 1.625.098.119.073.325.101.493-.169-.042-.382-.034-.5-.129-1.283-1.03-2.552-2.076-3.82-3.117l.068-.066zm15.769 17.127c.581.666 1.155 1.342 1.745 1.996.28.313.341.717.126 1.09-.226.396-.618.474-.874.089a22.304 22.304 0 0 1-1.197-2.006 33.554 33.554 0 0 1-1.07-2.257c-.083-.184-.074-.435-.109-.658.166.082.374.103.487.255.333.444.627.938.938 1.412l-.046.079zm-9.615-24.16c.373.045.677.01.921.128.293.142.483.465.34.835-.402 1.034-.222 2.068-.047 3.122.129.78.198 1.57.263 2.362.013.145-.134.299-.21.45-.086-.148-.206-.284-.252-.441-.314-1.153-.62-2.308-.91-3.464-.135-.527-.28-1.066-.314-1.602-.024-.415.12-.839.209-1.39zm19.998 22.31c-.573.042-1.04.151-1.462.082-.725-.117-1.424-.34-2.126-.53-.921-.246-1.842-.502-2.757-.766-.132-.037-.232-.149-.348-.226.142-.062.29-.19.422-.18.606.05 1.218.103 1.81.22 1.172.226 2.319.52 3.536.179.426-.117.822.107.954.427.09.222-.01.485-.03.794zM19.027 18.319c.01.123.096.368.04.565-.375 1.303-.774 2.6-1.186 3.891-.048.146-.23.246-.35.363-.046-.172-.134-.352-.134-.523.008-.78.01-1.56.072-2.334.05-.634.115-1.285.297-1.88.166-.536.82-.593 1.261-.082zm11.618 11.917c.423.494.333 1.082-.173 1.253a5.282 5.282 0 0 1-1.51.263c-.915.024-1.832-.024-2.746-.063-.126-.006-.249-.131-.371-.2.082-.114.14-.279.251-.333.213-.108.456-.162.686-.228.98-.272 1.96-.533 2.934-.82.38-.112.712-.115.929.128zM17.242 49c-.46-.038-.841 0-1.165-.115-.355-.125-.406-.45-.352-.818.088-.558.04-1.139.132-1.69a21.21 21.21 0 0 1 .507-2.254c.037-.132.31-.2.476-.295.034.176.092.356.095.532.007.526-.064 1.055 0 1.574.088.719.29 1.424.399 2.14.04.256-.048.528-.091.926zM.5 31.281c.047-.372.006-.772.153-.993.123-.186.514-.314.705-.224 1.214.569 2.457.803 3.747.78.15-.004.308.213.464.323-.141.138-.27.38-.423.397-.553.069-1.11.08-1.67.072a44.558 44.558 0 0 1-2.347-.117c-.176-.014-.347-.127-.629-.238zM7.425 40.8c-.299.183-.613.29-.848-.11-.204-.348.158-.786.944-1.139.42.783.406.947-.096 1.25zm-1.5.706c.6.78 1.573.798 2.374.046.706-.662.855-1.634.353-2.286-.648-.84-1.599-.812-2.536.075-.652.62-.728 1.474-.191 2.165z" fill="#FEFEFE"/></svg>