<svg width="190" height="20" viewBox="0 0 190 20" fill="none" xmlns="http://www.w3.org/2000/svg"><path fill-rule="evenodd" clip-rule="evenodd" d="M189.544 19.17c-3.991 0-8.288.92-13.506.613-.307 0-.614-.613-.614-.613-.307 0-.614.613-.614.613-12.277 0-24.862-.613-35.912-.613-18.724-.306-38.368.613-57.092 0-3.99 0-7.98-.306-11.97-.306-3.377 0-6.753-.306-9.516 0-.92-.613-3.376 0-3.683-.919-3.07.919-6.446 0-10.13.306-1.534 0-5.831-.306-6.445 0-4.604.92-11.971.307-17.803 0-7.06 0-14.426 0-20.565-.612-.307-1.226.92-2.144 0-2.757 32.536.306 65.072.306 99.757 1.531 11.357.307 22.407-.612 34.377-.306 17.803.306 34.992.306 51.567.613-.614-.306.614-2.757-.307-2.144-.921.612-.921-.613-.614-1.532-2.148-.306.614 3.063-1.535 2.757-.92-1.532-.613-4.595 1.228-5.207 1.228 0 0 .919 0 1.531.921 0 .921.92 1.535 1.226-.307-3.37.307-5.82 0-9.496-13.199-.613-26.09 0-38.368-.613-1.535.307.307 3.982-1.535 3.982.307-2.45-.614-2.756-1.228-3.675-34.684 0-70.904-.92-104.668-1.226-13.198 0-26.704-.306-39.902-.612-.614 1.531-.307 3.982-.307 6.126 0 1.531-.307 1.838-.307 2.757-.307.919.614 3.063-.614 3.063-.614-1.532 0-3.676 0-6.126 0-2.144-.307-4.901.614-6.74C3.842-.432 6.297.487 8.447.487c62.002.612 119.708 1.225 180.79 1.225.307.306.307.612.614.919-.614 5.513-.307 10.414-.307 16.54z" fill="#fff"/><path fill-rule="evenodd" clip-rule="evenodd" d="M186.474 3.549c0 1.531.307 3.37-.921 3.675.307-1.225-.92-3.675.921-3.675zm-3.99 3.063c.307-.92-.614-2.757.614-2.757.307.613.307 2.757-.614 2.757zm-1.842-2.45c-.307.919.307 2.756-.307 3.063-1.227 0-.921-3.676.307-3.063zm-4.297 3.062c-.307-.612 0-2.756.307-3.369 1.228 0 1.228 3.676-.307 3.37zm-3.376 2.451c-.921-.92-.614-4.595-.307-5.82 1.227.919.307 3.982.307 5.82zm-2.763-2.757c.307-.919-.614-3.063.614-2.756 0 .612.614 2.756-.614 2.756zm-2.148 0c-.921 0-.614-2.45-.307-2.757 1.228-.306.614 2.144.307 2.757zm-3.684.001c.307-.92-.307-2.45.307-2.757.921-.306.921 3.063-.307 2.757zm-2.455-3.063c-.307.918.307 2.45-.307 2.756-.921 0-.921-3.063.307-2.756zm-3.684 11.332c0-3.369-.614-7.35 0-11.333.921-.306.614 1.838.614 1.838v4.288c0 1.838.614 3.676-.614 5.207zm-5.218-.612c.614-.613.614-1.532 1.535-1.225 0 .612 0 1.225.307 1.225.921 0 .921-.613.921-1.532-.307-.612-1.228-.612-1.842-1.225.307-.612.614-.919.614-1.838.307.307.614.307 1.228.307 0 .612-.921 1.838.614 1.531 1.228 2.757-1.535 4.595-3.377 2.757zm2.763-10.414c0 .919.307 2.756-.921 2.45.307-.919-.307-2.45.921-2.45zm-3.377 2.45c-.92 0-.613-2.757-.306-3.063 1.227 0 .613 2.757.306 3.063zm-6.446.612c-1.227 0-.613-2.144-.92-3.369.307 0 .614 0 .614-.306 1.227.612.306 2.757.306 3.675zm-3.069 3.37c-1.228-1.532-.614-4.901-.307-7.045 1.228 1.838 0 4.9.307 7.045zm-3.376-4.289c.614-.306-.614-1.531-.307-2.757.307 0 .614 0 .614-.306 1.534.613.307 2.144.613 3.982-.613 0-.92-.612-.92-.919 0-.306 0 0 0 0zm-2.456.307c-1.228 0-.614-2.45-.307-2.757.921 0 0 1.532.307 2.757zm-3.683.306c0-.919-.307-2.45.307-3.063.614 0 .614 2.757-.307 3.063zm-1.842-3.369c-.307 1.225.614 3.37-.921 3.063.307-.919-.614-3.063.921-3.063zm-3.376 11.946c-1.842-.613-.614-3.37-.614-4.901 0-2.45-.307-5.208.307-7.045.921-.307.614 1.837.614 1.837 0 4.289.614 7.964-.307 10.109zm-1.228-2.145c-.921.613-.921 1.838-2.149 2.145.307-1.532.307-1.838-1.227-2.145 0-1.531 0-3.063 1.841-2.756 0 1.225-.921 1.531-1.228 2.45 1.842.613 1.228-1.532 2.763-1.532 0 .613-.614 1.838 0 1.838zm-1.535-6.738c.307-.919-.614-3.063.614-3.063.307.919.921 3.063-.614 3.063zm-2.148 0c-.921 0-.614-2.45-.307-2.757 1.228-.306.614 2.144.307 2.757zm-3.684-.306c.307-.613-.307-2.45.307-2.757.921 0 .921 3.37-.307 2.757zm-2.148-2.757c-.307.919.307 2.45-.307 2.757-1.228 0-.921-3.063.307-2.757zm-3.684 0c-.306 1.838.921 5.513-.92 6.126.307-2.144-.614-5.514.92-6.126zm-2.455.306c0 .919.307 2.757-.921 2.45 0-.918-.307-2.45.921-2.45zm-3.684 2.45c-.92 0-.613-2.757-.306-3.063 1.227 0 .613 2.757.306 3.063zm-4.911 0c-.92 0-.92-3.369 0-3.063.307.613.614 2.45 0 3.063zm-2.762.001c-1.228 0-.614-2.45-.307-2.757 1.228.306-.307 1.531.307 2.757zm-3.683.306c0-.919-.307-2.45.306-3.063.614 0 .614 2.757-.306 3.063zm-1.843-3.37c-.306 1.225.615 3.37-.92 3.063.307-.919-.614-3.063.92-3.063zm-3.068 11.334c-1.228-.92 0-3.37-.921-4.289.307-2.144-.307-5.207.307-7.045.92-.306.614 1.838.614 1.838 0 3.676.306 6.739 0 9.496zm-3.07-8.271c.307-.918-.614-3.063.614-2.756 0 .612.92 2.756-.614 2.756zm-2.149.001c-.92 0-.613-2.45-.307-2.757 1.228-.306.614 2.144.307 2.757zm-3.683-.307c.307-.919-.307-2.45.307-2.757.92 0 .92 3.37-.307 2.757zm-2.455-2.756c-.307.919.306 2.45-.307 2.756-.921 0-.614-3.063.306-2.756zm-3.377-.001c-.307 1.838.92 5.514-.92 6.126.306-2.144-.615-5.513.92-6.126zm-2.455.307c0 .919.307 2.757-.921 2.45 0-.919-.307-2.45.92-2.45zM70.45 6c-.922 0-.615-2.757-.308-3.063 1.228 0 .614 2.756.307 3.063zm-3.991.305c0-.919-.307-2.45.307-3.063.614 0 .614 2.757-.307 3.063zM64.31 3.242c-.307.92.307 2.757-.307 3.063-.92 0-.92-3.675.307-3.063zM61.548 14.27c-1.228 0 0-2.144-.921-2.757.307-1.838-.307-6.432.307-8.576.92 0 .614 2.144.614 1.837 0 3.982.307 7.045 0 9.496zm-1.535-.919v.92c-.92.612-2.455 0-3.683.305 0-2.144 3.99-2.45 2.148-4.288-.613 0 .614 1.532-.613 1.532-2.763-.92 1.534-3.37 2.148-1.226 0 1.532-1.228 1.838-1.841 2.757 0 .613 1.227 0 1.841 0zM58.172 6c.306-.92-.614-3.063.614-2.757.306.613.92 2.757-.614 2.757zM56.33 6c-.921 0-.921-2.45-.307-3.063 1.228 0 .614 2.45.307 3.063zm-3.683 0c.306-.92-.307-2.451.306-2.758.921-.306.921 3.063-.306 2.757zM50.19 2.936c-.306.919.308 2.45-.306 2.757-.92 0-.92-3.063.307-2.757zm-3.375.001c-.307 1.837.92 5.513-.921 6.126.307-1.838-.921-5.514.92-6.126zm-3.991 2.756c.307-.918-.613-3.063.614-3.063.307.613.921 3.37-.614 3.063zm-2.762-.306c.307-.92-.614-2.757.614-2.45 0 .306.306 2.45-.614 2.45zm-2.456-2.45v2.756h-.614c.307-.919-.306-2.756.614-2.756zm-2.762 2.756c-1.228 0-.614-2.756-.307-3.063.92 0 .614 2.757.307 3.063zm-2.763 8.27c-1.228-.918-.307-3.063-.92-4.288.306-2.144-.308-5.207.306-7.045.921-.306.614 1.838.614 1.838.307 3.676.307 6.739 0 9.495zm-3.069-8.576V2.63c.92 0 1.534 3.063 0 2.757zm-2.149 0c-.92 0-.614-2.45-.307-2.757 1.228-.306.614 2.45.307 2.757zm-3.683 0c.307-.919-.307-2.45.307-2.756.92-.307.92 3.063-.307 2.756zm-2.456-.307c-.92.307-.614-2.45-.307-2.756.921 0 .614 2.45.307 2.756zm-3.376-2.756c-.307 1.838.92 5.513-.921 6.126.614-1.838-.92-5.514.92-6.126zm-2.456.306c0 .918.307 2.144-.307 2.756-.92 0-.92-3.063.307-2.757zm-3.683 2.45c-.921 0-.614-2.45-.307-2.756 1.228-.307.92 2.45.307 2.756zm-3.99.001c-.921 0-.921-3.063 0-2.757.307.613.614 2.144 0 2.757zM4.763 5.08c-1.842 0-.307-1.837-.614-2.756.92 0 .307 1.531.614 2.756z" fill="#fff"/></svg>