<svg width="60" height="100" viewBox="0 0 60 100" fill="none" xmlns="http://www.w3.org/2000/svg"><path fill-rule="evenodd" clip-rule="evenodd" d="M20.668 21.828c.066-.945.45-1.402.77-2.082.632-1.121.519-1.144.058-1.254-.55-.14-1.176-.043-1.52-.293-.5-.36-.703-1.16.266-1.152 2.89.031 5.664 2.148 7.492.453.75-1.293.325-1.652-.308-1.96-.461-.22-1.094-.286-1.422-.727-.332-1.262 1.703-.368-3.434-2.833-.566-.44.117-1.109.66-.878l3.793 1.62c.485.169 1.122-.023.243-1.82-.383-.925-3.817-2.37-2.664-3.375.976-1.07 1.789 1.18 3.332 1.762.574.211.617.117.609-.527-.016-1.813-.207-4.196-.09-5.57.082-.903.16-1.395.418-.25.77 3.425.902 1.828 2.203 2.156.703.183.762.293.2.601-1.16.633-1.547.88-1.419 3.2.11 2.972 1.696.652 2.582.945.86 1.144-3.433 1.312-1.738 3.86.395.566 1.02.76 1.594.69 1.863-.25 3.348-2.69 4.277-1.05.301.844-2.34.808-2.289 1.37-.117.427 1.77 2.45 1.063 2.657-2.032-.726-.926-1.703-2.84-1.71-.375 0-.695-.016-.938.265-.492.828-.601 1.78-.425 2.808.082.453.41.72.703.926 1.82.559 5.402 1.004 4.98 2.137-.75.879-1.96-.637-3.808-.324-.684.117-1.364.293-1.828 1.07-.512.867-.536 1.828-.211 2.95.808 1.253 2.53 1.753 3.675 2.874.227.332-.023.395-.36.39-3 .266-2.105 3.825.794 3.106 1.71-.426 2.883-2.261 4.434-2.305 1.437-.042.867.337.277.88-3.133 2.89-.727 3.156 1.46 2.265.75-.258 1.278-.277 1.907-.41.234-.05.492-.125-.09.21-2.473 1.438-2.172.403-2.363 4.528-.008.227.043.785-.2.703-1.128-.468-.199-1.476-1.226-1.87-.309-.118-.711-.325-1.035.108-2.047 2.766 2.957 4.051 1.902 5.766-1.129.543-1.238-.695-2.941-.094-.461.16-.578.41-.418.875 1.043 3.008 7.61.235 8.246 2.02.902 3.515-.969 1.238-3.051 3.183-.395.375-.477.868-.418 1.422.176 1.723 1.477 2.305 2.504 3.192 2.164 2.406-.09 1.652-1.629 1.812-.574.059-.703.317-.691 1.086.035 3.39 4.468 4.227 6.09 7.309.3.578.292.675-.141.636-3.184-.273-3.117-.918-3.281 2.891-.016.317.007.434-.47.258-.91-.332-.132-.91-1.444-1.203-.743-.16-.91.05-1.278.594-2.633 3.882 1.121 5.253 3.016 6.75.695.55.508.636-.117.953-.75.383-1.535.383-1.203 1.695.285 1.152 1.585 1.344 2.898 1.894 2.156.903 4.258 2.02 5.164 3.903-1.02 1.41-1.187.152-1.644 1.863-.317 1.84 6.625.895 9.714 4.742.153 1.606-2.207.617-3.172 2.422-.625 1.344.243 2.664-.734 4.93-6.172 2.566-4.535-6.098-11.434 1.219-3.95 4.191-9.281-2.09-12.527-.903-3.59 1.254-7.46 6.348-11.504 1.961-4.621-4.636-7.894 1.051-11.55 1.446-1.06.117-.868-.192-.677-1.196.25-1.344.778-1.879-.683-2.875-1.535-.793-3.235-.691-4.703-.886-1.086-.149-1.18-.493-.512-1.57.512-.821 1.488-1.247 2.7-1.548-.712-4.336 1.077-2.254 1.503-4.535.125-.683-.031-.852-.625-1.05-1.402-.462-2.863-.278-2.156-1.798.734-1.058 2.883-.285 4.953-1.593 1.004-.637 3.172-2.137 2.078-3.602-1.586-1.395-2.574 1.168-3.91-.383-1.13-2.746 6.992-5.289 6.39-9.387l-1.57.032c-.96.015-1.121.175-.637-.934.332-.754.696-.984.618-2.687l-3.508.625c-1.563.277-1.512-.133-.344-1.285.75-.743 1.84-1.352 2.691-2.07 2.004-1.688 1.72-1.93 3.2-4.087 2.37-3.457 6.925-2.922 4.218-8.937-.91-1.594-1.293 2.347-2.097 1.129-.383-.653-.485-2.465-1.137-1.965-1.102.652-3.23 2.789-3.3 1.953-.302-3.559 2.882-1.203 4.468-4.387 1.652-3.324 1.777-3.347.242-3.836-.992-.316-3.066.067-1.226-1.27.992-.718 2.246-1.839 2.097-2.698-.175-.5-1.36.058-2.312-.418-1.297-.637-.375-1.051.511-1.235 1.79-.367 4.31-.207 5.997-1.168 1.234-.703 3.476-3.242 3.308-5.043-1.605-.367-3.851.778-5.414 1.711-1.168.696-.578-.574-.375-1.027l.45-1.027c-1.856-.938-2.973.218-2.505-1.122 1.137-1.32 3.626-.332 6.09-.875 2.656-.578 4.078-.511 4-3.09-.168-1.167-4.066.333-2.863-1.05.828-.567 3.758.094 3.559-.844-.375-3.176-2.817-3.058-4.493-1.836-.336.242-1.503 2.149-1.52 1.102l.025-.004zm18.207 14.953c.75.031.945 1.219 1.418 1.828.375.324.945.586 1.027-.402.133-1.805-.785-3.39.762-4.344 1.422-1.004 2.34-.219 2.555-1.77.148-1.078.066-1.136-1.059-1.058-1.312.094-2.379.808-3.894 1.27-.528.16-.551.21-.258-.31.77-1.37 1.629-1.109 1.894-1.952.25-.817.153-1.18-.652-1.262-3.176-.332-5.973 4.094-7.3 1.227-.513-1.168 2.75.449 2.581-.953-.273-2.907-4.226-2.215-4.261-5.036-.051-3.875 4.242-.133 5.73-1.797.45-2.625-4.621-2.039-5.336-4.117-.316-.918.09-2.144 1.219-1.168.61.527.851 1.387 1.965 1.07 1.78-.5.375-2.246-.192-2.988 1.762-.8 3.04-.844 1.871-2.75-1.086-1.422-3.476 2.063-5.203 1.262-.46-.211-.675-.52-.594-1.035.227-1.48 2.247-.762 2.012-2.75-.242-1.84-2.508.558-2.73.043-.14-1.051.05-2.157.558-2.934.961-.937 2.598-1.512 1.535-2.195-1.46-.86-.816-.176-2.488-.032-.668-.125.16-4.585-.441-4.652C27.18.914 27.84 5.14 27.992 7.91c.035.636.024.617-.426.242-.808-.676-1.82-1.469-2.882-1.563-.754-.066-1.137.032-1.094.86.074 1.57 2.547 2.664 2.965 4.219-2.38-.684-3.594-1.797-4.52-.403-.668 1.461 1.805 1.778 2.582 2.348 2.113 1.813-.191.512.735 2.047 1.437 1.176.519-1.188 1.828.695.082.117.117.317.023.461-1.621 1.84-4.91-1.094-8.086-.148-.41.125-.66.39-.324 1.168.332.754.82.926 1.586 1.32.668.344.703.234.394.879-.351.734-.734 1.363-.754 2.098-.03.968.235 1.12 1.079.652 1.394-.785 2.171-3.11 4.519-1.277.332.308-.008.668-.82.933-2.078.559-2.614-.226-2.715 1.703.066 1.102 3.465-.285 3.105 1.02-2.148 3.785-10.332-1.102-10.28 4.336.015.91 2.503-.258 2.23.558-.477 1.63-1.54 1.79-.934 3.559.258.96 4.852-2.313 5.645-2.625 1.086-.434 1.144-.492.566.574-2.75 5.047-8.445 2.43-9.98 4.317-.844 1.488.902 2.23 2.172 2.656-.668 1.05-2.106 1.902-2.262 2.93-.258 1.664 1.687 1.003 3.05 1.18-.835 2.429-.925 3.23-3.347 3.948-1.527.453-3.176 2.032-2.355 3.91.945 1.239 3.082-1.62 3.824-1.058l1.41 2.547c.754 1.445 1.176-2.113 1.762-2.149 1.418 5.504-1.504 2.43-5.239 8.63-2.863 4.753-7.828 5.43-6.015 7.402 1.226 1.02 2.457-.035 4.586-.075-.352.86-1.422 2.114-1.063 2.79.711 1.328 1.645.316 2.832.3-.031 3.281-8.777 6.364-6.082 9.246 1.379 1.477 1.703.168 3.742.301.36 4.285-8.187 1.93-7.285 5.664.469 1.477 1.313.996 2.73 1.703.676 1.137-.925.461-1.937 3.45-.543 1.777-3.234 2.37-2.496 4.035.836 1.879 1.664.176 6.39 2.406.243 3.594-1.577 5.438 3.758 2.797 1.63-.938 4.696-2.758 6.793-1.863 4.309 2.047 2.246 6.121 12.246.55 3.067-1.914 4.153-.937 6.723.168 1.856.961 5.445 1.586 7.242.293 1.395-1.086 2.473-4.351 5.512-3.418 1.078.383 1.02 1.11 2.723 1.79 1.351.5 3.777.933 4.093-.176l.692-5.614c.191-1.219 1.605-.683 2.48-1.605.762-.817.696-1.203-.093-1.989-1.645-1.62-5.614-2.804-7.953-3.449-.735-.199-.868-.148-.25-.886.828-1.004 2.238-1.996-1.211-4.403-1.36-.945-3.692-1.797-5.137-2.625-.258-.148-.711-.316-.184-.675 1.856-1.254 2.438-2.165-.336-3.852-2.207-1.344-3.23-1.305-1.988-4.61.918-.734 2.09 2.204 2.906 1.036.36-1.036.176-.961.336-1.856.336-1.16.024-1.07.727-1.328 1.422-.492 1.746.938 2.98-.851.91-2.172-7.507-6.59-6.187-7.88.953-.933 2.906 1.012 2.867-1.226-.266-2.73-2.95-2.144-3.016-5.262-.007-.293-.05-.535.461-.836 1.961-1.136 3.184.082 2.723-3.933-.227-1.364-6.43.183-7.61-.969-1.218-1.535 2.04 1.043 2.95-1.21.996-2.216-3.426-3.384-2.23-5.028l.007-.008z" fill="#FEBA95" stroke="#FEBA95" stroke-width=".2"/></svg>