<svg width="80" height="69" viewBox="0 0 80 69" fill="none" xmlns="http://www.w3.org/2000/svg"><path d="M62.86 43.302c-.118.22-.214.451-.284.693-.199 1.479-.402 2.96-.566 4.442-.161 1.464-.258 2.935-.42 4.399-.161 1.453.392 2.744.858 4.053.322.9-.237 2.234-1.03 3.022-1.606 1.598-3.113 3.299-4.638 4.98-.094.211-.14.443-.13.673l.194.094 4.454-4.83.233.565c1.381-1.468 2.716-2.857 4.006-4.286a.738.738 0 0 1 .9-.308c1.013.403 1.825.03 2.584-.62a26.045 26.045 0 0 0 5.57-6.298c.167-.277.43-.496.605-.77h-.002c.15-.284.28-.58.387-.882a3.418 3.418 0 0 0-.552.141c-1.068.577-2.12 1.183-3.201 1.732a11.2 11.2 0 0 0-3.68 3.307 3.123 3.123 0 0 0-.505.83c.381-1.559.862-3.1 1.116-4.678.249-1.56.266-3.156.391-4.814 1.311.588 2.606.845 3.435-.583.664.133 1.338.208 2.014.218 1.24-.09 1.67-.957 1.452-2.246-.099-.59-.202-.98.52-1.306.759-.342.83-1.58.242-2.206-.272-.29-.582-.54-.881-.816.292-.814.763-1.628.283-2.492-.513-.924-1.451-.793-2.297-.733-.357-1.765-1.63-2.674-3.339-2.42v.002a1.624 1.624 0 0 0-.6.328c-.079.087-.15.18-.212.28a4.205 4.205 0 0 0-.553 1.328 2.497 2.497 0 0 0-3.245-.717 2.565 2.565 0 0 0-1.219 1.385c-.162.537.134 1.213.24 1.9h.002c-.138.07-.283.13-.428.18a1.127 1.127 0 0 0-.88.776c-.127.4-.02.837.279 1.136a6.7 6.7 0 0 1 .706.781c.23.315.364.69.386 1.08a2.115 2.115 0 0 0 1.925 2.439 1.62 1.62 0 0 1 1.49 1.703 18.107 18.107 0 0 1-.677 6.385 25.715 25.715 0 0 1-1.79 4.171 11.418 11.418 0 0 1-1.573 1.87c1.678-4.94.24-9.324-1.57-13.888zm9.493-.63l-.004-.262c2.075-.53 2.673-3.783 1.434-5.282h-.002a5.754 5.754 0 0 0-3.416-2.002 2.443 2.443 0 0 0-2.646 2.047c-.078 2.041 1.02 2.96 2.836 3.442a1.913 1.913 0 0 0 2.158-1.552c.166-1.202-.483-2.064-1.834-2.434a2.277 2.277 0 0 0-2.477 1.348c-.186-1.237.81-2.508 1.892-2.345a4.275 4.275 0 0 1 3.422 2.609c.707 1.568-.541 3.748-2.253 3.689-2.138-.075-3.599-1.16-4.614-2.947a3.562 3.562 0 0 1-.252-2.465c.125-.708.806-.784 1.286-1.09.139-.087.297-.147.427-.246 2.057-1.557 6.241.274 6.335 2.968.062 1.764-.201 3.318-1.705 4.43h-.002a1.407 1.407 0 0 1-.584.092zm-9.155 3.277v.002c.958 2.2 1.44 4.582 1.41 6.983-.062.84-.184 1.675-.368 2.496a4.861 4.861 0 0 1-.318.732c-.136.355-.25.719-.371 1.08l-.25-.059c-1.883-3.708-1.074-7.466-.103-11.232v-.002zm3.367 10.296c2.099-2.511 3.813-5.38 7.338-6.312-.24.485-.528.946-.857 1.376-1.376 1.46-2.756 2.925-4.222 4.297-.58.543-1.305 1.14-2.259.639zm6.554-21.37c-.819-.278-1.587-.527-2.347-.8v-.002a6.168 6.168 0 0 1-.69-.346c.198-.323.321-.819.604-.937 1.258-.53 2.664.68 2.433 2.085zm-4.61-.608c-.81.882-2.313.817-2.607 2.233-.796-.803-.713-1.583.174-2.478.538-.547 1.715-.449 2.436.243l-.002.002zm3.505 9.572a1.44 1.44 0 0 1-1.203.831 2.352 2.352 0 0 1-2.237-1.148 1.984 1.984 0 0 1-.061-.86l3.501 1.178zm2.96-2.525c.624.613.782 1.744.325 2.204h.002a1.621 1.621 0 0 1-2.275-.021l1.948-2.183zm-5.453-2.363a.822.822 0 0 1-.435-.59.82.82 0 0 1 .208-.706 1.647 1.647 0 0 1 1.755-.395c.572.123.995.606 1.042 1.19a1.447 1.447 0 0 1-.66 1.46c-.26.188-.587.265-.904.214a1.2 1.2 0 0 1-.789-.49c1.129-.02 1.633-.517 1.495-1.5-.058-.42-.205-.813-.74-.74-.79.103-1.142.715-.972 1.557zm-2.488 3.634a6.958 6.958 0 0 1-1.296-1.03 1.015 1.015 0 0 1 .183-.943c.3-.316.597-.084.828.267.2.303.52.525.749.813.138.211.258.435.356.669l-.82.224zm8.266-3.953c.885-.064 1.195.129 1.275.779v-.002c.047.29-.026.586-.2.82a1.093 1.093 0 0 1-.723.435c-.432.1-.55-.058-.495-.47.065-.504.095-1.012.143-1.562zm.001-1.242c-.45-.705-.879-1.376-1.32-2.07.597-.168 1.223-.35 1.71.26.342.428.128 1.284-.39 1.81zm-10.036-.277l.285.072c.21.489.37.994.474 1.515-.2.228-.461.394-.75.48a3.392 3.392 0 0 1-.794-1.282c-.044-.19.505-.518.784-.783l.001-.002zm4.323 5.387l.108-.294c.617.089 1.235.165 1.846.28l-.002-.001a.8.8 0 0 1 .269.311.829.829 0 0 1-.353.257c-.628-.161-1.246-.363-1.868-.553zm-2.34-1.694l.157-.151 1.919 1.391-.163.212c-.638-.483-1.275-.968-1.914-1.454l.001.002z" fill="#FEBA95"/><path d="M62.902 34.14c-1.48.635-2.642 1.691-3.699 2.854.211-.74.423-1.585.634-2.325.317-1.48.528-2.959.528-4.544v-2.536h.106c.951-.212 1.163-1.797 1.48-2.642.422-1.163 1.162-3.276.317-4.544-.317-.423-.529-.423-1.057-.528-.423-.106-.529-.212-.74-.529-.211-.211-.317-.423-.634-.528-.74-.212-1.057.528-1.268 1.162-.211-.211-.423-.528-.74-.634-.317-.105-.634-.105-.95.106-.74.422-1.269 1.373-1.375 2.219-.105 1.268.74 2.536 1.48 3.487.634.74 1.69 2.22 2.747 2.325v1.162c0 .846.106 1.797 0 2.642-.105 1.691-.422 3.276-.74 4.861-.528-1.796-2.747-4.966-4.015-3.698-.634.634-.211 1.796.211 2.43.74 1.374 1.797 2.642 3.276 3.065-.95 2.747-2.325 5.39-3.698 7.926-1.48 2.642-2.43 5.812-3.17 8.876-.318 1.586-.423 3.488-.106 5.178-.423-.74-.846-1.48-1.057-2.219-.634-2.219-.951-4.438-1.057-6.657-.105-2.008-.211-4.016-.211-6.13v-4.86c.95-.212 1.902-1.057 2.43-1.586.634-.528 1.903-2.219 1.374-3.17-.634-1.057-1.902.317-2.325.74a6.426 6.426 0 0 0-1.585 2.536c-.211-2.748-1.268-5.495-2.536-8.031.951-3.17 1.268-6.552 1.268-9.934h.106c1.056-.106 2.008-.74 2.747-1.48.634-.634 2.114-2.113 1.374-3.276-.74-1.056-2.008.317-2.536.846A6.716 6.716 0 0 0 48 19.029c0-.317-.105-.634-.21-.846-.212-3.17-.952-6.235-2.326-9.088.212-.845.529-1.48.634-2.325.106-.95 0-1.796-.211-2.642-.211-.845-.846-3.381-2.008-3.381-.317 0-.423.317-.634.422-.106.529-.317.74-.634.74a1.457 1.457 0 0 0-.423-.317c-.211 0-.211-.106-.528-.106-.529.106-.74.74-.846 1.269-.528-.423-1.056-.423-1.69 0-.846.528-1.163 1.268-.74 2.219.74 1.48 2.113 2.853 3.382 3.804.845.634 2.007 1.48 2.958.951a22.41 22.41 0 0 1 2.22 7.291c-.318-.422-.529-.845-.846-1.162-.528-.634-1.902-2.008-2.642-1.057-.845.951.423 2.853 1.057 3.699.528.74 1.057 1.268 1.796 1.69l.951.635c0 3.17-.422 6.34-1.162 9.405-.317-.74-.74-1.374-1.057-2.114a82.211 82.211 0 0 0-2.959-5.178c-.528-.845-1.268-1.585-2.007-2.325-.317-.317-.635-.74-.952-1.056.106-.106.106-.212.106-.317-.422-1.586-.422-3.276-.95-4.862-.318-.845-.635-3.17-1.903-3.276-.423 0-.528.106-.74.423-.105.106-.211.423-.317.528-.105 0-.528-.105-.634-.105-.95-.106-1.057.423-1.057 1.057-.422-.317-.74-.529-1.268-.423-.422.106-.74.528-.95.845-.635.951-.318 2.008.316 2.96.846 1.373 2.22 2.43 3.593 3.064.846.422 2.22 1.056 3.065.528.317.423.634.74.95 1.057.74.74 1.48 1.48 2.009 2.325.211.211.317.528.422.74-.317-.212-.528-.423-.845-.635-.845-.528-1.796-1.162-2.853-1.268-.74-.105-2.536.317-2.008 1.48.211.528.95.95 1.374 1.162.845.529 1.69.74 2.642.846.422 0 1.585.105 2.324-.212l.106.106h.106c.74 1.268 1.373 2.536 2.113 3.91.317.634.634 1.268.951 1.796-.105.423-.317.951-.422 1.374-.212.846-.529 1.69-.74 2.536-.423-.105-.74.106-1.057.634-.423.74-.106 1.48.423 2.22-1.057 5.072-1.163 10.462 1.056 15.534.846 1.902 2.114 3.593 3.276 5.284.634.95 1.374 1.796 2.008 2.642.423.528.846.95 1.268 1.373-.634-.422-1.162-.845-1.796-1.268-1.268-.74-2.43-1.48-3.593-2.43-2.325-1.797-4.333-4.544-5.495-7.186-.106-.106-.106-.317-.212-.423.318-.211.529-.528.74-.846.317-.422.634-.845.846-1.268.422-.845.528-2.113-.106-2.959h-.211c-1.268.529-1.903 2.008-2.008 3.488-.74-1.797-1.374-3.593-2.325-5.284-.423-1.48-1.374-2.642-2.325-3.699-.106-.211-.317-.317-.528-.528v-.106c-.106-1.48-2.96-8.77-5.073-6.763-.422.423-.422.846-.634 1.268-.211.317-.105.212-.528 0-.106-.105-.317-.105-.423-.105-.845.105-.74.74-.422 1.373-.423 0-.74.212-1.057.529-.634.74-.212 1.48.317 2.113 1.69 2.008 4.332 2.536 6.552 1.48.634.528 1.162 1.162 1.69 1.796 1.057 1.163 1.903 2.43 2.642 3.804.423.846.846 1.797 1.163 2.642-.634-.634-1.374-1.268-2.114-1.585-.845-.317-2.113-.317-2.642.528-.634.952 1.057 2.22 1.691 2.642 1.268.846 2.642 1.374 4.122 1.374h.105c.317.634.634 1.374.951 1.902 1.268 2.325 2.96 4.544 4.967 6.13 1.163.95 2.43 1.69 3.593 2.43.528.317 1.057.74 1.585 1.057.423.317 1.163.634 1.48.95.105.106.21 0 .21 0 .107.212.635-.316.53-.528 0-.105-.106-.105-.106-.211.105-.106.211-.211.105-.317v-.211c0-.106-.105-.106-.105-.212 0-.105-.106-.105-.106-.105-1.585-3.065-1.268-6.658-.317-9.828.211-.634.423-1.374.634-2.008.317.211 1.162 0 1.48 0 1.373-.211 3.17-.634 3.91-2.008.74-1.268-.952-1.796-1.903-1.585-.74.211-1.373.634-1.902 1.057-.423.423-.74.95-1.162 1.48.211-.53.317-1.057.528-1.48.634-1.691 1.69-3.17 2.43-4.755.846-1.797 1.586-3.488 2.22-5.284.95.317 2.536 0 3.17-.106 1.162-.317 2.853-1.48 3.065-2.748.317-1.479-1.48-1.373-2.22-.95zm-6.658-11.2a2.813 2.813 0 0 1-.317-1.269c0-.422.106-.74.317-1.056a9.127 9.127 0 0 1 1.057-.634c.528 0 .74.74 1.162.95.212.106.423-.21.423-.317.106-.528.423-1.056.951-.528.106.106.211.529.423.529.528.317.845-.212 1.268.317.74.845.317 2.324.106 3.276-.106.528-.317 1.056-.423 1.479.106-.211-.529 1.374-.634 1.374-.106-.106-.212 0-.317 0 0-.106-.106-.106-.106-.212v-.211c0-.634.74-2.748-.106-3.17-.317-.106-.634.211-.74.422v.106c-.316-.423-.74-.74-1.056-.211-.211.422.106 1.056.317 1.48.211.528.528.95.74 1.373-1.163-.634-2.642-2.748-3.065-3.699zM40.604 6.77c-.422-.528-.845-1.056-1.268-1.69-.105-.212-.211-.318-.317-.529-.423-.634 0-1.162 1.057-1.48.423.106.74.529.95.952.107.317.53-.212.53-.423-.212-.74-.212-1.374.528-1.268.211 0 .317.211.528.106.634-.106.846-1.374 1.585-.423a6.993 6.993 0 0 1 1.268 3.487c.212 1.268-.105 2.22-.422 3.276-.106-.106-.106-.211-.212-.423v-.211c-.105-.528-.317-1.057-.422-1.585-.106-.423-.212-.846-.634-1.057-.106 0-.317.106-.317.106-.212.211-.212.317-.212.634-.317-.317-.634-.529-.95-.317-.74.423.105 1.162.422 1.585.317.423.95 1.268 1.585 1.268l.317.634c-1.162.317-3.382-1.902-4.016-2.642zm8.983 10.673c.21-.211.422-.422.633-.528.423-.529.846-.317 1.374.423 0 .528-.74 1.48-1.162 1.902-.423.422-1.48 1.162-2.22 1.162h-.105c.211-1.162.74-2.219 1.48-2.959zm-3.17 1.902c-.74-.634-1.48-1.479-1.903-2.43-.211-.317-.423-.846-.423-1.163.106-.95.74-.422 1.163 0 .74.634 1.268 1.48 1.585 2.431a5.2 5.2 0 0 1 .423 1.162v.634c-.317-.21-.634-.528-.846-.634zm-10.78-.74a13.755 13.755 0 0 1-2.43-1.902c-.529-.528-1.057-1.162-1.269-1.902-.211-.634-.211-2.113 1.163-1.585.211.106.422.423.74.529.21.105.422-.212.422-.317.106-.529-.105-.952.634-.846.212 0 .423.106.634.106.212-.106.317-.212.423-.317.317-.211-.106-.317.423-.317.317 0 .422.211.634.528.74 1.057 1.057 2.642 1.374 3.91.21.846.21 1.69.422 2.642-.211-.317-.528-.634-.74-.951-.105-.106-.105-.317-.105-.423-.106-.422-.317-.74-.423-1.162-.105-.212-.317-.529-.528-.634-.212-.106-.423.105-.529.211-.105.106-.105.211-.105.423-.106-.106-.212-.106-.212-.212-.317-.105-.422-.105-.74 0-.105.106-.316.317-.316.423.105.634.95 1.268 1.373 1.69.423.318 1.057.846 1.691.74.106.212.317.318.423.529-.951-.211-2.536-.951-2.96-1.162h.001zm6.023 6.447c-.634 0-1.162 0-1.796-.106-.845-.211-2.22-.634-2.747-1.48-.529-.845.845-.845 1.373-.633.423.105.951.317 1.374.634.634.317 1.162.634 1.796 1.056.212.106.423.317.529.529-.106-.106-.317 0-.529 0zM29.085 39.847c-.634-.317-1.163-.74-1.69-1.268-.212-.211-.424-.422-.53-.634-.528-.74.212-1.48.952-.95.211.105.634-.318.528-.53.317.53-.528-.845-.528-.845-.212-.211-.106-.317.211 0 .106 0 .106.106.212.106a.799.799 0 0 0 .422.106c.529-.106.529-.634.74-.951.211-.317.528-.634.74-.951.211.105.317.211.528.317.317.211.634.528.845.845.423.528.846 1.163 1.163 1.797.528.95 1.057 2.007 1.268 3.064l-.106-.106c0-.105 0-.211-.21-.105-.212-.212-.424-.317-.635-.423h-.106c-.105 0-.211-.106-.317-.106a9.645 9.645 0 0 0-.845-1.373c-.211-.212-.423-.846-.846-.846-.21 0-.528.317-.528.529 0 .105.106.317.106.422-.317-.105-.529-.211-.846 0-.317.106-.634.529-.422.846l.317.317c.105.105.211.211.317.422.211.212.528.317.74.317.528.106 1.162.212 1.796 0 .106.106.211.106.423.212-1.163.422-2.537.422-3.699-.212zm2.43-1.056c.106 0 .106 0 0 0 .106 0 .106 0 0 0 .106 0 .106 0 0 0zm-1.796-.423c-.106 0-.106 0 0 0zm10.885 10.356c.105-.423.95-2.536 1.268-1.48.211.529.106 1.48-.106 2.008-.211.529-.528.845-.845 1.268-.106.106-.317.317-.423.529-.211-.212.106-2.114.106-2.325zm-3.382 1.48a9.12 9.12 0 0 1-1.69-1.058c-.212-.211-1.163-.95-1.057-1.268.105-1.69 3.064.529 3.381.846.74.634 1.268 1.373 1.797 2.113-.846 0-1.585-.211-2.43-.634zm11.308-10.04c-.952 0-1.797-.634-2.537-1.163-.422-.317-.95-.95-1.373-1.48.105-.528.211-1.056.317-1.479.422.317.95.74 1.162.951.74.952 1.268 2.008 1.902 3.065.106.106.212.106.317 0 .106 0 .106.106.212.106zm3.17-4.333c.211.317.422.529.74.846-.106.21-.106.422-.212.528-.211.528-.528.951-.95 1.374-.318.211-.74.422-1.058.634-.105 0-.528.211-.74.317.106-.74.423-1.374.846-2.008 0-.317.951-1.69 1.374-1.69zm-5.39-4.016c1.057 2.431 1.902 4.862 2.22 7.504-.635-1.057-2.008-3.488-3.17-4.122.21-1.056.528-2.219.95-3.381zm-2.008 4.862c-.21-.74 0-.952.318-.846-.106.317-.212.74-.317 1.057v-.211zm5.179 22.191c-1.269-1.69-2.537-3.487-3.488-5.39-1.69-3.381-2.113-7.185-2.008-10.884.106-1.48.212-2.96.529-4.333.211.212.317.423.422.529.846.95 2.22 2.113 3.593 1.796v.423c-.105 4.015 0 8.031.423 12.046.212 1.797.529 3.91 1.163 5.601.317.74.74 1.48 1.162 2.114 0 .105.106.105.106.21-.634-.633-1.374-1.267-1.902-2.113v.001zm8.136-11.307c2.114.95-1.056 2.113-1.585 2.325-.105 0-1.796.422-2.113.21.211-.316.422-.633.634-.845.528-.95 1.902-2.324 3.064-1.69zM56.455 35.62c-.317-.317-1.797-2.325-1.163-2.748.846-.634 2.96 3.065 3.276 4.227-.105 0-.105.106-.211.211-.74-.317-1.374-.95-1.902-1.69zm7.82-.317c-.318 1.585-1.797 2.007-3.276 2.113-.318 0-1.057.106-1.586 0 .634-.74 1.269-1.374 2.114-2.008.317-.211.74-.528 1.057-.634.317-.211.74-.317 1.162-.317.74-.106.845.211.529.845z" fill="#FEBA95"/><path d="M38.904 33.42c-.291 1.5-.154 3.083-.539 4.61-.358 1.62-.958 3.105-1.677 4.522-.626 1.39-1.157 2.755-1.568 4.187-.083.429-.193.763-.276 1.192-.441-2.31-1.285-4.607-2.291-6.76a32.035 32.035 0 0 0-3.293-5.263c.068-.12.162-.146.042-.214-1.885-3.123-3.175-7.02-3.394-10.709.188-.052.35-.198.324-.293l-.052-.188c.255-.172.417-.319.579-.465.835-.639 1.577-1.251 2.051-2.093.746-1.323 1.157-2.755 1.354-4.229.072-.83.118-1.756.096-2.56-.048-.9.066-1.945-.076-2.817-.079-.282-.59.063-.632.278-.322 2.116-2.102 3.728-3.092 5.626.186-1.876.492-3.685.181-5.524.35-.199.742-.612.61-1.082.005-.71-.42-1.505-1.104-1.415-.616-.03-1.143.623-1.054 1.308.064.59.45.888.88.97l.026.095.026.094s.026.094.12.068c.284 1.745.046 3.433-.072 5.189-.073.83-.239 1.688-.311 2.519a.21.21 0 0 0-.136.24l-.111-1.489c-.074-.993-.337-1.933-.505-2.9-.363-2.027-.835-3.72-1.668-5.615.23-.267.098-.737-.033-1.207-.304-.726-1-1.039-1.631-.761-.256.173-.606.372-.715.706-.11.335.021.805.194 1.06.105.377.398.7.8.69.309.015.565-.158.847-.237.885 2.084 1.369 4.18 1.784 6.394.09.685.247 1.249.242 1.96l-.052-.188c-1.021-1.844-2.784-3.075-3.428-5.023-.053-.188-.685.09-.633.277.484 2.095.632 4.08 1.465 5.977.556 1.263 1.599 3.912 3.193 4.176.035 3.031.953 6.322 2.357 9.174-2.983-3.425-6.451-6.41-9.867-9.207-.026-.094-.026-.094-.12-.068-.12-.068-.146-.162-.24-.136.094-.026.067-.12.067-.12-.22-1.154-.347-2.335-.568-3.49-.247-1.248-.776-2.418-1.211-3.615-.556-1.264-1.179-2.407-2.084-3.472-.958-1.253-2.119-2.146-2.915-3.545-.146-.162-.684.09-.632.278.085 1.395.479 2.805.82 4.028.446 1.598.892 3.197 1.5 4.649.356.914.833 1.896 1.377 2.757a42.654 42.654 0 0 1-1.705-1.754c-1.465-1.618-2.486-3.461-3.251-5.477.188-.053.255-.173.443-.226.23-.266.245-.575.167-.857-.011-.402-.022-.805-.477-.982-.24-.135-.429-.083-.59.064.067-.12-.053-.188-.24-.136-.66.184-.93.665-.867 1.255.037.496.262.94.785.997.896 2.487 2.09 4.586 3.916 6.407.026.094.12.068.147.162-.215-.041-.455-.177-.67-.219l-.643-.124c-.36-.204-.627-.433-.894-.663-2.536-1.826-4.75-3.945-6.315-6.65.162-.147.204-.36.245-.575.015-.309.099-.737-.074-.993s-.507-.365-.748-.5c.068-.121.042-.215-.146-.163-.753.21-1.264.556-1.337 1.387-.083.428-.046.925.247 1.248.267.23.576.245.858.166l.47-.13c1.487 2.422 3.365 4.432 5.635 6.028.24.136.48.272.748.501-.617-.03-1.26-.155-1.903-.28-1.406-.317-2.827-.326-4.056-1.098-.214-.041-.726.304-.486.44 1.27.558 2.349 1.878 3.416 2.797 1.213 1.08 2.657 1.894 4.183 2.279 1.432.41 3.042.367 4.463.376a6.64 6.64 0 0 0 1.463-.206c.12.068.214.042.402-.01l.361.203c5.644 4.608 11.565 9.847 14.85 16.532 1.429 2.946 2.321 6.143 2.743 9.47.026.095-.042.215-.015.309l.052.188c-.015.308.063.59.074.993-.015.308.064.59.048.899-.105-.377-.303-.726-.382-1.009-.702-1.425-1.566-2.705-2.524-3.958-.957-1.253-1.915-2.506-3.29-3.44-1.256-.865-3.624-1.725-4.258-3.271-.052-.188-.684.09-.605.372.607 1.452.96 3.076 1.661 4.502.728 1.52 1.686 2.773 2.832 3.974 1.025 1.132 2.186 2.025 3.441 2.89.628.434 1.282.96 1.842 1.514.387.297.68.62.905 1.065.026.094-.068.12-.042.214-.068.12.053.188.24.136.027.094.053.188.174.256-.123 2.466-.46 4.891-.703 7.29-.041.215.617.031.632-.277.243-2.4.486-4.798.635-7.17 0 0 .068-.12.041-.215a30.892 30.892 0 0 0-.026-4.452c.016-.308-.063-.59-.142-.872l-.032-1.207c-.027-.094.041-.215-.011-.403 2.01-1.878 3.595-4.55 4.684-7.185 1.13-2.85.265-5.952-.522-8.773-.32-.418-.831-.072-.805.022zM25.876 10.704c.256-.173.602.339.654.527.027.094.173.256.2.35l.078.282-.068.12-.094.026c-.376.105-.617-.03-.816-.38-.146-.162-.236-.846.047-.925zm-4.008-.2c-.172-.255-.503-1.075-.153-1.274.35-.199.79.287.962.542.053.188.226.444.184.659l.052.188c-.188.052-.255.172-.443.225-.282.079-.455-.177-.602-.34zm-.092 6.209l-.078-.282c.026.094.146.162.172.256l-.094.026zm5.587.772c.678-1.203 1.69-2.296 2.342-3.592a49.39 49.39 0 0 1-.04 2.037c-.034 1.328-.07 2.655-.533 3.9-.302 1.097-.792 2.247-1.575 3.074-.067.12-.877.852-1.32 1.078.041-.215-.011-.403-.064-.59l-.288-1.035c.098-.737.223-1.38.321-2.117.355-.91.683-1.913 1.157-2.755zm-18.665-4.42c.146.162.13.47.09.684.025.094.104.376.01.402l-.188.053-.094.026c-.094.026-.214-.041-.214-.041-.24-.136-.32-.418-.398-.7-.026-.094-.079-.282-.011-.403l.282-.078c.162-.147.35-.2.523.057zm-6.558.107a1.055 1.055 0 0 1 .098-.738c.042-.214.136-.24.204-.36.334.11.763.192.774.595.052.188.063.59-.073.83-.188.053-.35.2-.323.293-.35.2-.575-.244-.68-.62zm8.884 9.683c.094-.027.214.041.214.041l.026.094-.24-.135zm-1.249.247c.094-.026.094-.026.215.041l.12.068c-.12-.068-.12-.068-.335-.11.12.069.027.095 0 0zm-1.423-1.833c-.12-.068-.214-.041-.335-.11.094-.025.309.016.335.11.094-.026 0 0 0 0zm-1.5-.29c-.094.026-.12-.069-.12-.069a1.346 1.346 0 0 0-.455-.177l.643.125c.026.094-.068.12-.068.12zm-.857-.167c.094-.026.094-.026 0 0zm1.397 1.738c.12.068.214.042.334.11l-.094.026a.21.21 0 0 1-.24-.136zm3.447-10.893a30.744 30.744 0 0 0 1.904 2.104c.88.97 1.623 2.182 2.152 3.352.555 1.264 1.137 2.622 1.41 3.964.195 1.061.363 2.027.463 3.114-1.856-1.205-2.93-3.236-3.815-5.32-.582-1.358-.95-2.674-1.343-4.085-.288-1.034-.603-2.163-.771-3.13zM5.445 20.66c-.094.026-.188.053-.161.147-.027-.094-.147-.162-.147-.162.094-.026.188-.053.308.015zm8.758 4.144c.308.015.523.057.805-.022-.308-.015-.617-.03-.805.022zm20.131 29.653a13.953 13.953 0 0 0-1.84-1.513c-1.402-1.028-2.563-1.92-3.735-3.215-1.026-1.133-1.957-2.292-2.539-3.65-.33-.82-.687-1.734-.923-2.58.628.433 1.23.772 1.736 1.137 1.59.975 2.777 1.962 4.002 3.444.958 1.253 1.942 2.6 2.738 4 .397.7.9 1.776 1.042 2.648-.334-.11-.454-.177-.48-.271zm5.175-12.694a15.35 15.35 0 0 1-1.955 3.89c-.663.894-1.367 2.003-2.15 2.83.031-.617.182-1.166.239-1.689.385-1.526.89-2.984 1.61-4.401.625-1.391 1.25-2.782 1.635-4.308a14.41 14.41 0 0 0 .368-3.042c.603 2.163 1.045 4.472.253 6.72z" fill="#FEBA95"/></svg>