<svg width="54" height="53" viewBox="0 0 54 53" fill="none" xmlns="http://www.w3.org/2000/svg"><path d="M30.774 21.12c.815-1.288 1.85-2.121 2.543-2.595a4.887 4.887 0 0 0-.727-.752c-.491-.412-.79-.504-1.05-.863-.129-.179-.29-.48-.315-.953a17.93 17.93 0 0 1 1.561.03c1.038.067 1.135.168 1.653.093.482-.07.726-.207 1.2-.148.32.04.57.148.73.232.09.182.172.417.056.538-.146.157-.475-.014-1.09-.04-.747-.03-.906.194-1.587.146a3.088 3.088 0 0 1-1.01-.248c.21.385.45.635.623.79.393.352.692.428.751.725.046.233-.118.273-.074.604.029.221.111.277.145.577.03.28-.024.37-.05.403-.11.155-.337.187-.386.198-.554.1-1.612 1.17-2.082 1.794-.273.36-1.01 1.445-1.087 3.555-.116 3.058 1.26 5.42 2.429 7.434 1.112 1.91 2.237 3.848 4.512 5.267.011.008-.005-.001 2.666 1.43.144.078 1.578.848 3.518 1.55.682.247 1.243.419 1.844.245.618-.181.962-.641 1.14-.886 1.361-1.866 2.442-4.049 2.559-4.281 1.113-2.237 1.278-1.795 1.836-3.2.792-1.996.782-3.702.768-4.73-.029-1.908-.054-3.578-1.199-5.405a8.738 8.738 0 0 0-4.15-3.478 9.816 9.816 0 0 0-3.498-.708c.308.137 1.035.51 1.475 1.28.157.273.492.863.3 1.574-.102.378-.317.65-.459.802a11.392 11.392 0 0 0-2.395-1.836.79.79 0 0 0-.387.197c-.285.274-.18.658-.17.69-.08-.028-.39-.15-.543-.452-.15-.297-.115-.692.16-.937.326-.292.806-.213.942-.191.422.068.702.315.846.44.35.309.36.53.654.64.219.081.447.044.61-.001a2.107 2.107 0 0 0-.767-1.195c-.758-.592-1.667-.532-1.83-.518-.023-.03-.242-.343-.083-.71.158-.362.555-.461.594-.47.229.064.69.164 1.23.045.69-.148 1.081-.558 1.296-.78.886-.917.845-2.083.819-2.432-.19.214-.814.857-1.912 1.103-.256.06-1.258.258-2.333-.181a3.494 3.494 0 0 1-.95-.578c.066-.074.237-.245.53-.338.302-.094.56-.053.662-.031a.97.97 0 0 0 .202.397c.1.12.21.194.286.237.223.027.865.082 1.547-.241a2.392 2.392 0 0 0 1.157-1.135.98.98 0 0 0 .44-.03.853.853 0 0 0 .472-.355 2.635 2.635 0 0 0 .728.58c.06.42.094 1.067-.106 1.822a4.808 4.808 0 0 1-.62 1.391c1.066.375 2.813 1.14 4.413 2.654a10.617 10.617 0 0 1 3.248 6.268c.25 1.729-.022 3.024-.41 4.886-.283 1.358-.65 3.11-1.813 5.157-1.013 1.784-2.287 3.185-3.376 4.382-.454.499-.846.904-1.121 1.18-.034-.018-.501-.278-1.011-.072-.367.147-.608.477-.62.843a5.43 5.43 0 0 1-.89-.36c-.611-.317-.95-.645-1.218-.866-.707-.578-1.376-.743-2.071-1.009-1.785-.683-3.576-1.97-4.366-2.535-2.616-1.876-3.969-4.106-4.496-4.997-.802-1.35-2.109-3.615-2.122-6.704-.013-1.18.005-3.007 1.229-4.938z" fill="#FEBA95"/><path d="M34.62 19.81c.156.006.19.065.291.057.14-.013.209-.148.329-.293.152-.182.375-.352.56-.423.317-.12.746-.026 1.015.163.168.118.326.384.643.915.144.246.216.382.318.379.07-.002.129-.069.34-.49.24-.472.256-.571.398-.67a.828.828 0 0 1 .635-.136c.396.094.526.553.707 1.195.09.323.129.618-.018.886-.036.063-.101.182-.21.193-.17.017-.342-.245-.414-.396-.076-.16-.045-.205-.136-.466-.084-.244-.125-.366-.214-.382-.17-.032-.397.341-.438.408-.173.294-.125.444-.29.537-.153.085-.343.043-.424.025-.116-.026-.281-.09-.587-.42-.272-.293-.27-.382-.542-.677-.239-.262-.382-.412-.553-.398-.118.01-.148.094-.415.34-.276.254-.414.383-.573.404-.269.04-.565-.132-.679-.343-.021-.038-.12-.234-.023-.342.07-.072.219-.068.28-.066z" fill="#FEBA95"/><path d="M2.98 32.62c-.34-.198-1.565-.961-1.882-2.332-.398-1.712.724-3.944 2.76-4.227 1.378-.19 2.866.547 3.7 1.83a4.365 4.365 0 0 1 1.09-1.307c.467-.38 1.251-1.017 2.406-1.003.183.003 1.621.04 2.361 1.123.592.867.312 1.78.26 1.938a15.795 15.795 0 0 1 4.023-1.872 3.458 3.458 0 0 1-1.184-.653c-.355-.305-.372-.465-.716-.71-.395-.285-.722-.329-1.392-.516-.556-.156-1.086-.377-1.629-.562-1.466-.5-2.651-1.418-3.628-2.174-1.34-1.038-2.011-1.556-2.525-2.44-.572-.987-.734-1.966-.853-2.684-.148-.888-.227-1.368-.127-2.03.06-.388.188-.888.18-1.659a6.584 6.584 0 0 0-.036-.647c.307-.02.562-.164.651-.377a.47.47 0 0 0 .02-.282c.197.037.472.11.77.259.334.168.563.366.705.508a14.137 14.137 0 0 1-.152-1.784 12.97 12.97 0 0 1 .224-2.854c.182-.926.555-1.898 1.3-3.842a61.62 61.62 0 0 1 .521-1.329c.254.21.63.52 1.097.889 1.556 1.23 1.7 1.227 2.176 1.683.88.845 1.274 1.709 1.703 2.652.417.92.634 1.73.754 2.307.121-.17.352-.439.731-.667.31-.186.603-.277.805-.322a2.61 2.61 0 0 0 .178 1.15c.19.473.43.664.746 1.19.166.277.39.705.554 1.289-.155.169-.31.335-.464.504a2.233 2.233 0 0 0-.192-.7c-.196-.425-.461-.642-.73-.952a4.727 4.727 0 0 1-.773-1.226c-.29.325-.472.615-.583.817-.325.594-.341.98-.745 1.245-.215.14-.444.187-.595.203a1.315 1.315 0 0 0-.104-1.066c.07-.058.235-.21.265-.44.03-.225-.084-.397-.19-.554a1.569 1.569 0 0 0-.418-.414 4.33 4.33 0 0 0 .013-1.395c-.235-1.503-1.221-2.48-1.658-2.9a7.016 7.016 0 0 0-2.199-1.42 11.852 11.852 0 0 0-1.526 3.461s-.438 1.705-.199 3.557c.128.992.387 1.382.687 1.606.092.068.29.198.545.435.285.262.629.578.534.75-.072.13-.355.14-.523.122-.368-.043-.578-.294-.623-.257-.059.046.37.386.383.863.007.224-.077.502-.23.53-.168.033-.375-.248-.452-.352a1.241 1.241 0 0 1-.176-.333c-.137.033-.632.14-1.18-.077a1.705 1.705 0 0 1-.837-.695 5.918 5.918 0 0 0-.127 2.415c.06.385.239 1.278.854 2.273.608.988 1.338 1.58 1.825 1.968 1.634 1.303 2.432 1.118 4.51 2.474.398.26.878.6 1.659.891.583.219.838.226 1.276.437.624.303 1.06.753 1.374 1.206a33.072 33.072 0 0 1-.175-1.67 37.793 37.793 0 0 1-.092-1.531.845.845 0 0 0-.44-.43.965.965 0 0 0-.45-.074c-.2-.188-.5-.473-.857-.824-1.026-1.009-1.092-1.155-1.557-1.574-.553-.5-1.101-.838-2.193-1.514a34.629 34.629 0 0 0-1.943-1.117.612.612 0 0 1 .02-.411.642.642 0 0 1 .154-.224c.202.11.53.289.934.518.87.49 1.105.645 1.55.851.278.129.711.312 1.28.475a62.258 62.258 0 0 0-.751-1.487c-.706-1.354-.81-1.441-.846-1.83-.037-.388.03-.707-.198-1.146-.112-.216-.207-.286-.315-.556-.144-.357-.105-.546-.17-.835-.107-.46-.342-.584-.568-.972-.413-.714-.288-1.467-.183-2.116.06-.368.201-.919.553-1.537a1.14 1.14 0 0 1 .54.12.973.973 0 0 1 .443.447 4.272 4.272 0 0 0-.373 1.347c-.036.329-.084.773.075 1.291.157.519.379.655.63 1.112.404.735.193 1.043.408 1.956.253 1.074.66 1.142 1.186 2.419.207.5.454 1.238.57 2.197a928.575 928.575 0 0 1 2.564 2.973 10.794 10.794 0 0 1-.15-3.663 11.103 11.103 0 0 1 1.788-4.72c.664-.986 1.913-2.838 4.492-3.958a10.686 10.686 0 0 1 3.909-.854 1.46 1.46 0 0 1 .063-.678 43.516 43.516 0 0 1 3.356.012c.96.04 1.87.113 2.72.205a1.563 1.563 0 0 0-.047-.85 5.24 5.24 0 0 1 1.455.118c.453.1.609.202 1.168.414 1.275.48 1.934.728 2.56.522.528-.177.8-.599.922-.784.257-.397.269-.73.25-2.15-.02-1.444-.038-1.685.07-2.11.165-.657.48-1.155.711-1.463a12.597 12.597 0 0 0-5.642-.922c-2.297.16-3.907.916-4.247 1.083-1.127.545-1.837 1.146-2.93 2.071-.562.476-.97.867-2.714 2.66-.926.951-1.734 1.791-2.404 2.49-.315-.062-.63-.12-.944-.182a237.71 237.71 0 0 1 2.285-2.457c2.176-2.304 2.77-2.832 3.044-3.072 1.284-1.119 2.088-1.822 3.43-2.469A12.773 12.773 0 0 1 35.311.048c2.385-.206 4.196.302 5.13.574 1.316.383 2.337.876 3.03 1.263-.041.08-.21.391-.623.56-.39.16-.744.09-.844.068a3.06 3.06 0 0 0-.712 1.055c-.267.687-.103 1.105-.061 2.164.054 1.32.083 1.978-.343 2.626-.097.148-.663.976-1.695 1.158-.681.12-1.296-.09-1.726-.234a4.595 4.595 0 0 1-.989-.473.923.923 0 0 1-.046.507 1.045 1.045 0 0 1-.273.388 26.544 26.544 0 0 0-4.48-.805 16.06 16.06 0 0 1 2.576 1.283 15.26 15.26 0 0 1 1.997 1.463l.199-.193c.737.575 1.868 1.618 2.62 3.209a7.91 7.91 0 0 1 .656 2.076 1.133 1.133 0 0 1-.515.304c-.273.077-.503.04-.603.017a4.607 4.607 0 0 1-.241-.621c-.133-.431-.137-.683-.233-.696-.06-.008-.163.077-.353.546a2.421 2.421 0 0 1-.895-.392 2.11 2.11 0 0 1-.573-.617c.14.02.291.044.449.074.23.049.443.104.63.163a3.71 3.71 0 0 0-.277-1.789c-.324-.759-.822-1.215-1.32-1.66-1.297-1.158-2.694-1.721-3.387-1.96a11.253 11.253 0 0 0-3.53-.606 21.405 21.405 0 0 0 1.166 2.142l-.617.448a5.102 5.102 0 0 0-2.143-1.057 5.483 5.483 0 0 0-2.598.042c-.173-.183-.35-.366-.523-.548-.721.282-2.988 1.265-4.158 3.543a6.192 6.192 0 0 0-.676 2.501 27.113 27.113 0 0 0-.32-.183 10.17 10.17 0 0 0-.745 3.273c-.046.854-.089 1.806.353 2.95.294.763.695 1.333.994 1.7 1.018-.532 1.512-1.172 1.74-1.536.929-1.474.477-3.094.202-4.079a7.7 7.7 0 0 0-.84-1.923l1.407.607c.323.575 1.532 2.875.513 5.198-.267.608-.813 1.86-2.2 2.335a3.668 3.668 0 0 1-1.58.16c-.006.254.005.552.054.885.044.3.113.567.186.794a13.33 13.33 0 0 1 3.885 1.398c.843.465 2.886 1.623 4.15 3.782.425.729.184.581 1.56 4.16.634 1.646.67 1.64.939 2.43.473 1.395.892 2.623 1.022 4.187a12.1 12.1 0 0 1-.236 3.58l-.273.256a8.937 8.937 0 0 1-.308 4.332 9.258 9.258 0 0 1-.974 2.055l-.286-.914a18.28 18.28 0 0 0 .768-4.726 18.38 18.38 0 0 0-.338-4.067l.194-.636a35.299 35.299 0 0 0-1.53-6.635l-.409-.229c-.044-.612-.318-3.316-2.858-5.41-2.006-1.657-4.28-1.985-5.092-2.069a74.874 74.874 0 0 0 1.766 9.375c.63 2.46.89 2.92 1.632 5.692.49 1.83.83 3.323 1.035 4.26.11.33-.09.602-.277.629-.169.026-.414-.142-.483-.424-.143-.511-.36-1.286-.638-2.227-.689-2.349-1.07-3.464-1.346-4.39-.692-2.316-.61-3.08-1.198-6.25a74.124 74.124 0 0 0-1.586-6.739c-.446-.088-1.157-.163-1.927.07a3.584 3.584 0 0 0-.76.335c-.516.293-1.404.834-2.602 1.753 2.548-.56 4.834.927 5.06 2.667.176 1.363-.91 2.861-2.53 3.307-1.32.362-2.47-.12-2.83-.293.392.199 1.996 1.11 2.197 2.788.22 1.848-1.388 3.581-3.252 3.88-2.229.354-4.762-1.35-4.945-3.946-.169.078-1.89.823-3.645.003a3.696 3.696 0 0 1-2.016-2.391c-.08-.306-.263-1.06.098-1.928.49-1.173 1.65-1.686 1.92-1.796zm24.226-22.325a8.93 8.93 0 0 1 1.663.65c-.195-.29-.393-.582-.593-.875l-.404-.584a12.92 12.92 0 0 0-1.08.152c-.51.094-.964.212-1.365.336.49.04 1.099.128 1.78.32zM7.563 30.233c-.208-.703-.313-1.054-.458-1.345-.269-.536-.714-1.423-1.748-1.779-.863-.298-1.961-.162-2.702.408-1.145.88-1.03 2.48-.44 3.426.725 1.166 2.26 1.491 3.191 1.687a7.575 7.575 0 0 0 1.51.161c.064-.148.187-.388.433-.623.226-.216.46-.343.618-.41a29.41 29.41 0 0 0-.404-1.525zm.72 2.328c-.495.307-.515 1.015-.272 1.484.275.525 1.005.984 1.62.767.64-.224.865-1.08.533-1.666-.345-.613-1.313-.936-1.882-.585zm4.384-5.054c-.248-.534-.865-1.105-1.648-1.136-.78-.03-1.33.492-1.595.742a2.622 2.622 0 0 0-.79 1.623c-.02.168-.026.364.19 1.489.108.574.21 1.047.282 1.379a2.899 2.899 0 0 1 1.12.334c1-.684 1.542-1.42 1.82-1.873.47-.762 1.031-1.67.621-2.558zm.445 7.793c.606.182 1.243.373 1.921.121 1.015-.377 1.254-1.428 1.276-1.533.2-.955-.402-1.675-.583-1.873-.539-.59-1.453-1.01-2.385-.884-.5.069-1.137.313-1.476.702-.065.074-.218.268-.484.555a9.905 9.905 0 0 1-.384.394c.096.123.261.37.32.717a1.52 1.52 0 0 1-.064.752 4.81 4.81 0 0 0 1.86 1.049zm-4.727 5.44c.195.208 1.327 1.36 2.963 1.196.263-.025 1.217-.155 1.917-.892a2.44 2.44 0 0 0 .663-1.447c.118-1.163-.688-2.026-1.09-2.455-.265-.285-.842-.904-1.784-1.205-.233-.074-.346-.085-1.572-.376-.404-.096-.734-.177-.95-.23a2.13 2.13 0 0 1-.124 1.093c-.145.359-.32.492-.53.883 0 0-.293.551-.361 1.161-.13 1.183.746 2.142.868 2.272zm-5.408-3.173c.95.616 2.26.622 3.251.007a6.01 6.01 0 0 1 .546-1.504 6.41 6.41 0 0 1 .742-1.12 2.091 2.091 0 0 1-.484-.61 1.864 1.864 0 0 1-.198-.656 3.877 3.877 0 0 1-2.736-.457c-.12.021-1.524.283-2.069 1.445-.477 1.019-.062 2.241.948 2.895z" fill="#FEBA95"/><path d="M31.517 6.205a6.978 6.978 0 0 0 2.692-2.339c.058.016.32.095.47.34a.66.66 0 0 1 .091.41 8.606 8.606 0 0 1-2.974 2.127c-2.302 1.001-4.45.797-5.285.677l.543-.439c.659.069 2.522.193 4.463-.776zm15.9 16.599c.1-.248.556-.404.867-.302.569.193.552 1.233.254 1.365-.319.141-1.3-.614-1.12-1.063zm-3.112 2.403c-.355.087-1.124-.688-.88-1.113.155-.269.706-.39 1.006-.208.468.28.217 1.235-.126 1.32zm-5.672.523c-.364-.017-.848-1.172-.385-1.53.238-.184.724-.153.942.058.423.415-.199 1.489-.557 1.472zm-4.617-2.036c.243-.155.7-.06.906.165.44.481-.276 1.548-.628 1.514-.377-.035-.766-1.367-.278-1.68zm-1.724 4.777c.137-.266.636-.412.937-.274.523.242.38 1.317.042 1.422-.344.109-1.22-.684-.979-1.148zm5.685.299c.522.345.167 1.406-.177 1.464-.37.062-1.127-.97-.797-1.384.181-.224.694-.263.974-.08zm4.488.105c.205-.204.663-.236.91-.069.534.36.095 1.645-.274 1.677-.37.032-1.075-1.172-.636-1.608zm5.727.603c-.351-.016-.842-1.017-.402-1.394.245-.207.757-.207.97.005.384.375-.205 1.403-.568 1.389zm-6.491 4.086c.468.314.093 1.468-.277 1.514-.354.041-1.06-.902-.688-1.357.204-.245.71-.33.965-.157zm-4.914-.294c.68.237.648 1.717.31 1.822-.349.11-1.424-1.13-1.076-1.628.139-.204.51-.284.766-.195zm7.147 5.575c-.364.068-1.189-1.022-.825-1.48.179-.226.644-.295.914-.145.56.313.267 1.559-.09 1.625zm2.368-5.695c.237-.16.67-.137.87.054.431.417-.25 1.622-.61 1.592-.353-.031-.788-1.29-.26-1.646z" fill="#FEBA95"/></svg>