<svg width="80" height="50" viewBox="0 0 80 50" fill="none" xmlns="http://www.w3.org/2000/svg"><mask id="a" maskUnits="userSpaceOnUse" x="0" y="0" width="80" height="50"><path d="M.501.767h79.352V50H.501V.767z" fill="#fff"/></mask><g mask="url(#a)"><path fill-rule="evenodd" clip-rule="evenodd" d="M46.372 23.74c-.563.156-1.127.312-1.84.506 1.148-.964 1.57-1.047 1.84-.506zm.633 6.85c.258.582.477 1.068.759 1.695-1.228-.485-1.04-.437-.759-1.695zM21.103 47.14c-.762.08-1.378.149-2.09.225.27-.454.483-.818.73-1.234.456.34.845.627 1.36 1.009zm20.087-.465c.476.388.936.76 1.426 1.155H39.12l.01-.132c.717-.354 1.434-.71 2.06-1.023zM30.62 22.818c1.095-.195 2.069-.371 3.186-.572.205.911.406 1.792.629 2.773-1.297-.749-2.48-1.428-3.816-2.201zm12.104 1.643c-.021.045-.042.09-.06.135-.928.059-1.86.114-2.796.173-.397-.998-.803-2.017-1.245-3.12 1.395.957 2.748 1.883 4.1 2.812zm-3.541 1.054l.205 3.827c-1.089-1.02-2.02-1.89-3.085-2.88.977-.323 1.836-.608 2.88-.947zm-4.623-3.952c-.424.09-.678.052-.876-.41-.285-.662-.679-1.282-1.054-1.972.097-.014.205-.059.292-.031 1.228.378 2.46.745 3.67 1.178.267.09.445.42.737.715-1.054.194-1.917.336-2.769.52zm11.545 10.923c-.581 1.203-1.113 2.375-1.712 3.512-.233.44-.595.236-.772-.08-.82-1.48-1.607-2.978-2.424-4.496 1.628-.035 3.22.284 4.908 1.064zm-14.421-13.43c.212.014.476.212.598.399.452.69.849 1.41 1.336 2.232-.661.118-1.235.143-1.743.333-1.284.482-2.54.548-3.82.024-.163-.072-.371-.045-.604-.069.66-1.712 2.55-3.012 4.233-2.919zm17.001 16.276c.216 1.428.359 2.84.01 4.417-.9-1.591-2.257-2.468-3.662-3.228l1.569-3.747c1.37.284 1.889 1.255 2.084 2.558zm-12.34-9.152c-.122.06-.341.076-.435.004-.553-.406-1.186-.711-1.225-1.588-.038-.766-.302-1.515-.486-2.375 1.057-.18 2.1-.374 3.147-.51.157-.02.432.202.512.372.427.915.81 1.85 1.203 2.763-1.023.506-1.864.932-2.716 1.334zm7.99 11.953c-.063-.336.065-.707.117-1.178 1.82.873 3.173 1.91 3.865 3.636.031.076.014.18-.004.264-.348 1.359-2.316 3.075-3.704 3.224-.115.014-.23-.018-.358-.028.657-1.986.434-3.945.083-5.918zm-1.027-7.235c-.647-.083-1.325-.006-1.983.06-.747.076-1.134-.316-1.13-1.054.004-1.463-.07-2.92-.115-4.493 1.047 0 2.178-.014 3.312.02.187.007.417.219.546.396.692.932 1.335 1.896 2.034 2.821.706.94.45 1.907.247 2.857-1.012-.215-1.95-.478-2.91-.607zm-22.18 12.116c.43-.433.403-.936.288-1.435-.505-2.212-.56-4.413.122-6.604 1.318-4.23 4.942-7.058 9.443-7.342.494-.035.988-.007 1.061-.801.657.496 1.273.842 1.729 1.328 2.014 2.152 4.02 4.305 5.944 6.53 1.106 1.28 1.645 2.871 1.934 4.528.052.292.045.628-.045.909-.894 2.724-2.47 4.863-5.312 5.803-4.407 1.456-8.695 1.334-12.807-1.026-.987-.565-2.017-1.054-3.005-1.62-.209-.12-.4-.405-.448-.64-1.138-5.405-.38-10.39 3.206-14.807.741-.911 1.635-1.203 2.661-1.418.3-.059.623-.114.873-.27 1.29-.79 2.543-.485 3.882.052-10.282 1.993-11.784 10.49-9.527 16.813zm21.415 2.954c1.495.704 2.887.374 4.212-.42 1.402-.828 2.497-1.965 3.238-3.421.073-.146.153-.284.261-.225 1.03.01 2.07-.07 3.082.059 1.019.131 2.01.474 3.047.623-1.152-.686-2.164-1.636-3.638-1.605a8.356 8.356 0 0 1-1.76-.18c-.143-.027-.352-.378-.324-.544.65-3.647-.271-7.003-1.854-10.244-.136-.28-.108-.641-.156-.964-.126-.856-.393-1.65-.912-2.336l-.212.073.313 1.445-2.083-2.936c.542 0 .904.014 1.266 0 1.134-.038 1.332-.33.939-1.418-.132-.35-.237-.745-.473-1.023-.296-.35-.71-.6-1.169-.832-.198-2.839.296-5.633 1.955-8.098 1.106-1.64 2.647-1.764 4.153-.489.487.413.929.891 1.343 1.377.657.766.862 1.64.706 2.652a4.008 4.008 0 0 0 .087 1.677c.198.704.768 1.137 1.506 1.259.737.121 1.262-.219 1.704-.797 1.277-1.678 1.597-3.658 1.889-5.658.313-2.153.58-4.32 1.009-6.452.306-1.539 1.252-2.762 2.546-3.66 1.767-1.224 3.68-2.09 5.888-2.077 1.319.007 1.983.562 2.17 1.872.102.725.115 1.467.088 2.198-.066 1.595.587 2.805 1.874 3.692 1.096.76 2.244 1.439 3.301 2.243.62.468 1.166 1.06 1.635 1.674.793 1.05.737 2.077-.292 2.898-.897.715-1.958 1.238-2.977 1.786-.94.502-1.993.828-2.863 1.425-.783.533-1.53 1.237-2.035 2.034-.904 1.429-.233 2.607 1.412 2.985 1.172.267 2.362.604 3.416 1.151.81.42 1.496 1.155 2.09 1.872.644.773.633 1.74-.03 2.496-1.323 1.505-2.022 3.276-2.648 5.138-.678 2.02-1.847 2.548-3.833 1.712-2.602-1.095-5.266-1.476-8.028-.943-.817.16-1.673.458-2.361.916-1.49.995-1.416 2.458.076 3.449 1.18.783 2.557.967 3.892 1.31 1.232.316 2.46.7 3.621 1.217.894.395 1.273 1.238 1.162 2.247-.049.436-.23.638-.713.679-2.797.253-5.593.53-8.386.829-3.124.34-6.237.752-9.364 1.06-1.655.163-3.328.194-4.991.23-.383.006-.8-.15-1.14-.337-.77-.42-1.504-.908-2.251-1.366l.02-.222c.199-.017.435-.104.592-.031zM67.819.766c-.337.097-.674.201-1.012.295-3.61.988-6.376 2.946-7.214 6.784-.396 1.817-.459 3.713-.619 5.574-.156 1.775-.306 3.547-.991 5.218-.313.773-1.016 1.258-1.614 1.13-.692-.15-1.148-.822-1.123-1.692.003-.236.052-.471.086-.704.13-.821.115-1.667-.413-2.319-.759-.929-1.53-1.903-2.484-2.6-1.614-1.185-3.409-.821-4.671.732-.24.294-.463.606-.637.943-1.099 2.135-1.753 4.399-1.822 6.805-.018.489.121.984.198 1.55-.456.266-1.026.602-1.548.904-1.023-.714-1.958-1.452-2.97-2.056-1.037-.624-2.133-1.15-3.235-1.653-.661-.298-1.388-.465-2.084-.697a1.802 1.802 0 0 1-.494-.236c-1.026-.759-2.177-1.144-3.44-1.234-2.91-.208-6.132 2.371-6.156 5.148-.007 1.071-.407 1.647-1.151 2.184-.136.1-.258.212-.383.323-2.042 1.774-3.9 3.702-4.967 6.243-1.756 4.198-1.889 8.462-.556 12.795.07.219.184.538.09.663-.428.558-.863 1.147-1.42 1.56-.417.305-.747.481-.451.884-1.833 0-3.698.086-5.545-.021-3.321-.201-6.636-.527-9.961-.773-.234-.018-.487.229-.73.35.163.211.291.537.507.624a7.872 7.872 0 0 0 1.656.416c3.154.444 6.313.87 9.47 1.286 3.034.395 6.074.506 9.117.139 1.785-.215 3.538-.226 5.305.263 2.156.593 4.396.434 6.574.173 2.236-.27 4.473-.492 6.692-.221 4.327.526 8.65.267 12.98.218.262-.004.523-.049.783-.073 2.89-.263 5.781-.523 8.668-.794 1.955-.183 3.969-.003 5.805-.936.14-.066.327-.041.49-.059 2.036-.228 4.07-.447 6.102-.69.622-.072.907-.474.87-1.092-.035-.589-.463-.994-1.079-1.012-.33-.01-.664.028-.995.063-1.175.121-2.348.246-3.53.37.08-2.128-.72-3.424-2.661-4.135-1.064-.392-2.191-.62-3.301-.874-1.203-.277-2.46-.398-3.43-1.269-.636-.575-.626-1.116.16-1.435.999-.398 2.063-.714 3.13-.863 1.949-.277 3.817.177 5.65.87.852.326 1.798.61 2.688.58 1.764-.053 2.675-1.35 3.214-2.833.644-1.768 1.36-3.453 2.543-4.961.98-1.248.838-2.607-.115-3.88-.911-1.212-2.129-2.048-3.523-2.582-.877-.34-1.827-.492-2.741-.745-.759-.205-.97-.572-.585-1.252.261-.457.637-.929 1.082-1.185 1.311-.76 2.689-1.4 4.028-2.115.793-.423 1.631-.811 2.316-1.376 1.823-1.498 1.987-3.404.366-5.13-.88-.944-1.983-1.69-3.023-2.47-.703-.523-1.496-.925-2.205-1.441-.797-.583-1.193-1.387-1.13-2.4.03-.547.006-1.091.013-1.639.01-1.695-.47-3.085-2.288-3.64h-2.286z" fill="#FEFEFE"/></g></svg>