<svg width="67" height="47" viewBox="0 0 67 47" fill="none" xmlns="http://www.w3.org/2000/svg"><g clip-path="url(#a)" fill="#C25B24"><path d="M33.774 28.82a2.229 2.229 0 0 1-2.233-2.219 2.229 2.229 0 0 1 2.233-2.22 2.23 2.23 0 0 1 2.233 2.22 2.228 2.228 0 0 1-2.233 2.22zm0-3.742c-.844 0-1.531.683-1.531 1.523 0 .84.687 1.523 1.53 1.523a1.53 1.53 0 0 0 1.533-1.523c0-.84-.687-1.523-1.532-1.523z"/><path d="M54.455 40.253a10.516 10.516 0 0 0-.25-.24c3.34-7.095-3.79-28.394-3.79-28.394h-3.213v-3.61a.968.968 0 0 0-.97-.965.968.968 0 0 0-.971.965v3.61H21.719v-3.61a.968.968 0 0 0-.97-.965.968.968 0 0 0-.972.965v3.61h-2.442s-7.129 21.3-3.789 28.395a9.485 9.485 0 0 0-.25.24c-1.736 1.724-2.564 3.699-1.85 4.409.716.71 3.694.873 5.43-.852.141-.14.266-.292.383-.448 8.103 4.293 25.128 4.293 33.232 0 .118.156.242.307.384.448 1.735 1.725 4.713 1.562 5.428.852.715-.71-.113-2.685-1.848-4.41zM41.27 32.415l-.04-.042c-1.215-1.207-2.495-1.892-2.86-1.53-.364.363.324 1.635 1.539 2.842l.068.066a9.404 9.404 0 0 1-6.102 2.236c-5.198 0-9.412-4.188-9.412-9.354 0-5.166 4.214-9.355 9.412-9.355 5.197 0 9.412 4.189 9.412 9.355 0 2.183-.755 4.19-2.017 5.782z"/><path d="M66.077 13.434c0-3.476-2.584-6.35-5.948-6.832a7.857 7.857 0 0 0-5.612-5.155V.067h-2.764v.855H15.227V.068h-2.764v1.379a7.859 7.859 0 0 0-5.614 5.157c-3.352.49-5.927 3.362-5.927 6.83 0 .737.119 1.444.334 2.11a1.049 1.049 0 0 0-.155.544c0 .656.621 1.188 1.388 1.188h10.76c.767 0 1.389-.532 1.389-1.188 0-.196-.057-.381-.155-.544a6.837 6.837 0 0 0 .334-2.11c0-2.754-1.623-5.13-3.97-6.24a6.9 6.9 0 0 1 1.616-1.828V7.64h2.764v-.854h36.527v.854h2.765V5.367a6.902 6.902 0 0 1 1.62 1.835c-2.338 1.111-3.954 3.484-3.954 6.232 0 .737.118 1.444.334 2.11a1.05 1.05 0 0 0-.155.544c0 .656.621 1.188 1.388 1.188h10.76c.767 0 1.389-.532 1.389-1.188 0-.196-.057-.381-.155-.544a6.893 6.893 0 0 0 .331-2.11z"/></g><defs><clipPath id="a"><path fill="#fff" transform="translate(.5)" d="M0 0h66v47H0z"/></clipPath></defs></svg>