<svg width="130" height="150" viewBox="0 0 130 150" fill="none" xmlns="http://www.w3.org/2000/svg"><path d="M78.234 30.74c-1.962 1.084-3.62 1.898-5.167 2.879a2.888 2.888 0 0 0-1.468 3.46 12.738 12.738 0 0 1-.676 8.611 3.786 3.786 0 0 0-.305 1.788 1.261 1.261 0 0 0 1.49 1.373c1.14-.138 2.26-.457 3.4-.566l.008-.008a25.55 25.55 0 0 1 3.873-.123 1.44 1.44 0 0 1 1.025.494c.262.298.385.69.356 1.083.008.08.015.152.015.232a16.423 16.423 0 0 0 1.751 8.729 2.036 2.036 0 0 1-.545 2.5 316.6 316.6 0 0 0-5.88 6.213 9.956 9.956 0 0 0-1.228 1.68 4.762 4.762 0 0 1-2.877 2.637 4.792 4.792 0 0 1-3.888-.385c-1.236-.509-2.471-1.025-3.91-1.62-.625 5.457-3.133 9.97-4.528 14.803 1.184.727 2.34 1.308 3.35 2.072 2.1 1.584 4.07 3.292 4.288 6.22v-.007c.066.625.255 1.221.56 1.766a8.086 8.086 0 0 1 .501 5.625 20.792 20.792 0 0 0-.203 4.608c.109.843.305 1.671.581 2.478a6.16 6.16 0 0 0 1.308-.203c3.249-1.389 6.44-2.9 9.731-4.179a5.39 5.39 0 0 0 4.034-5.226 75.628 75.628 0 0 1 1.06-7.558 4.715 4.715 0 0 0-1.518-4.927 2.131 2.131 0 0 1-.705-2.522 18.555 18.555 0 0 1 1.802-4.208 8.93 8.93 0 0 0 2.333-5.298c.516.29.981.683 1.345 1.156a44.58 44.58 0 0 1 1.65 6.73 4.334 4.334 0 0 1-1.745 4.505 3.071 3.071 0 0 0-1.453 2.922 23.639 23.639 0 0 1-.516 3.415c-.117.807-.19 1.628-.29 2.559v.007a14.03 14.03 0 0 0 6.293-1.09 49.78 49.78 0 0 1 1.693-.749c2.573-1.09 3.481-.712 4.411 1.832.182.494.386.98.684 1.758 1.06-.305 2.085-.53 3.052-.9 1.795-.691 3.532-1.541 5.356-2.167h.007a2.53 2.53 0 0 0 1.962-2.5c.124-2.224.429-4.447.458-6.671a2.83 2.83 0 0 1 1.432-2.69 21.007 21.007 0 0 1 2.892-1.438 2.927 2.927 0 0 0 2.108-2.508c.218-2.703 2.108-4.171 3.961-5.697.654-.538 1.41-.952 2.049-1.505a5.34 5.34 0 0 0 2.093-3.96c.146-1.425.371-2.842.683-4.237l2.457.21a42.837 42.837 0 0 1-1.999 6.774 9.896 9.896 0 0 1-3.43 3.648 9.48 9.48 0 0 0-4.651 6.286 3.87 3.87 0 0 1-3.125 3.09c-2.333.522-2.725 2.092-2.769 4.112-.044 2.377-.247 4.746-.385 7.268v-.007c.69.145 1.373.334 2.042.552a4.266 4.266 0 0 0 4.491-.632 4.052 4.052 0 0 1 3.372-1.04 4.023 4.023 0 0 1 2.9 2.006 17.25 17.25 0 0 0 5.327 4.95c-.32.363-.69.683-1.09.959-1.664.799-3.387 1.475-5.022 2.311a4.091 4.091 0 0 1-4.92-.545 6.622 6.622 0 0 1-2.819-4.339 2.12 2.12 0 0 0-2.137-2.035 13.542 13.542 0 0 0-3.677.036 37.503 37.503 0 0 0-10.219 2.813c-1.359.683-2.064.233-2.572-1.294-.175-.508-.284-1.046-.436-1.562-.153-.509-.335-1.003-.56-1.7-.814.152-1.562.246-2.282.435-1.86.48-3.685 1.112-5.567 1.476l-.007.007a2.195 2.195 0 0 0-1.977 1.904c-.312 1.432-.741 2.849-.923 4.295h-.007a1.824 1.824 0 0 1-1.584 1.715 52.306 52.306 0 0 0-8.954 2.994 17.548 17.548 0 0 0-9.36 8.474c-.582 1.17-1.287 2.282-1.919 3.431a3.608 3.608 0 0 0 .422 3.895c1.126 1.831 2.1 3.765 3.263 5.567a22.852 22.852 0 0 1 2.638 7.609c.596 2.631 1.126 5.269 1.657 7.914.13.436.13.901-.007 1.33-.858 1.635-1.803 3.22-2.74 4.804a1.931 1.931 0 0 1-.683.356 4.464 4.464 0 0 1-.909-3.423c-.073-3.161-.073-6.33-.16-9.491a10.762 10.762 0 0 0-.407-2.493 173.303 173.303 0 0 0-2.042-6.882 10.085 10.085 0 0 0-3.982-5.8 6.204 6.204 0 0 0-3.729-.872 7.633 7.633 0 0 0-7.078 4.724 2.338 2.338 0 0 1-2.537 1.614 30.186 30.186 0 0 0-11.65 1.104c-3.698.829-4.403-1.359-4.498-4.004-.007-.153.036-.305.036-.458l-.007-.007a6.236 6.236 0 0 0-.094-3.082 9.365 9.365 0 0 0-3.358-2.71 18.71 18.71 0 0 0-4.164-1.301c-1.788-.443-3.612-.785-5.415-1.177a2.351 2.351 0 0 0-.661-.189 21.434 21.434 0 0 0-6.555 2.507 1.88 1.88 0 0 0-.37 1.475 5.342 5.342 0 0 1-1.774 4.361 4.388 4.388 0 0 1-2.347 1.192 7.636 7.636 0 0 0-3.518.93c-.443.305-.509.211-1.613-.436.109-.276.276-.523.487-.734a2.792 2.792 0 0 0 1.279-2.987 3.33 3.33 0 0 1-.007-.465c.043-4.266.872-5.153 5.043-4.855h.007a5.619 5.619 0 0 0 4.12-1.257c-.791-1.912-1.533-3.852-2.405-5.727h.008a2.861 2.861 0 0 1 .203-3.059 9.68 9.68 0 0 0 2.086-5.771.915.915 0 0 1 .356-.887.906.906 0 0 1 .952-.094 7.574 7.574 0 0 1-.894 6.126 5.694 5.694 0 0 0 0 5.676c1.054 2.639 1.287 2.66 4.106 2.624 1.534.065 3.06.262 4.557.581a20.4 20.4 0 0 1 11.097 4.746 2.154 2.154 0 0 1 .843 2.769 7.51 7.51 0 0 0-.436 2.26c-.102 1.323.494 1.817 1.824 1.621 2.348-.349 4.695-.814 7.057-.989h-.007a29.19 29.19 0 0 1 4.84.262 2.311 2.311 0 0 0 2.558-1.482 6.836 6.836 0 0 1 6.643-4.121c.545.007 1.083-.022 1.62-.073a5.222 5.222 0 0 0 4.15-2.122c1.78-2.601 3.62-5.167 5.334-7.812v-.008c.313-.61.43-1.308.335-1.991a39.452 39.452 0 0 1 .276-10.588 7.784 7.784 0 0 0-.792-3.569 9.339 9.339 0 0 0-3.743-5.654 13.338 13.338 0 0 0-2.747-.988 7.392 7.392 0 0 1-2.42-.654c-2.013-1.65-4.143-.836-6.149-.364-3.72.88-4.375.574-5.116-3.234-.145-.756-.276-1.512-.414-2.275-.763-4.186-4.128-5.261-7.544-6.14l.008.007a4.23 4.23 0 0 0-2.413.552 13.934 13.934 0 0 1-5.153 1.04c-1.897.21-3.779.602-5.61 1.155-.524.116-1.032.356-1.563.428-2.558.335-3.677-.603-3.496-3.19.117-1.599.437-3.183.938-4.717a3.435 3.435 0 0 0-.327-3.241c-1.606-2.536-3.11-5.138-4.615-7.74a4.807 4.807 0 0 1 1.105-6.235 7.894 7.894 0 0 0 3.146-8.576 5.658 5.658 0 0 1 .015-2.493c.32-.349.734-.61 1.192-.748.312.356.516.785.603 1.25a5.373 5.373 0 0 0 1.177 5.138c.495.421.764 1.046.713 1.693a2.015 2.015 0 0 1-.967 1.563c-1.38 1.46-2.885 2.79-4.266 4.244a2.902 2.902 0 0 0-1.294 2.027 2.922 2.922 0 0 0 .698 2.304c1.366 2.493 2.907 4.898 4.295 7.384.385.647.596 1.38.596 2.137-.145 2.369-.45 4.73-.698 7.158v.007a3.2 3.2 0 0 0 3.06-.05 20.853 20.853 0 0 1 6.315-1.229 22.428 22.428 0 0 0 4.651-1.243L33.524 69.1a2.387 2.387 0 0 1-.589-.96 2.256 2.256 0 0 0-1.86-2.049 3.403 3.403 0 0 1-2.253-1.882 3.392 3.392 0 0 1 .066-2.929c.632-1.853 1.998-3.525 1.402-5.705.087-.341.335-.625.662-.756.508.051.966.306 1.286.698.247 2.471 2.18 3.801 3.525 5.538l-.008-.007a4.397 4.397 0 0 1 .356 5.007 4.89 4.89 0 0 0-.952 2.413 4.855 4.855 0 0 0 2.551 3.423c1.78.9 3.554 1.831 5.37 2.652a4.347 4.347 0 0 1 2.944 2.98c.364 1.563 1.01 3.06 1.395 4.622.437 1.773.662 2.1 2.435 2.115h-.007a21.27 21.27 0 0 0 3.466-.225 5.694 5.694 0 0 1 4.281.429c1.526-3.888 3.634-7.559 3.997-11.875v.007c.044-.618.138-1.228.283-1.824.596-2.384 1.803-3.053 4.085-2.202 1.293.48 2.55 1.068 4.011 1.686 1.628-1.367 3.322-2.69 4.891-4.143 1.643-1.511 3.154-3.161 4.753-4.731a2.623 2.623 0 0 0 .8-3.14 15.06 15.06 0 0 1-1.236-7.005 6.293 6.293 0 0 0-.247-1.156 20.922 20.922 0 0 0-2.863-.218c-.996.102-1.984.262-2.965.48a3.487 3.487 0 0 1-3.547-.88 3.492 3.492 0 0 1-.792-3.568 8.211 8.211 0 0 1 .581-2.231c1.454-2.914.538-5.625-.443-8.416l-.007-.007a11.45 11.45 0 0 0-5.487-6.585 5.591 5.591 0 0 1-2.58-7.136c.668-1.657.901-3.452.676-5.225.029-.277.123-.545.276-.778.392-.13.821-.058 1.155.189.328.24.524.632.516 1.046a6.088 6.088 0 0 0 2.18 3.43 6.296 6.296 0 0 1 1.941 7.297 3.03 3.03 0 0 0 .683 3.598c.436.516.843 1.06 1.214 1.628 1.01-.32 2.035-.61 3.03-.974 3.314-1.214 3.954-2.137 3.969-5.582a6.792 6.792 0 0 1 .101-2.064c.77-2.027.85-4.251.233-6.33a4.248 4.248 0 0 1 1.395-4.41 4.736 4.736 0 0 0 1.897-4.42 5.196 5.196 0 0 1 2.798-5.188 11.192 11.192 0 0 1 1.853-.96A6.035 6.035 0 0 0 87.74.712 3.794 3.794 0 0 1 89.222 0c.058 2.013.21 3.728.138 5.429a3.384 3.384 0 0 1-2.565 3.452c-.662.182-1.265.574-1.926.77-3.453 1.018-4.608 4.07-6.018 6.854v-.008a5.33 5.33 0 0 0-.05 2.035c-.044 1.454-.088 2.915-.168 4.368-.08 1.526-.225 3.045-.305 4.571-.058 1.214-.073 2.435-.095 3.27zm47.399 68.358c-1.046-1.351-1.933-2.5-2.82-3.648v-.007a4.303 4.303 0 0 0-.443-.53 3.233 3.233 0 0 0-4.222-.335 3.117 3.117 0 0 0-.756 4.331c.603.8 1.301 1.519 2.086 2.137a1.946 1.946 0 0 0 2.543.174c1.098-.705 2.246-1.33 3.612-2.129v.007zm-62.55-78.612c-2.37 3.576-1.621 5.974 2.288 7.333 1.781-2.71.938-5.407-2.289-7.333zM31.628 58.488c-.581 1.613-1.025 2.653-1.33 3.735a1.973 1.973 0 0 0 .087 1.78c.313.553.865.917 1.49.997.923.276 1.89.436 2.893.654 1.293-3.322-1.28-4.731-3.14-7.173v.007zm-27.4 64.826a2.378 2.378 0 0 0 3.104-.734 4.616 4.616 0 0 0 .945-3.902 1.737 1.737 0 0 0-1.185-.902 2.385 2.385 0 0 0-2.834 1.999 31.94 31.94 0 0 0-.03 3.539zm83.04-45.421a8.742 8.742 0 0 0-2.93 4.382 1.865 1.865 0 0 0-.058 1.563c.218.501.64.886 1.163 1.053.473.153.996.11 1.44-.138.442-.24.762-.654.886-1.14.996-1.92.261-3.67-.502-5.72zM81.81 8.91a12.794 12.794 0 0 0 5.03-1.751 2.358 2.358 0 0 0 .486-3.096c-.777-.858-1.533-.226-2.26.16v.007a7.045 7.045 0 0 0-1.591.908A3.632 3.632 0 0 0 81.81 8.91z" fill="#FEBA95"/></svg>