<svg width="72" height="64" viewBox="0 0 72 64" fill="none" xmlns="http://www.w3.org/2000/svg"><path d="M31.929 57.848l-.147-1.223c-.098-.813-.195-1.63-.302-2.443l-.312-2.44-.324-2.437c-.107-.813-.22-1.623-.334-2.434a137.08 137.08 0 0 0-.357-2.44c-.26-1.626-.563-3.256-.985-4.852a35.083 35.083 0 0 0-.71-2.357 49.483 49.483 0 0 0-.84-2.263c-.297-.74-.602-1.47-.923-2.192-.16-.36-.315-.724-.483-1.08-.166-.357-.33-.715-.505-1.063-.342-.706-.697-1.4-1.073-2.08-.19-.338-.373-.681-.572-1.008-.199-.33-.385-.667-.596-.988-.205-.32-.404-.651-.62-.96-.215-.312-.42-.633-.643-.932-.22-.303-.437-.615-.672-.9l-.429-.55-.088-.104-.178-.21c-.947-1.129-1.975-2.153-3.085-3.015l-.415-.324-.432-.29-.43-.294c-.147-.092-.294-.18-.444-.266-.6-.343-1.235-.612-1.91-.713a3.186 3.186 0 0 0-.542-.036l-.162-.046c-.113-.028-.23-.046-.343-.07-.229-.05-.461-.065-.69-.086-.117-.015-.233-.01-.35-.015l-.348-.003a8.902 8.902 0 0 0-2.742.531c-.113.04-.223.083-.334.126-.11.049-.22.095-.33.147-.22.094-.434.217-.648.336a3.793 3.793 0 0 0-.318.19l-.315.201c-.104.07-.205.15-.306.223-.1.077-.204.144-.302.23-.199.165-.4.324-.587.514-.196.18-.367.379-.542.577-.088.098-.165.208-.247.312a7.965 7.965 0 0 0-.239.321l-.232.33-.22.343-.11.168-.107.174-.214.346c-.138.235-.279.465-.413.7-.275.465-.538.936-.81 1.4l-.823 1.4c-.269.478-.538.958-.764 1.468a8.618 8.618 0 0 0-.165.386c-.052.131-.104.256-.153.397a9.606 9.606 0 0 0-.257.844 11.95 11.95 0 0 0-.321 1.755 12.051 12.051 0 0 0-.064 1.789c.024.59.088 1.17.217 1.733l-.01.019.083.073a135.684 135.684 0 0 1 2.422-3.828 99.802 99.802 0 0 1 2.544-3.67 85.459 85.459 0 0 1 4.078-5.157c.337-.391.673-.792 1.01-1.177.195.006.388.024.58.067.4.08.78.245 1.147.45.73.418 1.394 1.027 2.009 1.706.152.17.305.345.452.525.15.18.294.364.44.55.29.38.581.762.872 1.15l1.709 2.337a66.3 66.3 0 0 1 1.681 2.387c.27.413.536.829.79 1.257.253.428.498.865.733 1.312a32.76 32.76 0 0 1 1.572 3.494c.091.242.183.484.272.728l.257.737c.085.245.165.495.247.74.162.495.318.994.468 1.492l.113.373.11.376c.077.25.147.502.22.752a66.853 66.853 0 0 1 1.174 4.565c.114.514.22 1.027.322 1.544l.08.385.072.389c.05.257.101.517.147.776.095.517.187 1.04.278 1.563.178 1.045.346 2.097.502 3.152.156 1.055.312 2.113.459 3.177.15 1.06.29 2.125.434 3.189.143 1.064.284 2.13.44 3.2l.1-.011a72.247 72.247 0 0 0-.048-3.257 104.405 104.405 0 0 0-.165-3.25c-.153-2.164-.361-4.326-.679-6.472a47.078 47.078 0 0 0-.761-3.99c-.064-.263-.123-.526-.19-.786s-.131-.52-.202-.78l-.214-.773a54.92 54.92 0 0 0-.957-3.043c-.085-.25-.177-.495-.272-.743-.091-.244-.183-.492-.281-.733a55.075 55.075 0 0 0-.602-1.444c-.104-.238-.208-.477-.312-.709l-.321-.703-.324-.7-.33-.694c-.44-.927-.89-1.847-1.343-2.761-.908-1.826-1.798-3.69-2.843-5.421a26.635 26.635 0 0 0-1.688-2.459l-.453-.577-.464-.563a13.84 13.84 0 0 0-.997-1.073c-.694-.67-1.468-1.248-2.318-1.575a4.107 4.107 0 0 0-.648-.186 3.448 3.448 0 0 0-.66-.061 2.76 2.76 0 0 0-.275.015c.024-.025.046-.052.07-.076.474-.514.963-.985 1.501-1.315.266-.165.544-.294.832-.376.284-.083.58-.11.883-.098.603.021 1.211.22 1.798.492.147.067.294.144.438.223l.428.257.428.263.412.3c1.101.804 2.11 1.819 3.012 2.972l.257.32.082.114.325.45c.22.296.415.617.62.929.208.309.398.639.587.963.196.32.373.66.557.994.186.33.354.678.529 1.018.177.34.34.69.504 1.036.168.346.321.703.483 1.055.162.349.315.71.471 1.067.306.716.609 1.434.899 2.162.294.727.58 1.455.853 2.192.547 1.47 1.03 2.96 1.403 4.495.37 1.54.667 3.118.933 4.717.269 1.596.514 3.217.786 4.828l.403 2.419.416 2.415c.138.804.281 1.608.425 2.412l.217 1.205.223 1.205c.297 1.605.603 3.207.933 4.803l.098-.024a235.143 235.143 0 0 0-.526-4.905l-.15-1.223zm-21.592-38.21c-.263.257-.517.523-.761.796-.245.272-.493.538-.731.816a53.25 53.25 0 0 0-4.054 5.348 53.866 53.866 0 0 0-2.382 3.92 50.045 50.045 0 0 0-1.93 3.84c.055-.465.11-.92.178-1.367a23.153 23.153 0 0 1 .691-3.204l.055-.193c.021-.061.04-.126.058-.19.037-.128.082-.25.12-.379.085-.254.167-.52.247-.78.168-.529.324-1.06.498-1.586.178-.523.37-1.04.609-1.523a9.922 9.922 0 0 1 1.268-1.966c.083-.098.166-.19.248-.281l.125-.14.129-.135c.34-.361.703-.68 1.06-.994.093-.076.181-.153.273-.23l.067-.058.202-.155.135-.107.067-.052.07-.05.281-.192c.092-.067.19-.12.288-.177.098-.055.192-.116.29-.172l.297-.155c.098-.052.199-.104.3-.15.204-.092.4-.196.608-.279.1-.042.205-.091.306-.137.1-.043.208-.08.309-.122.63-.26 1.272-.49 1.926-.68-.003.004-.01.007-.012.01a9.047 9.047 0 0 0-.835.725z" fill="#FEBA95"/><path d="M24.652 55.276a224.148 224.148 0 0 0-2.507-7.534 183.443 183.443 0 0 0-1.82-4.944 70.957 70.957 0 0 0-2.066-4.812 43.82 43.82 0 0 0-2.468-4.528 27.929 27.929 0 0 0-1.437-2.07 21.514 21.514 0 0 0-1.608-1.86c-1.128-1.155-2.37-2.127-3.687-2.858l-.706-.395.428.805c.357.672.721 1.345 1.067 2.027l.52 1.02c.17.343.339.689.507 1.034.165.349.33.694.492 1.046.16.352.318.703.474 1.058.153.355.3.715.444 1.08.143.363.29.724.43 1.085.135.367.267.736.398 1.106l.196.557c.067.183.122.373.186.56l.361 1.128c.061.186.116.376.174.565l.337 1.138c.055.19.113.379.165.571.104.383.214.765.318 1.147.052.19.11.38.159.572l.153.578.308 1.15c.395 1.54.805 3.075 1.18 4.628.386 1.547.744 3.107 1.108 4.666l1.073 4.693c.36 1.566.715 3.134 1.11 4.69l.098-.03c-.208-1.614-.447-3.22-.704-4.822a166.462 166.462 0 0 0-.838-4.788c-.308-1.59-.632-3.17-1-4.742a84.244 84.244 0 0 0-1.204-4.672 80.473 80.473 0 0 0-.352-1.146 35.312 35.312 0 0 0-.367-1.138c-.128-.376-.25-.755-.382-1.131a13.48 13.48 0 0 0-.201-.56l-.205-.556c-.538-1.489-1.138-2.941-1.737-4.385-1.08-2.574-2.275-5.05-3.461-7.533.97.724 1.871 1.59 2.697 2.556.51.602 1.002 1.229 1.464 1.895.468.658.908 1.346 1.33 2.058.844 1.419 1.596 2.93 2.302 4.48a75.14 75.14 0 0 1 1.019 2.36c.33.795.648 1.596.969 2.4.315.807.633 1.614.942 2.43l.938 2.44c.63 1.624 1.242 3.26 1.86 4.89l1.837 4.91c.608 1.639 1.22 3.28 1.84 4.916l.092-.049c-.45-1.727-.936-3.436-1.443-5.136-.26-.86-.52-1.706-.783-2.55zm23.647-38.487c.773-4.957 1.62-9.903 2.7-14.777l.134-.609-.422.303a12.605 12.605 0 0 0-2.1 1.914 17.506 17.506 0 0 0-1.764 2.391c-.532.86-1.01 1.77-1.444 2.718a32.32 32.32 0 0 0-1.15 2.938 44.462 44.462 0 0 0-.917 3.07 63.54 63.54 0 0 0-.74 3.146 104.043 104.043 0 0 0-.617 3.177c-.196 1.061-.376 2.122-.56 3.183-.363 2.125-.697 4.256-1.033 6.387-.333 2.131-.66 4.265-.975 6.402l-.465 3.208c-.153 1.06-.333 2.116-.508 3.183-.088.535-.17 1.07-.244 1.608-.074.541-.14 1.082-.187 1.627-.018.201-.033.406-.043.608l-.073-.434-.089-.52c-.03-.174-.067-.345-.097-.517l-.505-2.583-.11-.514-.446-2.055c-.04-.17-.074-.342-.114-.51l-.122-.508-.245-1.018c-.165-.679-.32-1.36-.507-2.033l-.538-2.018-.067-.25-.074-.252-.146-.498-.582-2c-.097-.333-.207-.66-.311-.99l-.63-1.975-.673-1.951-.34-.975-.36-.96c-.242-.64-.477-1.284-.725-1.924l-.764-1.895c-.128-.315-.25-.633-.385-.945l-.807-1.865-.202-.468-.101-.232-.107-.23-.847-1.837a71.164 71.164 0 0 0-.865-1.82 62.055 62.055 0 0 0-1.872-3.546 53.92 53.92 0 0 0-1.024-1.694c-.174-.278-.358-.547-.538-.822-.183-.27-.364-.542-.553-.804a37.25 37.25 0 0 0-1.147-1.557c-.397-.501-.792-1.003-1.204-1.48a40.443 40.443 0 0 0-2.557-2.74L17.375 0l.465 1.248a605.508 605.508 0 0 1 5.378 14.948c.214.63.431 1.257.64 1.886l.317.945.312.948.618 1.899.605 1.905a240.94 240.94 0 0 1 1.168 3.825c.196.635.38 1.277.569 1.92L28 31.45a195.237 195.237 0 0 1 2.052 7.757l.232.978.223.985.11.492.107.492.211.988c.272 1.32.535 2.641.77 3.974.123.664.233 1.334.35 2 .057.333.106.67.161 1.003.052.336.11.67.156 1.006l.15 1.009c.052.336.092.672.14 1.009.047.336.099.672.138 1.009l.129 1.012c.34 2.703.593 5.424.81 8.157l.1-.006c-.02-2.748-.149-5.5-.381-8.24a107.41 107.41 0 0 0-.422-4.097c-.037-.342-.086-.681-.129-1.02-.045-.34-.085-.682-.134-1.019-.098-.679-.19-1.357-.303-2.033a124.923 124.923 0 0 0-.706-4.036l-.303-1.504-.32-1.495-.23-.994a109.603 109.603 0 0 0-2.113-7.815c-.394-1.281-.813-2.55-1.235-3.813l-.321-.945-.33-.941c-.217-.627-.444-1.254-.667-1.878-.45-1.247-.902-2.491-1.357-3.736l-1.361-3.73a594.493 594.493 0 0 1-4.77-13.722 43.736 43.736 0 0 1 3.798 4.99c.177.266.348.538.52.807.168.275.339.544.504.826.336.55.654 1.116.972 1.684a66.433 66.433 0 0 1 1.783 3.523c.284.602.562 1.204.831 1.819l.814 1.834.1.23.098.232.193.465.777 1.859c.128.309.247.627.373.941l.736 1.884.704 1.905.351.954.337.963.67 1.926.635 1.945c.104.324.214.645.315.972l.6 1.963.15.492.076.245.633 2.229c.733 2.65 1.412 5.329 2.005 8.044.31 1.351.575 2.718.853 4.081.074.34.129.685.193 1.028l.187 1.03.189 1.03.046.257.043.257.085.517.34 2.073c.107.69.202 1.388.305 2.082l.153 1.042c.046.35.089.698.135 1.046l.272 2.095.1-.016-.146-2.116c-.027-.351-.049-.706-.08-1.057l-.1-1.055c-.07-.703-.135-1.41-.211-2.11l-.254-2.104-.064-.525-.034-.263-.037-.263-.15-1.049-.152-1.049c-.052-.348-.098-.697-.162-1.045l-.092-.545c.04-.553.107-1.1.19-1.648.152-1.06.376-2.1.596-3.149L39.273 42c.055-.263.11-.53.162-.795l.15-.801.572-3.18c.373-2.122.74-4.244 1.097-6.369.355-2.125.713-4.253 1.04-6.384.333-2.134.62-4.274.97-6.39a64.07 64.07 0 0 1 .59-3.15c.222-1.039.482-2.066.779-3.072a26.789 26.789 0 0 1 1.06-2.926c.41-.942.875-1.84 1.398-2.682.526-.837 1.1-1.62 1.74-2.311.51-.55 1.055-1.049 1.633-1.474-1.162 4.635-2.223 9.32-3.04 14.083-.415 2.489-.813 4.984-1.137 7.497a182.95 182.95 0 0 0-.853 7.561c-.45 5.063-.67 10.157-.694 15.245-.003.636.006 1.272.006 1.908.003.636.006 1.272.021 1.908.025 1.272.065 2.55.147 3.822.043.636.092 1.272.156 1.908l.05.477.054.474c.037.315.083.63.126.944.183 1.257.437 2.495.767 3.697l.095-.037a36.155 36.155 0 0 1-.52-3.727c-.025-.312-.055-.627-.073-.942l-.031-.47-.024-.471c-.019-.312-.028-.63-.04-.945a96.08 96.08 0 0 1-.025-.945c-.018-1.26-.015-2.522.013-3.785.009-.633.036-1.266.048-1.896.019-.633.031-1.265.053-1.895l.076-1.896.034-.948.045-.944.095-1.893c.034-.63.08-1.26.116-1.89.04-.63.07-1.26.123-1.886l.14-1.887c.04-.63.101-1.256.153-1.883l.16-1.884.18-1.88.088-.942.294-2.816c.067-.626.147-1.25.22-1.874l.165-1.403.061-.468.245-1.868c.08-.624.171-1.244.263-1.865l.278-1.86zm23.445 9.655c-.196-1.138-.609-2.25-1.254-3.153-.645-.892-1.504-1.516-2.424-1.791a3.199 3.199 0 0 0-1.41-.117c-.474.07-.92.266-1.324.526-.406.254-.773.569-1.134.875-.361.309-.71.627-1.07.923a10.03 10.03 0 0 1-1.12.792c-.382.239-.773.462-1.152.712-.217.144-.431.294-.642.453-.422.22-.835.468-1.235.743-.104.073-.214.14-.315.22l-.31.232c-.207.15-.406.324-.605.493-.397.34-.78.709-1.15 1.097a15.695 15.695 0 0 0-2.005 2.608c-.596.957-1.085 2.01-1.507 3.088-.217.538-.4 1.092-.587 1.642a53.067 53.067 0 0 0-.508 1.676 104.2 104.2 0 0 0-.89 3.394c-.56 2.271-1.152 4.528-1.684 6.806a79.936 79.936 0 0 0-.722 3.445 54.626 54.626 0 0 0-.553 3.526c-.147 1.19-.227 2.4-.217 3.61.015 1.211.128 2.422.388 3.575l.098-.025a26.504 26.504 0 0 1 .049-3.522c.098-1.162.25-2.314.45-3.458.192-1.143.421-2.284.65-3.43.114-.572.236-1.147.346-1.722.11-.575.217-1.152.318-1.73.407-2.315.688-4.675 1.186-6.956.248-1.14.541-2.263.893-3.354.352-1.092.774-2.14 1.26-3.128.06-.122.119-.248.183-.37l.193-.36.095-.181.1-.175.202-.348c.138-.23.285-.45.425-.676.147-.22.297-.434.444-.651a17.438 17.438 0 0 1 1.98-2.32c.359-.346.725-.67 1.105-.97.19-.147.379-.303.574-.434l.294-.205c.098-.073.199-.128.3-.192.183-.117.37-.227.556-.334a13.34 13.34 0 0 0-1.171 1.77c-.373.67-.703 1.376-.99 2.113-.291.734-.53 1.498-.71 2.284-.364 1.572-.514 3.186-.737 4.764-.217 1.58-.461 3.152-.74 4.717l-.205 1.174-.1.588-.095.59c-.126.785-.23 1.577-.33 2.366-.205 1.584-.398 3.174-.502 4.78a56.63 56.63 0 0 0-.113 4.833c.006.404.024.807.04 1.21.018.404.046.808.073 1.209.028.403.07.804.107 1.201.046.4.098.798.156 1.196l.101-.01c.03-.403.052-.8.076-1.201.028-.4.052-.798.074-1.196l.043-.596c.015-.199.021-.397.04-.596l.085-1.19c.116-1.58.25-3.158.388-4.736.138-1.577.245-3.161.373-4.748.061-.795.135-1.587.187-2.382.055-.795.098-1.596.144-2.394.085-1.596.229-3.186.513-4.736.278-1.553.746-3.042 1.21-4.485a68.2 68.2 0 0 1 .726-2.143c.256-.704.535-1.395.837-2.064a24.581 24.581 0 0 1 1.529-2.847c.3-.14.605-.272.911-.385.211-.089.428-.153.642-.223.107-.034.217-.074.321-.098l.16-.043.158-.037a6.856 6.856 0 0 1 1.3-.155c.437-.013.877.015 1.318.079.437.061.877.159 1.308.297.431.14.856.305 1.272.516.208.104.41.224.612.346.1.06.198.128.3.192.097.068.195.141.293.211a7.698 7.698 0 0 1 1.987 2.23c.01.054.016.11.022.164l.1.007a9.652 9.652 0 0 0 .016-3.407zm-1.838.455l-.29-.272c-.101-.086-.199-.174-.3-.254a8.757 8.757 0 0 0-1.954-1.168 8.9 8.9 0 0 0-1.397-.461 7.655 7.655 0 0 0-1.443-.193 6.922 6.922 0 0 0-1.462.095l-.183.033-.18.04c-.016.003-.031.01-.046.012.217-.232.437-.461.66-.678a8.81 8.81 0 0 1 1.061-.893 4.25 4.25 0 0 1 1.153-.584c.195-.067.394-.104.59-.135.098-.009.193-.024.29-.021l.144-.006c.046-.003.095.006.144.009.379.025.758.104 1.119.257.36.153.703.376 1.021.642.315.269.615.578.88.926.267.343.508.731.722 1.15.214.419.395.874.55 1.348.254.774.428 1.606.557 2.474a7.733 7.733 0 0 0-1.636-2.32z" fill="#FEBA95"/><path d="M68.478 37.46c-.153.227-.309.447-.455.68l-.447.687c-.153.227-.296.462-.443.691-.147.233-.294.462-.44.691l-.434.697c-.297.459-.575.936-.869 1.398-.287.467-.569.938-.862 1.403-.14.236-.284.47-.428.706-.147.233-.29.465-.431.704-.14.238-.285.474-.425.709-.144.235-.279.48-.42.718l-.412.725-.397.74-.196.373c-.067.122-.125.25-.187.38-.125.253-.244.507-.366.764a42.71 42.71 0 0 0-.682 1.568 54.83 54.83 0 0 0-1.193 3.25c-.088.278-.18.553-.269.829l-.247.837c-.166.56-.318 1.126-.459 1.7-.275 1.15-.483 2.349-.495 3.553l.1.016c.218-1.156.545-2.248.918-3.318.186-.535.379-1.07.58-1.599l.297-.798c.101-.266.205-.529.306-.792.4-1.058.832-2.097 1.26-3.137l.33-.773c.11-.257.214-.52.324-.777.223-.514.431-1.037.657-1.55.875-2.067 1.792-4.14 2.933-5.999.284-.465.568-.93.874-1.373l.453-.67c.156-.217.311-.434.474-.645.067-.091.134-.183.204-.275l-.03.07c-.4.945-.78 1.893-1.168 2.838a199.53 199.53 0 0 0-1.138 2.862c-.18.483-.367.966-.538 1.455-.085.245-.177.486-.26.734l-.247.743a52.797 52.797 0 0 0-1.642 6.121c-.028.128-.052.263-.077.394l-.14.795a15.16 15.16 0 0 0-.067.398c-.08.532-.16 1.06-.215 1.599a29.877 29.877 0 0 0-.192 3.223l.1.012c.34-2.098.771-4.14 1.325-6.127.14-.496.275-.997.43-1.483l.224-.737.235-.734.117-.367.122-.364.241-.727.505-1.45c.342-.963.688-1.926 1.04-2.889l.522-1.446.532-1.447c.352-.966.707-1.932 1.064-2.892l.532-1.44c.18-.477.358-.957.545-1.428l1.189-3.036-1.715 2.523-.447.688z" fill="#FEBA95"/></svg>