<svg width="51" height="43" viewBox="0 0 51 43" fill="none" xmlns="http://www.w3.org/2000/svg"><path d="M50.5 22.336a.862.862 0 0 0-.372-.632L46.622 19.3l-.01-.006-1.956-1.342 1.016-1.021.011-.012a9.824 9.824 0 0 0 2.745-6.87 9.633 9.633 0 0 0-2.831-6.818A9.573 9.573 0 0 0 38.783.409a9.57 9.57 0 0 0-6.815 2.822l-3.571 3.571-1.2-.823a.862.862 0 0 0-1.098.102l-1.384 1.383-1.993-1.993a6.604 6.604 0 0 0-4.697-1.945 6.602 6.602 0 0 0-4.699 1.945 6.603 6.603 0 0 0-1.947 4.7c0 1.775.692 3.444 1.947 4.697l1.991 1.994-2.67 2.67a.863.863 0 0 0-.066 1.144l4.58 5.801-8.726 4.96-6.236-4.848a.863.863 0 0 0-1.375.85l2.973 14.867a.863.863 0 0 0 1.536.349l4.261-5.681 13.733-2.685 6.308 7.99a.863.863 0 0 0 1.287.076l19.328-19.33a.863.863 0 0 0 .25-.689zM33.187 4.451a7.856 7.856 0 0 1 5.595-2.317c2.113 0 4.1.823 5.594 2.317a7.92 7.92 0 0 1 2.326 5.606 8.108 8.108 0 0 1-2.26 5.663l-1.234 1.24-13.365-9.165 3.344-3.344zm-18.642 9.198a4.883 4.883 0 0 1-1.441-3.478 4.89 4.89 0 0 1 1.441-3.48 4.887 4.887 0 0 1 3.479-1.44 4.89 4.89 0 0 1 3.478 1.44l1.992 1.993-6.958 6.959-1.991-1.994zm15.842 26.8l-1.547-1.96 17.402-17.356 2.053 1.407-17.908 17.91z" fill="#fff"/></svg>