<svg width="65" height="38" viewBox="0 0 65 38" fill="none" xmlns="http://www.w3.org/2000/svg"><path d="M60.094 31.576a2.58 2.58 0 0 0 .22-.348c.037-.112.064-.226.081-.341.166-.05.328-.111.485-.185.195-.105.377-.232.543-.378.231-.26.476-.508.735-.741a3.272 3.272 0 0 0 1.167-1.919c.14-.526.279-1.045.404-1.578.053-.221.083-.447.088-.674v-2.904c.01-.078.024-.155.044-.23.08-.052.19-.126.316-.185a.56.56 0 0 0 .323-.549c0-.54-.052-1.081-.066-1.622a23.657 23.657 0 0 1-.044-2.816c0-.363-.081-.526-.448-.6a4.95 4.95 0 0 1-1.182-.415 4.998 4.998 0 0 0-1.41-.244 18.154 18.154 0 0 1-2.841-.474l-1.351-.415a1.259 1.259 0 0 0-.323-.097 5.269 5.269 0 0 1-1.557-.392c-1.233-.4-2.496-.741-3.671-1.215a15.307 15.307 0 0 0-1.689-.534 12.456 12.456 0 0 1-2.085-.867.61.61 0 0 1-.147-.073c-.44-.4-.888-.793-1.3-1.216-.41-.422-.969-1.126-1.52-1.6-.733-.615-1.328-1.319-1.989-1.985-.844-.845-1.66-1.72-2.496-2.571-.257-.26-.544-.497-.815-.741-.639-.608-1.292-1.193-1.91-1.83a7.09 7.09 0 0 1-.69-.97c-.095-.142-.175-.29-.286-.46h-1.6L32.018.31l-3.73-.052c-2.202 0-4.405 0-6.608-.06-2.848-.037-5.675-.11-8.502-.148H8.164a4.016 4.016 0 0 1-.676 0 6.172 6.172 0 0 0-2.203.163 3.029 3.029 0 0 0-1.35.667 1.26 1.26 0 0 0-.375 1 34.773 34.773 0 0 1-.521 3.705 3.14 3.14 0 0 0-.074.503 20.582 20.582 0 0 1-.389 3.572 493.03 493.03 0 0 0-.646 4.49c-.059.392-.095.792-.147 1.185v.17c-.389.6-.294 1.326-.506 1.963a1.056 1.056 0 0 1-.125.186c-.235.059-.507.133-.779.192a.798.798 0 0 0-.526.262.812.812 0 0 0-.208.553 294.62 294.62 0 0 1-.147 2.653.792.792 0 0 0 .346.74c.323.223.668.415 1.035.638 0 .118 0 .252.044.392.03.568.056 1.139.08 1.712.016.143.016.287 0 .43C.88 25.9.756 26.567.63 27.27l-.484.111c-.514.112-.565.156-.61.652v.86c0 .289.06.63 0 .94-.058.69.184 1.157.735 1.305h7.298c.308 0 .624.037.932 0 .309-.037.44 0 .734-.06.049-.229.073-.462.074-.696a6.153 6.153 0 0 1 .44-2.23c.063-.19.16-.365.287-.519.33-.43.66-.852 1.013-1.267a5.335 5.335 0 0 1 3.01-1.793c.58-.125 1.153-.288 1.726-.444a4.7 4.7 0 0 1 2.202.052c.437.114.866.255 1.285.422.39.164.762.37 1.109.615a7.132 7.132 0 0 1 2.063 2.223c.242.348.485.704.734 1.06.084.121.153.253.206.392.242.74.734 1.408.998 2.148a.496.496 0 0 0 .536.326h2.937l7.342.052h3.157c.169-.02.339-.02.507 0 .687.08 1.383.022 2.049-.17.057-.219.096-.442.117-.667a7.89 7.89 0 0 1 .558-2.578c.037-.111.103-.208.132-.311a4.533 4.533 0 0 1 2.151-2.645 11.632 11.632 0 0 1 2.13-1.052 7.24 7.24 0 0 1 2.092-.245h.852a4.537 4.537 0 0 1 2.636.741 10.21 10.21 0 0 1 1.776 1.423c.52.57.885 1.267 1.058 2.022.169.623.293 1.26.521 1.867.15.369.223.765.213 1.163a.403.403 0 0 0 .287.447.394.394 0 0 0 .19.005c.588-.052 1.182-.118 1.77-.163h.734c.168.02.338.02.506 0a1.587 1.587 0 0 1 1.461.319zm-54.64-3.26a.97.97 0 0 1-.646.563l-.095-.274a1.11 1.11 0 0 1 .734-.274c.264-.208.521-.422.786-.622.095-.075.234-.067.271.059a.314.314 0 0 1-.117.274c-.28.111-.624.192-.925.281l-.008-.007zm19.67-15.433c-1.09.158-2.193.188-3.29.09-1.13 0-2.268-.038-3.392-.164-1.123-.126-2.202-.11-3.245-.303a2.51 2.51 0 0 1-.396-1.097c-.118-1.074-.264-2.149-.33-3.23-.081-1.363-.089-2.734-.133-4.105 0-.46-.073-.911-.08-1.37.02-.165.06-.326.117-.482 3.348 0 6.645.096 9.912.26.187.313.27.68.235 1.044a3.657 3.657 0 0 0 0 .852c.168.768.279 1.549.33 2.334-.01.94.054 1.878.191 2.808.01.113.01.227 0 .34 0 .541.059 1.082.11 1.616.075.467.065.944-.03 1.407zm11.828-.918a3.087 3.087 0 0 1-.448.2c-.548.138-1.096.266-1.645.385a3.702 3.702 0 0 1-.506.037l-.675.052-1.094.111a9.538 9.538 0 0 0-1.014.074c-1.145.222-2.313.119-3.465.23a1.18 1.18 0 0 1-.845-.163 2.55 2.55 0 0 1-.205-1.037c-.066-1.223-.162-2.445-.257-3.705a29.982 29.982 0 0 1-.301-3.704c-.03-.6.01-1.202.117-1.793.412-.108.84-.138 1.263-.09h4.405c.793 0 1.579 0 2.372.075 1.065.081 1.109.148 1.248 1.215.14 1.067.272 2.074.404 3.141.103.741.264 1.482.294 2.282.053.682.146 1.36.279 2.03.029.193.044.386.073.66zm2.533 2.963a8.213 8.213 0 0 1-.411-1.748 334.17 334.17 0 0 1-.514-3.297c-.073-.482-.11-.963-.162-1.445v-.511c-.14-1.015-.286-2.03-.425-3.045a2.187 2.187 0 0 1 .007-.437c.305.2.596.421.874.66.587.577 1.182 1.14 1.74 1.733.558.592 1.079 1.081 1.578 1.66.707.656 1.36 1.37 1.953 2.133.074.119.22.178.323.274l1.513 1.482a.392.392 0 0 1 .07.526.39.39 0 0 1-.144.126 1.64 1.64 0 0 1-.374.185c-.184.067-.367.119-.55.185-.79.38-1.604.705-2.438.971a.83.83 0 0 0-.235.089 5.631 5.631 0 0 1-2.474.481 1.106 1.106 0 0 1-.33-.037v.015zm-9.2 10.32a.518.518 0 0 1 .538-.263c.07.012.137.039.197.079l.44 1.17a.295.295 0 0 1-.356.163.293.293 0 0 1-.121-.074 1.74 1.74 0 0 1-.698-1.074zm.155-9.134c.227-.267.374-.326.455-.17.183.273.437.491.734.629.117.067.242.156.206.326-.573.23-.632.23-.918-.126a7.7 7.7 0 0 0-.477-.667v.008zm17.356 6.475c-.52.074-1.035.148-1.556.207-.074 0-.154-.096-.287-.17a1.693 1.693 0 0 1 1.843-.037zm8.664 4.082a1.162 1.162 0 0 1-.69-.985c.455-.222.639-.17.683.185.017.266.02.534.007.8zM35.8 28.005a1.457 1.457 0 0 1 1.189.363l-.39.526-.8-.89zm20.851-8.743c.272-.163.477-.274.69-.126a.644.644 0 0 1 .264.682.933.933 0 0 1-.954-.556zm-.881 4.846c-.558.052-.602.059-.903-.163-.14-.104-.36-.178-.264-.482.437.13.837.364 1.167.682v-.037zM37.077 15.09c.323.43.543.69.734.963.037.06 0 .2-.066.282a.254.254 0 0 1-.22 0 6.802 6.802 0 0 1-.529-.741c-.044-.096.022-.222.08-.504zm-1.212 10.33c-.279.067-.484.14-.734.17a.259.259 0 0 1-.196-.056.264.264 0 0 1-.098-.18.307.307 0 0 1 .167-.31.3.3 0 0 1 .12-.031.641.641 0 0 1 .741.407zm26.49-2.09c.089.423.258.779 0 1.186a.508.508 0 0 1-.307-.57c.021-.193-.037-.437.308-.615zm-5.586-5.282a1.29 1.29 0 0 1-.808.467l-.191-.422c.323-.096.587-.267.998-.045zm-28.635-2.86a.579.579 0 0 1 .676-.118.287.287 0 0 1 .14.244.32.32 0 0 1-.206.223.51.51 0 0 1-.64-.341l.03-.008zM7.393 10.742c.271.134.418.326.337.593a.365.365 0 0 1-.32.279.356.356 0 0 1-.15-.02.986.986 0 0 1 .096-.822l.037-.03zM7.07 7.78c.36.615.352.615.058.881-.389-.348-.389-.348-.088-.852l.03-.03zm42.745 10.416c-.337.17-.514-.081-.734-.244l.243-.46c.246.164.422.415.492.704zm-45.859.326c.368.438.324.652-.176.838a.747.747 0 0 1 .176-.838zm25.06 10.447a1.719 1.719 0 0 1-1.058 0c.786-.407.815-.407 1.057 0zm8.648.156c.823-.438.947-.438 1.124 0l-.889.11h-.08l-.155-.11zM6.871 24.678a2.189 2.189 0 0 1-.073-.466.232.232 0 0 1 .089-.183.226.226 0 0 1 .197-.04.262.262 0 0 1 .179.099.267.267 0 0 1 .056.198c-.015.237-.088.422-.448.385v.007zm11.91-1.111c.3 0 .543 0 .777.052.081 0 .147.104.258.192-.61.111-.61.111-1.036-.244zm7.341 7.135c-.242.377-.58.318-.99.177.3-.407.638-.34 1.02-.177h-.03zm-15.58-5.024c-.235.393-.242.393-.646.43.213-.511.213-.511.676-.43h-.03zm35.125-9.29a.661.661 0 0 1-.668.237.234.234 0 0 1-.147-.17.253.253 0 0 1 .11-.2.62.62 0 0 1 .705.133zm2.438 1.222a1.83 1.83 0 0 1 0-.222.222.222 0 0 1 .21-.19.219.219 0 0 1 .098.02.226.226 0 0 1 .162.113.23.23 0 0 1 .014.198 1.083 1.083 0 0 1-.22.333.168.168 0 0 1-.264-.067c.022-.059.014-.11 0-.185zM.322 19.092v.845s-.08.074-.125.074a.146.146 0 0 1-.11-.09.92.92 0 0 1 .235-.8v-.029zm28.429 3.571c-.138.026-.28.026-.419 0-.242-.111-.337-.333-.367-.74.411.177.668.303.786.74zm28.12-.074c.14-.111.22-.222.287-.215.323.037.403.14.462.578l-.749-.363zm-36.27-2.223c-.073.134-.095.223-.125.223a.87.87 0 0 1-.763-.652c.135.066.265.142.389.23.164.069.334.125.506.17l-.007.03zm1.814-.378a.817.817 0 0 1-.735.386c-.14 0-.19-.074-.124-.26l.859-.126zm35.345 10.84a2.038 2.038 0 0 1-1.322 0c.573-.067.94-.238 1.322 0zm-23.994-4.95a1.69 1.69 0 0 1-.213.134c-.17.074-.345.06-.411-.126a.321.321 0 0 1 .102-.267.279.279 0 0 1 .434 0 .956.956 0 0 1 .088.26zM3.31 14.868a.741.741 0 0 1 .25.742s-.08.081-.125.081c-.044 0-.132 0-.14-.044a.806.806 0 0 1 .015-.778zm38.994 8.062c-.11.215-.22.37-.447.333-.228-.037-.184-.23-.081-.363.103-.133.316-.2.528.03zm-17.54.207c-.14-.095-.275-.2-.404-.311a.342.342 0 0 1-.08-.215.488.488 0 0 1 .286-.104c.286.015.286.082.19.63h.008zm16.322-3.875c.47-.081.77-.318 1.204-.378-.338.541-.55.616-1.204.378zM11.1 21.404c0-.349.162-.52.456-.534 0 0 .051 0 .058.052 0 .274-.161.37-.352.467a.735.735 0 0 1-.162.052v-.037zm50.272 3.34c-.264-.547-.264-.547-.184-.947.28.266.17.555.184.948zm-5.756-3.703c.051-.038.132-.134.213-.141.08-.008.374.14.33.267a.267.267 0 0 1-.298.158.284.284 0 0 1-.212-.163.293.293 0 0 1-.026-.136l-.007.015zm-21.71.689l.065.155c-.181.11-.37.207-.565.29-.096 0-.213-.038-.154-.238l.653-.207zm24.845 6.238c.037 0 .073-.096.117-.096a.378.378 0 0 1 .283.138.387.387 0 0 1 .084.306.215.215 0 0 1-.183.104.434.434 0 0 1-.301-.452zm2.878-.223a2.71 2.71 0 0 1-.279.378.234.234 0 0 1-.22 0c-.044-.088-.088-.23-.044-.303.117-.2.3-.223.543-.075zm-26.88-5.52c-.58.342-.58.342-.895.164a.907.907 0 0 1 .895-.163zm-18.964-2.274c.257-.059.389.09.477.304a.082.082 0 0 1 0 .074c-.044 0-.11.074-.14.06-.176-.119-.367-.193-.345-.452l.008.014zM2.98 25.19c.083.094.157.196.22.304.036.1.055.205.059.311 0 0-.08.082-.125.075a.256.256 0 0 1-.233-.185.261.261 0 0 1-.01-.104c.021-.136.05-.27.089-.4zM8.854 6.86c-.118-.111-.22-.163-.257-.245a.239.239 0 0 1 .176-.318.24.24 0 0 1 .24.152.246.246 0 0 1 .017.1 1.181 1.181 0 0 1-.162.304l-.014.007zm51.74 21.552c-.367.23-.397.223-.683-.185a.676.676 0 0 1 .683.185zm-29.508-5.867c.235-.09.418-.186.543.066a.232.232 0 0 1-.051.215c-.22.14-.36.015-.492-.282zm-1.997-5.053l.146-.104c.114.07.22.152.316.244a.232.232 0 0 1 0 .223.211.211 0 0 1-.213 0 2.71 2.71 0 0 1-.242-.363h-.007zm24.398 3.541c0-.044.058-.133.08-.133.135.005.268.028.397.066a.246.246 0 0 1 0 .2.33.33 0 0 1-.477-.133zm-14.509-3.038a.583.583 0 0 1 .06-.6s.117-.074.139-.059c.022.015.124.133.11.17-.066.178-.074.386-.316.497l.008-.008zm7.453 1.482c.102-.118.14-.2.205-.23a.241.241 0 0 1 .36.104.164.164 0 0 1-.064.226.16.16 0 0 1-.083.019 1.716 1.716 0 0 1-.426-.111l.008-.008zm-22.834-1.319c.286-.237.455-.185.594 0a.254.254 0 0 1 .044.223c0 .059-.146.126-.19.104a3.773 3.773 0 0 1-.456-.32l.008-.006zm-20.11-4.445a1.12 1.12 0 0 1 .11-.148h.08c.008 0 .118.245.162.37.044.126 0 .06-.044.06h-.147a2.226 2.226 0 0 1-.169-.297l.008.015zM59.926 24.02c.07.137.127.28.168.43 0 .037-.095.155-.146.155-.17 0-.22-.155-.206-.296.015-.141.096-.156.184-.29zm-21.667-.311v.118c-.147 0-.294 0-.44-.052 0 0-.067-.096-.06-.14.008-.045.081-.104.11-.09.118.075.25.164.39.164zm-21.013-8.306c.14-.081.213-.155.257-.14.092.034.178.081.257.14-.044.06-.103.178-.133.17a2.149 2.149 0 0 1-.381-.17zm-5.536 6.446c-.382.504-.426.534-.566.319.155-.119.199-.378.566-.326v.007zm-6.035-.74c-.11-.186-.184-.268-.199-.356a.232.232 0 0 1 .118-.193.16.16 0 0 1 .208.088.165.165 0 0 1 .012.082 1.43 1.43 0 0 1-.14.408v-.03zm20.94 7.63c.093.039.183.083.271.134a.208.208 0 0 1 .059.126c-.059.044-.125.103-.184.096-.198-.022-.286-.126-.147-.356zm4.654-7.801l-.257-.208c.081-.052.162-.155.235-.148.074.008.14.119.206.185l-.184.17zM10.99 24.775l-.044-.104c.07-.064.146-.122.228-.17a.73.73 0 0 1 .242 0c-.073.11-.103.192-.162.23a.88.88 0 0 1-.271.044h.007zm11.256.377l.132-.14c.103.081.213.155.316.252a.134.134 0 0 1 0 .133.16.16 0 0 1-.147 0 3.428 3.428 0 0 1-.309-.252l.008.007zM19.617 14.98c.186-.017.373-.017.558 0 .052 0 .074.119.11.185.037.067-.146.111-.19.097a3.167 3.167 0 0 1-.478-.29v.008zm3.334.904c0 .067-.044.096-.067.111-.198.126-.462.111-.528 0a.089.089 0 0 1 0-.081c.14-.149.308-.09.47-.06a.54.54 0 0 1 .125.023v.007zm12.599 3.378l-.118.111c-.11-.118-.286-.2-.205-.548l.323.437zm-11.013 7.89a1.142 1.142 0 0 1-.191-.162c-.06-.082-.17-.163 0-.319.058.119.235.2.161.467l.03.015zm-11.227-9.37c.044-.09.06-.156.096-.17.037-.016.257.088.257.229 0 .14-.052.089-.074.126l-.279-.185zM12.224 5.11c.088-.044.169-.118.213-.103a.22.22 0 0 1 .117.178.2.2 0 0 1-.161.118c-.067-.044-.103-.118-.177-.23l.008.038zm-8.077 4.994c.044-.06.096-.14.103-.133.065.036.126.078.184.126l-.132.155-.155-.148zm54.538 11.61l.117-.067c0 .044.066.096.059.133-.007.037-.073.052-.117.075l-.06-.141zM5.733 26.16h-.066c-.007 0-.103-.163-.154-.252l.184-.081c0 .096.066.185.088.281.022.096-.022.03-.022.052h-.03zm37.842-4.142c-.228.119-.294.178-.367.178a.625.625 0 0 1-.22-.066c.05-.052.095-.134.154-.149.145-.006.29.006.433.037zm-11.858 7.054c-.132.056-.27.099-.411.126a.767.767 0 0 1-.22-.074v-.104l.631.052zm-18.531-5.098a.963.963 0 0 1 .19-.125s.081.044.118.066a.876.876 0 0 1-.169.14s-.073-.036-.14-.08zM11.35 12.64l-.22.14c0-.044-.081-.103-.074-.133a.739.739 0 0 1 .133-.178l.161.17zm-4.288 2.423l.103-.156a.68.68 0 0 1 .154.133s-.044.09-.073.134l-.184-.111zm15.287.415v-.186a3.33 3.33 0 0 1 .381 0s.081.074.088.119c.008.044-.058.104-.088.104a3.55 3.55 0 0 1-.381-.045v.008zM8.89 2.421l-.14-.067c0-.044.067-.126.082-.118.064.026.125.058.183.096l-.125.09zM6.813 4.756a1.87 1.87 0 0 1 .264-.104s.08.111.073.119c-.075.06-.154.117-.235.17l-.102-.185zm2.202 3.149l.272-.111s.037 0 .059.051l-.199.2-.132-.14zm16.887 9.49c.073-.081.096-.133.14-.148.044-.015.198.082.168.215-.029.133-.058.082-.088.119l-.22-.186zm25.301-1.607l.132.23c-.044 0-.102.073-.117.059a2.135 2.135 0 0 1-.198-.208l.183-.081zM4.514 13.802l-.168.133c0-.044-.081-.103-.074-.133a.738.738 0 0 1 .147-.155l.095.155zm35.294 10.202c.037 0 .096.044.11.081.015.038 0 .082-.059.127l-.154-.119.103-.089zm21.916.785l.06-.11a.656.656 0 0 1 .065.11v.067l-.125-.067zM10.014 6.03h.059v.06a.058.058 0 0 1-.052 0s.007-.045-.007-.06zm.734-.2c-.073-.037-.154-.067-.154-.089a.742.742 0 0 1 .059-.192c.043 0 .124.044.132.074a.646.646 0 0 1-.052.207h.015zm43.319 12.38l.117-.096s.052.044.044.06a.808.808 0 0 1-.059.133l-.102-.097zm-43.165.549a.897.897 0 0 1-.154-.193s.044-.126.059-.126c.014 0 .154.037.183.089.03.052-.03.111-.088.23zm31.872.881l-.183-.096.147-.267.183.104-.147.26zm-35.528 0l.19-.11c0 .051.074.118.052.14a.639.639 0 0 1-.162.118l-.08-.148zm33.15-2.43l-.147-.104c.044 0 .08-.081.124-.081s.096 0 .14.044l-.117.141zm-24.23-.63l.081-.148.191.119c0 .052-.08.148-.103.14a.52.52 0 0 1-.169-.11zm1.924-.222c0-.067.044-.148.059-.148.07.008.139.023.205.044l-.073.2-.19-.096zM.256 20.744l-.088.156a.589.589 0 0 1-.14-.134s.037-.088.06-.133l.168.111zm27.379.17a.847.847 0 0 1 .066.134s-.044.06-.051.06l-.11-.09.095-.103zm-24.23 1.6c-.043 0-.124-.044-.124-.058a.782.782 0 0 1 .051-.193c.056.047.107.1.155.156 0 0-.037.037-.06.066l-.021.03zm13.217 0c.036-.073.058-.162.088-.162a.834.834 0 0 1 .227 0c0 .06-.051.155-.102.178-.052.022-.06-.023-.162-.045l-.051.03zm21.696 5.446l.154.104c-.037.06-.078.117-.125.17 0 0-.117-.059-.11-.081a.746.746 0 0 1 .08-.193zm-11.85-.63l.198-.103c0 .044.051.104.036.14a.162.162 0 0 1-.124.075s-.06-.03-.11-.111zm-8.958-3.845h-.08v-.059a.238.238 0 0 1 .08 0v.06zM2.554 29.753l.11-.118s.052.044.052.052a.747.747 0 0 1-.066.126l-.096-.06zm44.978-14.195l.044.052-.095.052v-.067c0-.015.022-.037.051-.037zm-7.995 7.646v.067h-.089v-.052c0-.008.088-.023.088-.015zm-4.75-8.424l-.126-.082c.037 0 .074-.088.118-.096.044-.007.08.052.125.082l-.118.096zm-1.719.067s-.051.089-.088.096c-.037.007-.088 0-.14 0a.955.955 0 0 1 .125-.14s.088.014.125.014l-.022.03zm20.852 2.882l-.132-.082s.058-.103.088-.096c.075.014.15.036.22.067v.059l-.176.052zm-37.144-.297l-.066-.133a.566.566 0 0 1 .125 0s.036.06 0 .067a.526.526 0 0 1-.06.066zM9.155 9.557l.073-.134a.64.64 0 0 1 .103.082v.067a.8.8 0 0 1-.176-.015zM50.55 18.52c.044 0 .095-.044.117 0 .022.045.059.082.088.119.03.037-.102.052-.132 0-.03-.052-.03-.06-.073-.119zm-8.914-1.592c.037 0 .081-.074.125-.074s.088.037.132.059c.044.022-.08.074-.124.074-.045 0-.074-.022-.118-.045l-.015-.014zM12.672 21.21s0-.044.058-.044h.066c.022 0 0 .044-.058.044-.06 0-.022.03-.044.015l-.022-.015zm12.863 7.542l.051-.037a.872.872 0 0 1 .06.111l-.06.045-.051-.119zm32.43-8.401v.051a.16.16 0 0 1-.066 0v-.096l.066.045zM37.87 24.492h-.066v-.06c0-.007.036 0 .058-.036l.008.096zm-15.565-2.77l.058-.045a.737.737 0 0 1 .059.11l-.052.045-.066-.11zm21.68 2.222h.06l-.037.074-.022-.074zM9.222 13.172l.11-.074s.044 0 .044.052a.097.097 0 0 1 0 .067l-.154-.045zm9.185 9.735h.051-.059.008z" fill="#C25B24"/><path d="M12.863 37.118h-.669c-2.408 0-4.816 0-7.217-.067-1.468-.051-2.996.09-4.493.06a1.452 1.452 0 0 0-.25.037c-.242.23-.169.46 0 .681.059 0 .11.075.162.075l1.1-.082a4.86 4.86 0 0 1 1.47.067c.36.067.732.067 1.093 0a16.218 16.218 0 0 1 2.555-.104l13.165.104 10.705.103h28.693a8.885 8.885 0 0 1 2.775.282.458.458 0 0 0 .508-.168.468.468 0 0 0 .08-.173.657.657 0 0 0-.404-.674 1.326 1.326 0 0 0-.338 0c-1.072 0-2.151.074-3.223.067-1.696 0-3.392-.067-5.096-.09h-2.04a5.344 5.344 0 0 1-.632-.08 1.114 1.114 0 0 1 .734-.512c.27-.084.503-.26.66-.496.228-.326.515-.608.735-.934a6.362 6.362 0 0 0 .888-4.823c-.132-.526-.176-1.067-.3-1.593a6.346 6.346 0 0 0-1.175-2.163 4.01 4.01 0 0 0-1.065-.741 2.25 2.25 0 0 0-1.38-.578 3.924 3.924 0 0 0-2.144-.245c-.54.001-1.08.04-1.616.119a4.671 4.671 0 0 0-1.035.348c-.389.163-.734.356-1.08.504l-.954 1.163c-.198.245-.403.482-.587.741-.125.154-.222.33-.286.519-.17.63-.316 1.274-.463 1.911a1.57 1.57 0 0 0 0 .422c.002.603.049 1.205.14 1.8.129.605.328 1.192.594 1.75.38.695.877 1.32 1.469 1.844.22.185.468.335.734.445.31.146.592.344.837.585-.33 0-.55.06-.734.066H26.857c-1.388 0-2.768-.066-4.156-.096h-1.696a4.37 4.37 0 0 1-.639-.126c.198-.215.316-.363.455-.496.14-.133.485-.4.735-.623a4.512 4.512 0 0 0 1.358-2.696c.066-.623.169-1.245.257-1.867.021-.14.021-.283 0-.423a8.513 8.513 0 0 0-1.101-2.808 4.35 4.35 0 0 0-1.623-1.585 10.34 10.34 0 0 0-2.636-1.126 10.923 10.923 0 0 0-1.681-.193h-1.102a2.123 2.123 0 0 0-1.35.408 4.142 4.142 0 0 1-.977.496 3.872 3.872 0 0 0-1.437 1.047 3.915 3.915 0 0 0-.824 1.583 7.552 7.552 0 0 0 .308 5.668c.371.632.79 1.234 1.255 1.8.103.156.316.23.478.349l.447.34-.066.178zm4.214-8.327a1.61 1.61 0 0 1 1.556.681 3.023 3.023 0 0 1 .5 2.386.744.744 0 0 1-.5.622.938.938 0 0 0-.293.156 4.167 4.167 0 0 1-1.645.585.947.947 0 0 1-.888-.178c-.412-.378-.735-.815-1.153-1.23a2.044 2.044 0 0 1 .488-2.441c.225-.195.49-.338.775-.418.389-.06.778-.104 1.16-.163zm29.222.904c.506-.415 1.16-.341 1.659-.667a.48.48 0 0 1 .33 0c.52.143.979.455 1.305.888.327.432.503.961.501 1.505a3.146 3.146 0 0 1-.477 1.533 1.892 1.892 0 0 1-2.004.682 2.583 2.583 0 0 1-1.015-.692 2.615 2.615 0 0 1-.586-1.086.673.673 0 0 1-.044-.334c.002-.628.116-1.25.338-1.837l-.007.008z" fill="#C25B24"/><path d="M17.15 31.576a.797.797 0 0 0 .404-.83 1.193 1.193 0 0 0-.514-.851.248.248 0 0 0-.227 0 .304.304 0 0 0-.096.215.323.323 0 0 0 .059.266 1.106 1.106 0 0 1 .294 1.097s.029.022.08.104zm31.38.119c.258.096.412.044.441-.163a1.352 1.352 0 0 0-.426-1.06.467.467 0 0 0-.315-.096c-.066 0-.184.067-.199.118a.471.471 0 0 0 .044.304c0 .06.147.067.22.111.36.208.368.208.236.786z" fill="#C25B24"/></svg>