<svg width="190" height="20" viewBox="0 0 190 20" fill="none" xmlns="http://www.w3.org/2000/svg">
<path fill-rule="evenodd" clip-rule="evenodd" d="M189.544 19.1703C185.553 19.1703 181.256 20.0892 176.038 19.7829C175.731 19.7829 175.424 19.1703 175.424 19.1703C175.117 19.1703 174.81 19.7829 174.81 19.7829C162.533 19.7829 149.948 19.1703 138.898 19.1703C120.174 18.864 100.53 19.7829 81.8062 19.1703C77.8159 19.1703 73.8256 18.864 69.8353 18.864C66.459 18.864 63.0826 18.5577 60.3201 18.864C59.3992 18.2514 56.9437 18.864 56.6367 17.9451C53.5673 18.864 50.1909 17.9451 46.5076 18.2514C44.9728 18.2514 40.6756 17.9451 40.0617 18.2514C35.4576 19.1703 28.0909 18.5577 22.259 18.2514C15.1992 18.2514 7.83256 18.2514 1.69367 17.6388C1.38673 16.4135 2.61451 15.4946 1.69367 14.882C34.2298 15.1883 66.7659 15.1883 101.451 16.4135C112.808 16.7198 123.858 15.8009 135.828 16.1072C153.631 16.4135 170.82 16.4135 187.395 16.7198C186.781 16.4135 188.009 13.9631 187.088 14.5757C186.167 15.1883 186.167 13.9631 186.474 13.0442C184.326 12.7378 187.088 16.1072 184.939 15.8009C184.019 14.2694 184.326 11.2063 186.167 10.5937C187.395 10.5937 186.167 11.5126 186.167 12.1252C187.088 12.1252 187.088 13.0442 187.702 13.3505C187.395 9.98109 188.009 7.53064 187.702 3.85496C174.503 3.24235 161.612 3.85497 149.334 3.24235C147.799 3.54866 149.641 7.22433 147.799 7.22433C148.106 4.77388 147.185 4.46758 146.571 3.54866C111.887 3.54866 75.6673 2.62974 41.9034 2.32343C28.7048 2.32343 15.1992 2.01713 2.00062 1.71082C1.38673 3.24235 1.69367 5.6928 1.69367 7.83695C1.69367 9.36848 1.38673 9.67479 1.38673 10.5937C1.07978 11.5126 2.00062 13.6568 0.77284 13.6568C0.158951 12.1252 0.77284 9.98109 0.77284 7.53064C0.77284 5.3865 0.465896 2.62974 1.38673 0.791902C3.84228 -0.433323 6.29784 0.485596 8.44645 0.485596C70.4492 1.09821 128.155 1.71082 189.237 1.71082C189.544 2.01713 189.544 2.32343 189.851 2.62974C189.237 8.14325 189.544 13.0442 189.544 19.1703Z" fill="white"/>
<path fill-rule="evenodd" clip-rule="evenodd" d="M186.474 3.54883C186.474 5.08036 186.781 6.9182 185.553 7.2245C185.86 5.99928 184.633 3.54883 186.474 3.54883Z" fill="white"/>
<path fill-rule="evenodd" clip-rule="evenodd" d="M182.484 6.61174C182.791 5.69282 181.87 3.85498 183.098 3.85498C183.405 4.46759 183.405 6.61174 182.484 6.61174Z" fill="white"/>
<path fill-rule="evenodd" clip-rule="evenodd" d="M180.642 4.16165C180.335 5.08057 180.949 6.9184 180.335 7.22471C179.108 7.22471 179.414 3.54903 180.642 4.16165Z" fill="white"/>
<path fill-rule="evenodd" clip-rule="evenodd" d="M176.345 7.22435C176.038 6.61174 176.345 4.46759 176.652 3.85498C177.88 3.85498 177.88 7.53065 176.345 7.22435Z" fill="white"/>
<path fill-rule="evenodd" clip-rule="evenodd" d="M172.969 9.6748C172.048 8.75588 172.355 5.08021 172.662 3.85498C173.889 4.7739 172.969 7.83696 172.969 9.6748Z" fill="white"/>
<path fill-rule="evenodd" clip-rule="evenodd" d="M170.206 6.91828C170.513 5.99936 169.592 3.85521 170.82 4.16152C170.82 4.77413 171.434 6.91828 170.206 6.91828Z" fill="white"/>
<path fill-rule="evenodd" clip-rule="evenodd" d="M168.058 6.9179C167.137 6.9179 167.444 4.46745 167.751 4.16114C168.979 3.85483 168.365 6.30528 168.058 6.9179Z" fill="white"/>
<path fill-rule="evenodd" clip-rule="evenodd" d="M164.374 6.91856C164.681 5.99964 164.067 4.46811 164.681 4.1618C165.602 3.8555 165.602 7.22487 164.374 6.91856Z" fill="white"/>
<path fill-rule="evenodd" clip-rule="evenodd" d="M161.919 3.85552C161.612 4.77443 162.226 6.30597 161.612 6.61227C160.691 6.61227 160.691 3.54921 161.919 3.85552Z" fill="white"/>
<path fill-rule="evenodd" clip-rule="evenodd" d="M158.235 15.1885C158.235 11.8191 157.621 7.83713 158.235 3.85515C159.156 3.54884 158.849 5.69298 158.849 5.69298C158.849 7.22451 158.849 8.75605 158.849 9.98127C158.849 11.8191 159.463 13.6569 158.235 15.1885Z" fill="white"/>
<path fill-rule="evenodd" clip-rule="evenodd" d="M153.017 14.576C153.631 13.9634 153.631 13.0445 154.552 13.3508C154.552 13.9634 154.552 14.576 154.859 14.576C155.78 14.576 155.78 13.9634 155.78 13.0445C155.473 12.4319 154.552 12.4319 153.938 11.8193C154.245 11.2067 154.552 10.9004 154.552 9.98145C154.859 10.2878 155.166 10.2878 155.78 10.2878C155.78 10.9004 154.859 12.1256 156.394 11.8193C157.622 14.576 154.859 16.4139 153.017 14.576Z" fill="white"/>
<path fill-rule="evenodd" clip-rule="evenodd" d="M155.78 4.16162C155.78 5.08054 156.087 6.91838 154.859 6.61207C155.166 5.69315 154.552 4.16162 155.78 4.16162Z" fill="white"/>
<path fill-rule="evenodd" clip-rule="evenodd" d="M152.403 6.61189C151.483 6.61189 151.79 3.85513 152.097 3.54883C153.324 3.54883 152.71 6.30558 152.403 6.61189Z" fill="white"/>
<path fill-rule="evenodd" clip-rule="evenodd" d="M145.957 7.2245C144.73 7.2245 145.344 5.08036 145.037 3.85513C145.344 3.85513 145.651 3.85513 145.651 3.54883C146.878 4.16144 145.957 6.30558 145.957 7.2245Z" fill="white"/>
<path fill-rule="evenodd" clip-rule="evenodd" d="M142.888 10.5939C141.66 9.06234 142.274 5.69297 142.581 3.54883C143.809 5.38667 142.581 8.44973 142.888 10.5939Z" fill="white"/>
<path fill-rule="evenodd" clip-rule="evenodd" d="M139.512 6.30525C140.126 5.99894 138.898 4.77372 139.205 3.54849C139.512 3.54849 139.819 3.54849 139.819 3.24219C141.353 3.8548 140.126 5.38633 140.432 7.22417C139.819 7.22417 139.512 6.61156 139.512 6.30525C139.512 5.99894 139.512 6.30525 139.512 6.30525Z" fill="white"/>
<path fill-rule="evenodd" clip-rule="evenodd" d="M137.056 6.61174C135.828 6.61174 136.442 4.16129 136.749 3.85498C137.67 3.85498 136.749 5.38651 137.056 6.61174Z" fill="white"/>
<path fill-rule="evenodd" clip-rule="evenodd" d="M133.373 6.91804C133.373 5.99912 133.066 4.46759 133.68 3.85498C134.294 3.85498 134.294 6.61174 133.373 6.91804Z" fill="white"/>
<path fill-rule="evenodd" clip-rule="evenodd" d="M131.531 3.54883C131.224 4.77405 132.145 6.9182 130.61 6.61189C130.917 5.69297 129.996 3.54883 131.531 3.54883Z" fill="white"/>
<path fill-rule="evenodd" clip-rule="evenodd" d="M128.155 15.4945C126.313 14.8818 127.541 12.1251 127.541 10.5936C127.541 8.1431 127.234 5.38634 127.848 3.5485C128.769 3.2422 128.462 5.38634 128.462 5.38634C128.462 9.67463 129.076 13.3503 128.155 15.4945Z" fill="white"/>
<path fill-rule="evenodd" clip-rule="evenodd" d="M126.927 13.3504C126.006 13.963 126.006 15.1882 124.778 15.4945C125.085 13.963 125.085 13.6567 123.551 13.3504C123.551 11.8188 123.551 10.2873 125.392 10.5936C125.392 11.8188 124.471 12.1252 124.164 13.0441C126.006 13.6567 125.392 11.5125 126.927 11.5125C126.927 12.1252 126.313 13.3504 126.927 13.3504Z" fill="white"/>
<path fill-rule="evenodd" clip-rule="evenodd" d="M125.392 6.61189C125.699 5.69297 124.778 3.54883 126.006 3.54883C126.313 4.46775 126.927 6.61189 125.392 6.61189Z" fill="white"/>
<path fill-rule="evenodd" clip-rule="evenodd" d="M123.244 6.61174C122.323 6.61174 122.63 4.16129 122.937 3.85499C124.165 3.54868 123.551 5.99913 123.244 6.61174Z" fill="white"/>
<path fill-rule="evenodd" clip-rule="evenodd" d="M119.56 6.30558C119.867 5.69297 119.253 3.85513 119.867 3.54883C120.788 3.54883 120.788 6.9182 119.56 6.30558Z" fill="white"/>
<path fill-rule="evenodd" clip-rule="evenodd" d="M117.412 3.54888C117.105 4.46779 117.719 5.99933 117.105 6.30563C115.877 6.30563 116.184 3.24257 117.412 3.54888Z" fill="white"/>
<path fill-rule="evenodd" clip-rule="evenodd" d="M113.728 3.54883C113.422 5.38667 114.649 9.06234 112.808 9.67495C113.115 7.53081 112.194 4.16144 113.728 3.54883Z" fill="white"/>
<path fill-rule="evenodd" clip-rule="evenodd" d="M111.273 3.85498C111.273 4.7739 111.58 6.61174 110.352 6.30543C110.352 5.38651 110.045 3.85498 111.273 3.85498Z" fill="white"/>
<path fill-rule="evenodd" clip-rule="evenodd" d="M107.589 6.30525C106.669 6.30525 106.976 3.54849 107.283 3.24219C108.51 3.24219 107.896 5.99894 107.589 6.30525Z" fill="white"/>
<path fill-rule="evenodd" clip-rule="evenodd" d="M102.678 6.30541C101.758 6.30541 101.758 2.93604 102.678 3.24234C102.985 3.85496 103.292 5.69279 102.678 6.30541Z" fill="white"/>
<path fill-rule="evenodd" clip-rule="evenodd" d="M99.9159 6.30559C98.6881 6.30559 99.302 3.85513 99.609 3.54883C100.837 3.85513 99.302 5.08036 99.9159 6.30559Z" fill="white"/>
<path fill-rule="evenodd" clip-rule="evenodd" d="M96.2325 6.61189C96.2325 5.69297 95.9256 4.16144 96.5394 3.54883C97.1533 3.54883 97.1533 6.30558 96.2325 6.61189Z" fill="white"/>
<path fill-rule="evenodd" clip-rule="evenodd" d="M94.3908 3.24219C94.0839 4.46741 95.0047 6.61156 93.47 6.30525C93.7769 5.38633 92.8561 3.24219 94.3908 3.24219Z" fill="white"/>
<path fill-rule="evenodd" clip-rule="evenodd" d="M91.3215 14.5757C90.0937 13.6568 91.3215 11.2063 90.4006 10.2874C90.7076 8.14325 90.0937 5.08019 90.7076 3.24235C91.6284 2.93605 91.3215 5.08019 91.3215 5.08019C91.3215 8.75587 91.6284 11.8189 91.3215 14.5757Z" fill="white"/>
<path fill-rule="evenodd" clip-rule="evenodd" d="M88.2521 6.30548C88.5591 5.38656 87.6383 3.24242 88.866 3.54873C88.866 4.16134 89.7869 6.30548 88.2521 6.30548Z" fill="white"/>
<path fill-rule="evenodd" clip-rule="evenodd" d="M86.1034 6.30608C85.1826 6.30608 85.4895 3.85563 85.7964 3.54932C87.0242 3.24302 86.4103 5.69347 86.1034 6.30608Z" fill="white"/>
<path fill-rule="evenodd" clip-rule="evenodd" d="M82.4202 5.99894C82.7271 5.08003 82.1132 3.54849 82.7271 3.24219C83.6479 3.24219 83.6479 6.61156 82.4202 5.99894Z" fill="white"/>
<path fill-rule="evenodd" clip-rule="evenodd" d="M79.9645 3.24272C79.6576 4.16164 80.2714 5.69317 79.6576 5.99948C78.7367 5.99948 79.0437 2.93642 79.9645 3.24272Z" fill="white"/>
<path fill-rule="evenodd" clip-rule="evenodd" d="M76.5881 3.24219C76.2811 5.08002 77.5089 8.7557 75.6672 9.36831C75.9742 7.22417 75.0533 3.8548 76.5881 3.24219Z" fill="white"/>
<path fill-rule="evenodd" clip-rule="evenodd" d="M74.1327 3.54883C74.1327 4.46775 74.4396 6.30559 73.2118 5.99928C73.2118 5.08036 72.9049 3.54883 74.1327 3.54883Z" fill="white"/>
<path fill-rule="evenodd" clip-rule="evenodd" d="M70.4491 5.99959C69.5283 5.99959 69.8352 3.24283 70.1421 2.93652C71.3699 2.93652 70.756 5.69328 70.4491 5.99959Z" fill="white"/>
<path fill-rule="evenodd" clip-rule="evenodd" d="M66.4588 6.30525C66.4588 5.38633 66.1519 3.8548 66.7658 3.24219C67.3797 3.24219 67.3796 5.99894 66.4588 6.30525Z" fill="white"/>
<path fill-rule="evenodd" clip-rule="evenodd" d="M64.3103 3.24221C64.0033 4.16113 64.6172 5.99897 64.0033 6.30528C63.0825 6.30528 63.0825 2.6296 64.3103 3.24221Z" fill="white"/>
<path fill-rule="evenodd" clip-rule="evenodd" d="M61.5478 14.2699C60.32 14.2699 61.5478 12.1257 60.627 11.5131C60.9339 9.67526 60.32 5.08067 60.9339 2.93652C61.8547 2.93652 61.5478 5.08067 61.5478 4.77436C61.5478 8.75634 61.8547 11.8194 61.5478 14.2699Z" fill="white"/>
<path fill-rule="evenodd" clip-rule="evenodd" d="M60.0132 13.3511C60.0132 13.6574 60.0132 13.9637 60.0132 14.2701C59.0923 14.8827 57.5576 14.2701 56.3298 14.5764C56.3298 12.4322 60.3201 12.1259 58.4785 10.2881C57.8646 10.2881 59.0923 11.8196 57.8646 11.8196C55.1021 10.9007 59.3993 8.45023 60.0132 10.5944C60.0132 12.1259 58.7854 12.4322 58.1715 13.3511C58.1715 13.9637 59.3993 13.3511 60.0132 13.3511Z" fill="white"/>
<path fill-rule="evenodd" clip-rule="evenodd" d="M58.1716 5.99982C58.4785 5.0809 57.5577 2.93676 58.7855 3.24306C59.0924 3.85567 59.7063 5.99982 58.1716 5.99982Z" fill="white"/>
<path fill-rule="evenodd" clip-rule="evenodd" d="M56.3298 5.99959C55.4089 5.99959 55.4089 3.54914 56.0228 2.93652C57.2506 2.93652 56.6367 5.38697 56.3298 5.99959Z" fill="white"/>
<path fill-rule="evenodd" clip-rule="evenodd" d="M52.6465 5.99913C52.9534 5.08021 52.3395 3.54867 52.9534 3.24237C53.8743 2.93606 53.8743 6.30543 52.6465 5.99913Z" fill="white"/>
<path fill-rule="evenodd" clip-rule="evenodd" d="M50.1909 2.93608C49.8839 3.855 50.4978 5.38653 49.8839 5.69284C48.9631 5.69284 48.9631 2.62978 50.1909 2.93608Z" fill="white"/>
<path fill-rule="evenodd" clip-rule="evenodd" d="M46.8147 2.93652C46.5077 4.77436 47.7355 8.45004 45.8938 9.06265C46.2008 7.22481 44.973 3.54914 46.8147 2.93652Z" fill="white"/>
<path fill-rule="evenodd" clip-rule="evenodd" d="M42.8244 5.69343C43.1314 4.77451 42.2105 2.63037 43.4383 2.63037C43.7452 3.24298 44.3591 5.99974 42.8244 5.69343Z" fill="white"/>
<path fill-rule="evenodd" clip-rule="evenodd" d="M40.0617 5.38683C40.3687 4.46791 39.4478 2.63007 40.6756 2.93637C40.6756 3.24268 40.9825 5.38683 40.0617 5.38683Z" fill="white"/>
<path fill-rule="evenodd" clip-rule="evenodd" d="M37.6063 2.93652C37.6063 3.85544 37.6063 4.77436 37.6063 5.69328C37.2994 5.69328 37.2994 5.69328 36.9924 5.69328C37.2994 4.77436 36.6855 2.93652 37.6063 2.93652Z" fill="white"/>
<path fill-rule="evenodd" clip-rule="evenodd" d="M34.8436 5.69343C33.6159 5.69343 34.2297 2.93668 34.5367 2.63037C35.4575 2.63037 35.1506 5.38713 34.8436 5.69343Z" fill="white"/>
<path fill-rule="evenodd" clip-rule="evenodd" d="M32.0812 13.9634C30.8535 13.0445 31.7743 10.9003 31.1604 9.67509C31.4673 7.53095 30.8535 4.46789 31.4673 2.63005C32.3882 2.32374 32.0812 4.46789 32.0812 4.46789C32.3882 8.14356 32.3882 11.2066 32.0812 13.9634Z" fill="white"/>
<path fill-rule="evenodd" clip-rule="evenodd" d="M29.0117 5.38713C29.0117 4.46821 29.0117 3.54929 29.0117 2.63037C29.9326 2.63037 30.5464 5.69343 29.0117 5.38713Z" fill="white"/>
<path fill-rule="evenodd" clip-rule="evenodd" d="M26.8632 5.38692C25.9423 5.38692 26.2493 2.93647 26.5562 2.63016C27.784 2.32385 27.1701 5.08061 26.8632 5.38692Z" fill="white"/>
<path fill-rule="evenodd" clip-rule="evenodd" d="M23.1799 5.38731C23.4869 4.46839 22.873 2.93686 23.4869 2.63055C24.4077 2.32425 24.4077 5.69361 23.1799 5.38731Z" fill="white"/>
<path fill-rule="evenodd" clip-rule="evenodd" d="M20.7242 5.08049C19.8034 5.38679 20.1104 2.63004 20.4173 2.32373C21.3381 2.32373 21.0312 4.77418 20.7242 5.08049Z" fill="white"/>
<path fill-rule="evenodd" clip-rule="evenodd" d="M17.3479 2.32373C17.0409 4.16157 18.2687 7.83724 16.427 8.44986C17.0409 6.61202 15.5062 2.93634 17.3479 2.32373Z" fill="white"/>
<path fill-rule="evenodd" clip-rule="evenodd" d="M14.8923 2.62944C14.8923 3.54836 15.1992 4.77359 14.5853 5.3862C13.6645 5.3862 13.6645 2.32314 14.8923 2.62944Z" fill="white"/>
<path fill-rule="evenodd" clip-rule="evenodd" d="M11.2089 5.08027C10.288 5.08027 10.595 2.62982 10.9019 2.32352C12.1297 2.01721 11.8227 4.77397 11.2089 5.08027Z" fill="white"/>
<path fill-rule="evenodd" clip-rule="evenodd" d="M7.2187 5.08102C6.29787 5.08102 6.29787 2.01796 7.2187 2.32427C7.52565 2.93688 7.83259 4.46841 7.2187 5.08102Z" fill="white"/>
<path fill-rule="evenodd" clip-rule="evenodd" d="M4.76299 5.08049C2.92132 5.08049 4.45605 3.24265 4.1491 2.32373C5.06994 2.32373 4.45605 3.85526 4.76299 5.08049Z" fill="white"/>
</svg>
