<svg width="49" height="49" viewBox="0 0 49 49" fill="none" xmlns="http://www.w3.org/2000/svg">
<mask id="mask0" mask-type="alpha" maskUnits="userSpaceOnUse" x="3" y="0" width="46" height="45">
<path d="M3.3042 0.0429688H48.2009V44.615H3.3042V0.0429688Z" fill="white"/>
</mask>
<g mask="url(#mask0)">
<path fill-rule="evenodd" clip-rule="evenodd" d="M15.6987 35.8964C14.6572 36.8647 13.6216 37.8206 12.5625 38.8044C11.9359 38.1992 11.5946 37.4606 11.3975 36.6444C11.1121 35.4899 11.1621 34.3354 11.371 33.1871C11.3946 33.0506 11.4534 32.8923 11.5475 32.8054C12.3301 32.0637 13.1245 31.3344 13.96 30.5585C13.8599 32.6099 14.6455 34.2889 15.6987 35.8964ZM14.3336 31.0799C14.313 30.4313 14.5278 29.9533 15.0279 29.5282C15.9664 28.7368 17.0402 28.3427 18.1906 28.1192C19.0173 27.9578 19.7027 28.3892 19.8145 29.2768C19.891 29.8758 19.8822 30.5896 19.6351 31.0954C18.8201 32.7651 17.5904 34.1027 16.2694 35.4123C15.2103 34.1182 14.3924 32.7868 14.3336 31.0799ZM12.0036 39.3444C10.5208 40.803 9.09687 42.2771 7.17869 43.0251C5.90187 43.5185 4.56033 42.4044 4.60446 40.9116C4.6427 39.692 5.23698 38.7082 6.00484 37.923C7.29343 36.604 8.69676 35.403 10.0501 34.1523C10.2795 33.9382 10.509 33.724 10.7414 33.5099C10.4767 35.6327 10.6738 37.5847 12.0036 39.3444ZM46.9249 13.9178C46.1718 15.4789 45.2421 16.8692 43.9035 17.9771C43.0003 18.7251 42.2972 19.7368 41.4764 20.5995C40.0495 22.0985 38.6227 23.5944 37.1605 25.0499C36.3956 25.8133 35.3982 25.9623 34.4156 25.6644C33.4448 25.3727 32.518 24.904 31.5766 24.4975C30.7999 24.1654 30.0468 23.7433 29.2465 23.4827C28.161 23.1289 27.2107 23.5323 26.4222 24.3175C25.0307 25.7016 23.8009 27.2347 22.8154 28.9758C22.6594 29.252 22.5094 29.252 22.2652 29.1402C21.4562 28.774 20.8854 28.1223 20.3941 27.3806C20.094 26.9213 19.8263 26.4433 19.4997 25.9002C19.9087 25.7358 20.2764 25.5992 20.6353 25.4378C21.5915 25.0126 22.5418 24.5751 23.4979 24.1437C24.3069 23.7806 24.8865 23.132 25.3896 22.4027C25.878 21.6982 26.0074 20.8478 25.8132 20.0285C25.522 18.812 25.0983 17.6295 24.7247 16.4347C24.3746 15.3113 23.9745 14.2002 23.6715 13.0644C23.4185 12.1054 23.7862 11.3575 24.4923 10.7337C25.7544 9.62265 26.9959 8.48058 28.2227 7.3261C29.6202 6.01023 30.9764 4.64782 32.3827 3.34127C33.0564 2.71748 33.7448 2.07506 34.5304 1.64368C35.1335 1.31161 35.8984 1.3023 36.5927 1.14713C36.6192 1.18748 36.6456 1.23403 36.6721 1.27748C36.1661 1.95092 35.6836 2.64299 35.1452 3.28541C33.486 5.27782 31.8208 7.26092 30.1233 9.2161C29.3731 10.0789 28.5228 10.8392 27.7461 11.6709C27.399 12.0464 27.0871 12.4685 26.8018 12.903C26.0015 14.1195 27.0695 17.0833 28.4493 17.4527C29.426 17.7133 30.288 17.3099 30.9617 16.6799C32.3709 15.3609 33.7301 13.9737 35.0423 12.543C36.981 10.4264 38.9963 8.43403 41.6264 7.28575C41.8324 7.19575 42.0471 7.12127 42.3237 7.00955C41.7323 8.89955 41.0939 10.6809 39.6406 11.9378C37.5783 13.7223 35.4836 15.4726 33.4036 17.2416C32.9152 17.6544 32.4268 18.064 31.9591 18.5016C31.0882 19.3116 30.9205 20.2768 31.4619 21.3847C31.8914 22.2661 32.5533 22.893 33.4448 23.2127C34.4745 23.582 35.2423 23.2902 35.8366 22.3344C35.9101 22.2195 36.0455 22.1451 36.1455 22.0458C37.4871 20.7268 38.8639 19.4451 40.1613 18.0795C41.7824 16.3726 43.3181 14.5695 45.4657 13.5578C45.9659 13.322 46.4954 13.1451 47.0132 12.9433C47.0603 12.9775 47.1044 13.0116 47.1515 13.0489C47.0809 13.3375 47.0544 13.6571 46.9249 13.9178ZM43.5152 5.54472C43.2592 5.58506 42.9974 5.60058 42.7503 5.67196C40.582 6.28955 38.6315 7.38196 36.9899 8.95541C35.2747 10.6002 33.6948 12.4002 32.065 14.1475C31.2853 14.9854 30.5175 15.8264 29.4731 16.3075C28.8405 16.6023 28.2345 16.3913 27.9079 15.7458C27.805 15.544 27.8285 15.2771 27.7373 15.0661C27.4255 14.3337 27.5019 13.6199 27.9168 13.0178C28.3816 12.3413 28.9288 11.7206 29.4878 11.1278C30.1674 10.3985 30.947 9.76851 31.6001 9.01748C32.9799 7.42541 34.3303 5.80541 35.6454 4.15437C36.4927 3.0961 37.2723 1.96955 38.0549 0.855408C38.1637 0.700235 38.2108 0.327821 38.1196 0.225408C37.9901 0.0795455 37.6901 0.014373 37.4841 0.0547178C36.6986 0.20058 35.9219 0.399201 35.1393 0.576097C34.1861 0.793339 33.2947 1.1223 32.7534 2.07196C32.7034 2.15575 32.5916 2.2023 32.5092 2.26437C32.0061 2.65541 31.4913 3.02782 31.0059 3.44368C28.664 5.44851 26.3752 7.52782 23.9804 9.46127C22.5212 10.6406 21.9916 12.0402 22.5476 13.893C22.9301 15.1623 23.4008 16.4068 23.8245 17.6606C24.0863 18.4271 24.3923 19.1813 24.5806 19.9664C24.7512 20.674 24.5806 21.3102 24.1481 21.9278C23.5479 22.7875 22.7124 23.2933 21.9004 23.8333C21.0972 24.3702 20.2235 24.783 19.3938 25.2795C19.1908 25.4037 18.8937 25.6861 18.9231 25.8413C19.0114 26.3037 18.7554 26.4371 18.4759 26.5768C17.6963 26.9709 16.8931 27.3154 16.1312 27.7437C15.3251 28.1999 14.5072 28.6592 13.7805 29.2364C12.3948 30.3413 11.0651 31.5144 9.7294 32.6813C8.27606 33.9506 6.80212 35.2013 5.4135 36.5482C4.38381 37.5444 3.58947 38.7547 3.35705 40.2816C3.12758 41.7713 3.65714 42.9909 4.71625 43.9437C5.66945 44.7971 6.79329 44.7661 7.83182 44.2478C8.82915 43.7482 9.82648 43.1895 10.6738 42.4571C12.9891 40.474 15.2456 38.4133 17.4786 36.3278C19.2761 34.6489 20.6854 32.6161 21.9151 30.422C22.0534 30.4623 22.2181 30.5306 22.3888 30.5554C22.8301 30.6144 23.0537 30.3847 23.1713 29.9409C23.2567 29.6306 23.3773 29.2861 23.5891 29.072C24.7953 27.8337 26.0339 26.6358 27.2607 25.4223C27.9315 24.7582 28.6935 24.5627 29.5643 24.9816C30.0762 25.2268 30.5763 25.5154 31.0971 25.7295C32.1768 26.164 33.2506 26.6513 34.3627 26.9616C35.6807 27.3309 36.9222 27.0051 37.9195 26.0399C39.2728 24.7302 40.5879 23.374 41.8765 21.993C43.0562 20.7299 44.2124 19.442 45.3127 18.1044C45.9306 17.3502 46.4866 16.5216 46.9367 15.6464C47.3957 14.7558 47.6958 13.7689 48.0664 12.8254C48.3606 12.0775 48.19 11.8385 47.4163 11.9223C45.6952 12.1147 44.1742 12.8595 42.918 14.0389C41.1763 15.6806 39.57 17.4806 37.8783 19.1844C36.9045 20.1651 35.9013 21.1116 34.8657 22.0178C34.3774 22.4461 33.7949 22.2785 33.3094 21.8968C32.7328 21.4437 32.218 20.9037 32.2415 20.0782C32.2474 19.8392 32.4474 19.5723 32.6239 19.3923C33.0182 18.9795 33.4359 18.5916 33.8714 18.2316C35.4512 16.9189 36.9987 15.5502 38.6403 14.3306C41.4234 12.2575 42.8268 9.25024 43.8653 5.96368C43.7505 5.82713 43.6329 5.68437 43.5152 5.54472Z" fill="#FEFEFE"/>
</g>
<path fill-rule="evenodd" clip-rule="evenodd" d="M4.69611 24.9983C4.48077 24.7718 4.24246 24.561 4.05296 24.316C3.74 23.9208 3.86346 23.4729 4.31711 23.2358C4.71908 23.025 5.13828 23.1567 5.35649 23.6046C5.84459 24.6058 6.66001 25.3804 7.42662 26.1918C7.92334 26.7161 8.39422 27.2615 8.84787 27.8174C8.94549 27.936 8.91965 28.1415 8.94836 28.3101C8.77896 28.268 8.56649 28.2759 8.44877 28.181C7.16534 27.1509 5.89627 26.1049 4.6272 25.0642C4.65017 25.0431 4.67314 25.0194 4.69611 24.9983Z" fill="#FEFEFE"/>
<path fill-rule="evenodd" clip-rule="evenodd" d="M20.4653 42.1247C21.0461 42.7913 21.6204 43.4666 22.2099 44.1215C22.4905 44.4343 22.5514 44.8377 22.336 45.2119C22.1098 45.6066 21.7182 45.6855 21.4616 45.2996C21.0352 44.6652 20.635 43.9928 20.2652 43.2941C19.878 42.5691 19.5343 41.8061 19.1949 41.0372C19.1123 40.853 19.121 40.6016 19.0862 40.3794C19.2515 40.4613 19.4603 40.4817 19.5734 40.6337C19.9063 41.0781 20.1999 41.5722 20.511 42.0458C20.4958 42.0721 20.4805 42.0984 20.4653 42.1247Z" fill="#FEFEFE"/>
<path fill-rule="evenodd" clip-rule="evenodd" d="M10.85 17.9653C11.2232 18.0098 11.5266 17.9742 11.771 18.0927C12.0636 18.2349 12.2542 18.5578 12.1119 18.9281C11.7092 19.962 11.8891 20.9959 12.0636 22.0505C12.1925 22.8297 12.2623 23.6206 12.3267 24.4116C12.3402 24.5568 12.1925 24.7108 12.1173 24.8619C12.0314 24.7138 11.9106 24.5775 11.8649 24.4205C11.5508 23.2681 11.2447 22.1127 10.9548 20.9574C10.8205 20.4301 10.6755 19.8909 10.6406 19.3547C10.6165 18.94 10.7614 18.5163 10.85 17.9653Z" fill="#FEFEFE"/>
<path fill-rule="evenodd" clip-rule="evenodd" d="M30.8477 40.2747C30.2745 40.317 29.8075 40.4264 29.3856 40.3568C28.6609 40.2399 27.9621 40.0161 27.26 39.8271C26.3389 39.5809 25.4178 39.3248 24.5031 39.0612C24.3711 39.0239 24.2712 38.912 24.1553 38.8349C24.297 38.7727 24.4451 38.6459 24.5772 38.6558C25.1827 38.7056 25.7946 38.7578 26.3872 38.8747C27.5595 39.101 28.706 39.3944 29.9234 39.0537C30.3485 38.9368 30.7447 39.1606 30.8767 39.4814C30.9669 39.7028 30.8671 39.9664 30.8477 40.2747Z" fill="#FEFEFE"/>
<path fill-rule="evenodd" clip-rule="evenodd" d="M19.027 18.3188C19.0377 18.4416 19.1234 18.6873 19.0672 18.8844C18.6923 20.187 18.2934 21.4838 17.8811 22.775C17.8329 22.9207 17.6508 23.0206 17.5304 23.1377C17.4848 22.9664 17.3965 22.7864 17.3965 22.615C17.4045 21.8352 17.4072 21.0553 17.4688 20.2812C17.5196 19.6471 17.5839 18.9958 17.766 18.4016C17.932 17.8646 18.5852 17.8075 19.027 18.3188Z" fill="#FEFEFE"/>
<path fill-rule="evenodd" clip-rule="evenodd" d="M30.6446 30.236C31.0682 30.7305 30.9776 31.3178 30.4722 31.4887C29.9902 31.6505 29.4702 31.7374 28.9618 31.7524C28.0474 31.7764 27.1301 31.7284 26.2157 31.6894C26.0901 31.6835 25.9674 31.5576 25.8447 31.4887C25.9265 31.3748 25.985 31.21 26.096 31.156C26.3092 31.0481 26.5517 30.9942 26.7825 30.9283C27.7612 30.6556 28.7427 30.3948 29.7156 30.1071C30.0953 29.9963 30.4284 29.9933 30.6446 30.236Z" fill="#FEFEFE"/>
<path fill-rule="evenodd" clip-rule="evenodd" d="M17.2425 49C16.7829 48.9616 16.401 49.0001 16.0766 48.8846C15.7218 48.7595 15.6711 48.4357 15.7252 48.0669C15.813 47.5089 15.7657 46.9285 15.8569 46.377C15.9786 45.6138 16.1611 44.8634 16.3638 44.1227C16.401 43.9912 16.6747 43.9238 16.8403 43.8276C16.8741 44.004 16.9316 44.1836 16.9349 44.3599C16.9417 44.8858 16.8707 45.415 16.9349 45.9344C17.0228 46.6527 17.2256 47.3582 17.3337 48.0733C17.3743 48.3298 17.2864 48.6024 17.2425 49Z" fill="#FEFEFE"/>
<path fill-rule="evenodd" clip-rule="evenodd" d="M0.5 31.2812C0.547016 30.9088 0.505877 30.5088 0.652804 30.2881C0.776222 30.1019 1.16705 29.9743 1.35805 30.064C2.57166 30.633 3.81466 30.8674 5.10468 30.8433C5.25454 30.8399 5.41322 31.0571 5.56897 31.1674C5.42792 31.3054 5.29862 31.5468 5.14582 31.564C4.59337 31.633 4.03505 31.6433 3.47673 31.6364C2.69508 31.6192 1.91049 31.5778 1.12885 31.5192C0.952534 31.5054 0.782099 31.3916 0.5 31.2812Z" fill="#FEFEFE"/>
<path fill-rule="evenodd" clip-rule="evenodd" d="M7.42521 40.8009C7.12642 40.9825 6.81174 41.0893 6.57652 40.6905C6.37309 40.3415 6.73545 39.9035 7.52057 39.551C7.94014 40.3344 7.92743 40.4982 7.42521 40.8009ZM5.9249 41.5059C6.52566 42.2858 7.49831 42.3036 8.29932 41.5522C9.00497 40.8899 9.15437 39.9178 8.65215 39.2661C8.00371 38.4257 7.05331 38.4542 6.11562 39.3409C5.46401 39.9605 5.38772 40.8151 5.9249 41.5059Z" fill="#FEFEFE"/>
</svg>
