<svg width="80" height="50" viewBox="0 0 80 50" fill="none" xmlns="http://www.w3.org/2000/svg">
<mask id="mask0" mask-type="alpha" maskUnits="userSpaceOnUse" x="0" y="0" width="80" height="50">
<path d="M0.501099 0.766602H79.8531V50H0.501099V0.766602Z" fill="white"/>
</mask>
<g mask="url(#mask0)">
<path fill-rule="evenodd" clip-rule="evenodd" d="M46.3724 23.7397C45.8089 23.8957 45.2454 24.0517 44.5324 24.2458C45.6802 23.2821 46.1011 23.1989 46.3724 23.7397ZM47.0054 30.5899C47.2628 31.1723 47.482 31.6576 47.7637 32.2851C46.5359 31.7997 46.7237 31.8483 47.0054 30.5899ZM21.1028 47.1397C20.3411 47.2195 19.7254 47.2888 19.0124 47.365C19.2837 46.9109 19.4959 46.5469 19.7428 46.1309C20.1985 46.4706 20.5881 46.7584 21.1028 47.1397ZM41.1898 46.6752C41.6663 47.0634 42.1255 47.4344 42.6159 47.8296H39.1202C39.1237 47.788 39.1272 47.7429 39.1307 47.6978C39.8472 47.3442 40.5637 46.9872 41.1898 46.6752ZM30.6194 22.8176C31.715 22.6234 32.6889 22.4466 33.8055 22.2456C34.0107 23.1573 34.2124 24.0378 34.435 25.0189C33.1376 24.2701 31.955 23.5906 30.6194 22.8176ZM42.7237 24.4608C42.7028 24.5058 42.682 24.5509 42.6646 24.596C41.7359 24.6549 40.8037 24.7104 39.8681 24.7693C39.4715 23.7709 39.0646 22.7517 38.6228 21.6493C40.0176 22.6061 41.3707 23.5317 42.7237 24.4608ZM39.1828 25.5147C39.2524 26.8354 39.315 27.9933 39.3881 29.3419C38.2994 28.3226 37.3672 27.4525 36.3028 26.4611C37.2802 26.1386 38.1394 25.8544 39.1828 25.5147ZM34.5602 21.5626C34.1359 21.6528 33.882 21.6146 33.6837 21.1536C33.3985 20.4914 33.0054 19.8709 32.6298 19.181C32.7272 19.1672 32.835 19.1221 32.922 19.1498C34.1498 19.5277 35.3811 19.8952 36.5915 20.3285C36.8594 20.4186 37.0368 20.748 37.3289 21.0426C36.275 21.2368 35.4124 21.3789 34.5602 21.5626ZM46.1046 32.4861C45.5237 33.689 44.9915 34.8608 44.3933 35.9978C44.1602 36.4381 43.7985 36.2336 43.6211 35.9181C42.8002 34.4378 42.0141 32.9403 41.1968 31.4219C42.8246 31.3872 44.4176 31.7061 46.1046 32.4861ZM31.6837 19.0562C31.8959 19.0701 32.1602 19.2677 32.282 19.4549C32.7341 20.1448 33.1307 20.8658 33.6176 21.6874C32.9568 21.8053 32.3828 21.8296 31.875 22.0202C30.5915 22.5021 29.3359 22.568 28.0559 22.0445C27.8924 21.9717 27.6837 21.9994 27.4507 21.9752C28.1115 20.2626 30.0002 18.9626 31.6837 19.0562ZM48.6855 35.3322C48.9011 36.7605 49.0437 38.1715 48.6959 39.7488C47.795 38.1576 46.4385 37.2805 45.0333 36.5213C45.5689 35.2421 46.0907 33.9941 46.602 32.7738C47.9724 33.0581 48.4907 34.0288 48.6855 35.3322ZM36.3446 26.1803C36.2228 26.2392 36.0037 26.2565 35.9098 26.1837C35.3568 25.7781 34.7237 25.473 34.6854 24.596C34.6472 23.8298 34.3828 23.081 34.1985 22.2213C35.2559 22.041 36.2994 21.8469 37.3463 21.7117C37.5028 21.6909 37.7776 21.9128 37.8576 22.0826C38.2854 22.9979 38.6681 23.9338 39.0611 24.8456C38.0385 25.3517 37.1968 25.7781 36.3446 26.1803ZM44.3341 38.1333C44.2715 37.7971 44.4002 37.4261 44.4524 36.9546C46.2715 37.8282 47.6246 38.8648 48.3168 40.5912C48.3481 40.6674 48.3307 40.7715 48.3133 40.8546C47.9655 42.2136 45.9968 43.9296 44.6089 44.0786C44.4941 44.0925 44.3794 44.0613 44.2507 44.0509C44.9081 42.0645 44.6855 40.1059 44.3341 38.1333ZM43.3081 30.8984C42.6611 30.8152 41.9828 30.8915 41.3254 30.9573C40.5776 31.0336 40.1915 30.6418 40.195 29.9035C40.1985 28.4405 40.1255 26.9845 40.0802 25.4107C41.1272 25.4107 42.2576 25.3968 43.3915 25.4314C43.5794 25.4384 43.8089 25.6498 43.9376 25.8267C44.6298 26.7592 45.2733 27.7229 45.9724 28.6485C46.6785 29.588 46.4211 30.5552 46.2194 31.5051C45.2072 31.2901 44.2681 31.0267 43.3081 30.8984ZM21.1272 43.0144C21.5585 42.5811 21.5307 42.0784 21.4159 41.5792C20.9115 39.3675 20.8559 37.1661 21.5376 34.9752C22.8559 30.7458 26.4802 27.917 30.9811 27.6328C31.475 27.5981 31.9689 27.6259 32.042 26.832C32.6994 27.3277 33.315 27.6744 33.7707 28.1597C35.7846 30.3125 37.7915 32.4653 39.715 34.6909C40.8211 35.9701 41.3602 37.5613 41.6489 39.2184C41.7011 39.5096 41.6941 39.8458 41.6037 40.1266C40.7098 42.8514 39.1341 44.9904 36.2924 45.9298C31.8854 47.3858 27.5968 47.2645 23.4854 44.9037C22.4976 44.3387 21.4681 43.8498 20.4802 43.2848C20.2715 43.1635 20.0802 42.8792 20.0315 42.6434C18.8941 37.2389 19.6524 32.2538 23.2385 27.8373C23.9794 26.9256 24.8733 26.6344 25.8994 26.4195C26.1985 26.3605 26.522 26.305 26.7724 26.149C28.0628 25.3586 29.315 25.6637 30.6541 26.201C20.3724 28.1944 18.8698 36.6912 21.1272 43.0144ZM42.5428 45.968C44.0385 46.6717 45.4298 46.3424 46.755 45.5485C48.1568 44.72 49.2524 43.5829 49.9933 42.1269C50.0663 41.9813 50.1463 41.8426 50.2541 41.9016C51.2837 41.912 52.3237 41.8322 53.3359 41.9605C54.355 42.0922 55.3463 42.4354 56.3828 42.5845C55.2315 41.8981 54.2194 40.9482 52.7446 40.9795C52.1568 40.9899 51.562 40.9136 50.9846 40.7992C50.842 40.7715 50.6333 40.4213 50.6611 40.2549C51.3115 36.608 50.3898 33.2523 48.8072 30.0109C48.6715 29.7301 48.6994 29.3696 48.6507 29.0472C48.5255 28.1909 48.2576 27.3971 47.7394 26.7107C47.6698 26.7349 47.5968 26.7592 47.5272 26.7835C47.6176 27.1994 47.7081 27.6189 47.8402 28.229C47.1168 27.2098 46.5046 26.3466 45.7568 25.2928C46.2994 25.2928 46.6611 25.3067 47.0228 25.2928C48.1568 25.2547 48.355 24.9635 47.962 23.8749C47.8298 23.5248 47.7254 23.1296 47.4889 22.8522C47.1933 22.5021 46.7794 22.2525 46.3202 22.0202C46.122 19.181 46.6159 16.3869 48.275 13.9221C49.3811 12.2824 50.922 12.1576 52.4281 13.4333C52.915 13.8458 53.3568 14.3242 53.7707 14.8096C54.4281 15.5757 54.6333 16.4493 54.4768 17.4616C54.3898 18.0093 54.4141 18.6125 54.5637 19.1394C54.762 19.8432 55.3324 20.2765 56.0698 20.3978C56.8072 20.5192 57.3324 20.1794 57.7741 19.6005C59.0507 17.9226 59.3707 15.9432 59.6628 13.9429C59.9759 11.7901 60.2437 9.62345 60.6715 7.49145C60.9776 5.95225 61.9237 4.72851 63.2176 3.83065C64.9846 2.60691 66.8976 1.74025 69.1063 1.75411C70.4246 1.76105 71.0889 2.31571 71.2768 3.62611C71.3776 4.35065 71.3915 5.09251 71.3637 5.82398C71.2976 7.41865 71.9515 8.62851 73.2385 9.51598C74.3341 10.2752 75.482 10.9546 76.5394 11.7589C77.1585 12.2269 77.7046 12.8197 78.1741 13.4333C78.9672 14.4837 78.9115 15.5098 77.882 16.3314C76.9846 17.0456 75.9237 17.569 74.9046 18.1168C73.9654 18.6194 72.9115 18.9453 72.042 19.5416C71.2594 20.0754 70.5115 20.7792 70.0072 21.5765C69.1028 23.0048 69.7741 24.1835 71.4194 24.5613C72.5915 24.8282 73.7811 25.1645 74.835 25.7122C75.6454 26.1317 76.3307 26.8667 76.9255 27.5843C77.5689 28.3573 77.5585 29.3245 76.8941 30.0802C75.5724 31.5848 74.8733 33.3563 74.2472 35.2178C73.5689 37.2389 72.4002 37.7659 70.4141 36.9304C67.8124 35.8349 65.1481 35.4536 62.3863 35.9874C61.5689 36.1469 60.7133 36.445 60.0246 36.9026C58.5359 37.8976 58.6089 39.3605 60.1011 40.352C61.2802 41.1354 62.6576 41.3192 63.9933 41.6624C65.2246 41.9778 66.4524 42.3626 67.6142 42.8792C68.5081 43.2744 68.8872 44.1168 68.7759 45.1256C68.7272 45.5624 68.5463 45.7635 68.0628 45.805C65.2663 46.0581 62.4698 46.3355 59.6768 46.6336C56.5533 46.9733 53.4402 47.3858 50.3133 47.6944C48.6576 47.8573 46.9846 47.8885 45.322 47.9232C44.9394 47.9301 44.522 47.7741 44.1811 47.5869C43.4124 47.1674 42.6785 46.6787 41.9307 46.2211C41.9376 46.1483 41.9446 46.072 41.9515 45.9992C42.1498 45.9819 42.3863 45.8952 42.5428 45.968ZM67.8194 0.766113C67.482 0.86318 67.1446 0.96718 66.8072 1.06078C63.1968 2.04878 60.4315 4.00745 59.5933 7.84505C59.1968 9.66158 59.1341 11.5578 58.9741 13.4194C58.8176 15.1944 58.6681 16.9658 57.9828 18.6368C57.6698 19.4098 56.9672 19.8952 56.3689 19.7669C55.6768 19.6178 55.2211 18.9453 55.2455 18.0752C55.2489 17.8394 55.2976 17.6037 55.3324 17.3714C55.4611 16.5498 55.4472 15.704 54.9185 15.0522C54.1602 14.1232 53.3881 13.149 52.435 12.4522C50.8211 11.2666 49.0263 11.6306 47.7637 13.1837C47.5237 13.4784 47.3011 13.7904 47.1272 14.1266C46.0281 16.2621 45.3741 18.5258 45.3046 20.9317C45.2872 21.4205 45.4263 21.9163 45.5028 22.4813C45.0472 22.7482 44.4768 23.0845 43.955 23.3861C42.9324 22.672 41.9968 21.9336 40.9846 21.3304C39.9481 20.7064 38.8524 20.1794 37.7498 19.6768C37.0889 19.3786 36.362 19.2122 35.6663 18.98C35.4959 18.921 35.315 18.8517 35.1724 18.7442C34.1463 17.9851 32.995 17.6002 31.7324 17.5101C28.8211 17.3021 25.6002 19.8813 25.5759 22.6581C25.5689 23.7293 25.1689 24.3048 24.4246 24.8421C24.2889 24.9426 24.1672 25.0536 24.042 25.1645C22.0002 26.9394 20.1428 28.8669 19.075 31.408C17.3185 35.6061 17.1863 39.8701 18.5185 44.2034C18.5881 44.4219 18.7028 44.7408 18.6089 44.8656C18.1811 45.4237 17.7463 46.0131 17.1898 46.4256C16.7724 46.7307 16.442 46.9075 16.7376 47.3096C14.9046 47.3096 13.0402 47.3962 11.1933 47.2888C7.87153 47.0877 4.55675 46.7619 1.23153 46.5157C0.99849 46.4984 0.744577 46.7445 0.501099 46.8658C0.664577 47.0773 0.793273 47.4032 1.00892 47.4898C1.53414 47.6875 2.1011 47.8261 2.66458 47.9058C5.81936 48.3496 8.97762 48.776 12.1359 49.192C15.1689 49.5872 18.2089 49.6981 21.2524 49.3307C23.0368 49.1157 24.7898 49.1053 26.5568 49.5941C28.7133 50.1869 30.9533 50.0275 33.1307 49.7675C35.3672 49.4971 37.6037 49.2752 39.8228 49.5456C44.1498 50.0725 48.4733 49.8125 52.8037 49.764C53.0646 49.7605 53.3255 49.7155 53.5863 49.6912C56.4768 49.4277 59.3672 49.1677 62.2541 48.8973C64.2089 48.7136 66.2228 48.8939 68.0594 47.9613C68.1985 47.8955 68.3863 47.9197 68.5498 47.9024C70.5846 47.6736 72.6194 47.4552 74.6507 47.2125C75.2733 47.1397 75.5585 46.7376 75.5202 46.1205C75.4855 45.5312 75.0576 45.1256 74.442 45.1082C74.1115 45.0979 73.7776 45.136 73.4472 45.1707C72.2715 45.292 71.0994 45.4168 69.9168 45.5416C69.9968 43.413 69.1968 42.1165 67.2559 41.4058C66.1915 41.0141 65.0646 40.7853 63.955 40.5322C62.7515 40.2549 61.4959 40.1336 60.5255 39.2634C59.8889 38.688 59.8994 38.1472 60.6855 37.8282C61.6837 37.4296 62.7481 37.1141 63.8159 36.965C65.7637 36.6877 67.6315 37.1418 69.4646 37.8352C70.3168 38.161 71.2628 38.4453 72.1533 38.4141C73.9168 38.3621 74.8281 37.0656 75.3672 35.5818C76.0107 33.8138 76.7272 32.129 77.9098 30.621C78.8907 29.373 78.7481 28.0141 77.795 26.7418C76.8837 25.5285 75.6663 24.693 74.2715 24.1592C73.395 23.8194 72.4455 23.6669 71.5307 23.4138C70.7724 23.2093 70.5602 22.8419 70.9463 22.1624C71.2072 21.7048 71.5828 21.2333 72.0281 20.9768C73.3394 20.2176 74.7168 19.5763 76.0559 18.8621C76.8489 18.4392 77.6872 18.0509 78.3724 17.4858C80.195 15.9882 80.3585 14.0816 78.7376 12.3552C77.8576 11.4122 76.755 10.6669 75.715 9.88691C75.0124 9.36345 74.2194 8.96131 73.5098 8.44478C72.7133 7.86238 72.3168 7.05811 72.3794 6.04585C72.4107 5.49811 72.3863 4.95385 72.3933 4.40611C72.4037 2.71091 71.9237 1.32078 70.1046 0.766113H67.8194Z" fill="#FEFEFE"/>
</g>
</svg>
