<svg width="54" height="53" viewBox="0 0 54 53" fill="none" xmlns="http://www.w3.org/2000/svg">
<path d="M30.7739 21.1204C31.5891 19.8325 32.6249 18.9987 33.317 18.5251C33.18 18.3468 32.9409 18.0676 32.59 17.7727C32.0989 17.3611 31.7996 17.2686 31.5407 16.9102C31.4111 16.731 31.2502 16.4308 31.2251 15.9572C31.8865 15.9414 32.4215 15.9639 32.7863 15.9869C33.8243 16.054 33.9214 16.1555 34.4388 16.0803C34.9212 16.0094 35.1646 15.8727 35.6392 15.9321C35.9583 15.9722 36.2089 16.0797 36.3696 16.1643C36.4588 16.3463 36.541 16.5813 36.425 16.7023C36.2788 16.8588 35.9497 16.6883 35.3352 16.662C34.5878 16.6317 34.4292 16.8556 33.7477 16.808C33.362 16.7807 33.024 16.684 32.7378 16.5604C32.9475 16.9454 33.1871 17.195 33.3613 17.3506C33.754 17.7017 34.0533 17.7782 34.112 18.0751C34.1582 18.3078 33.9941 18.3484 34.0377 18.679C34.0669 18.9001 34.1493 18.9558 34.183 19.2558C34.2137 19.5357 34.1591 19.6265 34.1336 19.6591C34.0228 19.8136 33.7963 19.846 33.7471 19.8567C33.1929 19.9569 32.1354 21.0272 31.6648 21.6505C31.3925 22.011 30.6553 23.0962 30.5777 25.2055C30.4616 28.264 31.8374 30.6252 33.0067 32.6398C34.1192 34.55 35.2437 36.4883 37.5188 37.9074C37.5302 37.9151 37.5135 37.9058 40.1847 39.3375C40.329 39.4151 41.7633 40.1846 43.7035 40.8872C44.3853 41.1344 44.946 41.3058 45.5472 41.1317C46.1653 40.951 46.5086 40.491 46.6869 40.2465C48.0484 38.3805 49.1293 36.1973 49.2459 35.965C50.3591 33.7278 50.5244 34.1705 51.0823 32.7646C51.8743 30.7691 51.8643 29.0633 51.8499 28.0345C51.8212 26.1266 51.7964 24.4567 50.6511 22.63C50.3033 22.076 49.0929 20.2073 46.5003 19.1517C45.0857 18.575 43.7936 18.4598 43.0027 18.444C43.3113 18.5807 44.0381 18.954 44.4778 19.7237C44.6346 19.9972 44.9702 20.5868 44.7778 21.2984C44.6761 21.6764 44.4614 21.9481 44.3195 22.0995C43.9731 21.7518 43.5481 21.3729 43.0366 20.9934C42.6489 20.7076 42.2731 20.4657 41.9239 20.2637C41.84 20.2808 41.6745 20.3285 41.5374 20.4612C41.2516 20.7348 41.357 21.1191 41.3671 21.1518C41.2864 21.1232 40.9774 21.0002 40.8239 20.6991C40.6736 20.4021 40.709 20.0073 40.9839 19.7622C41.31 19.47 41.7903 19.5492 41.9259 19.571C42.3485 19.6392 42.6284 19.8861 42.7724 20.0113C43.1229 20.3199 43.1318 20.5413 43.426 20.6503C43.6447 20.7322 43.8729 20.695 44.0363 20.6498C43.9938 20.4576 43.8391 19.9024 43.2687 19.4552C42.5106 18.8632 41.6017 18.9233 41.4384 18.9366C41.4161 18.9076 41.1971 18.5941 41.3564 18.2271C41.514 17.8649 41.9107 17.766 41.9499 17.7566C42.1787 17.8215 42.6392 17.9212 43.1804 17.8022C43.8696 17.6536 44.2614 17.2443 44.4763 17.0225C45.3617 16.1051 45.3208 14.9389 45.2947 14.5902C45.1041 14.8044 44.4813 15.4466 43.3826 15.6934C43.1272 15.7522 42.1253 15.9508 41.05 15.5115C40.6101 15.332 40.2945 15.1008 40.1008 14.934C40.1657 14.8602 40.3375 14.6892 40.6309 14.5962C40.9317 14.5023 41.1899 14.5431 41.2924 14.5645C41.3136 14.6527 41.3628 14.8055 41.4938 14.9618C41.5937 15.0812 41.7045 15.156 41.7798 15.1989C42.0028 15.2259 42.6446 15.2806 43.3271 14.958C44.095 14.5953 44.404 13.9965 44.484 13.8232C44.5673 13.8356 44.7354 13.8535 44.9246 13.7938C45.2183 13.7031 45.3593 13.4972 45.396 13.4382C45.4732 13.5263 45.57 13.6256 45.6896 13.7243C45.8443 13.8528 45.9938 13.9478 46.1242 14.018C46.1841 14.4373 46.2183 15.0846 46.0175 15.8404C45.8606 16.4363 45.6103 16.9053 45.3988 17.2311C46.4641 17.6058 48.2105 18.3708 49.811 19.8848C52.4701 22.4031 52.9366 25.2989 53.0589 26.1534C53.309 27.8818 53.0367 29.1775 52.6486 31.0391C52.3657 32.3974 51.9988 34.1498 50.8356 36.1957C49.8226 37.9801 48.5493 39.3812 47.4604 40.578C47.0061 41.0767 46.6136 41.4816 46.3386 41.7584C46.3052 41.7398 45.8376 41.4798 45.3277 41.6857C44.9614 41.8331 44.7199 42.1625 44.7082 42.5294C44.4918 42.4631 44.1746 42.3524 43.8181 42.1694C43.2068 41.8522 42.8686 41.5239 42.6003 41.3028C41.8927 40.7251 41.2236 40.5602 40.5287 40.2941C38.7441 39.6109 36.9526 38.3248 36.1629 37.7594C33.5473 35.8827 32.1944 33.6525 31.6673 32.762C30.8655 31.4127 29.5581 29.1474 29.5447 26.0575C29.5324 24.8787 29.5496 23.0512 30.7739 21.1204Z" fill="#FEBA95"/>
<path d="M34.6202 19.8099C34.7762 19.8156 34.8108 19.8749 34.9113 19.867C35.0518 19.8542 35.1198 19.7187 35.2399 19.5745C35.3922 19.3923 35.6151 19.2217 35.8 19.1512C36.117 19.0304 36.5462 19.125 36.8147 19.3143C36.983 19.432 37.1413 19.6984 37.4575 20.2292C37.6024 20.4746 37.6744 20.611 37.7756 20.6076C37.8465 20.6056 37.9049 20.5394 38.1169 20.1182C38.3566 19.646 38.3717 19.5465 38.514 19.4473C38.672 19.3347 38.9247 19.2581 39.1493 19.3121C39.5454 19.4062 39.6749 19.8646 39.8559 20.5074C39.9466 20.8299 39.9847 21.1248 39.838 21.3926C39.802 21.4561 39.7366 21.5754 39.6289 21.5864C39.4585 21.6029 39.2856 21.3405 39.214 21.1904C39.1382 21.0295 39.1694 20.9848 39.0781 20.7237C38.9945 20.4798 38.9527 20.3578 38.8637 20.3416C38.6935 20.3104 38.4665 20.6834 38.4259 20.7497C38.2527 21.0435 38.3014 21.1941 38.1353 21.2873C37.9831 21.3719 37.7934 21.3295 37.7119 21.3123C37.5958 21.2858 37.4308 21.2221 37.1253 20.8921C36.8535 20.5988 36.855 20.5101 36.5828 20.2146C36.344 19.9535 36.2011 19.8031 36.0304 19.8174C35.9124 19.8274 35.882 19.9106 35.615 20.157C35.339 20.4112 35.2012 20.5395 35.0418 20.5614C34.7733 20.6014 34.477 20.4291 34.363 20.2184C34.3418 20.1802 34.2426 19.9836 34.3404 19.8762C34.4106 19.804 34.5589 19.8084 34.6202 19.8099Z" fill="#FEBA95"/>
<path d="M2.98038 32.6207C2.63931 32.4222 1.41453 31.6585 1.09786 30.2879C0.700212 28.5755 1.822 26.3441 3.85867 26.0609C5.23574 25.8705 6.72355 26.6085 7.55808 27.8901C7.7404 27.5566 8.0693 27.053 8.64782 26.5843C9.11541 26.2042 9.89931 25.5672 11.0537 25.5814C11.2372 25.5837 12.6751 25.6218 13.4151 26.7041C14.0072 27.5708 13.7265 28.4839 13.6748 28.6424C14.324 28.2195 15.124 27.7689 16.0806 27.3602C16.6509 27.1173 17.1956 26.923 17.6984 26.7701C17.3928 26.6693 16.9366 26.4828 16.5137 26.1173C16.1585 25.8116 16.1415 25.6525 15.7982 25.4066C15.403 25.1217 15.0758 25.0781 14.4058 24.8906C13.85 24.7345 13.3199 24.5139 12.7774 24.3289C11.3111 23.8289 10.126 22.9106 9.14917 22.155C7.80818 21.1174 7.13766 20.5986 6.62436 19.7154C6.0517 18.7283 5.88982 17.7494 5.77083 17.0309C5.62311 16.1434 5.54356 15.6629 5.64449 15.0013C5.7038 14.6126 5.83242 14.1132 5.82487 13.3423C5.82304 13.0679 5.80384 12.8455 5.78819 12.6954C6.09543 12.6756 6.35021 12.5306 6.43926 12.3176C6.48328 12.2078 6.47523 12.1066 6.45919 12.0359C6.6557 12.073 6.93148 12.1456 7.22933 12.295C7.56307 12.4626 7.79226 12.6614 7.93372 12.8028C7.86304 12.3303 7.79729 11.7255 7.78192 11.0191C7.76983 10.5144 7.75372 9.45857 8.00601 8.16529C8.18807 7.23935 8.56137 6.26714 9.30546 4.32297C9.51668 3.76571 9.69998 3.30722 9.82697 2.99419C10.0807 3.20349 10.4568 3.51342 10.9236 3.88258C12.4803 5.1137 12.6246 5.10954 13.0997 5.56616C13.9809 6.41077 14.3743 7.27474 14.8029 8.2184C15.2202 9.13846 15.4371 9.94705 15.5571 10.5247C15.6784 10.3554 15.9088 10.0863 16.288 9.85787C16.5975 9.67212 16.8912 9.58138 17.0927 9.53608C17.0754 9.80154 17.0847 10.2226 17.2709 10.6854C17.4613 11.159 17.7019 11.3495 18.0175 11.8758C18.1825 12.1528 18.4066 12.5814 18.5708 13.1649C18.4164 13.3338 18.2616 13.5004 18.1072 13.6693C18.0888 13.5013 18.0448 13.2503 17.9147 12.9689C17.7191 12.5436 17.454 12.3267 17.1848 12.0171C16.9591 11.7589 16.6639 11.3641 16.4123 10.7913C16.1217 11.1155 15.9404 11.4057 15.8293 11.6078C15.5042 12.2018 15.4877 12.5875 15.0837 12.853C14.8689 12.9931 14.6395 13.0395 14.4894 13.0558C14.5357 12.9116 14.5973 12.652 14.5243 12.3455C14.4919 12.202 14.4376 12.0816 14.3854 11.9904C14.4551 11.9319 14.6198 11.7799 14.6502 11.5491C14.6791 11.3254 14.5659 11.1532 14.4602 10.996C14.3311 10.8031 14.1707 10.6708 14.0425 10.5822C14.0986 10.2552 14.1449 9.76601 14.0551 9.1869C13.8196 7.68374 12.8339 6.70675 12.3974 6.28615C11.6559 5.57184 10.8478 5.1336 10.1985 4.86641C9.31941 6.2348 8.8928 7.4701 8.67222 8.32815C8.67222 8.32815 8.23437 10.0325 8.47313 11.8848C8.60145 12.8769 8.86031 13.2671 9.15958 13.4913C9.25153 13.5594 9.4497 13.6893 9.70507 13.9256C9.98989 14.1878 10.3339 14.504 10.2386 14.6769C10.1671 14.806 9.88377 14.8161 9.71568 14.7982C9.34782 14.7551 9.13849 14.504 9.09341 14.5413C9.03439 14.5872 9.46348 14.927 9.47642 15.4043C9.48314 15.6282 9.39909 15.9065 9.24573 15.9345C9.07775 15.9666 8.87142 15.6856 8.79425 15.5816C8.70116 15.4569 8.64973 15.3384 8.6181 15.2492C8.48076 15.2821 7.98602 15.3885 7.43871 15.1724C6.91311 14.9648 6.67229 14.5927 6.60092 14.4767C6.46326 14.9999 6.31327 15.8538 6.47413 16.8918C6.53385 17.2771 6.7129 18.1698 7.32757 19.1654C7.93586 20.1527 8.6662 20.7458 9.15346 21.1328C10.7874 22.4361 11.5855 22.2513 13.6624 23.6066C14.0612 23.8661 14.5412 24.2064 15.3215 24.4982C15.9048 24.7168 16.1603 24.7238 16.5975 24.9354C17.2217 25.2375 17.6577 25.6876 17.9722 26.1414C17.9018 25.6053 17.8436 25.0495 17.7974 24.4718C17.754 23.946 17.7256 23.4342 17.7049 22.9396C17.6774 22.8772 17.5614 22.6373 17.2645 22.5105C17.0764 22.4293 16.9036 22.4302 16.8155 22.4365C16.6159 22.2478 16.3148 21.9626 15.9577 21.6117C14.9316 20.6034 14.8657 20.4571 14.4014 20.0377C13.8483 19.5385 13.2999 19.1998 12.2083 18.5242C11.4627 18.0624 10.7971 17.6905 10.2648 17.4067C10.2445 17.3411 10.2089 17.1775 10.285 16.9956C10.3273 16.8905 10.3921 16.8167 10.4387 16.7723C10.6412 16.8813 10.9692 17.061 11.3735 17.2902C12.243 17.7799 12.4781 17.9348 12.9221 18.141C13.2015 18.27 13.6342 18.4526 14.2039 18.6161C13.8907 17.9737 13.626 17.4639 13.452 17.129C12.7462 15.7746 12.6411 15.6878 12.6064 15.2993C12.5691 14.9112 12.6366 14.5919 12.4083 14.1525C12.2961 13.9371 12.2013 13.867 12.0932 13.5967C11.9489 13.2399 11.9883 13.0512 11.9232 12.7618C11.8164 12.3028 11.5808 12.1776 11.3554 11.79C10.9421 11.076 11.067 10.3229 11.1725 9.6742C11.2324 9.30588 11.3734 8.755 11.7253 8.1373C11.8215 8.1345 12.0388 8.14173 12.2652 8.25679C12.5524 8.40294 12.6738 8.62856 12.7084 8.70375C12.4573 9.25004 12.3683 9.72637 12.3347 10.0506C12.2992 10.3796 12.251 10.8237 12.4102 11.342C12.5669 11.8607 12.7889 11.9967 13.0403 12.4537C13.4443 13.1893 13.2325 13.4969 13.4478 14.4101C13.7007 15.4843 14.108 15.5521 14.634 16.8288C14.8414 17.3298 15.0878 18.0667 15.2035 19.0262C15.5684 19.4442 15.9312 19.8648 16.2939 20.2853C16.787 20.8578 17.2802 21.4302 17.7677 21.9988C17.5824 21.1319 17.4178 19.856 17.6171 18.3355C17.9304 15.9428 18.9739 14.2568 19.4062 13.6155C20.0699 12.6301 21.3191 10.7779 23.8976 9.65833C25.4706 8.97611 26.9258 8.83052 27.8067 8.8035C27.7923 8.69405 27.7834 8.55442 27.807 8.39488C27.8218 8.29317 27.8436 8.20422 27.8696 8.12609C28.9067 8.08887 30.0284 8.08888 31.2264 8.13849C32.1864 8.17888 33.0954 8.25054 33.9465 8.34297C33.972 8.22859 33.9938 8.07381 33.9809 7.89154C33.9688 7.73186 33.9325 7.59561 33.8988 7.49308C34.2466 7.47284 34.7636 7.47712 35.3541 7.6108C35.8072 7.7115 35.9627 7.81261 36.5221 8.02504C37.7972 8.50554 38.4562 8.75333 39.0829 8.54656C39.61 8.37025 39.8829 7.94839 40.0043 7.76319C40.2607 7.36607 40.2727 7.03318 40.2534 5.61228C40.2332 4.16878 40.2162 3.92802 40.3235 3.50388C40.4885 2.84561 40.8031 2.34827 41.0352 2.04039C40.0136 1.61943 37.9828 0.939402 35.3933 1.11831C33.0957 1.27708 31.4859 2.03421 31.1456 2.20108C30.0194 2.74643 29.3087 3.34715 28.216 4.27202C27.6538 4.74775 27.2464 5.13856 25.5022 6.9315C24.5764 7.88341 23.768 8.7232 23.0978 9.4211C22.7831 9.36006 22.4687 9.30126 22.1541 9.24022C22.7001 8.64391 23.4843 7.79575 24.439 6.7835C26.6151 4.47869 27.2099 3.95124 27.483 3.711C28.767 2.59231 29.5711 1.88921 30.9131 1.24233C32.6975 0.381891 34.3603 0.131249 35.3114 0.0478982C37.6958 -0.15791 39.5065 0.349528 40.4416 0.622234C41.7573 1.00461 42.7775 1.49839 43.4708 1.88497C43.4297 1.96495 43.2618 2.27624 42.848 2.44535C42.4581 2.60472 42.1039 2.53494 42.0039 2.51323C41.7744 2.73905 41.4801 3.08864 41.2924 3.5681C41.0249 4.25488 41.1889 4.67275 41.231 5.73216C41.2853 7.0511 41.3138 7.71047 40.8876 8.3578C40.791 8.50592 40.225 9.334 39.1925 9.51589C38.5117 9.63625 37.8967 9.42616 37.4673 9.28167C37.0323 9.13334 36.6986 8.9498 36.4785 8.80902C36.4951 8.90004 36.5198 9.09221 36.4324 9.31637C36.3559 9.51195 36.2306 9.63866 36.1594 9.7042C35.4847 9.51962 34.733 9.34683 33.9142 9.20044C33.1165 9.0583 32.3665 8.96246 31.6802 8.89963C32.433 9.19487 33.3208 9.60512 34.2546 10.1822C35.0588 10.6776 35.7226 11.1859 36.2516 11.645C36.3178 11.5801 36.3844 11.5174 36.4506 11.4524C37.1882 12.0265 38.319 13.0696 39.0717 14.661C39.4384 15.4352 39.6283 16.1518 39.7266 16.7366C39.6607 16.8038 39.4946 16.9627 39.2116 17.0408C38.9387 17.1176 38.709 17.0801 38.609 17.0584C38.5445 16.9211 38.4504 16.708 38.3677 16.4367C38.2348 16.006 38.2314 15.7544 38.1353 15.7413C38.0754 15.7328 37.9717 15.8182 37.7823 16.2865C37.5876 16.2447 37.2364 16.1451 36.8874 15.8953C36.581 15.6744 36.4059 15.4304 36.3136 15.2784C36.4539 15.2974 36.6052 15.3218 36.7626 15.3523C36.9939 15.4009 37.206 15.4565 37.3932 15.5151C37.4283 15.1181 37.4276 14.4576 37.116 13.7265C36.7923 12.9674 36.2943 12.5114 35.7955 12.0667C34.4994 10.9079 33.1022 10.3448 32.4089 10.1058C31.0302 9.62902 29.7784 9.51118 28.8787 9.49961C29.049 9.85995 29.2367 10.234 29.449 10.6187C29.6474 10.9801 29.8453 11.3212 30.045 11.6415C29.8393 11.7918 29.6334 11.9398 29.4277 12.09C29.1059 11.8188 28.3877 11.2877 27.2851 11.0334C26.0957 10.7603 25.1123 10.9634 24.687 11.0749C24.5137 10.892 24.3379 10.7094 24.1645 10.5265C23.4426 10.8085 21.1762 11.792 20.0057 14.0703C19.5113 15.0325 19.3654 15.929 19.3301 16.5712C19.2239 16.5095 19.1152 16.448 19.0093 16.3884C18.4646 17.7314 18.3077 18.8857 18.265 19.6606C18.2194 20.5152 18.1762 21.4671 18.618 22.6111C18.9117 23.3739 19.3129 23.9441 19.6115 24.3113C20.6303 23.7792 21.1238 23.1394 21.3523 22.7752C22.281 21.3009 21.8292 19.6814 21.5543 18.6961C21.3208 17.8623 20.9806 17.2097 20.7145 16.7726C21.1834 16.9758 21.6521 17.1767 22.121 17.3799C22.4442 17.9552 23.6527 20.2553 22.6342 22.5784C22.3671 23.1857 21.821 24.438 20.4347 24.9134C19.814 25.1262 19.2323 25.114 18.8544 25.0721C18.8482 25.3271 18.8588 25.6255 18.9077 25.9577C18.9518 26.2587 19.0211 26.5248 19.0944 26.7518C20.0384 26.9349 21.4604 27.3133 22.9787 28.1496C23.8216 28.6153 25.8654 29.7727 27.1284 31.9322C27.5541 32.6606 27.3126 32.5133 28.6886 36.0912C29.3228 37.7381 29.3599 37.7312 29.6275 38.5222C30.1005 39.9166 30.5198 41.1451 30.6502 42.709C30.7229 43.5717 30.7328 44.8008 30.414 46.2884C30.323 46.3746 30.2321 46.4607 30.1408 46.5446C30.3095 47.518 30.4228 49.0863 29.8331 50.8774C29.5635 51.6984 29.2045 52.3851 28.8593 52.9317C28.7639 52.6279 28.6682 52.322 28.5728 52.0182C28.9417 50.7877 29.2857 49.1835 29.3411 47.2925C29.3864 45.7138 29.2211 44.3359 29.0033 43.2255C29.0671 43.0134 29.1333 42.8009 29.1971 42.5887C29.0519 41.4716 28.8385 40.2586 28.5321 38.9707C28.2727 37.8881 27.9792 36.8802 27.6677 35.9539C27.5313 35.8776 27.3949 35.8014 27.2584 35.7252C27.2144 35.1132 26.9404 32.4094 24.4003 30.3144C22.3936 28.6577 20.1198 28.33 19.3082 28.2463C19.4328 29.2637 19.6158 30.5759 19.8847 32.0977C20.3487 34.7303 20.8538 36.7587 21.074 37.6213C21.7045 40.0814 21.9641 40.5419 22.7064 43.3129C23.1961 45.1434 23.5368 46.6359 23.7405 47.5732C23.8501 47.9025 23.6506 48.1745 23.4641 48.202C23.2951 48.2275 23.0504 48.0602 22.9813 47.7781C22.8384 47.2669 22.6217 46.4923 22.3435 45.5505C21.654 43.2022 21.2726 42.087 20.9969 41.1609C20.3047 38.8447 20.3872 38.0808 19.7994 34.9117C19.5063 33.3317 19.0193 31.0106 18.2132 28.1725C17.7672 28.0845 17.056 28.0089 16.2859 28.2424C15.9408 28.3463 15.7043 28.4776 15.5263 28.5768C15.0097 28.8698 14.1218 29.4107 12.9239 30.3304C15.4723 29.7706 17.7577 31.2569 17.9842 32.9972C18.1598 34.3603 17.0745 35.8585 15.4546 36.3036C14.1348 36.6663 12.9842 36.1841 12.6241 36.0106C13.0161 36.2096 14.62 37.1216 14.8214 38.7993C15.0417 40.6471 13.4332 42.3802 11.5692 42.6784C9.34012 43.033 6.80736 41.3299 6.62368 38.733C6.45511 38.8106 4.73427 39.5564 2.97924 38.7357C1.45454 38.0227 1.0455 36.6635 0.963051 36.3446C0.882624 36.039 0.699681 35.2852 1.06104 34.4166C1.55074 33.2438 2.7101 32.7312 2.98038 32.6207ZM27.2065 10.2946C27.8872 10.4852 28.4436 10.7275 28.869 10.9451C28.6741 10.6559 28.4761 10.3626 28.2755 10.0696C28.1411 9.87504 28.0066 9.68053 27.8722 9.48603C27.5389 9.5181 27.1752 9.56753 26.7918 9.63756C26.2825 9.73221 25.8277 9.84965 25.4272 9.97399C25.9166 10.0135 26.5255 10.1017 27.2065 10.2946ZM7.5628 30.2326C7.35466 29.5297 7.24951 29.1794 7.10523 28.8885C6.83639 28.3519 6.39115 27.4648 5.35677 27.109C4.4942 26.8114 3.39604 26.947 2.65528 27.5174C1.50958 28.3965 1.62526 29.9963 2.21452 30.9428C2.93951 32.1086 4.4754 32.4343 5.40617 32.6303C6.01092 32.7577 6.53703 32.7881 6.91647 32.7912C6.97992 32.6426 7.10298 32.4027 7.34894 32.1681C7.57486 31.9518 7.80958 31.8252 7.96707 31.7581C7.88086 31.3987 7.75061 30.87 7.5628 30.2326ZM8.28235 32.5614C7.78803 32.8676 7.76814 33.576 8.01127 34.0454C8.28587 34.5699 9.0158 35.0291 9.63083 34.8125C10.2701 34.5883 10.496 33.7319 10.1636 33.1464C9.81926 32.5329 8.85098 32.2097 8.28235 32.5614ZM12.6674 27.5073C12.4193 26.9727 11.8018 26.402 11.0188 26.3715C10.2382 26.3408 9.68828 26.8627 9.42446 27.1131C8.7596 27.7468 8.66036 28.5014 8.63315 28.7363C8.61343 28.9044 8.60817 29.1003 8.82312 30.2247C8.9325 30.7991 9.03383 31.2724 9.10558 31.604C9.24733 31.616 9.4193 31.6425 9.60504 31.6922C9.86516 31.7622 10.0728 31.8546 10.2256 31.9379C11.226 31.2537 11.768 30.5172 12.0465 30.0651C12.516 29.3035 13.0771 28.3943 12.6674 27.5073ZM13.1121 35.2999C13.7176 35.4816 14.3552 35.6731 15.0334 35.4214C16.0483 35.0441 16.2873 33.9931 16.3092 33.8882C16.5096 32.9328 15.9071 32.2127 15.7264 32.0148C15.1873 31.4253 14.2726 31.0047 13.341 31.1311C12.8404 31.1997 12.2042 31.444 11.8652 31.8331C11.8003 31.907 11.6472 32.1007 11.3814 32.3877C11.2245 32.5569 11.088 32.6941 10.9974 32.7824C11.0927 32.9046 11.2582 33.152 11.317 33.4989C11.3745 33.8368 11.3022 34.1091 11.2531 34.2513C11.5876 34.5551 12.1998 35.0266 13.1121 35.2999ZM8.38511 40.7412C8.58005 40.9487 9.71234 42.1005 11.3479 41.9372C11.611 41.9116 12.5651 41.7824 13.2647 41.0446C13.8332 40.4455 13.9092 39.7869 13.9283 39.5984C14.0456 38.4352 13.2404 37.5722 12.8381 37.1429C12.5727 36.8579 11.996 36.239 11.054 35.9376C10.8214 35.8642 10.7077 35.8532 9.48242 35.5618C9.07847 35.4664 8.74789 35.3846 8.53117 35.3319C8.5676 35.5998 8.58093 35.9977 8.40812 36.4254C8.26274 36.7838 8.08749 36.9167 7.87853 37.3079C7.87853 37.3079 7.58503 37.8595 7.51678 38.4694C7.38724 39.6522 8.26319 40.611 8.38511 40.7412ZM2.97674 37.568C3.9268 38.1839 5.23765 38.1901 6.22845 37.5752C6.31709 37.1624 6.47789 36.6409 6.77362 36.0709C7.01071 35.6149 7.27589 35.2417 7.51569 34.951C7.38051 34.8338 7.18412 34.6333 7.032 34.3411C6.89755 34.0808 6.85062 33.8437 6.8336 33.6846C6.57465 33.737 6.23773 33.7786 5.84515 33.7567C5.0166 33.7114 4.40773 33.4098 4.09721 33.2279C3.97845 33.2494 2.57436 33.5112 2.02945 34.6727C1.55153 35.6918 1.96736 36.914 2.97674 37.568Z" fill="#FEBA95"/>
<path d="M31.5168 6.20543C33.0396 5.44542 33.8576 4.38877 34.2091 3.86643C34.2674 3.88193 34.5289 3.96088 34.6788 4.20569C34.7848 4.38102 34.7779 4.54985 34.7705 4.6166C34.2581 5.18379 33.3022 6.0895 31.796 6.74299C29.4942 7.74447 27.3463 7.53971 26.5114 7.42032C26.692 7.27317 26.873 7.12824 27.0537 6.98109C27.7129 7.04953 29.5761 7.17367 31.5168 6.20543Z" fill="#FEBA95"/>
<path d="M47.4174 22.8042C47.5163 22.5559 47.9728 22.3997 48.2836 22.502C48.8528 22.6951 48.8358 23.7346 48.5384 23.8666C48.2195 24.0081 47.2377 23.2531 47.4174 22.8042Z" fill="#FEBA95"/>
<path d="M44.3048 25.2066C43.9495 25.2936 43.1809 24.5191 43.4253 24.0939C43.5795 23.8252 44.1306 23.7049 44.4308 23.8858C44.899 24.1662 44.6477 25.1212 44.3048 25.2066Z" fill="#FEBA95"/>
<path d="M38.6325 25.7296C38.2688 25.7132 37.7846 24.5585 38.2478 24.1994C38.4864 24.0156 38.9719 24.0465 39.1903 24.2579C39.6133 24.6733 38.9912 25.7466 38.6325 25.7296Z" fill="#FEBA95"/>
<path d="M34.0162 23.6937C34.2593 23.5389 34.7166 23.6345 34.9219 23.8588C35.3627 24.3401 34.6455 25.4071 34.2943 25.3732C33.9175 25.338 33.5279 24.006 34.0162 23.6937Z" fill="#FEBA95"/>
<path d="M32.2921 28.4712C32.4288 28.2046 32.9276 28.0591 33.2288 28.1967C33.752 28.4385 33.6084 29.5141 33.2712 29.6193C32.9268 29.7276 32.0511 28.9345 32.2921 28.4712Z" fill="#FEBA95"/>
<path d="M37.9773 28.7707C38.4986 29.1149 38.1442 30.1757 37.7997 30.2341C37.4302 30.2956 36.6725 29.2632 37.0027 28.8502C37.1842 28.6257 37.6971 28.5874 37.9773 28.7707Z" fill="#FEBA95"/>
<path d="M42.4648 28.8752C42.6697 28.6706 43.1277 28.639 43.3749 28.806C43.909 29.1668 43.4696 30.4514 43.1007 30.4833C42.7317 30.5152 42.0262 29.3107 42.4648 28.8752Z" fill="#FEBA95"/>
<path d="M48.1919 29.478C47.841 29.4623 47.35 28.4606 47.7901 28.0839C48.0352 27.8766 48.5465 27.877 48.76 28.089C49.1437 28.4639 48.5552 29.4922 48.1919 29.478Z" fill="#FEBA95"/>
<path d="M41.701 33.5638C42.1694 33.8782 41.7938 35.0324 41.4244 35.078C41.0697 35.1195 40.3639 34.176 40.736 33.7215C40.9396 33.4761 41.4454 33.391 41.701 33.5638Z" fill="#FEBA95"/>
<path d="M36.7868 33.2691C37.4673 33.5074 37.4346 34.987 37.0973 35.0921C36.748 35.2011 35.6734 33.9627 36.0209 33.4635C36.1598 33.2602 36.5314 33.1803 36.7868 33.2691Z" fill="#FEBA95"/>
<path d="M43.9338 38.8454C43.5704 38.913 42.7453 37.8231 43.1092 37.365C43.2878 37.1386 43.7528 37.0699 44.0228 37.2204C44.5825 37.5327 44.2898 38.7788 43.9338 38.8454Z" fill="#FEBA95"/>
<path d="M46.3017 33.1504C46.5387 32.9895 46.9722 33.0132 47.1722 33.2041C47.6031 33.6208 46.9226 34.8262 46.5618 34.7959C46.2085 34.7646 45.7743 33.5061 46.3017 33.1504Z" fill="#FEBA95"/>
</svg>
