<svg width="51" height="43" viewBox="0 0 51 43" fill="none" xmlns="http://www.w3.org/2000/svg">
<path d="M50.4992 22.3364C50.4755 22.081 50.3396 21.8494 50.1279 21.7044L46.6222 19.3004C46.6191 19.2983 46.616 19.296 46.6129 19.2939L44.6555 17.9517L45.6718 16.9308C45.6757 16.9269 45.6795 16.923 45.6834 16.919C47.464 15.0601 48.439 12.6208 48.4284 10.0499C48.4179 7.46739 47.4122 5.04552 45.5968 3.23081C43.7769 1.41093 41.3571 0.408691 38.783 0.408691C36.2069 0.408691 33.7865 1.41105 31.968 3.23081L28.3966 6.80226L27.1967 5.97944C26.8541 5.74412 26.3925 5.78691 26.0988 6.08077L24.7155 7.46405L22.7223 5.47096C21.4666 4.21649 19.7984 3.5256 18.0251 3.5256C16.2498 3.5256 14.5811 4.21661 13.3264 5.47119C12.0709 6.72669 11.3795 8.39579 11.3795 10.1708C11.3795 11.9462 12.071 13.6147 13.3259 14.8684L15.3172 16.8623L12.6477 19.5318C12.3384 19.841 12.3095 20.333 12.5806 20.6763L17.1603 26.4774L8.43491 31.4378L2.19938 26.5894C1.91494 26.3683 1.52297 26.3473 1.21634 26.5366C0.909828 26.7261 0.753408 27.0862 0.824027 27.4396L3.79716 42.3065C3.86387 42.64 4.12047 42.9033 4.45217 42.9786C4.51566 42.993 4.57961 43 4.6431 43C4.91085 43 5.16803 42.875 5.33307 42.655L9.59438 36.974L23.3267 34.2887L29.635 42.2797C29.7877 42.4731 30.0157 42.5919 30.2616 42.6064C30.2786 42.6075 30.2953 42.6079 30.3123 42.6079C30.5403 42.6079 30.76 42.5175 30.9222 42.3552L50.2503 23.0258C50.4316 22.8444 50.5228 22.5917 50.4992 22.3364ZM33.1881 4.45066C34.6809 2.95673 36.6679 2.13392 38.783 2.13392C40.8963 2.13392 42.8829 2.95673 44.3771 4.45101C45.8685 5.94183 46.6945 7.93274 46.7033 10.0571C46.7119 12.1755 45.9094 14.1861 44.4433 15.7196L43.209 16.9596L29.844 7.79472L33.1881 4.45066ZM14.5459 13.6488C13.6164 12.7204 13.1046 11.4852 13.1046 10.171C13.1046 8.85689 13.6166 7.62093 14.5461 6.69138C15.475 5.76252 16.7105 5.25105 18.025 5.25105C19.3379 5.25105 20.573 5.76264 21.5027 6.69138L23.4954 8.68413L16.537 15.6425L14.5459 13.6488ZM30.388 40.4492L28.8412 38.4899L46.2431 21.1325L48.296 22.5402L30.388 40.4492Z" fill="white"/>
</svg>
