<svg width="130" height="150" viewBox="0 0 130 150" fill="none" xmlns="http://www.w3.org/2000/svg">
<path d="M78.2339 30.7409C76.2717 31.8237 74.6147 32.6376 73.0668 33.6188C71.7878 34.2511 71.1701 35.7264 71.5988 37.0782C72.3837 39.9416 72.1439 42.9867 70.9229 45.6901C70.6758 46.257 70.5741 46.8675 70.6177 47.4779C70.5741 47.8776 70.7267 48.2701 71.0174 48.539C71.3154 48.8079 71.7151 48.9241 72.1075 48.8515C73.2485 48.7134 74.3676 48.3936 75.5087 48.2846L75.5159 48.2773C76.8023 48.1393 78.0958 48.0957 79.3894 48.1538C79.7819 48.1683 80.1525 48.35 80.4141 48.648C80.6758 48.946 80.7993 49.3384 80.7703 49.7308C80.7775 49.8108 80.7848 49.8835 80.7848 49.9634C80.5522 52.9794 81.1627 56.0027 82.5363 58.6916C82.965 59.5492 82.7398 60.5956 81.9912 61.1917C79.9999 63.234 78.0449 65.3123 76.1117 67.4053C75.6466 67.9213 75.2324 68.4809 74.8835 69.0841C74.3457 70.3341 73.2992 71.2934 72.0056 71.7223C70.7119 72.1511 69.3021 72.013 68.1175 71.3371C66.8821 70.8284 65.6466 70.3124 64.2076 69.7165C63.5826 75.1743 61.0753 79.6875 59.6799 84.5202C60.8645 85.247 62.02 85.8284 63.0303 86.5915C65.1305 88.1758 67.1 89.8836 67.3181 92.8126V92.8053C67.3835 93.4303 67.5725 94.0262 67.8777 94.5713C68.7134 96.3228 68.8951 98.3213 68.3791 100.196C68.1393 101.715 68.0739 103.263 68.1756 104.804C68.2847 105.647 68.4809 106.475 68.757 107.282C69.2003 107.26 69.6364 107.195 70.0652 107.079C73.3137 105.69 76.5041 104.179 79.7964 102.9C82.1728 102.282 83.8371 100.131 83.8299 97.6744C84.0552 95.138 84.4113 92.6162 84.8909 90.1163C85.4069 88.3212 84.811 86.3808 83.372 85.189C82.5871 84.6076 82.2964 83.5683 82.6671 82.6671C83.0886 81.1991 83.6991 79.7819 84.4694 78.4593C85.8139 76.9985 86.6352 75.138 86.8022 73.1612C87.3182 73.4519 87.7833 73.8444 88.1467 74.3167C88.8735 76.5115 89.4185 78.7644 89.7965 81.0464C90.1816 82.7616 89.4985 84.5421 88.0523 85.5523C87.0494 86.1628 86.4825 87.3038 86.5988 88.4738C86.5116 89.6221 86.3371 90.7631 86.0828 91.8895C85.9665 92.6961 85.8938 93.5174 85.7921 94.4476V94.4549C87.9506 94.5784 90.1017 94.2078 92.0857 93.3647C92.6453 93.1031 93.2122 92.856 93.779 92.6162C96.3517 91.5261 97.2602 91.904 98.1904 94.4476C98.3721 94.9418 98.5756 95.4287 98.8735 96.2063C99.9346 95.9011 100.959 95.6758 101.926 95.3052C103.721 94.6148 105.458 93.7645 107.282 93.1394H107.289C108.452 92.8705 109.266 91.8312 109.251 90.6393C109.375 88.4155 109.68 86.1916 109.709 83.9678C109.622 82.8704 110.182 81.8167 111.141 81.2789C112.064 80.7265 113.03 80.2469 114.033 79.8399C115.182 79.5129 116.017 78.5172 116.141 77.3325C116.359 74.6291 118.249 73.161 120.102 71.6348C120.756 71.0971 121.512 70.6828 122.151 70.1305C123.394 69.1784 124.164 67.7322 124.244 66.1697C124.39 64.7453 124.615 63.3282 124.927 61.9329L127.384 62.1436C126.904 64.4547 126.236 66.7221 125.385 68.9169C124.571 70.4067 123.394 71.664 121.955 72.5651C119.571 73.895 117.878 76.1842 117.304 78.8514C117.006 80.4285 115.763 81.6566 114.179 81.9402C111.846 82.4634 111.454 84.0332 111.41 86.0535C111.366 88.4299 111.163 90.7992 111.025 93.3209V93.3136C111.715 93.459 112.398 93.6479 113.067 93.8659C114.564 94.5346 116.308 94.2875 117.558 93.2337C118.467 92.3907 119.709 92.0055 120.93 92.1944C122.159 92.3834 123.227 93.1247 123.83 94.2002C125.24 96.2132 127.05 97.8994 129.157 99.1495C128.837 99.5128 128.467 99.8326 128.067 100.109C126.403 100.908 124.68 101.584 123.045 102.42C121.468 103.365 119.455 103.139 118.125 101.875C116.635 100.872 115.618 99.3021 115.306 97.5361C115.262 96.3879 114.31 95.4939 113.169 95.5012C111.948 95.3485 110.713 95.3558 109.492 95.5375C105.967 95.9881 102.529 96.9328 99.2734 98.35C97.9144 99.0331 97.2094 98.5825 96.7008 97.0564C96.5264 96.5476 96.4174 96.0098 96.2647 95.4939C96.1121 94.9851 95.9304 94.491 95.7051 93.7933C94.8912 93.9459 94.1426 94.0404 93.4231 94.2293C91.5626 94.709 89.7384 95.3413 87.8562 95.7046L87.8489 95.7119C86.8242 95.8064 86.003 96.5985 85.8722 97.6159C85.5597 99.0476 85.1309 100.465 84.9492 101.911H84.9419C84.8983 102.79 84.2297 103.51 83.3576 103.626C80.2836 104.353 77.2893 105.356 74.4041 106.62C70.3416 108.183 67.0057 111.206 65.0437 115.094C64.4623 116.264 63.7573 117.376 63.1252 118.525C62.4856 119.789 62.6528 121.315 63.5467 122.42C64.6731 124.251 65.647 126.185 66.8098 127.987C68.1324 130.349 69.0263 132.922 69.4479 135.596C70.0438 138.227 70.5744 140.865 71.1049 143.51C71.2357 143.946 71.2357 144.411 71.0976 144.84C70.2401 146.475 69.2953 148.06 68.3577 149.644C68.1542 149.811 67.9216 149.927 67.6746 150C66.9115 149.033 66.5844 147.791 66.7661 146.577C66.6935 143.416 66.6935 140.247 66.6062 137.086C66.5699 136.243 66.4318 135.407 66.1993 134.593C65.5597 132.289 64.8911 129.985 64.157 127.711C63.5683 125.363 62.1585 123.307 60.1745 121.911C59.0553 121.235 57.7544 120.93 56.4463 121.039C53.343 121.032 50.545 122.9 49.3677 125.763C49.0262 126.846 47.9506 127.529 46.8314 127.377C42.9069 126.984 38.9534 127.355 35.1816 128.481C31.4825 129.31 30.7775 127.122 30.683 124.477C30.6757 124.324 30.7193 124.172 30.7193 124.019L30.7121 124.012C30.9374 122.994 30.9083 121.933 30.6176 120.93C29.7237 119.775 28.5754 118.852 27.26 118.22C25.9228 117.624 24.5273 117.188 23.0957 116.919C21.3079 116.476 19.4838 116.134 17.6814 115.742C17.4706 115.647 17.2453 115.582 17.02 115.553C14.7089 116.025 12.4996 116.868 10.4648 118.06C10.1378 118.474 10.007 119.012 10.0942 119.535C10.2105 121.185 9.55639 122.791 8.32093 123.896C7.68139 124.521 6.86016 124.942 5.97357 125.088C4.74536 125.109 3.53895 125.429 2.45616 126.018C2.01284 126.323 1.94743 126.229 0.842773 125.582C0.951786 125.306 1.11894 125.059 1.3297 124.848C2.35441 124.23 2.86314 123.024 2.60877 121.861C2.59424 121.701 2.59423 121.548 2.6015 121.396C2.64511 117.13 3.4736 116.243 7.64506 116.541H7.65233C9.1349 116.686 10.6176 116.236 11.7729 115.284C10.9808 113.372 10.2395 111.432 9.36731 109.557H9.37458C8.84405 108.583 8.92399 107.391 9.57808 106.498C10.879 104.855 11.6131 102.827 11.6639 100.727C11.6057 100.393 11.7438 100.044 12.02 99.8404C12.2961 99.6297 12.6668 99.5933 12.972 99.7459C13.5607 101.824 13.2336 104.056 12.0781 105.872C11.0679 107.631 11.0679 109.79 12.0781 111.548C13.1319 114.187 13.3645 114.208 16.1842 114.172C17.7176 114.237 19.2437 114.434 20.7408 114.753C24.8324 115.182 28.7059 116.832 31.8382 119.499C32.7902 120.066 33.1536 121.265 32.6812 122.268C32.4196 122.995 32.2742 123.758 32.2452 124.528C32.1434 125.851 32.7393 126.345 34.0693 126.149C36.4167 125.8 38.764 125.335 41.1261 125.16H41.1188C42.7394 125.11 44.3601 125.204 45.959 125.422C47.0564 125.611 48.132 124.986 48.5172 123.94C49.6509 121.309 52.3036 119.666 55.1596 119.819C55.7047 119.826 56.2425 119.797 56.7802 119.746C58.4227 119.732 59.9561 118.94 60.93 117.624C62.7106 115.023 64.5492 112.457 66.2644 109.812V109.804C66.5769 109.194 66.6932 108.496 66.5987 107.813C66.2135 104.289 66.308 100.727 66.8748 97.2245C66.8967 95.989 66.6278 94.7681 66.0827 93.6561C65.5885 91.3668 64.2513 89.3538 62.34 88.0019C61.4606 87.5732 60.5377 87.2388 59.5928 87.0136C58.7571 86.9336 57.9358 86.7156 57.1727 86.3595C55.1597 84.7098 53.0302 85.5237 51.0244 85.9961C47.3035 86.8755 46.6493 86.5702 45.9081 82.7621C45.7628 82.0062 45.6319 81.2504 45.4939 80.4873C44.7308 76.3012 41.3658 75.2257 37.9502 74.3462L37.9575 74.3535C37.1144 74.2953 36.2714 74.4843 35.5446 74.9058C33.9094 75.5744 32.158 75.9305 30.392 75.9451C28.4953 76.1558 26.613 76.5483 24.7816 77.1006C24.2583 77.2169 23.7496 77.4567 23.2191 77.5294C20.6609 77.8637 19.5417 76.9262 19.7234 74.339C19.8397 72.7402 20.1595 71.1559 20.661 69.6224C21.1043 68.554 20.9807 67.3403 20.3339 66.381C18.7278 63.8447 17.2234 61.243 15.719 58.6411C14.469 56.5771 14.9487 53.9172 16.8237 52.4055C19.5854 50.5088 20.8499 47.0712 19.9705 43.8299C19.7888 43.0086 19.7961 42.1583 19.985 41.3372C20.3048 40.9884 20.719 40.7267 21.1769 40.5887C21.4894 40.9448 21.6929 41.3736 21.7801 41.8387C21.2495 43.641 21.6929 45.5886 22.9574 46.9767C23.4516 47.3983 23.7205 48.0233 23.6696 48.6701C23.6187 49.3169 23.2554 49.8983 22.703 50.2326C21.3222 51.6933 19.8178 53.0233 18.437 54.4767C17.732 54.9345 17.2596 55.6758 17.1434 56.5042C17.0343 57.34 17.2887 58.1758 17.841 58.8081C19.2073 61.3007 20.748 63.7063 22.1361 66.1919C22.5213 66.8387 22.7321 67.5727 22.7321 68.3285C22.5867 70.6976 22.2815 73.0597 22.0344 75.487V75.4943C22.9937 75.9957 24.1492 75.9812 25.0939 75.4434C27.1215 74.7094 29.2582 74.2951 31.4093 74.2152C33.0009 73.9681 34.5561 73.5539 36.0605 72.9725C35.0939 71.4972 34.309 70.298 33.5241 69.099C33.2552 68.8301 33.0517 68.503 32.9354 68.1396C32.8555 67.1077 32.0851 66.2647 31.075 66.0902C30.0793 65.8358 29.2508 65.1454 28.8221 64.2079C28.4006 63.2704 28.4224 62.1949 28.8875 61.2792C29.5198 59.426 30.886 57.7545 30.2901 55.5742C30.3774 55.2326 30.6245 54.9492 30.9515 54.8184C31.4602 54.8693 31.9181 55.1236 32.2378 55.5161C32.4849 57.987 34.4181 59.317 35.7625 61.054L35.7552 61.0467C36.9108 62.4784 37.0488 64.477 36.1114 66.054C35.5808 66.7589 35.2538 67.5947 35.1593 68.4668C35.4355 69.9421 36.3802 71.2067 37.7102 71.8897C39.4907 72.7909 41.2641 73.7211 43.0808 74.5424C44.5052 74.9639 45.6172 76.0903 46.0241 77.5221C46.3875 79.0846 47.0343 80.5816 47.4195 82.1443C47.8555 83.9175 48.0808 84.2446 49.8541 84.2591H49.8468C51.0096 84.2809 52.1651 84.2009 53.3134 84.0338C54.7451 83.6123 56.2786 83.7649 57.594 84.4626C59.1202 80.5745 61.2277 76.9044 61.591 72.5875V72.5948C61.6346 71.9771 61.7291 71.3666 61.8745 70.7707C62.4704 68.387 63.6768 67.7184 65.9588 68.5686C67.2524 69.0482 68.5097 69.6369 69.9703 70.2547C71.5982 68.8884 73.2916 67.5657 74.8613 66.1121C76.5038 64.6005 78.0154 62.9508 79.6143 61.3809C80.5736 60.6469 80.9006 59.346 80.4137 58.2414C79.4471 56.0393 79.0256 53.6338 79.1782 51.2356C79.1346 50.8432 79.0474 50.458 78.9311 50.0801C77.9864 49.942 77.0271 49.8693 76.0677 49.862C75.072 49.9638 74.0837 50.1237 73.1025 50.3417C71.8452 50.7414 70.4788 50.3998 69.556 49.4623C68.6403 48.5176 68.3351 47.1367 68.7639 45.8939C68.8511 45.1308 69.0473 44.375 69.3453 43.6629C70.7988 40.7486 69.8831 38.0379 68.902 35.2472L68.8947 35.2399C67.9863 32.4202 66.024 30.0581 63.4078 28.6555C60.8206 27.3183 59.6941 24.2079 60.8279 21.5189C61.4965 19.862 61.729 18.0668 61.5037 16.2936C61.5328 16.0174 61.6273 15.7486 61.7799 15.516C62.1724 15.3852 62.6011 15.4579 62.9354 15.7049C63.2625 15.9448 63.4587 16.3372 63.4514 16.7515C63.7639 18.1105 64.5343 19.3241 65.6317 20.1818C67.8265 21.9187 68.6187 24.8838 67.5722 27.4784C66.969 28.692 67.2451 30.1673 68.2553 31.0758C68.6914 31.5918 69.0983 32.1368 69.469 32.7037C70.4792 32.3839 71.504 32.0933 72.4995 31.7299C75.8134 30.5162 76.453 29.5933 76.4675 26.1484C76.3949 25.458 76.4312 24.7676 76.5693 24.0844C77.3396 22.0569 77.4196 19.8329 76.8018 17.7546C76.3512 16.1412 76.9036 14.4115 78.1972 13.3432C79.5853 12.3257 80.312 10.6325 80.0939 8.92456C79.8614 6.78074 80.9733 4.71673 82.8919 3.73551C83.4806 3.35761 84.0983 3.03784 84.7451 2.77622C85.9297 2.41285 86.9762 1.69336 87.7393 0.712207C88.1754 0.370643 88.6841 0.123535 89.2219 0C89.2801 2.01303 89.4327 3.7282 89.36 5.42886C89.4399 7.04224 88.3644 8.49566 86.7946 8.88097C86.1333 9.06265 85.5301 9.45509 84.8686 9.65131C81.4165 10.6688 80.261 13.7211 78.8511 16.5046V16.4973C78.7058 17.1659 78.684 17.8563 78.8002 18.5323C78.7566 19.9858 78.713 21.4465 78.6331 22.9001C78.5532 24.4263 78.4078 25.9451 78.3279 27.4713C78.2697 28.6849 78.2552 29.9059 78.2334 30.7416L78.2339 30.7409ZM125.633 99.0984C124.587 97.7466 123.7 96.5983 122.813 95.4502V95.4429C122.683 95.2539 122.53 95.0795 122.37 94.9124C121.244 93.7641 119.441 93.626 118.148 94.578C116.745 95.5664 116.411 97.5068 117.392 98.9094C117.995 99.7088 118.693 100.428 119.478 101.046C120.161 101.729 121.251 101.802 122.021 101.22C123.119 100.515 124.267 99.8905 125.633 99.0911L125.633 99.0984ZM63.0822 20.4859C60.7131 24.0616 61.4616 26.4597 65.3715 27.8188C67.1521 25.1081 66.309 22.4119 63.0822 20.4859ZM31.6291 58.4879C31.0477 60.1013 30.6043 61.1406 30.2991 62.2234C30.0448 62.7975 30.0738 63.4589 30.3863 64.0039C30.6988 64.5563 31.2512 64.9196 31.8762 64.9996C32.7991 65.2758 33.7657 65.4356 34.7686 65.6537C36.0622 62.3323 33.4896 60.9225 31.6291 58.4806L31.6291 58.4879ZM4.22987 123.314C5.29819 123.903 6.64272 123.583 7.33314 122.58C8.22704 121.49 8.57588 120.051 8.27791 118.678C8.03807 118.212 7.60203 117.885 7.09331 117.776C6.45377 117.646 5.78517 117.784 5.24736 118.162C4.70958 118.539 4.35346 119.121 4.25899 119.775C4.18631 120.952 4.17178 122.137 4.22992 123.314L4.22987 123.314ZM87.2684 77.8927C85.8657 79.0191 84.841 80.5453 84.3396 82.275C84.0925 82.762 84.0707 83.3361 84.2815 83.8375C84.4995 84.339 84.921 84.7242 85.4443 84.8913C85.9167 85.0439 86.4399 85.0003 86.8832 84.7532C87.3265 84.5134 87.6463 84.0992 87.7699 83.6123C88.7655 81.6937 88.0315 79.9421 87.2684 77.8928L87.2684 77.8927ZM81.8105 8.91006C83.591 8.68478 85.3061 8.08883 86.8395 7.15859C87.7625 6.40278 87.9733 5.06556 87.3265 4.06258C86.5488 3.20501 85.793 3.8373 85.0664 4.22246V4.22973C84.4995 4.46229 83.9617 4.76752 83.4748 5.13816C82.1957 5.92306 81.527 7.42748 81.8105 8.9099L81.8105 8.91006Z" fill="#FEBA95"/>
</svg>
