<svg width="67" height="47" viewBox="0 0 67 47" fill="none" xmlns="http://www.w3.org/2000/svg">
<g clip-path="url(#clip0)">
<path d="M33.7738 28.8203C32.5429 28.8203 31.541 27.8245 31.541 26.6011C31.541 25.3776 32.5429 24.3818 33.7738 24.3818C35.0054 24.3818 36.0066 25.3776 36.0066 26.6011C36.0066 27.8245 35.0054 28.8203 33.7738 28.8203ZM33.7738 25.0785C32.9297 25.0785 32.2426 25.7614 32.2426 26.6011C32.2426 27.4408 32.9297 28.1237 33.7738 28.1237C34.6186 28.1237 35.3056 27.4408 35.3056 26.6011C35.3056 25.7614 34.6186 25.0785 33.7738 25.0785Z" fill="#C25B24"/>
<path d="M54.4551 40.2531C54.372 40.1705 54.2881 40.0917 54.2043 40.0137C57.5452 32.9177 50.4159 11.6187 50.4159 11.6187H47.2024V8.00941C47.2024 7.47608 46.7674 7.04443 46.2315 7.04443C45.695 7.04443 45.2607 7.47674 45.2607 8.00941V11.6187H21.7191V8.00941C21.7191 7.47608 21.2842 7.04443 20.7483 7.04443C20.2117 7.04443 19.7774 7.47674 19.7774 8.00941V11.6187H17.3347C17.3347 11.6187 10.2061 32.9184 13.5463 40.0137C13.4625 40.0917 13.378 40.1705 13.2955 40.2531C11.5597 41.9784 10.7321 43.953 11.4469 44.6628C12.1617 45.3732 15.1402 45.5365 16.8754 43.8113C17.0173 43.6702 17.142 43.5187 17.2588 43.3632C25.3623 47.6561 42.387 47.6561 50.4912 43.3632C50.6087 43.5187 50.7327 43.6702 50.8746 43.8113C52.6104 45.5365 55.5883 45.3732 56.3031 44.6628C57.0179 43.9523 56.1903 41.9784 54.4551 40.2531ZM41.2703 32.4146C41.2564 32.4008 41.2432 32.3864 41.2294 32.3726C40.015 31.1656 38.7352 30.4813 38.3703 30.8435C38.0059 31.2056 38.6943 32.4782 39.9087 33.6852C39.9318 33.7082 39.9543 33.7292 39.9774 33.7515C38.334 35.1449 36.2041 35.9872 33.875 35.9872C28.6768 35.9872 24.4634 31.7986 24.4634 26.6326C24.4634 21.4666 28.6775 17.278 33.875 17.278C39.0725 17.278 43.2866 21.4666 43.2866 26.6326C43.2866 28.8158 42.5322 30.8231 41.2703 32.4146Z" fill="#C25B24"/>
<path d="M66.0771 13.4345C66.0771 9.95838 63.4925 7.08379 60.1292 6.60163C59.2883 4.05373 57.1644 2.08507 54.5172 1.44678V0.0678711H51.7531V0.921983H15.2267V0.0678711H12.4626V1.44678C9.81405 2.08573 7.69017 4.05504 6.84933 6.60425C3.49653 7.09494 0.921875 9.9656 0.921875 13.4345C0.921875 14.1706 1.04067 14.8784 1.25583 15.5436C1.15749 15.7069 1.10074 15.8912 1.10074 16.088C1.10074 16.744 1.72246 17.2761 2.48937 17.2761H13.2494C14.0163 17.2761 14.638 16.744 14.638 16.088C14.638 15.8919 14.5812 15.7069 14.4829 15.5436C14.6981 14.8784 14.8169 14.1706 14.8169 13.4345C14.8169 10.68 13.1939 8.30329 10.847 7.19465C11.2727 6.49339 11.8211 5.87478 12.4633 5.36638V7.64008H15.2274V6.78597H51.7544V7.64008H54.5185V5.36704C55.1627 5.87675 55.7131 6.49798 56.1395 7.20187C53.8011 8.31313 52.1847 10.6859 52.1847 13.4345C52.1847 14.1706 52.3035 14.8784 52.5187 15.5436C52.4204 15.7069 52.3636 15.8912 52.3636 16.088C52.3636 16.744 52.9853 17.2761 53.7522 17.2761H64.5122C65.2791 17.2761 65.9009 16.744 65.9009 16.088C65.9009 15.8919 65.8441 15.7069 65.7458 15.5436C65.9589 14.879 66.0771 14.1712 66.0771 13.4345Z" fill="#C25B24"/>
</g>
<defs>
<clipPath id="clip0">
<rect width="66" height="47" fill="white" transform="translate(0.5)"/>
</clipPath>
</defs>
</svg>
