<svg width="60" height="100" viewBox="0 0 60 100" fill="none" xmlns="http://www.w3.org/2000/svg">
<path fill-rule="evenodd" clip-rule="evenodd" d="M20.668 21.828C20.7344 20.8827 21.1172 20.4257 21.4375 19.746C22.0703 18.6249 21.957 18.6015 21.4961 18.4921C20.9453 18.3515 20.3203 18.4491 19.9766 18.1991C19.4766 17.8398 19.2735 17.0389 20.2422 17.0468C23.1328 17.0781 25.9063 19.1952 27.7344 17.5C28.4844 16.207 28.0587 15.8477 27.4258 15.5391C26.9649 15.3203 26.332 15.2539 26.0039 14.8125C25.6719 13.5508 27.707 14.4453 22.5703 11.9805C22.0039 11.5391 22.6875 10.8711 23.2305 11.1016L27.0235 12.7227C27.5079 12.8907 28.1446 12.6992 27.2657 10.9024C26.8829 9.9766 23.4493 8.53128 24.6016 7.52738C25.5782 6.45708 26.3907 8.70708 27.9336 9.28908C28.5078 9.50002 28.5508 9.40627 28.543 8.76174C28.5274 6.94924 28.3359 4.56644 28.4531 3.19144C28.5352 2.2891 28.6133 1.79694 28.8711 2.94144C29.6406 6.36724 29.7734 4.76954 31.0742 5.09764C31.7773 5.28123 31.8359 5.39061 31.2734 5.6992C30.1132 6.33201 29.7265 6.57811 29.8554 8.8984C29.9648 11.8711 31.5507 9.55074 32.4374 9.84371C33.2968 10.9882 29.0038 11.1562 30.6991 13.7031C31.0936 14.2695 31.7186 14.4648 32.2929 14.3945C34.1562 14.1445 35.6406 11.7031 36.5702 13.3437C36.871 14.1875 34.2304 14.1523 34.2811 14.7148C34.1639 15.1406 36.0506 17.164 35.3436 17.371C33.3124 16.6445 34.4178 15.6679 32.5038 15.6601C32.1288 15.6601 31.8085 15.6445 31.5663 15.9257C31.0741 16.7539 30.9648 17.7069 31.1405 18.7343C31.2226 19.1875 31.5507 19.4531 31.8437 19.6601C33.664 20.2187 37.246 20.664 36.8242 21.7968C36.0742 22.6757 34.8633 21.1601 33.0156 21.4726C32.332 21.5898 31.6523 21.7656 31.1875 22.5429C30.6757 23.4101 30.6523 24.371 30.9765 25.4921C31.7851 26.746 33.5077 27.246 34.6523 28.3671C34.8789 28.6991 34.6289 28.7616 34.2929 28.7577C31.2929 29.0234 32.1874 32.5819 35.0859 31.8632C36.7968 31.4374 37.9687 29.6015 39.5195 29.5585C40.957 29.5156 40.3867 29.8945 39.7969 30.4374C36.6641 33.328 39.0703 33.5936 41.2578 32.703C42.0078 32.4452 42.5351 32.4257 43.164 32.2929C43.3983 32.2421 43.6561 32.1679 43.0741 32.5038C40.6014 33.9413 40.9022 32.9061 40.7108 37.0311C40.703 37.2577 40.7538 37.8163 40.5116 37.7342C39.3827 37.2655 40.3124 36.2576 39.285 35.8631C38.9764 35.7459 38.574 35.5389 38.2498 35.9725C36.2029 38.7381 41.2068 40.0233 40.1521 41.7381C39.0232 42.2811 38.9138 41.0428 37.2107 41.6444C36.7497 41.8045 36.6326 42.0545 36.7927 42.5194C37.8357 45.5272 44.4021 42.7537 45.0388 44.5389C45.9412 48.0545 44.0701 45.7772 41.988 47.7225C41.5935 48.0975 41.5115 48.5896 41.57 49.1444C41.7458 50.8671 43.0466 51.4491 44.0739 52.3358C46.238 54.742 43.9841 53.9881 42.445 54.1483C41.8708 54.2069 41.7419 54.4647 41.7536 55.2342C41.7888 58.6248 46.2224 59.4608 47.8434 62.5428C48.1442 63.1209 48.1364 63.2185 47.7028 63.1795C44.5192 62.906 44.5856 62.2615 44.4216 66.0701C44.406 66.3865 44.4294 66.5037 43.9529 66.3279C43.0427 65.9959 43.8201 65.4177 42.5076 65.1248C41.7654 64.9646 41.5974 65.1756 41.2303 65.7185C38.5975 69.6013 42.3514 70.9724 44.2459 72.4685C44.9412 73.0193 44.7537 73.1053 44.1287 73.4217C43.3787 73.8045 42.5935 73.8045 42.9256 75.117C43.2107 76.2693 44.5115 76.4608 45.824 77.0115C47.9802 77.9138 50.0818 79.031 50.9881 80.9138C49.9686 82.324 49.8006 81.0661 49.3436 82.7771C49.0272 84.6169 55.9686 83.6716 59.0584 87.5193C59.2107 89.1248 56.8514 88.1365 55.8865 89.9412C55.2615 91.285 56.1287 92.6053 55.1521 94.8709C48.9802 97.4373 50.6169 88.7732 43.7181 96.0897C39.7689 100.281 34.4369 93.9999 31.1911 95.1873C27.6013 96.4412 23.7302 101.535 19.6871 97.1482C15.066 92.5115 11.7926 98.199 8.1361 98.5935C7.0775 98.7107 7.26891 98.4021 7.46032 97.3982C7.71032 96.0544 8.23766 95.5193 6.77673 94.5232C5.24153 93.7303 3.54233 93.8318 2.07363 93.6365C0.987728 93.4881 0.893929 93.1443 1.56191 92.0662C2.07363 91.2459 3.05021 90.8201 4.26111 90.5193C3.55017 86.1834 5.33921 88.2654 5.76501 85.9841C5.89001 85.3005 5.73376 85.1325 5.14001 84.9333C3.73771 84.4724 2.27671 84.656 2.98381 83.1364C3.71819 82.0778 5.86661 82.8512 7.93691 81.5426C8.94081 80.9059 11.1088 79.4059 10.015 77.941C8.42911 76.5465 7.44081 79.109 6.10481 77.5582C4.97591 74.8121 13.097 72.2691 12.4954 68.1715L10.9251 68.2027C9.96417 68.2184 9.80401 68.3785 10.2884 67.2692C10.6204 66.5152 10.9837 66.2848 10.9056 64.5817L7.39778 65.2067C5.83528 65.484 5.88608 65.0738 7.05403 63.9215C7.80403 63.1793 8.89383 62.5699 9.74543 61.8512C11.7493 60.1637 11.4642 59.9215 12.9446 57.7653C15.3157 54.3083 19.8704 54.8433 17.1634 48.8278C16.2533 47.234 15.8704 51.1754 15.0657 49.9566C14.6829 49.3043 14.5813 47.4919 13.929 47.9919C12.8274 48.6442 10.6985 50.7809 10.6282 49.945C10.3274 46.3863 13.511 48.7419 15.097 45.5583C16.7493 42.2341 16.8743 42.2106 15.3392 41.7224C14.347 41.4059 12.2728 41.7888 14.1126 40.4529C15.1048 39.7341 16.3587 38.6131 16.2103 37.7537C16.0345 37.2537 14.8509 37.8122 13.8978 37.3357C12.6009 36.699 13.5228 36.2849 14.4095 36.1013C16.1986 35.7341 18.7181 35.8943 20.4056 34.9333C21.64 34.2302 23.8822 31.6911 23.7142 29.8903C22.1087 29.5231 19.8626 30.6676 18.3001 31.6012C17.1321 32.2965 17.722 31.027 17.9251 30.5739L18.3744 29.5466C16.5189 28.6091 15.4017 29.7653 15.8705 28.4255C17.0072 27.1052 19.4955 28.0935 21.9603 27.5505C24.6165 26.9724 26.0384 27.0388 25.9603 24.4607C25.7923 23.2927 21.8939 24.7927 23.097 23.4099C23.9251 22.8435 26.8548 23.5036 26.6556 22.5661C26.2806 19.3903 23.8392 19.5075 22.1634 20.7302C21.8274 20.9724 20.6595 22.8786 20.6439 21.8318L20.668 21.828ZM38.875 36.781C39.625 36.8122 39.8203 37.9998 40.293 38.6091C40.668 38.9333 41.2383 39.195 41.3203 38.2068C41.4531 36.4021 40.5351 34.8162 42.082 33.863C43.5039 32.8591 44.4218 33.6442 44.6367 32.0935C44.7851 31.0154 44.7031 30.9568 43.5781 31.0349C42.2656 31.1286 41.1992 31.8434 39.6836 32.3044C39.1563 32.4645 39.1328 32.5153 39.4258 31.9958C40.1953 30.6247 41.0547 30.8864 41.3203 30.0427C41.5703 29.2263 41.4726 28.863 40.6679 28.781C37.4921 28.4489 34.6952 32.8748 33.3671 30.0076C32.8554 28.8396 36.1171 30.4568 35.9492 29.0545C35.6757 26.1483 31.7226 26.8397 31.6875 24.0193C31.6367 20.1443 35.9296 23.8864 37.4179 22.2224C37.8672 19.5974 32.7969 20.1833 32.0821 18.1052C31.7656 17.1872 32.1719 15.9607 33.3008 16.9372C33.9102 17.4645 34.1524 18.3239 35.2657 18.0075C37.0469 17.5075 35.6407 15.7614 35.0742 15.0192C36.8359 14.2184 38.1133 14.1754 36.9453 12.2692C35.8594 10.8473 33.4687 14.3317 31.7422 13.5309C31.2813 13.3199 31.0665 13.0113 31.1485 12.4957C31.3751 11.0152 33.3946 11.7339 33.1602 9.74565C32.918 7.90585 30.6524 10.3042 30.4297 9.78862C30.2891 8.73782 30.4805 7.63242 30.9883 6.85502C31.9492 5.91752 33.586 5.34332 32.5235 4.65972C31.0626 3.80034 31.7071 4.48394 30.0352 4.62847C29.3672 4.50347 30.1953 0.0425696 29.5938 -0.0238304C27.1797 0.91367 27.8399 5.14027 27.9922 7.90977C28.0273 8.54649 28.0156 8.52696 27.5664 8.15196C26.7578 7.47618 25.7461 6.68316 24.6836 6.58946C23.9297 6.52305 23.5469 6.62071 23.5898 7.44884C23.664 9.01914 26.1367 10.1129 26.5546 11.6676C24.1757 10.984 22.9608 9.87074 22.0351 11.2653C21.3671 12.7262 23.8398 13.0426 24.6171 13.613C26.7304 15.4255 24.4257 14.1247 25.3515 15.6599C26.789 16.8357 25.871 14.4724 27.1796 16.3552C27.2616 16.4724 27.2968 16.6716 27.203 16.8162C25.5819 18.656 22.2928 15.7223 19.1171 16.6677C18.7069 16.7927 18.4569 17.0583 18.7929 17.8357C19.1249 18.5896 19.6132 18.7615 20.3788 19.156C21.0467 19.4998 21.0819 19.3904 20.7733 20.0349C20.4217 20.7693 20.0389 21.3982 20.0194 22.1326C19.9881 23.1014 20.2538 23.2537 21.0975 22.785C22.492 21.9998 23.2694 19.6756 25.617 21.5077C25.949 21.8162 25.6092 22.1756 24.7967 22.4412C22.7186 22.9998 22.1834 22.2147 22.0819 24.1444C22.1483 25.246 25.5467 23.8592 25.1874 25.1639C23.039 28.9491 14.8554 24.0623 14.9064 29.4998C14.922 30.4099 17.4103 29.2419 17.1369 30.0583C16.6603 31.6872 15.5978 31.8474 16.2033 33.6169C16.4611 34.5779 21.0549 31.3044 21.8478 30.9919C22.9337 30.5583 22.9923 30.4998 22.4142 31.5662C19.6642 36.6131 13.9689 33.9959 12.4337 35.8826C11.59 37.3709 13.336 38.1131 14.6056 38.5388C13.9376 39.5896 12.5001 40.4411 12.3439 41.4685C12.0861 43.1326 14.0314 42.4724 15.3947 42.6482C14.5588 45.0779 14.4689 45.8787 12.047 46.5974C10.5197 47.0505 8.87121 48.6286 9.69151 50.5076C10.6368 51.7459 12.7735 48.8865 13.5157 49.449L14.9259 51.9959C15.6798 53.4412 16.1017 49.8826 16.6876 49.8475C18.1056 55.3514 15.1837 52.2772 11.4493 58.4764C8.58601 63.2303 3.62121 63.9061 5.43371 65.8787C6.66031 66.8982 7.89071 65.8435 10.0196 65.8044C9.66805 66.6638 8.59771 67.9177 8.95711 68.5935C9.66805 69.9216 10.6016 68.91 11.7891 68.8943C11.7579 72.1755 3.01181 75.2576 5.70711 78.1404C7.08601 79.617 7.41021 78.3084 9.44931 78.4412C9.80869 82.7264 1.26181 80.3709 2.16411 84.1053C2.63286 85.5819 3.47661 85.1014 4.89461 85.8084C5.57039 86.9451 3.96883 86.2693 2.95711 89.2576C2.41414 91.0349 -0.277291 91.6287 0.461009 93.2928C1.29695 95.1717 2.12511 93.4686 6.85161 95.699C7.0938 99.2928 5.27351 101.137 10.6094 98.4959C12.2383 97.5584 15.3047 95.7381 17.4024 96.6326C21.711 98.6795 19.6485 102.754 29.6484 97.1834C32.7148 95.2693 33.8007 96.2459 36.3711 97.3514C38.2266 98.3123 41.8164 98.9373 43.6133 97.6443C45.0078 96.5584 46.086 93.2927 49.125 94.2263C50.2031 94.6091 50.1445 95.3357 51.8477 96.0154C53.1993 96.5154 55.625 96.949 55.9415 95.8396L56.6329 90.2263C56.8243 89.0075 58.2384 89.5428 59.1134 88.6208C59.8751 87.8044 59.8087 87.4177 59.0197 86.6325C57.3752 85.0114 53.4064 83.8278 51.0666 83.1833C50.3322 82.9841 50.1994 83.0349 50.8166 82.2966C51.6447 81.2927 53.0549 80.3005 49.6057 77.8943C48.2463 76.949 45.9143 76.0974 44.469 75.2693C44.2112 75.1209 43.758 74.9529 44.2854 74.5935C46.1409 73.3396 46.7229 72.4294 43.9494 70.7419C41.7424 69.3981 40.7189 69.4372 41.9611 66.1325C42.8791 65.3982 44.0509 68.3356 44.8673 67.1677C45.2267 66.1325 45.0431 66.2068 45.2033 65.3122C45.5392 64.152 45.2267 64.2419 45.9298 63.9841C47.3517 63.492 47.6759 64.9216 48.9103 63.1326C49.8205 60.9607 41.4025 56.5428 42.7228 55.2537C43.676 54.3201 45.629 56.2654 45.59 54.0271C45.3244 51.2966 42.6408 51.8826 42.5744 48.7654C42.5666 48.4724 42.5237 48.2302 43.0354 47.9294C44.9963 46.7927 46.219 48.0115 45.7581 43.9958C45.5315 42.6325 39.3284 44.1794 38.1487 43.0271C36.9299 41.4919 40.1878 44.0701 41.0979 41.8162C42.094 39.6014 37.6721 38.4334 38.8674 36.7889L38.875 36.781Z" fill="#FEBA95" stroke="#FEBA95" stroke-width="0.2"/>
</svg>
