<svg width="72" height="64" viewBox="0 0 72 64" fill="none" xmlns="http://www.w3.org/2000/svg">
<path d="M31.929 57.848L31.7823 56.625C31.6844 55.8117 31.5866 54.9954 31.4796 54.1821L31.1677 51.7421L30.8436 49.3053C30.7366 48.492 30.6235 47.6818 30.5103 46.8715C30.4003 46.0582 30.278 45.248 30.1526 44.4316C29.8927 42.805 29.59 41.1753 29.1681 39.5793C28.9571 38.7814 28.7217 37.9925 28.4588 37.222C28.1958 36.4515 27.9115 35.6994 27.618 34.9595C27.3214 34.2196 27.0156 33.4888 26.6946 32.7672C26.5356 32.4065 26.3797 32.0426 26.2115 31.6879C26.0464 31.3302 25.8813 30.9725 25.707 30.6239C25.3646 29.9176 25.0099 29.2235 24.6338 28.5448C24.4443 28.2055 24.2608 27.863 24.0621 27.5358C23.8633 27.2056 23.6768 26.8693 23.4659 26.5483C23.261 26.2272 23.0623 25.897 22.8452 25.5882C22.6311 25.2763 22.4263 24.9553 22.2031 24.6557C21.983 24.353 21.7659 24.0411 21.5305 23.7568L21.1024 23.2064L21.0137 23.1025L20.8364 22.8915C19.8886 21.7633 18.8613 20.739 17.7514 19.8768L17.3356 19.5527L16.9044 19.2622L16.4733 18.9687C16.3266 18.877 16.1798 18.7883 16.03 18.7027C15.4307 18.3603 14.7948 18.0912 14.1191 17.9903C13.9417 17.9628 13.7613 17.9506 13.5779 17.9536L13.4158 17.9077C13.3027 17.8802 13.1865 17.8619 13.0734 17.8374C12.8441 17.7885 12.6117 17.7732 12.3824 17.7518C12.2662 17.7365 12.15 17.7426 12.0338 17.7365L11.6853 17.7335C10.7589 17.761 9.83853 17.9444 8.94271 18.2655C8.82958 18.3052 8.71951 18.348 8.60944 18.3908C8.49937 18.4398 8.3893 18.4856 8.27922 18.5376C8.05908 18.6324 7.84506 18.7547 7.63104 18.8739C7.52402 18.929 7.41701 18.9962 7.31306 19.0635L6.99814 19.2653C6.89418 19.3356 6.79328 19.4151 6.69239 19.4885C6.59149 19.5649 6.48753 19.6322 6.38969 19.7178C6.19095 19.8829 5.98916 20.0419 5.80265 20.2315C5.60697 20.4119 5.43575 20.6106 5.26147 20.8093C5.1728 20.9072 5.09636 21.0172 5.01381 21.1212C4.93126 21.2282 4.85176 21.3322 4.77532 21.4422L4.54295 21.7725L4.32281 22.1149L4.21274 22.2831L4.10573 22.4573L3.8917 22.8028C3.75411 23.0383 3.61346 23.2676 3.47894 23.503C3.20376 23.9677 2.94082 24.4386 2.66866 24.9034L1.84618 26.3037C1.57712 26.7807 1.30806 27.2608 1.0818 27.7713C1.02371 27.8967 0.968677 28.0282 0.916697 28.1566C0.864719 28.2881 0.812744 28.4134 0.763823 28.5541C0.714903 28.6917 0.669043 28.8323 0.626236 28.9729C0.583432 29.1136 0.543683 29.2573 0.506996 29.3979C0.357176 29.9697 0.25017 30.5568 0.185955 31.153C0.121748 31.7461 0.0972883 32.3454 0.121748 32.9416C0.146208 33.5317 0.210414 34.1127 0.338828 34.6752C0.33577 34.6813 0.332712 34.6874 0.329655 34.6936L0.412209 34.7669C1.20714 33.4706 2.00826 32.1894 2.8338 30.939C3.66238 29.6884 4.50624 28.4654 5.37764 27.2699C6.24905 26.0775 7.14487 24.9126 8.06214 23.7844C8.52077 23.2188 8.98857 22.6623 9.45633 22.112C9.79266 21.7206 10.129 21.3201 10.4653 20.9348C10.661 20.9409 10.8536 20.9593 11.0463 21.0021C11.4468 21.0816 11.8259 21.2467 12.1928 21.4515C12.9235 21.8704 13.587 22.4789 14.2016 23.1576C14.3544 23.3289 14.5073 23.5031 14.6541 23.6835C14.8039 23.8639 14.9476 24.0474 15.0944 24.2339C15.3848 24.613 15.6753 24.9952 15.9658 25.3836L17.6749 27.7195C18.2436 28.4992 18.8123 29.288 19.3565 30.1074C19.6256 30.5202 19.8916 30.936 20.1453 31.3641C20.3991 31.7922 20.6437 32.2294 20.8792 32.6758C21.347 33.5686 21.775 34.495 22.1663 35.449C22.2642 35.6875 22.359 35.929 22.4507 36.1705C22.5424 36.4121 22.6341 36.6536 22.7228 36.8982L22.9796 37.6351C23.0652 37.8797 23.1447 38.1304 23.2273 38.375C23.3893 38.8703 23.5453 39.3687 23.6951 39.867L23.8082 40.24L23.9183 40.6161C23.9947 40.8668 24.065 41.1176 24.1384 41.3683C24.4289 42.3711 24.7102 43.3771 24.9548 44.3983C25.0771 44.9089 25.1994 45.4195 25.3125 45.9331C25.4257 46.4467 25.5327 46.9604 25.6336 47.4772L25.7131 47.8624L25.7864 48.2507C25.8354 48.5076 25.8874 48.7675 25.9332 49.0273C26.028 49.5441 26.1197 50.0669 26.2114 50.5897C26.3888 51.6354 26.5569 52.6872 26.7129 53.742C26.8688 54.7969 27.0247 55.8547 27.1715 56.9188C27.3213 57.9797 27.462 59.0437 27.6057 60.1077C27.7494 61.1717 27.89 62.2388 28.046 63.3089L28.1469 63.2967C28.1591 62.2113 28.1346 61.1228 28.0979 60.0404C28.0612 58.955 28.0032 57.8726 27.9328 56.7903C27.78 54.6256 27.572 52.4639 27.2541 50.3176C27.0951 49.2444 26.9055 48.1742 26.6731 47.1164C26.6181 46.8504 26.5569 46.5874 26.4927 46.3276C26.4285 46.0646 26.3704 45.8017 26.3032 45.5418C26.2359 45.2819 26.1717 45.022 26.1014 44.7621L25.8873 43.9886C25.5938 42.9613 25.2789 41.9431 24.9303 40.9464C24.8447 40.6957 24.753 40.4511 24.6582 40.2034C24.5665 39.9588 24.4747 39.7111 24.3769 39.4696C24.1843 38.9834 23.9794 38.5034 23.7746 38.0264C23.6706 37.7879 23.5667 37.5494 23.4627 37.3171L23.1417 36.6138L22.8176 35.9137L22.4873 35.2196C22.0471 34.2932 21.5976 33.3729 21.1451 32.4587C20.237 30.6334 19.3473 28.7683 18.3017 27.0377C17.7788 26.1755 17.2132 25.3561 16.614 24.5795L16.1614 24.0017L15.6967 23.4391C15.3818 23.063 15.0485 22.7022 14.7 22.3659C14.0059 21.6963 13.2324 21.1184 12.3824 20.7913C12.1684 20.7118 11.9544 20.6476 11.7342 20.6048C11.5141 20.562 11.2939 20.5436 11.0738 20.5436C10.9821 20.5436 10.8904 20.5497 10.7986 20.5589C10.8231 20.5344 10.8445 20.5069 10.8689 20.4825C11.3429 19.9688 11.8321 19.498 12.3702 19.1677C12.6362 19.0026 12.9144 18.8742 13.2019 18.7917C13.4862 18.7091 13.7828 18.6816 14.0855 18.6938C14.6878 18.7152 15.2963 18.914 15.8833 19.1861C16.0301 19.2533 16.1768 19.3298 16.3205 19.4093L16.7486 19.6661L17.1766 19.9291L17.5894 20.2287C18.6901 21.0328 19.6991 22.0479 20.6011 23.2006L20.8579 23.5216L20.9404 23.6348L21.2645 24.0842C21.4847 24.3808 21.6804 24.7018 21.8852 25.0137C22.0931 25.3225 22.2827 25.6527 22.4723 25.9769C22.6679 26.2979 22.8453 26.6373 23.0287 26.9705C23.2152 27.3007 23.3834 27.6493 23.5577 27.9887C23.735 28.3281 23.8971 28.6797 24.0622 29.0252C24.2303 29.3707 24.3832 29.7284 24.5453 30.08C24.7073 30.4286 24.8602 30.7894 25.0161 31.1471C25.3219 31.8626 25.6245 32.5811 25.915 33.3088C26.2085 34.0365 26.4959 34.7642 26.768 35.501C27.3153 36.9717 27.7984 38.4606 28.1714 39.9956C28.5414 41.5366 28.838 43.1142 29.104 44.7133C29.373 46.3093 29.6176 47.9298 29.8897 49.5411L30.2933 51.9595L30.7091 54.375C30.8467 55.179 30.9904 55.9832 31.1341 56.7873L31.3512 57.992L31.5744 59.1967C31.871 60.8019 32.1767 62.404 32.5069 64L32.6048 63.9756C32.4489 62.3367 32.2685 60.701 32.0789 59.0713L31.929 57.848ZM10.3369 19.6386C10.0739 19.8955 9.82013 20.1615 9.57553 20.4336C9.33093 20.7057 9.08327 20.9717 8.84479 21.25C8.3617 21.8034 7.89394 22.3721 7.43221 22.9561C6.50883 24.121 5.62827 25.3348 4.79052 26.5975C3.95277 27.8572 3.15166 29.1627 2.4087 30.5172C1.7177 31.7616 1.06954 33.0397 0.479445 34.3574C0.53448 33.8927 0.589511 33.4371 0.656778 32.9907C0.739332 32.4373 0.837172 31.8931 0.950299 31.358C1.06649 30.823 1.19796 30.3001 1.34777 29.7865L1.40281 29.5939C1.42421 29.5327 1.44256 29.4685 1.4609 29.4043C1.49759 29.2759 1.54345 29.1536 1.58014 29.0252C1.66575 28.7714 1.7483 28.5054 1.8278 28.2455C1.99596 27.7165 2.1519 27.1845 2.32618 26.6587C2.50351 26.1358 2.69614 25.6191 2.93462 25.1361C3.17311 24.656 3.43911 24.1974 3.73871 23.7785C3.88547 23.5645 4.04446 23.3657 4.20345 23.1701C4.286 23.0722 4.36856 22.9805 4.45111 22.8888L4.57647 22.7481L4.70489 22.6136C5.04427 22.2528 5.40811 21.9348 5.76587 21.6199C5.85759 21.5435 5.94626 21.467 6.03799 21.3906L6.10525 21.3325L6.30704 21.1766L6.44158 21.0696L6.50884 21.0176L6.57917 20.9687L6.86046 20.776C6.95219 20.7088 7.05003 20.6568 7.14787 20.5987C7.24571 20.5437 7.34049 20.4825 7.43833 20.4275L7.73491 20.2716C7.83275 20.2196 7.93365 20.1676 8.03454 20.1217C8.2394 20.03 8.43508 19.9261 8.64299 19.8435C8.74389 19.8007 8.84784 19.7518 8.94873 19.7059C9.04963 19.6631 9.15664 19.6264 9.25754 19.5836C9.88739 19.3237 10.5295 19.0944 11.1837 18.9048C11.1807 18.9079 11.1746 18.911 11.1715 18.914C10.8749 19.1403 10.5998 19.3818 10.3368 19.6386L10.3369 19.6386Z" fill="#FEBA95"/>
<path d="M24.652 55.2759C24.3891 54.429 24.12 53.5882 23.8449 52.7504C23.3007 51.0688 22.7258 49.4025 22.1449 47.7422C21.5548 46.0851 20.9617 44.434 20.3257 42.7982C19.6897 41.1625 19.0049 39.5512 18.2588 37.9858C17.5128 36.4173 16.6964 34.8946 15.7915 33.4576C15.339 32.739 14.8589 32.048 14.3545 31.3876C13.8439 30.7333 13.3119 30.1035 12.7462 29.5287C11.618 28.3729 10.3767 27.4006 9.05888 26.6699L8.3526 26.2755L8.78066 27.0796C9.13838 27.7523 9.50223 28.425 9.84774 29.1067L10.3675 30.1279C10.5387 30.4704 10.7069 30.8159 10.8751 31.1613C11.0402 31.5099 11.2053 31.8554 11.3673 32.207C11.5263 32.5586 11.6853 32.9102 11.8412 33.2649C11.9941 33.6196 12.1409 33.9804 12.2846 34.3442C12.4283 34.7081 12.575 35.0688 12.7157 35.4296C12.8502 35.7965 12.9817 36.1665 13.1132 36.5365L13.3088 37.0929C13.3761 37.2764 13.4311 37.4659 13.4954 37.6524L13.8561 38.7807C13.9173 38.9672 13.9723 39.1567 14.0304 39.3463L14.3667 40.4837C14.4218 40.6732 14.4799 40.8628 14.5319 41.0554C14.6358 41.4376 14.7459 41.8198 14.8498 42.202C14.9018 42.3915 14.9599 42.5811 15.0088 42.7737L15.1617 43.3516L15.4705 44.5013C15.8649 46.0423 16.2746 47.5771 16.6507 49.1303C17.0359 50.6775 17.3937 52.2368 17.7575 53.7961L18.8307 58.4894C19.1915 60.0548 19.5462 61.6233 19.9406 63.1796L20.0385 63.149C19.8306 61.5346 19.5921 59.9294 19.3352 58.3273C19.0815 56.7251 18.7971 55.1292 18.4975 53.5392C18.1887 51.9494 17.8646 50.3686 17.4977 48.797C17.14 47.2224 16.7364 45.6631 16.293 44.1251C16.1799 43.7429 16.0607 43.3607 15.9414 42.9786C15.8252 42.5964 15.7029 42.2173 15.5745 41.8412C15.4461 41.4651 15.3238 41.086 15.1923 40.7099C15.1312 40.5234 15.0609 40.3369 14.9905 40.1504L14.7857 39.5939C14.2476 38.105 13.6483 36.6526 13.049 35.2094C11.9697 32.635 10.7742 30.1585 9.58786 27.6757C10.5571 28.4004 11.459 29.2656 12.2846 30.2318C12.7952 30.8341 13.2874 31.4609 13.7491 32.1275C14.2169 32.7848 14.6572 33.4728 15.0791 34.1852C15.923 35.6039 16.6752 37.1143 17.3814 38.6645C17.733 39.438 18.0694 40.2269 18.3996 41.0248C18.7298 41.8198 19.0478 42.6209 19.3688 43.425C19.6838 44.2321 20.0017 45.0393 20.3105 45.8557L21.2492 48.2956C21.879 49.9191 22.4905 51.555 23.1081 53.1846L24.9457 58.0949C25.5542 59.7338 26.1657 61.3756 26.7864 63.0113L26.8781 62.9624C26.4287 61.235 25.9425 59.5258 25.4349 57.8258C25.175 56.9666 24.9152 56.1197 24.6522 55.2759L24.652 55.2759Z" fill="#FEBA95"/>
<path d="M48.2989 16.7887C49.0724 11.8325 49.9193 6.88574 50.9986 2.01173L51.1332 1.40329L50.7112 1.70598C49.9591 2.24716 49.2528 2.88922 48.6107 3.61997C47.9686 4.34766 47.3786 5.14871 46.8465 6.01095C46.3145 6.87015 45.8375 7.78124 45.4034 8.72911C44.9753 9.67691 44.5931 10.6615 44.2537 11.6674C43.9082 12.6702 43.6116 13.7007 43.3364 14.7371C43.0612 15.7736 42.8197 16.8285 42.5965 17.8833C42.3703 18.9382 42.1715 20.0021 41.9789 21.06C41.7832 22.121 41.6028 23.1819 41.4194 24.2429C41.0555 26.3678 40.7223 28.499 40.3859 30.6301C40.0527 32.7612 39.7255 34.8953 39.4106 37.0325L38.9459 40.2399C38.793 41.3008 38.6126 42.3556 38.4383 43.4227C38.3496 43.9578 38.2671 44.4929 38.1937 45.031C38.1203 45.5722 38.0531 46.1133 38.0072 46.6576C37.9888 46.8594 37.9736 47.0642 37.9644 47.266L37.891 46.8318L37.8023 46.3121C37.7718 46.1378 37.7351 45.9666 37.7045 45.7953L37.2 43.2117L37.0899 42.6981L36.6436 40.6434C36.6038 40.4722 36.5702 40.301 36.5304 40.1328L36.4081 39.6253L36.1635 38.6071C35.9984 37.9283 35.8425 37.2465 35.656 36.5738L35.1179 34.5559L35.0506 34.3052L34.9772 34.0545L34.8305 33.5561L34.2495 31.5565C34.1517 31.2232 34.0416 30.896 33.9377 30.5659L33.3078 28.5907L32.6352 26.64L32.2958 25.6647L31.935 24.7046C31.6934 24.0656 31.458 23.4205 31.2104 22.7814L30.446 20.8858C30.3176 20.5709 30.1953 20.2529 30.0607 19.941L29.2536 18.076L29.0518 17.6082L28.9509 17.3758L28.8439 17.1465L27.997 15.3089C27.7187 14.6943 27.4252 14.092 27.1317 13.4897C26.5385 12.285 25.9239 11.0956 25.2605 9.943C24.9242 9.37124 24.5879 8.79952 24.2362 8.24911C24.062 7.97088 23.8785 7.70181 23.6981 7.42662C23.5147 7.15756 23.3343 6.88544 23.1447 6.62253C22.7747 6.08747 22.3895 5.57384 21.9982 5.06625C21.6007 4.56481 21.2063 4.06342 20.7935 3.58643C19.9771 2.62024 19.118 1.71221 18.2374 0.846906L17.3752 0L17.8399 1.2475C19.6867 6.19759 21.4937 11.1756 23.2181 16.1959C23.4321 16.8258 23.6492 17.4526 23.8571 18.0824L24.1751 19.0272L24.487 19.975L25.1046 21.8737L25.71 23.7786C26.1074 25.0505 26.5018 26.3255 26.8779 27.6035C27.0736 28.2394 27.2571 28.8815 27.4466 29.5236L28 31.4498C28.7277 34.0212 29.4279 36.5986 30.0516 39.2067L30.284 40.1851L30.5072 41.1696L30.6173 41.6619L30.7243 42.1541L30.9353 43.1417C31.2074 44.4626 31.4703 45.7834 31.7058 47.1164C31.8281 47.7799 31.9381 48.4495 32.0543 49.1161C32.1124 49.4493 32.1613 49.7857 32.2164 50.1189C32.2683 50.4552 32.3264 50.7885 32.3723 51.1248L32.5221 52.1339C32.5741 52.4702 32.6138 52.8065 32.6628 53.1429C32.7086 53.4792 32.7606 53.8155 32.8003 54.1519L32.9288 55.1639C33.2681 57.8667 33.5219 60.588 33.739 63.3215L33.8399 63.3153C33.8185 60.5667 33.6901 57.8149 33.4577 55.0756C33.3416 53.7059 33.204 52.3391 33.0358 50.9785C32.9991 50.6361 32.9502 50.2967 32.9074 49.9573C32.8615 49.6179 32.8218 49.2755 32.7729 48.9392C32.675 48.2604 32.5833 47.5816 32.4702 46.9059C32.2623 45.5514 32.0146 44.2092 31.7639 42.87L31.4612 41.3657L31.1402 39.8705L30.9108 38.8769C30.3054 36.2291 29.5869 33.6241 28.7981 31.0619C28.4037 29.7808 27.9848 28.5119 27.5629 27.2491L27.2419 26.3044L26.9116 25.3627C26.6946 24.7359 26.4683 24.1091 26.2451 23.4854C25.7957 22.2379 25.3432 20.9936 24.8876 19.7492L23.527 16.019C21.8789 11.4786 20.3013 6.89876 18.7572 2.29714C20.1178 3.83816 21.3897 5.50755 22.5547 7.28699C22.732 7.55299 22.9032 7.82511 23.0744 8.09414C23.2426 8.36931 23.4138 8.63837 23.5789 8.91967C23.9152 9.47003 24.2332 10.0357 24.5512 10.6043C25.178 11.7478 25.7651 12.9249 26.3337 14.1266C26.6181 14.7289 26.8963 15.3313 27.1654 15.9458L27.9787 17.7803L28.0796 18.0096L28.1774 18.242L28.37 18.7068L29.1467 20.5657C29.2751 20.8745 29.3943 21.1925 29.5197 21.5074L30.2565 23.3908L30.9598 25.2956L31.3114 26.2496L31.6477 27.2128L32.3173 29.139L32.9533 31.0835C33.0572 31.4076 33.1673 31.7287 33.2682 32.0558L33.8674 34.0188L34.0173 34.511L34.0937 34.7556L34.7266 36.9846C35.4604 39.6354 36.1392 42.3138 36.7323 45.0286C37.0411 46.3801 37.3071 47.7468 37.5853 49.1104C37.6587 49.4497 37.7138 49.7952 37.778 50.1377L37.9645 51.168L38.154 52.1984L38.1999 52.4552L38.2427 52.7121L38.3283 53.2288L38.6677 55.3018C38.7747 55.9928 38.8695 56.6898 38.9734 57.384L39.1263 58.4265C39.1722 58.7751 39.215 59.1237 39.2609 59.4722L39.533 61.5666L39.6339 61.5513L39.4871 59.4355C39.4596 59.0839 39.4382 58.7292 39.4076 58.3776L39.3067 57.3227C39.2364 56.6195 39.1722 55.9132 39.0958 55.2131L38.842 53.1095L38.7778 52.5836L38.7441 52.3206L38.7074 52.0577L38.5576 51.009L38.4048 49.9603C38.3528 49.6118 38.3069 49.2632 38.2427 48.9147L38.151 48.3704C38.1907 47.817 38.258 47.2698 38.3405 46.7224C38.4934 45.6614 38.7166 44.6219 38.9368 43.5732L39.2731 41.9986C39.3281 41.7357 39.3832 41.4697 39.4351 41.2037C39.4841 40.9377 39.536 40.6686 39.585 40.4026L40.1567 37.2228C40.5297 35.101 40.8966 32.979 41.2543 30.8541C41.609 28.7291 41.9667 26.6011 42.2939 24.47C42.6271 22.3358 42.9145 20.1957 43.2631 18.0798C43.4374 17.0219 43.63 15.9701 43.8532 14.9306C44.0764 13.8911 44.3363 12.8637 44.6329 11.8578C44.9356 10.8518 45.2872 9.87037 45.6938 8.93173C46.1036 7.99004 46.5683 7.09108 47.0912 6.25028C47.6171 5.41254 48.1918 4.62981 48.8309 3.93883C49.3415 3.38848 49.8858 2.89014 50.4636 2.46512C49.3017 7.10032 48.2408 11.7842 47.4244 16.5479C47.0086 19.0367 46.6111 21.5316 46.2871 24.0448C45.9446 26.555 45.6725 29.0775 45.4341 31.6061C44.9846 36.6694 44.7645 41.7635 44.74 46.8512C44.7369 47.4871 44.7461 48.1231 44.7461 48.7591C44.7492 49.395 44.7522 50.031 44.7675 50.6669C44.792 51.9389 44.8317 53.2169 44.9143 54.4888C44.9571 55.1248 45.006 55.7607 45.0702 56.3967L45.1191 56.8737L45.1742 57.3476C45.2109 57.6625 45.2567 57.9774 45.2995 58.2923C45.483 59.549 45.7368 60.7873 46.067 61.9889L46.1618 61.9522C45.9233 60.7231 45.752 59.4787 45.642 58.2251C45.6175 57.9133 45.5869 57.5983 45.5686 57.2834L45.538 56.8126L45.5136 56.3417C45.4952 56.0299 45.486 55.7119 45.4738 55.397C45.4646 55.0821 45.4555 54.7671 45.4494 54.4522C45.431 53.1925 45.4341 51.9298 45.4616 50.6671C45.4708 50.0342 45.4983 49.4012 45.5105 48.7714C45.5288 48.1385 45.5411 47.5056 45.5625 46.8757L45.6389 44.98L45.6726 44.0322L45.7184 43.0875L45.8132 41.1949C45.8468 40.565 45.8927 39.9352 45.9294 39.3053C45.9691 38.6755 45.9997 38.0456 46.0517 37.4188L46.1923 35.5323C46.2321 34.9024 46.2932 34.2756 46.3452 33.6489L46.5042 31.7655L46.6846 29.8852L46.7733 28.9435L47.0668 26.1275C47.134 25.5007 47.2135 24.8769 47.2869 24.2533L47.452 22.8498L47.5132 22.382L47.7578 20.5139C47.8373 19.8902 47.929 19.2695 48.0207 18.6488L48.2989 16.7887Z" fill="#FEBA95"/>
<path d="M71.7438 26.4436C71.5481 25.3062 71.1353 24.1933 70.4902 23.2913C69.845 22.3986 68.9859 21.7748 68.0655 21.4996C67.6039 21.362 67.1269 21.31 66.656 21.3834C66.1821 21.4537 65.7357 21.6494 65.3321 21.9093C64.9255 22.1631 64.5586 22.478 64.1978 22.7838C63.837 23.0926 63.4885 23.4106 63.1277 23.7071C62.7669 24.0037 62.3939 24.2606 62.0086 24.499C61.6264 24.7375 61.2351 24.9607 60.8559 25.2114C60.6388 25.3551 60.4248 25.505 60.2138 25.6639C59.7919 25.8841 59.3791 26.1317 58.9786 26.4069C58.8746 26.4803 58.7646 26.5476 58.6637 26.6271L58.3549 26.8594C58.147 27.0093 57.9482 27.1835 57.7495 27.3517C57.352 27.6911 56.9698 28.061 56.5998 28.4493C55.863 29.229 55.1811 30.0943 54.5941 31.0573C53.9979 32.0144 53.5087 33.0661 53.0867 34.1454C52.8696 34.6835 52.6862 35.2369 52.4997 35.7873C52.3224 36.3438 52.1511 36.9003 51.9921 37.4628C51.6711 38.5849 51.3867 39.7192 51.1024 40.8566C50.5429 43.1283 49.9497 45.3848 49.4178 47.6626C49.1548 48.8031 48.9102 49.9497 48.6962 51.1084C48.4791 52.2672 48.2865 53.4413 48.1428 54.6337C47.996 55.8231 47.9165 57.0338 47.9257 58.2446C47.941 59.4554 48.0541 60.6662 48.314 61.8189L48.4118 61.7944C48.3507 60.6081 48.366 59.434 48.4608 58.2722C48.5586 57.1103 48.7115 55.9576 48.9102 54.8141C49.1028 53.6706 49.3322 52.5301 49.5615 51.3836C49.6746 50.8118 49.7969 50.237 49.907 49.6622C50.017 49.0874 50.124 48.5095 50.2249 47.9317C50.6316 45.6172 50.9129 43.2567 51.4112 40.9759C51.6589 39.8354 51.9524 38.7133 52.304 37.6217C52.6556 36.5302 53.0776 35.4815 53.5637 34.4939C53.6249 34.3716 53.683 34.2463 53.7472 34.124L53.9398 33.7632L54.0346 33.5828C54.0682 33.5247 54.1018 33.4666 54.1355 33.4085L54.3373 33.0599C54.4749 32.8306 54.6216 32.6105 54.7623 32.3842C54.909 32.1641 55.0589 31.9501 55.2056 31.733C55.8141 30.8891 56.4745 30.1033 57.1868 29.4124C57.5446 29.0669 57.9115 28.7428 58.2906 28.4431C58.4802 28.2964 58.6698 28.1404 58.8654 28.0089L59.159 27.8041C59.2568 27.7307 59.3577 27.6757 59.4586 27.6115C59.6421 27.4953 59.8286 27.3852 60.0151 27.2782C59.587 27.8224 59.1956 28.4156 58.844 29.0485C58.471 29.7181 58.1408 30.4244 57.8534 31.1612C57.563 31.895 57.3245 32.6594 57.1441 33.4452C56.7802 35.0167 56.6304 36.6311 56.4072 38.2088C56.1901 39.7895 55.9455 41.361 55.6673 42.9265L55.4625 44.1005L55.3616 44.6876L55.2668 45.2777C55.1414 46.0635 55.0375 46.8554 54.9366 47.6442C54.7317 49.2279 54.5391 50.8179 54.4351 52.4231C54.3312 54.0283 54.2884 55.6427 54.322 57.257C54.3281 57.6606 54.3465 58.0642 54.3618 58.4678C54.3801 58.8714 54.4076 59.275 54.4351 59.6756C54.4626 60.0791 54.5055 60.4796 54.5422 60.8772C54.588 61.2777 54.64 61.6752 54.6981 62.0726L54.799 62.0635C54.8296 61.6599 54.851 61.2624 54.8754 60.8618C54.9029 60.4613 54.9274 60.0639 54.9488 59.6664L54.9916 59.0702C55.0069 58.8714 55.013 58.6727 55.0314 58.474L55.117 57.2846C55.2332 55.7039 55.3677 54.1262 55.5053 52.5485C55.6429 50.9709 55.7499 49.387 55.8783 47.8002C55.9394 47.0053 56.0128 46.2134 56.0648 45.4184C56.1198 44.6234 56.1626 43.8223 56.2085 43.0243C56.2941 41.4283 56.4378 39.8384 56.7221 38.2883C57.0004 36.735 57.4682 35.246 57.9329 33.8029C58.1653 33.0813 58.4038 32.3659 58.6576 31.6595C58.9144 30.9563 59.1926 30.2654 59.4953 29.5957C59.8011 28.9231 60.1343 28.2718 60.4951 27.6359C60.6632 27.3362 60.8406 27.0397 61.024 26.7492C61.3237 26.6086 61.6294 26.4771 61.9352 26.364C62.1462 26.2753 62.3633 26.2111 62.5773 26.1408C62.6843 26.1071 62.7944 26.0674 62.8983 26.0429L63.0573 26.0001L63.2163 25.9634C63.6413 25.8686 64.0785 25.8197 64.5158 25.8075C64.953 25.7953 65.3933 25.8228 65.8336 25.887C66.2708 25.9481 66.7111 26.046 67.1422 26.1836C67.5733 26.3242 67.9983 26.4893 68.4141 26.7003C68.622 26.8042 68.8238 26.9235 69.0256 27.0458C69.1265 27.1069 69.2244 27.1742 69.3253 27.2384C69.4231 27.3057 69.5209 27.3791 69.6188 27.4494C70.374 28.0211 71.062 28.758 71.6062 29.6783C71.6154 29.7334 71.6215 29.7884 71.6276 29.8434L71.7285 29.8496C71.9364 28.755 71.9395 27.584 71.7438 26.4435L71.7438 26.4436ZM69.9062 26.8992C69.8083 26.8074 69.7136 26.7188 69.6157 26.627C69.5148 26.5414 69.417 26.4528 69.3161 26.3733C69.1112 26.2112 68.9033 26.0614 68.6893 25.9208C68.2643 25.6395 67.821 25.3979 67.3624 25.2053C66.9068 25.0127 66.439 24.8567 65.965 24.7436C65.4911 24.6366 65.008 24.5663 64.5219 24.551C64.0357 24.5296 63.5496 24.5632 63.0604 24.6458L62.8769 24.6794L62.6965 24.7192C62.6812 24.7222 62.6659 24.7283 62.6507 24.7314C62.8677 24.499 63.0879 24.2697 63.3111 24.0526C63.6505 23.7224 64.0021 23.4197 64.3721 23.1599C64.742 22.903 65.1303 22.6982 65.5248 22.5759C65.7204 22.5086 65.9192 22.4719 66.1149 22.4413C66.2127 22.4322 66.3075 22.4169 66.4053 22.4199L66.549 22.4138C66.5949 22.4108 66.6438 22.4199 66.6927 22.423C67.0719 22.4475 67.451 22.5269 67.8118 22.6798C68.1726 22.8327 68.515 23.0559 68.833 23.3219C69.1479 23.591 69.4476 23.8998 69.7136 24.2483C69.9796 24.5908 70.2211 24.9791 70.4351 25.398C70.6492 25.8169 70.8296 26.2724 70.9855 26.7464C71.2393 27.5199 71.4135 28.3516 71.542 29.2199C71.1353 28.3241 70.5605 27.5383 69.9062 26.8993L69.9062 26.8992Z" fill="#FEBA95"/>
<path d="M68.4783 37.4605C68.3254 37.6867 68.1694 37.9069 68.0227 38.1393L67.5763 38.8272C67.4234 39.0535 67.2797 39.2889 67.133 39.5182C66.9862 39.7506 66.8394 39.9799 66.6927 40.2092L66.2585 40.9063C65.9619 41.3649 65.6837 41.8419 65.3901 42.3036C65.1027 42.7714 64.8215 43.2423 64.5279 43.707C64.3873 43.9425 64.2436 44.1779 64.0998 44.4133C63.9531 44.6457 63.8094 44.8781 63.6687 45.1165C63.5281 45.355 63.3844 45.5905 63.2437 45.8259C63.1 46.0613 62.9655 46.3059 62.8249 46.5444L62.4121 47.269L62.0146 48.009L61.8189 48.382C61.7517 48.5043 61.6936 48.6327 61.6324 48.7611C61.5071 49.0149 61.3878 49.2687 61.2655 49.5255C61.0271 50.0391 60.8039 50.565 60.5837 51.094C60.1587 52.1611 59.7521 53.2404 59.3913 54.3441C59.3026 54.6223 59.2109 54.8975 59.1223 55.1727L58.8746 56.0104C58.7095 56.5699 58.5566 57.1356 58.416 57.7104C58.1408 58.8601 57.9329 60.0586 57.9207 61.2633L58.0216 61.2785C58.2386 60.1228 58.5658 59.0313 58.9388 57.9611C59.1253 57.4261 59.318 56.891 59.5198 56.362L59.8163 55.564C59.9172 55.298 60.0212 55.0351 60.1221 54.7722C60.5226 53.7142 60.9537 52.6747 61.3818 51.6352L61.712 50.8616C61.8221 50.6048 61.926 50.3418 62.0361 50.085C62.2593 49.5714 62.4672 49.0485 62.6935 48.5348C63.5679 46.468 64.4852 44.3949 65.6256 42.536C65.91 42.0712 66.1943 41.6065 66.5001 41.1632L66.9526 40.4936C67.1085 40.2765 67.2645 40.0594 67.4265 39.8484C67.4938 39.7567 67.561 39.665 67.6314 39.5733L67.6008 39.6436C67.2003 40.5883 66.8211 41.5362 66.4328 42.4809C66.0476 43.4287 65.6684 44.3827 65.2954 45.3427C65.115 45.8258 64.9285 46.3089 64.7573 46.7981C64.6717 47.0427 64.58 47.2843 64.4974 47.5319L64.2498 48.2749C63.5924 50.2561 63.0329 52.3016 62.6079 54.396C62.5803 54.5244 62.5559 54.659 62.5314 54.7904L62.3908 55.5854C62.3663 55.7169 62.3449 55.8483 62.3235 55.9829C62.244 56.5149 62.1645 57.0438 62.1095 57.582C61.9811 58.649 61.9291 59.7314 61.9169 60.8046L62.0178 60.8168C62.3571 58.7193 62.7883 56.6769 63.3417 54.6896C63.4823 54.1943 63.6168 53.6929 63.7728 53.2067L63.996 52.4699L64.2314 51.736L64.3476 51.3691L64.4699 51.0053L64.7114 50.2776L65.2159 48.8283C65.5583 47.8652 65.9038 46.9021 66.2554 45.939L66.7783 44.4928L67.3103 43.0465C67.6619 42.0803 68.0166 41.1141 68.3743 40.1541L68.9063 38.7141C69.0867 38.2371 69.264 37.757 69.4506 37.2862L70.6399 34.2501L68.9246 36.7726L68.4783 37.4605Z" fill="#FEBA95"/>
</svg>
