<svg width="80" height="69" viewBox="0 0 80 69" fill="none" xmlns="http://www.w3.org/2000/svg">
<path d="M62.8604 43.3017C62.7422 43.5226 62.6459 43.7533 62.5758 43.9948C62.3773 45.4739 62.1741 46.9541 62.01 48.4373C61.8485 49.9011 61.7515 51.372 61.59 52.8358C61.4289 54.2887 61.9816 55.5803 62.4484 56.8885C62.7695 57.7895 62.2109 59.123 61.4189 59.9108C59.8116 61.5093 58.3053 63.21 56.7796 64.8906C56.6859 65.102 56.6401 65.334 56.6501 65.5642L56.8438 65.658L61.2983 60.8277L61.5313 61.3932C62.9122 59.925 64.2471 58.5361 65.5365 57.1073C65.7225 56.7991 66.1015 56.6686 66.4365 56.7993C67.45 57.2021 68.2622 56.8283 69.0205 56.1783C71.2056 54.3961 73.0863 52.2676 74.5903 49.8811C74.7577 49.6037 75.0212 49.3852 75.1964 49.1119L75.1943 49.1114C75.3435 48.8273 75.4733 48.5319 75.5806 48.2288C75.3938 48.2604 75.2076 48.3077 75.0287 48.37C73.9612 48.9466 72.9084 49.5533 71.8278 50.1024C70.3703 50.9174 69.1123 52.0465 68.1486 53.4091C67.9373 53.6581 67.7673 53.937 67.6428 54.2382C68.0242 52.68 68.5052 51.1396 68.7589 49.5612C69.008 48.0016 69.0252 46.4051 69.1504 44.7467C70.4611 45.335 71.7557 45.5922 72.5851 44.1637C73.2489 44.2974 73.9226 44.3717 74.5987 44.3824C75.8389 44.2925 76.2681 43.4247 76.0508 42.1357C75.9521 41.5455 75.8486 41.1554 76.5715 40.8305C77.3297 40.4877 77.4007 39.2493 76.8133 38.6235C76.5415 38.3337 76.2315 38.0831 75.9316 37.8085C76.224 36.9936 76.695 36.1803 76.2147 35.3155C75.7024 34.3919 74.7639 34.5226 73.9178 34.583C73.5607 32.8175 72.2885 31.9091 70.5793 32.1628L70.5788 32.1649C70.3573 32.2301 70.1526 32.3436 69.9788 32.4934C69.9001 32.5802 69.8287 32.6733 69.7667 32.7731C69.5077 33.1806 69.3203 33.63 69.2138 34.1013C68.4707 33.0727 67.0759 32.7644 65.969 33.3844C65.4064 33.6778 64.9718 34.1706 64.7503 34.7686C64.5878 35.3058 64.8844 35.982 64.9903 36.669L64.9924 36.6695C64.8537 36.7395 64.7087 36.799 64.5636 36.8497C64.1473 36.9247 63.8091 37.2222 63.684 37.6249C63.5573 38.025 63.6647 38.4625 63.963 38.7611C64.2179 39.0025 64.4546 39.2639 64.6695 39.542C64.8997 39.857 65.0333 40.2324 65.055 40.6224C64.961 41.2052 65.116 41.8003 65.4823 42.2635C65.8486 42.7269 66.3923 43.0169 66.9805 43.0614C67.8569 43.13 68.5164 43.8862 68.4696 44.7636C68.626 46.9155 68.3976 49.077 67.7932 51.1487C67.3211 52.5896 66.7211 53.9837 66.0026 55.3201C65.5471 55.9978 65.0199 56.6249 64.4305 57.1903C66.1084 52.2507 64.6701 47.8661 62.8602 43.302L62.8604 43.3017ZM72.3534 42.6717L72.349 42.4098C74.424 41.8808 75.0216 38.6268 73.7835 37.1276L73.7814 37.1271C72.9153 36.0771 71.705 35.3675 70.3648 35.1256C69.0819 35.0017 67.9227 35.8985 67.719 37.173C67.6415 39.2145 68.7387 40.1332 70.5552 40.6154C71.5758 40.7635 72.5287 40.0771 72.7128 39.0631C72.8787 37.8612 72.2297 36.9993 70.8789 36.6288C69.841 36.4521 68.8161 37.0082 68.4021 37.9769C68.2163 36.7398 69.2127 35.4693 70.2937 35.6322C71.8212 35.8226 73.1293 36.8193 73.7165 38.241C74.4227 39.8089 73.175 41.9885 71.4627 41.9297C69.3253 41.8553 67.8642 40.7703 66.8492 38.983C66.4725 38.2187 66.3838 37.3436 66.597 36.5181C66.7216 35.8101 67.4035 35.7339 67.8828 35.4289C68.0215 35.3413 68.18 35.2806 68.3103 35.182C70.3672 33.625 74.5511 35.4562 74.6455 38.15C74.7068 39.9138 74.4436 41.4678 72.9396 42.5809L72.9375 42.5804C72.7519 42.6521 72.5521 42.6828 72.3536 42.6718L72.3534 42.6717ZM63.1983 45.949L63.1978 45.9511C64.156 48.1511 64.6385 50.5332 64.608 52.9336C64.546 53.774 64.4235 54.6085 64.2401 55.4303C64.1538 55.6833 64.0477 55.9271 63.9218 56.1616C63.786 56.5174 63.6727 56.881 63.551 57.2426L63.3002 57.1834C61.4179 53.4748 62.2272 49.7174 63.1977 45.9512L63.1983 45.949ZM66.5654 56.2445C68.6636 53.7336 70.3782 50.8659 73.9026 49.9334C73.6623 50.4184 73.375 50.8787 73.0463 51.309C71.6696 52.7694 70.2898 54.2335 68.8241 55.6058C68.2444 56.1493 67.5192 56.7456 66.5652 56.2446L66.5654 56.2445ZM73.1186 34.8752C72.3 34.5975 71.5321 34.3476 70.7719 34.0753L70.7724 34.0732C70.5359 33.9733 70.3057 33.8572 70.0811 33.7271C70.2795 33.4042 70.4031 32.9083 70.6864 32.7897C71.9437 32.2595 73.3497 33.4704 73.1186 34.8752L73.1186 34.8752ZM68.5098 34.2666C67.699 35.1493 66.196 35.0842 65.9024 36.5003C65.1063 35.6974 65.1889 34.9173 66.0757 34.0223C66.6142 33.4754 67.7907 33.5732 68.5124 34.265L68.5098 34.2666ZM72.0141 43.8395C71.7941 44.314 71.3336 44.6324 70.8114 44.6704C69.9071 44.752 69.0351 44.3041 68.5745 43.5215C68.4924 43.2427 68.4691 42.9496 68.513 42.6619C69.7651 43.0833 70.856 43.4499 72.0142 43.8395L72.0141 43.8395ZM74.9737 41.314C75.5976 41.9266 75.7562 43.0576 75.2986 43.5182L75.3006 43.5187C74.6635 44.1343 73.6515 44.1231 73.0265 43.497C73.6725 42.773 74.3091 42.0599 74.9737 41.314L74.9737 41.314ZM69.521 38.9511C69.2912 38.833 69.1302 38.6145 69.0863 38.3605C69.0403 38.1061 69.1176 37.8442 69.2943 37.6553C69.7493 37.1875 70.4371 37.033 71.0492 37.2603C71.6206 37.3825 72.0438 37.8664 72.091 38.4505C72.1845 39.0261 71.9242 39.6014 71.431 39.9095C71.1704 40.0978 70.8442 40.1749 70.5273 40.1238C70.2083 40.0723 69.9241 39.8966 69.7384 39.6345C70.8665 39.6144 71.3708 39.1166 71.2332 38.1344C71.1749 37.7133 71.0276 37.3213 70.4925 37.3937C69.7024 37.4966 69.3513 38.1092 69.521 38.9511L69.521 38.9511ZM67.033 42.5848C66.5623 42.2949 66.1273 41.9496 65.7373 41.5557C65.6357 41.2301 65.7048 40.8756 65.9196 40.6121C66.2202 40.2965 66.5171 40.5284 66.7475 40.8788C66.9474 41.182 67.2688 41.4044 67.4968 41.6924C67.6354 41.9032 67.7552 42.1271 67.8527 42.3609L67.033 42.5848ZM75.299 38.632C76.1836 38.5678 76.4945 38.761 76.5742 39.4106L76.5747 39.4086C76.6209 39.6984 76.5484 39.9947 76.374 40.2283C76.2012 40.4646 75.9395 40.6216 75.6507 40.6637C75.2194 40.7637 75.1009 40.6065 75.1556 40.1932C75.2214 39.6897 75.2507 39.1817 75.299 38.632L75.299 38.632ZM75.3002 37.3898C74.8493 36.6847 74.4211 36.0138 73.9806 35.3202C74.5767 35.1521 75.2029 34.9694 75.6903 35.5795C76.032 36.008 75.8179 36.8643 75.3002 37.3898L75.3002 37.3898ZM65.264 37.1129L65.5492 37.185C65.7589 37.674 65.9182 38.1795 66.0228 38.7004C65.8234 38.928 65.5617 39.0938 65.2731 39.1801C64.9156 38.8163 64.6442 38.3806 64.4793 37.8981C64.4351 37.7082 64.9841 37.3805 65.2635 37.115L65.264 37.1129ZM69.5874 42.5002L69.6948 42.2059C70.312 42.295 70.9301 42.3712 71.541 42.4854L71.539 42.4849C71.6545 42.564 71.7477 42.6708 71.8077 42.796C71.7155 42.9106 71.5941 43.0002 71.4553 43.0525C70.8269 42.892 70.2087 42.6898 69.5874 42.5002L69.5874 42.5002ZM67.2473 40.8064L67.4038 40.6546L69.3227 42.0462L69.1602 42.2585C68.5224 41.7751 67.8851 41.2897 67.2457 40.8038L67.2473 40.8064Z" fill="#FEBA95"/>
<path d="M62.9017 34.1406C61.4223 34.7746 60.2599 35.8314 59.2031 36.9939C59.4144 36.2541 59.6258 35.4087 59.8371 34.669C60.1541 33.1896 60.3655 31.7101 60.3655 30.1249V27.5887H60.4712C61.4222 27.3774 61.6336 25.7923 61.9506 24.9469C62.3733 23.7844 63.1131 21.6709 62.2676 20.4028C61.9506 19.9801 61.7393 19.9801 61.2109 19.8745C60.7882 19.7688 60.6825 19.6631 60.4711 19.3461C60.2598 19.1347 60.1541 18.9234 59.8371 18.8177C59.0973 18.6064 58.7803 19.3461 58.569 19.9802C58.3576 19.7688 58.1463 19.4518 57.8292 19.3461C57.5122 19.2405 57.1952 19.2405 56.8782 19.4518C56.1384 19.8745 55.6101 20.8255 55.5044 21.6709C55.3988 22.939 56.2442 24.2071 56.9839 25.1582C57.6179 25.8979 58.6747 27.3773 59.7314 27.483V28.6455C59.7314 29.4909 59.8371 30.4419 59.7314 31.2873C59.6258 32.9781 59.3087 34.5633 58.9917 36.1484C58.4633 34.3519 56.2441 31.1816 54.976 32.4497C54.342 33.0838 54.7647 34.2462 55.1874 34.8803C55.9271 36.254 56.9838 37.5221 58.4633 37.9448C57.5123 40.6924 56.1385 43.3343 54.7647 45.8706C53.2852 48.5125 52.3341 51.6828 51.5944 54.7473C51.2774 56.3325 51.1717 58.2346 51.4888 59.9254C51.0661 59.1856 50.6434 58.4459 50.432 57.7062C49.798 55.4871 49.481 53.2679 49.3753 51.0487C49.2696 49.0408 49.1639 47.033 49.1639 44.9195V40.0585C50.1149 39.8471 51.0661 39.0017 51.5945 38.4733C52.2285 37.9449 53.4966 36.2542 52.9682 35.3031C52.3342 34.2463 51.0661 35.6201 50.6434 36.0428C49.9036 36.7826 49.3753 37.628 49.0582 38.579C48.8468 35.8315 47.7901 33.0839 46.522 30.5477C47.473 27.3775 47.7901 23.9959 47.7901 20.6139H47.8958C48.9525 20.5082 49.9036 19.8742 50.6433 19.1345C51.2774 18.5004 52.7568 17.021 52.0171 15.8585C51.2773 14.8018 50.0092 16.1755 49.4809 16.7039C48.8468 17.338 48.3184 18.1834 48.0014 19.0288C48.0014 18.7117 47.8957 18.3947 47.7901 18.1834C47.5787 15.0131 46.839 11.9485 45.4652 9.09498C45.6766 8.24958 45.9936 7.61553 46.0993 6.77013C46.2049 5.81909 46.0993 4.97369 45.8879 4.12829C45.6766 3.28289 45.0425 0.746689 43.88 0.746689C43.563 0.746689 43.4573 1.06371 43.246 1.16939C43.1403 1.69776 42.929 1.90915 42.6119 1.90915C42.5063 1.80347 42.4006 1.6978 42.1892 1.59212C41.9779 1.59212 41.9779 1.48645 41.6609 1.48645C41.1325 1.59212 40.9211 2.22621 40.8155 2.75455C40.2871 2.33185 39.7587 2.33185 39.1247 2.75455C38.2793 3.28292 37.9622 4.02265 38.3849 4.97369C39.1247 6.45314 40.4984 7.82695 41.7665 8.77799C42.6119 9.41204 43.7744 10.2574 44.7254 9.72903C45.8879 12.0539 46.6276 14.4844 46.9446 17.0204C46.6275 16.5977 46.4162 16.175 46.0992 15.858C45.5708 15.2239 44.197 13.8501 43.4573 14.8012C42.6119 15.7523 43.88 17.6545 44.5141 18.4999C45.0424 19.2396 45.5708 19.768 46.3105 20.1907L47.2615 20.8247C47.2615 23.995 46.8388 27.1652 46.0991 30.2296C45.7821 29.4899 45.3593 28.8559 45.0423 28.1161C44.0913 26.3197 43.1402 24.6289 42.0834 22.9381C41.5551 22.0927 40.8153 21.3529 40.0756 20.6132C39.7586 20.2962 39.4415 19.8735 39.1245 19.5565C39.2302 19.4508 39.2302 19.3451 39.2302 19.2395C38.8075 17.6543 38.8075 15.9635 38.2792 14.3784C37.9621 13.533 37.6451 11.2082 36.377 11.1025C35.9543 11.1025 35.8487 11.2081 35.6373 11.5252C35.5316 11.6308 35.4259 11.9479 35.3202 12.0535C35.2146 12.0535 34.7919 11.9479 34.6862 11.9479C33.7352 11.8422 33.6294 12.3706 33.6294 13.0046C33.2067 12.6876 32.8897 12.4762 32.3613 12.5819C31.9386 12.6876 31.6216 13.1103 31.4103 13.4273C30.7763 14.3784 31.0933 15.4352 31.7273 16.3862C32.5727 17.76 33.9465 18.8168 35.3203 19.4508C36.1657 19.8735 37.5394 20.5075 38.3848 19.9791C38.7018 20.4018 39.0189 20.7189 39.3359 21.0359C40.0756 21.7756 40.8153 22.5153 41.3437 23.3607C41.5551 23.5721 41.6607 23.8891 41.7664 24.1005C41.4494 23.8891 41.238 23.6778 40.921 23.4664C40.0756 22.9381 39.1246 22.304 38.0678 22.1983C37.328 22.0927 35.5316 22.5154 36.0599 23.6778C36.2712 24.2062 37.0109 24.6288 37.4336 24.8402C38.279 25.3686 39.1244 25.58 40.0755 25.6856C40.4982 25.6856 41.6606 25.7913 42.4003 25.4743L42.506 25.58H42.6117C43.3514 26.8481 43.9854 28.1162 44.7252 29.4899C45.0422 30.124 45.3592 30.758 45.6762 31.2864C45.5705 31.7091 45.3592 32.2374 45.2535 32.6601C45.0422 33.5055 44.7251 34.3509 44.5138 35.1963C44.0911 35.0906 43.774 35.302 43.457 35.8303C43.0343 36.5701 43.3513 37.3098 43.8797 38.0495C42.823 43.1219 42.7173 48.5115 44.9365 53.5839C45.7819 55.486 47.05 57.1768 48.2124 58.8676C48.8465 59.8187 49.5862 60.6641 50.2203 61.5095C50.643 62.0378 51.0657 62.4605 51.4884 62.8832C50.8543 62.4605 50.3259 62.0378 49.6919 61.6151C48.4238 60.8754 47.2614 60.1357 46.099 59.1845C43.7741 57.3881 41.7663 54.6405 40.6039 51.9986C40.4982 51.893 40.4982 51.6816 40.3925 51.5759C40.7096 51.3646 40.9209 51.0476 41.1323 50.7305C41.4493 50.3078 41.7663 49.8851 41.9777 49.4624C42.4004 48.6171 42.5061 47.3489 41.872 46.5035H41.6607C40.3926 47.0319 39.7585 48.5114 39.6528 49.9908C38.9131 48.1944 38.2791 46.3978 37.328 44.707C36.9053 43.2276 35.9542 42.0652 35.0031 41.0084C34.8974 40.797 34.6861 40.6914 34.4747 40.48V40.3743C34.3691 38.8949 31.5158 31.6031 29.4023 33.6111C28.9796 34.0338 28.9796 34.4565 28.7683 34.8792C28.5569 35.1963 28.6626 35.0906 28.2399 34.8792C28.1342 34.7736 27.9229 34.7736 27.8172 34.7736C26.9718 34.8792 27.0775 35.5133 27.3945 36.1473C26.9718 36.1473 26.6548 36.3587 26.3378 36.6757C25.7037 37.4154 26.1264 38.1551 26.6548 38.7892C28.3456 40.797 30.9874 41.3254 33.2066 40.2686C33.8407 40.797 34.3691 41.4311 34.8974 42.0651C35.9542 43.2275 36.7996 44.4956 37.5393 45.8694C37.962 46.7148 38.3847 47.6658 38.7017 48.5112C38.0677 47.8772 37.328 47.2431 36.5882 46.926C35.7428 46.609 34.4747 46.609 33.9464 47.4544C33.3124 48.4055 35.0031 49.6736 35.6372 50.0963C36.9053 50.9417 38.279 51.47 39.7586 51.47H39.8642C40.1813 52.1041 40.4983 52.8437 40.8153 53.3722C42.0834 55.697 43.7742 57.9162 45.782 59.5013C46.9445 60.4523 48.2126 61.1921 49.375 61.9319C49.9034 62.2489 50.4317 62.6716 50.9601 62.9886C51.3828 63.3056 52.1226 63.6227 52.4396 63.9397C52.5453 64.0453 52.6509 63.9397 52.6509 63.9397C52.7566 64.151 53.285 63.6226 53.1793 63.4113C53.1793 63.3056 53.0736 63.3056 53.0736 63.1999C53.1793 63.0943 53.285 62.9886 53.1793 62.8829V62.7772V62.6716C53.1793 62.5659 53.0736 62.5659 53.0736 62.4602C53.0736 62.3545 52.968 62.3545 52.968 62.3545C51.3828 59.29 51.6999 55.697 52.6509 52.5269C52.8623 51.8929 53.0736 51.1532 53.285 50.5191C53.602 50.7304 54.4474 50.5191 54.7644 50.5191C56.1382 50.3077 57.9347 49.885 58.6744 48.5112C59.4141 47.2431 57.7233 46.7148 56.7722 46.926C56.0325 47.1374 55.3985 47.5601 54.8701 47.9828C54.4474 48.4055 54.1303 48.9338 53.7076 49.4622C53.919 48.9339 54.0246 48.4055 54.236 47.9828C54.87 46.292 55.9268 44.8125 56.6666 43.2275C57.512 41.431 58.2517 39.7402 58.8857 37.9437C59.8367 38.2607 61.4219 37.9437 62.0559 37.838C63.2184 37.521 64.9092 36.3586 65.1205 35.0905C65.4375 33.611 63.641 33.7167 62.9013 34.1394L62.9017 34.1406ZM56.2442 22.9394C56.0328 22.5167 55.9271 22.094 55.9271 21.6713C55.9271 21.2486 56.0328 20.9315 56.2442 20.6145C56.5612 20.4032 56.8782 20.1918 57.3009 19.9805C57.8293 19.9805 58.0407 20.7202 58.4634 20.9315C58.6747 21.0372 58.8861 20.7202 58.8861 20.6145C58.9917 20.0861 59.3088 19.5577 59.8371 20.0861C59.9428 20.1918 60.0485 20.6145 60.2598 20.6145C60.7882 20.9315 61.1052 20.4032 61.5279 20.9315C62.2677 21.7769 61.8449 23.2564 61.6336 24.2075C61.5279 24.7359 61.3166 25.2642 61.2109 25.6869C61.3166 25.4756 60.6825 27.0607 60.5768 27.0607C60.4712 26.955 60.3655 27.0607 60.2598 27.0607C60.2598 26.955 60.1541 26.955 60.1541 26.8493V26.7436V26.638C60.1541 26.0039 60.8939 23.8904 60.0485 23.4677C59.7314 23.362 59.4144 23.6791 59.3087 23.8904V23.9961C58.9917 23.5734 58.5689 23.2563 58.2519 23.7847C58.0406 24.2074 58.3576 24.8415 58.569 25.2642C58.7803 25.7926 59.0973 26.2152 59.3087 26.6379C58.1463 26.0039 56.6669 23.8904 56.2442 22.9393L56.2442 22.9394ZM40.6043 6.77128C40.1816 6.2429 39.7589 5.71453 39.3362 5.08048C39.2305 4.86913 39.1248 4.76345 39.0191 4.5521C38.5964 3.91805 39.0191 3.38965 40.0759 3.07265C40.4986 3.17833 40.8156 3.60103 41.0269 4.0237C41.1326 4.34072 41.5553 3.81235 41.5553 3.601C41.344 2.86124 41.344 2.22725 42.0837 2.3329C42.295 2.3329 42.4007 2.54425 42.6121 2.43857C43.2461 2.3329 43.4575 1.06483 44.1972 2.01587C44.937 3.07262 45.3597 4.23501 45.4653 5.50311C45.6767 6.77121 45.3596 7.72225 45.0426 8.77907C44.9369 8.6734 44.9369 8.56772 44.8313 8.35637V8.2507V8.14502C44.7256 7.61664 44.5142 7.08827 44.4086 6.55986C44.3029 6.13716 44.1972 5.71446 43.7745 5.50311C43.6688 5.50311 43.4575 5.60879 43.4575 5.60879C43.2461 5.82014 43.2461 5.92581 43.2461 6.24284C42.9291 5.92581 42.6121 5.71446 42.2951 5.92581C41.5553 6.34851 42.4008 7.08827 42.7178 7.51097C43.0348 7.93367 43.6688 8.77907 44.303 8.77907L44.62 9.41312C43.4575 9.73014 41.2384 7.51097 40.6043 6.77128H40.6043ZM49.5865 17.4443C49.7978 17.2329 50.0092 17.0216 50.2205 16.9159C50.6432 16.3875 51.0659 16.5989 51.5943 17.3386C51.5943 17.867 50.8545 18.8181 50.4318 19.2408C50.0091 19.6635 48.9523 20.4032 48.2127 20.4032H48.107C48.3183 19.2408 48.8467 18.1841 49.5864 17.4443L49.5865 17.4443ZM46.4162 19.3464C45.6765 18.7124 44.9368 17.867 44.5141 16.9159C44.3027 16.5988 44.0914 16.0705 44.0914 15.7534C44.197 14.8024 44.8311 15.3307 45.2538 15.7534C45.9936 16.3875 46.5219 17.2329 46.839 18.184C47.0503 18.6067 47.156 18.9237 47.2617 19.3464V19.9805C46.9447 19.7691 46.6276 19.4521 46.4163 19.3464H46.4162ZM35.637 18.6067C34.7916 18.0783 33.9462 17.4442 33.2065 16.7045C32.6781 16.1761 32.1497 15.5421 31.9384 14.8024C31.727 14.1683 31.727 12.6889 33.1008 13.2172C33.3122 13.3229 33.5235 13.6399 33.8406 13.7456C34.0519 13.8513 34.2633 13.5342 34.2633 13.4286C34.369 12.9002 34.1576 12.4775 34.8973 12.5832C35.1087 12.5832 35.32 12.6888 35.5314 12.6888C35.7427 12.5832 35.8484 12.4775 35.9541 12.3718C36.2711 12.1605 35.8484 12.0548 36.3768 12.0548C36.6938 12.0548 36.7995 12.2661 37.0108 12.5832C37.7506 13.6399 38.0676 15.225 38.3846 16.4931C38.5959 17.3385 38.5959 18.1839 38.8073 19.1349C38.5959 18.8179 38.2789 18.5009 38.0675 18.1839C37.9618 18.0782 37.9618 17.8669 37.9618 17.7612C37.8562 17.3385 37.6448 17.0214 37.5391 16.5987C37.4335 16.3874 37.2221 16.0704 37.0108 15.9647C36.7994 15.859 36.5881 16.0704 36.4824 16.176C36.3767 16.2817 36.3767 16.3874 36.3767 16.5987C36.271 16.4931 36.1654 16.4931 36.1654 16.3874C35.8483 16.2817 35.7427 16.2817 35.4256 16.3874C35.3199 16.4931 35.1086 16.7044 35.1086 16.8101C35.2143 17.4441 36.0596 18.0782 36.4823 18.5009C36.905 18.8179 37.5391 19.3463 38.1731 19.2407C38.2788 19.452 38.4902 19.5577 38.5958 19.769C37.6448 19.5577 36.0596 18.818 35.6369 18.6066L35.637 18.6067ZM41.6605 25.0528C41.0264 25.0528 40.498 25.0528 39.864 24.9471C39.0186 24.7358 37.6449 24.3131 37.1165 23.4677C36.5881 22.6223 37.9619 22.6223 38.4902 22.8336C38.9129 22.9393 39.4413 23.1507 39.864 23.4677C40.498 23.7847 41.0264 24.1017 41.6604 24.5244C41.8718 24.6301 42.0831 24.8415 42.1888 25.0528C42.0831 24.9471 41.8718 25.0528 41.6604 25.0528H41.6605ZM29.085 39.8473C28.4509 39.5303 27.9225 39.1076 27.3942 38.5792C27.1828 38.3679 26.9715 38.1565 26.8658 37.9452C26.3374 37.2054 27.0772 36.4657 27.8168 36.9941C28.0282 37.0998 28.4509 36.6771 28.3452 36.4657C28.6622 36.9941 27.8168 35.6203 27.8168 35.6203C27.6055 35.409 27.7112 35.3033 28.0282 35.6203C28.1339 35.6203 28.1339 35.726 28.2395 35.726C28.4509 35.8317 28.5566 35.8317 28.6622 35.8317C29.1906 35.726 29.1906 35.1976 29.402 34.8807C29.6134 34.5637 29.9304 34.2466 30.1418 33.9296C30.3531 34.0353 30.4588 34.141 30.6701 34.2466C30.9872 34.458 31.3042 34.775 31.5155 35.092C31.9382 35.6204 32.3609 36.2545 32.678 36.8885C33.2064 37.8395 33.7347 38.8963 33.9461 39.953L33.8404 39.8473C33.8404 39.7417 33.8404 39.636 33.6291 39.7417C33.4177 39.5303 33.2064 39.4246 32.995 39.319H32.8893C32.7837 39.319 32.678 39.2133 32.5723 39.2133C32.361 38.7906 32.0439 38.2623 31.7269 37.8396C31.5156 37.6282 31.3042 36.9942 30.8815 36.9942C30.6702 36.9942 30.3531 37.3112 30.3531 37.5225C30.3531 37.6282 30.4588 37.8396 30.4588 37.9452C30.1418 37.8396 29.9304 37.7339 29.6134 37.9452C29.2964 38.0509 28.9794 38.4736 29.1907 38.7906L29.5077 39.1077C29.6134 39.2133 29.7191 39.319 29.8248 39.5304C30.0361 39.7417 30.3531 39.8474 30.5645 39.8474C31.0929 39.9531 31.727 40.0587 32.361 39.8474C32.4666 39.9531 32.5723 39.9531 32.7837 40.0587C31.6212 40.4814 30.2475 40.4814 29.085 39.8474L29.085 39.8473ZM31.5155 38.7906C31.6212 38.7906 31.6212 38.7906 31.5155 38.7906C31.6212 38.7906 31.6212 38.7906 31.5155 38.7906C31.6212 38.7906 31.6212 38.7906 31.5155 38.7906ZM29.7191 38.3679C29.6134 38.3679 29.6134 38.3679 29.7191 38.3679V38.3679ZM40.6038 48.7237C40.7095 48.301 41.5548 46.1875 41.8719 47.2442C42.0832 47.7726 41.9776 48.7237 41.7662 49.2521C41.5549 49.7805 41.2378 50.0975 40.9208 50.5202C40.8151 50.6259 40.6038 50.8372 40.4981 51.0486C40.2868 50.8372 40.6038 48.9351 40.6038 48.7237V48.7237ZM37.2222 50.2031C36.5881 49.8861 36.0597 49.5691 35.5314 49.1464C35.32 48.935 34.3689 48.1953 34.4746 47.8783C34.5803 46.1875 37.5392 48.4066 37.8562 48.7237C38.596 49.3577 39.1243 50.0974 39.6527 50.8372C38.8073 50.8372 38.0675 50.6258 37.2221 50.2031H37.2222ZM48.5296 40.1638C47.5785 40.1638 46.7331 39.5298 45.9934 39.0014C45.5707 38.6843 45.0423 38.0503 44.6196 37.5219C44.7253 36.9935 44.831 36.4652 44.9367 36.0425C45.3594 36.3595 45.8877 36.7822 46.0991 36.9935C46.8389 37.9446 47.3672 39.0014 48.0013 40.0581C48.1069 40.1637 48.2126 40.1637 48.3183 40.0581C48.424 40.0581 48.424 40.1637 48.5296 40.1637L48.5296 40.1638ZM51.6998 35.8312C51.9112 36.1482 52.1225 36.3596 52.4396 36.6766C52.3339 36.8879 52.3339 37.0993 52.2282 37.205C52.0169 37.7333 51.6999 38.156 51.2772 38.5787C50.9602 38.7901 50.5374 39.0014 50.2204 39.2128C50.1148 39.2128 49.6921 39.4241 49.4807 39.5298C49.5864 38.79 49.9034 38.156 50.3261 37.5219C50.3261 37.2049 51.2771 35.8311 51.6998 35.8311V35.8312ZM46.3104 31.8155C47.3671 34.2461 48.2125 36.6766 48.5295 39.3186C47.8955 38.2619 46.5217 35.8314 45.3593 35.1973C45.5706 34.1405 45.8876 32.9781 46.3103 31.8157L46.3104 31.8155ZM44.3025 36.6766C44.0912 35.9368 44.3025 35.7255 44.6195 35.8312C44.5139 36.1482 44.4082 36.5709 44.3025 36.8879V36.6766ZM49.4806 58.868C48.2125 57.1772 46.9444 55.3808 45.9933 53.4785C44.3025 50.0969 43.8798 46.2926 43.9855 42.5938C44.0911 41.1144 44.1968 39.6349 44.5138 38.2612C44.7252 38.4726 44.8309 38.6839 44.9365 38.7896C45.7819 39.7406 47.1557 40.9031 48.5295 40.586V41.0087C48.4238 45.0244 48.5295 49.04 48.9522 53.0553C49.1635 54.8518 49.4806 56.9653 50.1146 58.6561C50.4317 59.3958 50.8544 60.1355 51.2771 60.7696C51.2771 60.8752 51.3828 60.8752 51.3828 60.9809C50.7487 60.3469 50.009 59.7128 49.4806 58.8674L49.4806 58.868ZM57.6174 47.5606C59.7309 48.5116 56.5606 49.6741 56.0322 49.8855C55.9265 49.8855 54.2358 50.3082 53.9187 50.0968C54.1301 49.7798 54.3414 49.4628 54.5527 49.2514C55.0811 48.3004 56.4549 46.9266 57.6173 47.5606H57.6174ZM56.4549 35.6195C56.1379 35.3025 54.6585 33.2947 55.2924 32.872C56.1378 32.2379 58.2513 35.9365 58.5684 37.0989C58.4627 37.0989 58.4627 37.2046 58.357 37.3103C57.6173 36.9933 56.9833 36.3593 56.4549 35.6195ZM64.2745 35.3025C63.9575 36.8876 62.4781 37.3103 60.9986 37.416C60.6815 37.416 59.9418 37.5217 59.4134 37.416C60.0474 36.6762 60.6815 36.0422 61.5269 35.4081C61.8439 35.1968 62.2667 34.8797 62.5836 34.7741C62.9007 34.5627 63.3234 34.457 63.7461 34.457C64.4859 34.3514 64.5915 34.6684 64.2745 35.3024L64.2745 35.3025Z" fill="#FEBA95"/>
<path d="M38.9035 33.4202C38.6126 34.9203 38.7503 36.5034 38.3654 38.0297C38.0067 39.6501 37.4074 41.1348 36.688 42.5518C36.0625 43.9425 35.531 45.307 35.1198 46.7392C35.0367 47.1678 34.9274 47.5024 34.8443 47.931C34.4027 45.6218 33.5587 43.3236 32.553 41.1719C31.6259 39.3023 30.537 37.5791 29.2601 35.9084C29.3279 35.7881 29.4219 35.7619 29.3016 35.6941C27.4168 32.5714 26.1268 28.6743 25.9083 24.9855C26.0964 24.933 26.2582 24.7865 26.232 24.6925L26.1795 24.5044C26.4354 24.3317 26.5972 24.1852 26.759 24.0387C27.5944 23.4002 28.3357 22.7879 28.8103 21.9461C29.556 20.6231 29.9672 19.1909 30.164 17.717C30.2362 16.8861 30.2822 15.9612 30.2604 15.1564C30.2123 14.2577 30.3261 13.2124 30.184 12.34C30.1053 12.0579 29.5936 12.4033 29.552 12.6176C29.2305 14.7344 27.4504 16.3459 26.4597 18.2439C26.6457 16.3677 26.9519 14.5593 26.6415 12.7203C26.9913 12.5213 27.3828 12.1081 27.2516 11.638C27.256 10.9273 26.8318 10.1335 26.1473 10.2232C25.5307 10.1925 25.0037 10.8463 25.0933 11.5307C25.1567 12.1212 25.5437 12.4186 25.9723 12.5017L25.9985 12.5957L26.0248 12.6897C26.0248 12.6897 26.051 12.7838 26.145 12.7575C26.4292 14.5025 26.1908 16.1907 26.0726 17.9466C26.0004 18.7776 25.8341 19.6348 25.762 20.4657C25.6679 20.4919 25.6001 20.6122 25.6264 20.7062L25.5149 19.217C25.4406 18.2243 25.1783 17.284 25.0099 16.3175C24.647 14.2904 24.1748 12.5978 23.3418 10.7019C23.5714 10.4351 23.4402 9.96497 23.309 9.49485C23.0051 8.76885 22.3097 8.45615 21.6778 8.7338C21.4219 8.90653 21.072 9.10551 20.9627 9.44006C20.8534 9.7746 20.9845 10.2448 21.1573 10.5006C21.2622 10.8768 21.5552 11.2004 21.9576 11.1895C22.2659 11.2048 22.5218 11.0321 22.8038 10.9534C23.6893 13.0374 24.1725 15.1322 24.5878 17.3474C24.6775 18.0318 24.8349 18.596 24.8305 19.3067L24.778 19.1186C23.7569 17.2752 21.9944 16.044 21.3495 14.0956C21.297 13.9075 20.665 14.1852 20.7175 14.3732C21.2006 16.4681 21.3492 18.4537 22.1823 20.3496C22.7377 21.6135 23.7806 24.2617 25.3747 24.5264C25.4095 27.5571 26.3277 30.848 27.7315 33.6996C24.749 30.275 21.281 27.2902 17.8654 24.4928C17.8392 24.3987 17.8392 24.3987 17.7451 24.425C17.6249 24.3572 17.5986 24.2631 17.5046 24.2894C17.5986 24.2631 17.5724 24.1691 17.5724 24.1691C17.3516 23.0145 17.2248 21.8337 17.004 20.6791C16.757 19.4305 16.2279 18.2606 15.7928 17.0644C15.2374 15.8004 14.6142 14.6567 13.709 13.5918C12.7513 12.3387 11.5901 11.4465 10.7942 10.047C10.6477 9.88516 10.1098 10.1366 10.1622 10.3247C10.2474 11.7198 10.641 13.1302 10.9821 14.3526C11.4281 15.9511 11.8741 17.5496 12.4819 19.0016C12.8383 19.9157 13.3149 20.8975 13.8594 21.7592C13.2996 21.2059 12.7399 20.6526 12.1539 20.0053C10.6888 18.3871 9.66772 16.5437 8.90252 14.5275C9.09057 14.475 9.15837 14.3547 9.34643 14.3022C9.57604 14.0355 9.59137 13.7272 9.51266 13.4451C9.50174 13.0427 9.49083 12.6404 9.036 12.4632C8.79547 12.3276 8.60741 12.3801 8.44558 12.5266C8.51338 12.4063 8.39311 12.3385 8.20505 12.391C7.54681 12.5746 7.27564 13.0557 7.33906 13.6461C7.37621 14.1425 7.60141 14.5864 8.12403 14.6433C9.02047 17.1296 10.2143 19.2289 12.04 21.0502C12.0662 21.1443 12.1603 21.118 12.1865 21.212C11.9722 21.1705 11.7317 21.0349 11.5174 20.9933L10.8745 20.8687C10.5137 20.6653 10.2469 20.4357 9.98014 20.2061C7.44366 18.3801 5.23081 16.261 3.66522 13.5559C3.82704 13.4094 3.8686 13.1951 3.91016 12.9808C3.92548 12.6724 4.00859 12.2438 3.83586 11.988C3.66313 11.7322 3.32856 11.6228 3.08802 11.4872C3.15581 11.3669 3.12958 11.2729 2.94152 11.3254C2.18928 11.5352 1.67758 11.8807 1.6054 12.7117C1.52229 13.1402 1.55943 13.6366 1.85243 13.9602C2.1192 14.1899 2.42752 14.2052 2.70961 14.1265L3.17976 13.9953C4.6666 16.4182 6.54485 18.4279 8.81468 20.0245C9.05521 20.1601 9.29574 20.2956 9.56251 20.5253C8.94586 20.4946 8.30298 20.37 7.66009 20.2453C6.25408 19.9281 4.83266 19.9193 3.60384 19.1474C3.38955 19.1058 2.87784 19.4513 3.11837 19.5869C4.38884 20.1445 5.46679 21.4653 6.53386 22.3838C7.7474 23.4641 9.19058 24.2776 10.7169 24.6625C12.1492 25.0737 13.7586 25.0301 15.18 25.0389C15.5824 25.028 16.1728 24.9646 16.643 24.8334C16.7632 24.9012 16.8573 24.8749 17.0453 24.8225L17.4061 25.0258C23.0498 29.6335 28.9712 34.873 32.2551 41.5581C33.685 44.5036 34.5771 47.7008 34.9989 51.0287C35.0251 51.1227 34.9573 51.243 34.9836 51.337L35.036 51.5251C35.0207 51.8334 35.0994 52.1155 35.1103 52.5179C35.095 52.8262 35.1737 53.1083 35.1584 53.4166C35.0534 53.0405 34.8545 52.6906 34.7758 52.4085C34.0739 50.9827 33.2102 49.7034 32.2525 48.4504C31.2948 47.1974 30.3371 45.9443 28.9616 45.0105C27.7065 44.1445 25.3383 43.285 24.7043 41.739C24.6518 41.5509 24.0198 41.8286 24.0985 42.1107C24.7064 43.5627 25.0583 45.1874 25.7602 46.6132C26.4883 48.133 27.446 49.386 28.5918 50.5866C29.6173 51.7194 30.7784 52.6116 32.0335 53.4776C32.6611 53.9106 33.3149 54.4376 33.8746 54.9909C34.2617 55.2883 34.5547 55.6119 34.7799 56.0558C34.8061 56.1499 34.7121 56.1761 34.7383 56.2701C34.6705 56.3904 34.7908 56.4582 34.9788 56.4057C35.0051 56.4997 35.0313 56.5938 35.1516 56.6616C35.029 59.1282 34.6921 61.5532 34.4494 63.9523C34.4078 64.1666 35.066 63.983 35.0814 63.6746C35.3242 61.2758 35.567 58.877 35.7159 56.5046C35.7159 56.5046 35.7837 56.3843 35.7574 56.2903C35.8603 54.8427 35.8429 53.3274 35.7314 51.8382C35.7467 51.5298 35.668 51.2478 35.5893 50.9657L35.5566 49.7586C35.5304 49.6646 35.5982 49.5443 35.5457 49.3563C37.5553 47.478 39.1408 44.8059 40.2297 42.1711C41.3604 39.3219 40.4946 36.2189 39.7075 33.398C39.3883 32.9803 38.8765 33.3258 38.9028 33.4198L38.9035 33.4202ZM25.8765 10.704C26.1324 10.5312 26.4779 11.043 26.5303 11.231C26.5566 11.3251 26.7031 11.4869 26.7293 11.5809L26.808 11.863L26.7402 11.9833L26.6462 12.0095C26.2701 12.1145 26.0295 11.9789 25.8305 11.629C25.684 11.4672 25.5944 10.7828 25.8765 10.7041L25.8765 10.704ZM21.8683 10.5048C21.6955 10.249 21.3654 9.42895 21.7153 9.23001C22.0652 9.03107 22.5047 9.5165 22.6774 9.77236C22.7299 9.96042 22.9026 10.2163 22.8611 10.4306L22.9135 10.6187C22.7255 10.6711 22.6577 10.7914 22.4696 10.8439C22.1875 10.9226 22.0148 10.6667 21.8683 10.5049L21.8683 10.5048ZM21.7762 16.7128L21.6975 16.4308C21.7237 16.5248 21.844 16.5926 21.8702 16.6866L21.7762 16.7128ZM27.3631 17.4851C28.0411 16.2824 29.0536 15.1891 29.7052 13.8925C29.7008 14.6032 29.6964 15.3138 29.6658 15.9305C29.6307 17.2578 29.5957 18.5851 29.132 19.8293C28.8302 20.927 28.3403 22.0772 27.5575 22.9037C27.4897 23.024 26.6805 23.7565 26.2366 23.9818C26.2782 23.7675 26.2257 23.5794 26.1733 23.3913L25.8847 22.357C25.9831 21.62 26.1078 20.9772 26.2062 20.2403C26.5605 19.3306 26.8885 18.327 27.3631 17.4851L27.3631 17.4851ZM8.69759 13.0647C8.84409 13.2265 8.82877 13.5348 8.78722 13.7491C8.81346 13.8432 8.89217 14.1253 8.79814 14.1515L8.61008 14.204L8.51605 14.2302C8.42202 14.2564 8.30175 14.1887 8.30175 14.1887C8.06122 14.0531 7.98252 13.771 7.90381 13.4889C7.87757 13.3949 7.8251 13.2068 7.89289 13.0865L8.17498 13.0078C8.33681 12.8613 8.52487 12.8089 8.6976 13.0647L8.69759 13.0647ZM2.13982 13.1715C2.08735 12.9834 2.10267 12.6751 2.23825 12.4345C2.27981 12.2202 2.37384 12.194 2.44163 12.0737C2.77619 12.1831 3.20481 12.2662 3.21569 12.6686C3.26817 12.8566 3.27908 13.259 3.14349 13.4995C2.95543 13.552 2.79361 13.6985 2.81984 13.7925C2.46996 13.9915 2.24475 13.5476 2.13981 13.1715L2.13982 13.1715ZM11.0239 22.8547C11.1179 22.8284 11.2382 22.8962 11.2382 22.8962L11.2644 22.9903L11.0239 22.8547ZM9.77531 23.1017C9.86934 23.0755 9.86934 23.0755 9.9896 23.1432L10.1099 23.211C9.9896 23.1432 9.9896 23.1432 9.77531 23.1017C9.89557 23.1695 9.80154 23.1957 9.77531 23.1017ZM8.35188 21.2692C8.23162 21.2014 8.13759 21.2276 8.01732 21.1598C8.11135 21.1336 8.32565 21.1751 8.35188 21.2692C8.44591 21.2429 8.35188 21.2692 8.35188 21.2692ZM6.85181 20.9782C6.75778 21.0045 6.73154 20.9104 6.73154 20.9104C6.61128 20.8426 6.49101 20.7748 6.27672 20.7333L6.9196 20.858C6.94584 20.952 6.85181 20.9782 6.85181 20.9782ZM5.99463 20.812C6.08866 20.7858 6.08866 20.7858 5.99463 20.812V20.812ZM7.39181 22.5505C7.51207 22.6183 7.6061 22.592 7.72637 22.6598L7.63234 22.6861C7.53831 22.7123 7.41804 22.6445 7.39181 22.5505ZM10.8387 11.6568C11.4509 12.3981 12.0369 13.0454 12.7432 13.7605C13.6222 14.7314 14.3656 15.9429 14.8947 17.1128C15.4501 18.3768 16.0317 19.7347 16.305 21.0774C16.4995 22.138 16.6678 23.1045 16.7684 24.1913C14.9119 22.9864 13.8384 20.9549 12.9528 18.8709C12.3712 17.5129 12.0039 16.1965 11.6104 14.786C11.3218 13.7517 11.0069 12.6233 10.8386 11.6568L10.8387 11.6568ZM5.44543 20.6611C5.3514 20.6874 5.25737 20.7136 5.28361 20.8076C5.25737 20.7136 5.13711 20.6458 5.13711 20.6458C5.23114 20.6196 5.32517 20.5933 5.44543 20.6611ZM14.2031 24.8052C14.5114 24.8205 14.7257 24.8621 15.0078 24.7834C14.6995 24.768 14.3912 24.7527 14.2031 24.8052ZM34.3345 54.4579C33.7747 53.9046 33.1209 53.3776 32.4934 52.9446C31.0917 51.9168 29.9306 51.0246 28.7586 49.73C27.7331 48.5972 26.8017 47.4382 26.22 46.0802C25.8899 45.2602 25.5334 44.3461 25.2973 43.4999C25.9249 43.9329 26.5262 44.2719 27.0335 44.6371C28.6232 45.6124 29.8105 46.5987 31.035 48.0813C31.9927 49.3343 32.9767 50.6814 33.7726 52.0809C34.1705 52.7807 34.6734 53.8566 34.8155 54.7291C34.4809 54.6197 34.3607 54.5519 34.3344 54.4579L34.3345 54.4579ZM39.5091 41.7641C39.0717 43.1024 38.3522 44.5193 37.554 45.6542C36.8914 46.5485 36.1872 47.6571 35.4044 48.4836C35.435 47.867 35.5859 47.3181 35.6428 46.7955C36.0278 45.2692 36.5329 43.8107 37.2524 42.3937C37.8779 41.003 38.5034 39.6123 38.8883 38.086C39.1223 37.1086 39.2361 36.0633 39.2558 35.0443C39.8593 37.207 40.3009 39.5162 39.5092 41.7642L39.5091 41.7641Z" fill="#FEBA95"/>
</svg>
