<svg width="65" height="38" viewBox="0 0 65 38" fill="none" xmlns="http://www.w3.org/2000/svg">
<path d="M60.0945 31.5759C60.1767 31.4657 60.2503 31.3493 60.3148 31.2277C60.351 31.1165 60.378 31.0025 60.3955 30.8869C60.5614 30.8374 60.7234 30.7755 60.8801 30.7016C61.0747 30.5967 61.2569 30.4699 61.4234 30.3238C61.6542 30.0632 61.8993 29.8158 62.1576 29.5829C62.7598 29.103 63.1735 28.423 63.325 27.664C63.4645 27.138 63.604 26.6194 63.7288 26.0859C63.7822 25.865 63.8117 25.639 63.817 25.4117C63.817 24.4412 63.817 23.4706 63.817 22.5075C63.8264 22.43 63.8411 22.3532 63.861 22.2778C63.9418 22.2259 64.0519 22.1518 64.1767 22.0926C64.2792 22.0449 64.3649 21.9669 64.4226 21.869C64.4803 21.7712 64.5072 21.6579 64.4998 21.5443C64.4998 21.0035 64.4484 20.4626 64.4337 19.9218C64.3631 18.9851 64.3484 18.0449 64.3896 17.1064C64.3896 16.7434 64.3089 16.5804 63.9418 16.5063C63.532 16.4187 63.1348 16.2793 62.7597 16.0914C62.3037 15.9427 61.829 15.8603 61.35 15.8469C60.392 15.7644 59.4419 15.6058 58.5086 15.3727L57.1576 14.9579C57.0547 14.9114 56.946 14.879 56.8346 14.8615C56.299 14.811 55.7742 14.6786 55.278 14.4689C54.0446 14.0688 52.7817 13.728 51.607 13.2538C51.0547 13.0435 50.4908 12.8654 49.9183 12.7204C49.1988 12.4953 48.5009 12.2052 47.8331 11.8535C47.7811 11.8356 47.7317 11.8107 47.6863 11.7795C47.2457 11.3794 46.7979 10.9867 46.3867 10.5644C45.9755 10.1421 45.4175 9.43827 44.8669 8.9641C44.1327 8.34917 43.538 7.64533 42.8772 6.97853C42.0328 6.13393 41.2178 5.25968 40.3808 4.40767C40.1239 4.14836 39.8375 3.91128 39.5659 3.66678C38.9271 3.05926 38.2736 2.47396 37.6569 1.8368C37.4002 1.53345 37.1693 1.20878 36.9667 0.866243C36.8713 0.725475 36.7905 0.577299 36.6804 0.406895C36.1444 0.406895 35.6084 0.406895 35.0798 0.406895L32.0181 0.31058L28.2883 0.258718C26.0857 0.258718 23.883 0.258718 21.6804 0.199448C18.8316 0.162404 16.0049 0.0883152 13.1782 0.051271C11.5042 0.051271 9.83751 0.051271 8.1635 0.051271C7.93872 0.0699994 7.7128 0.0699994 7.48802 0.051271C6.75005 -0.0272861 6.0041 0.0279136 5.28538 0.214265C4.78682 0.318835 4.32228 0.548118 3.93443 0.881061C3.80313 1.00985 3.70151 1.16622 3.6368 1.33907C3.57209 1.51193 3.54586 1.69703 3.55997 1.88125C3.45278 3.12467 3.27876 4.3613 3.03868 5.58567C3.00061 5.7513 2.97606 5.9198 2.96526 6.08947C2.93986 7.28906 2.80964 8.48404 2.57613 9.66053C2.35587 11.1423 2.14049 12.6389 1.93002 14.1503C1.87128 14.543 1.83457 14.943 1.78318 15.3357C1.78318 15.395 1.78318 15.4617 1.78318 15.5061C1.39404 16.1062 1.48949 16.8323 1.27657 17.4694C1.24157 17.5355 1.19973 17.5976 1.15175 17.6547C0.916805 17.7139 0.645145 17.788 0.373489 17.8473C0.171616 17.8642 -0.0164108 17.9576 -0.152664 18.1089C-0.288925 18.2601 -0.363274 18.4579 -0.360725 18.6623C-0.404778 19.5439 -0.456177 20.433 -0.507576 21.3146C-0.523132 21.4582 -0.499146 21.6033 -0.438263 21.734C-0.37738 21.8647 -0.28196 21.976 -0.162491 22.0555C0.160561 22.2778 0.505642 22.4704 0.872749 22.6927C0.872749 22.8112 0.872753 22.9446 0.916805 23.0853C0.946171 23.6534 0.973095 24.2238 0.99757 24.7968C1.01274 24.9396 1.01274 25.0837 0.99757 25.2265C0.880093 25.9007 0.755276 26.5675 0.630463 27.2713L0.145874 27.3825C-0.368073 27.4936 -0.419472 27.5381 -0.463524 28.0345C-0.463524 28.316 -0.463524 28.6049 -0.463524 28.8939C-0.463524 29.1828 -0.404785 29.5236 -0.463524 29.8348C-0.522263 30.5238 -0.279968 30.9906 0.270691 31.1388H1.73912H2.47334H7.56879C7.87716 31.1388 8.19287 31.1758 8.50124 31.1388C8.80961 31.1017 8.94177 31.1388 9.23545 31.0795C9.28382 30.8505 9.30843 30.6171 9.30888 30.3831C9.31602 29.6184 9.46545 28.8619 9.7494 28.153C9.81212 27.9637 9.90922 27.7878 10.0357 27.6344C10.3661 27.2047 10.6965 26.7824 11.049 26.3675C11.8249 25.4463 12.885 24.8148 14.0592 24.5745C14.6393 24.4486 15.212 24.2856 15.7846 24.13C16.5127 23.9726 17.2673 23.9903 17.9873 24.1819C18.4237 24.296 18.8528 24.437 19.2722 24.6042C19.6626 24.7683 20.0343 24.9744 20.3808 25.2191C21.2186 25.802 21.9222 26.5601 22.444 27.4417C22.6863 27.79 22.9286 28.1456 23.1782 28.5012C23.2622 28.6232 23.3312 28.7551 23.3838 28.8939C23.6261 29.6348 24.118 30.3016 24.3823 31.0424C24.4203 31.1511 24.4945 31.243 24.5923 31.3025C24.6901 31.362 24.8053 31.3853 24.9183 31.3684C25.8972 31.3684 26.8762 31.3684 27.8551 31.3684L35.1973 31.4203H38.3544C38.5226 31.3994 38.6928 31.3994 38.861 31.4203C39.5483 31.4997 40.2443 31.4418 40.9095 31.2499C40.9671 31.0313 41.0064 30.8083 41.0269 30.5831C41.0673 29.698 41.256 28.8263 41.5849 28.0048C41.6217 27.8937 41.6877 27.7974 41.7171 27.6936C42.065 26.5627 42.837 25.6136 43.8683 25.0487C44.5408 24.626 45.2543 24.2735 45.9976 23.9966C46.6797 23.8135 47.3845 23.7311 48.0901 23.7521C48.3691 23.7521 48.6554 23.7521 48.9418 23.7521C49.8748 23.7215 50.7947 23.98 51.5776 24.493C52.2203 24.8992 52.8163 25.3763 53.3544 25.9155C53.8742 26.4861 54.2385 27.183 54.4117 27.9381C54.5805 28.5605 54.7054 29.1976 54.933 29.8052C55.0831 30.1738 55.1556 30.5699 55.1459 30.9684C55.136 31.0326 55.1418 31.0984 55.1628 31.1599C55.1838 31.2214 55.2194 31.2768 55.2664 31.3213C55.3134 31.3659 55.3704 31.3981 55.4326 31.4154C55.4948 31.4326 55.5602 31.4343 55.6231 31.4203C56.2105 31.3684 56.8052 31.3017 57.3926 31.2573C57.6422 31.2573 57.8992 31.2573 58.1268 31.2573C58.2951 31.277 58.4651 31.277 58.6334 31.2573C58.8842 31.1864 59.1484 31.1784 59.4031 31.2339C59.6577 31.2894 59.895 31.4068 60.0945 31.5759ZM5.45425 28.316C5.39677 28.4537 5.30857 28.5762 5.1965 28.6738C5.08443 28.7715 4.95152 28.8417 4.80814 28.8791L4.71269 28.6049C4.9166 28.4271 5.17739 28.3297 5.44691 28.3308C5.71122 28.1234 5.9682 27.9085 6.23251 27.7085C6.32796 27.6344 6.46746 27.6418 6.50418 27.7677C6.50895 27.8197 6.50069 27.872 6.48016 27.9199C6.45963 27.9679 6.42749 28.0098 6.3867 28.0419C6.1077 28.153 5.76262 28.2345 5.46159 28.3234L5.45425 28.316ZM25.1239 12.8834C24.0345 13.0407 22.9307 13.0706 21.8346 12.9723C20.7039 12.9723 19.5658 12.9352 18.4425 12.8093C17.3192 12.6833 16.2399 12.6982 15.1973 12.5055C14.9811 12.1768 14.8452 11.801 14.8008 11.409C14.6833 10.3347 14.5365 9.26046 14.4704 8.17877C14.3896 6.81554 14.3823 5.4449 14.3382 4.07427C14.3382 3.61492 14.2648 3.16298 14.2575 2.70363C14.2782 2.5391 14.3176 2.37751 14.375 2.22206C17.723 2.22206 21.0196 2.31838 24.2868 2.48137C24.4744 2.79505 24.5568 3.16137 24.5218 3.52602C24.4886 3.80903 24.4886 4.09502 24.5218 4.37803C24.6903 5.14641 24.8007 5.92658 24.8522 6.71182C24.8422 7.65142 24.906 8.59034 25.0431 9.51977C25.0525 9.63317 25.0525 9.74717 25.0431 9.86057C25.0431 10.4014 25.1018 10.9423 25.1532 11.4757C25.2284 11.9428 25.2184 12.4199 25.1239 12.8834ZM36.952 11.9647C36.8082 12.0432 36.6585 12.11 36.5042 12.1647C35.956 12.303 35.4077 12.4314 34.8595 12.55C34.6917 12.5739 34.5224 12.5863 34.3529 12.587L33.6775 12.6389L32.5835 12.75C32.2447 12.7567 31.9065 12.7814 31.5703 12.8241C30.4249 13.0464 29.2575 12.9426 28.1048 13.0538C27.813 13.1076 27.5119 13.0494 27.2604 12.8908C27.1205 12.5634 27.0505 12.21 27.0548 11.8535C26.9888 10.6311 26.8933 9.40863 26.7979 8.14913C26.621 6.92187 26.5205 5.68465 26.4968 4.44471C26.4679 3.8445 26.5074 3.24292 26.6143 2.65177C27.0263 2.54415 27.4544 2.51401 27.8772 2.56287C29.3456 2.56287 30.814 2.56287 32.2824 2.56287C33.0754 2.56287 33.861 2.56287 34.654 2.63696C35.7186 2.71845 35.7626 2.78513 35.9021 3.852C36.0416 4.91888 36.1738 5.92648 36.3059 6.99335C36.4087 7.73423 36.5703 8.47512 36.5996 9.27527C36.6534 9.95685 36.7465 10.6347 36.8786 11.3053C36.908 11.4979 36.9227 11.6906 36.952 11.9647ZM39.4851 14.9282C39.2846 14.3625 39.1467 13.7761 39.0739 13.1797C38.8977 12.0832 38.7215 10.9571 38.56 9.8828C38.4866 9.40122 38.4498 8.91965 38.3985 8.43808C38.3985 8.26767 38.3985 8.09727 38.3985 7.92687C38.2589 6.91185 38.1121 5.89684 37.9726 4.88183C37.9604 4.73625 37.9629 4.5898 37.9799 4.44471C38.2845 4.64591 38.5763 4.86614 38.8537 5.1041C39.441 5.68199 40.0357 6.24506 40.5938 6.83777C41.1518 7.43047 41.673 7.91946 42.1723 8.49735C42.8794 9.15413 43.5326 9.86771 44.1253 10.6311C44.1987 10.7496 44.3456 10.8089 44.4484 10.9052C44.955 11.4016 45.4616 11.898 45.9609 12.387C46.0104 12.4286 46.0489 12.4821 46.0729 12.5425C46.0969 12.6028 46.1056 12.6683 46.0984 12.733C46.0911 12.7976 46.068 12.8594 46.0312 12.9128C45.9944 12.9662 45.945 13.0096 45.8874 13.039C45.7709 13.1165 45.6451 13.1787 45.513 13.2242C45.3294 13.2909 45.1459 13.3427 44.9623 13.4094C44.1732 13.7899 43.3587 14.1142 42.5247 14.38C42.4424 14.3975 42.3632 14.4275 42.2898 14.4689C41.5112 14.8145 40.6656 14.979 39.8155 14.9504C39.7041 14.9548 39.5928 14.9423 39.4851 14.9134V14.9282ZM30.2854 25.2487C30.3194 25.1857 30.366 25.1304 30.4222 25.0865C30.4785 25.0425 30.5432 25.0109 30.6122 24.9934C30.6812 24.976 30.753 24.9733 30.8232 24.9853C30.8933 24.9974 30.9602 25.024 31.0196 25.0635L31.4601 26.2341C31.4408 26.2783 31.4111 26.317 31.3736 26.3469C31.336 26.3768 31.2918 26.3971 31.2448 26.4058C31.1978 26.4146 31.1493 26.4116 31.1037 26.3972C31.058 26.3828 31.0166 26.3573 30.9829 26.323C30.6227 26.0682 30.373 25.6837 30.2854 25.2487ZM30.4396 16.1136C30.6672 15.8469 30.814 15.7876 30.8948 15.9432C31.0776 16.2171 31.3316 16.435 31.629 16.573C31.7465 16.6397 31.8713 16.7286 31.8346 16.899C31.2619 17.1286 31.2031 17.1286 30.9168 16.773C30.77 16.5508 30.6011 16.2989 30.4396 16.1062V16.1136ZM47.7964 22.589C47.2751 22.663 46.7612 22.7371 46.2399 22.7964C46.1664 22.7964 46.0857 22.7001 45.9535 22.626C46.2248 22.4421 46.5428 22.3408 46.8696 22.3342C47.1963 22.3276 47.5181 22.4161 47.7964 22.589ZM56.4601 26.6712C56.2673 26.5857 56.1011 26.4488 55.9795 26.2752C55.8579 26.1016 55.7855 25.8979 55.77 25.6858C56.2252 25.4636 56.4087 25.5154 56.4528 25.8711C56.4702 26.1374 56.4727 26.4046 56.4601 26.6712ZM35.7993 28.0048C36.0118 27.9739 36.2285 27.9904 36.434 28.0531C36.6395 28.1158 36.8289 28.2233 36.9888 28.3678L36.5996 28.8939L35.7993 28.0048ZM56.651 19.2624C56.9227 19.0994 57.1283 18.9883 57.3412 19.1364C57.4485 19.2096 57.5313 19.314 57.5785 19.4357C57.6257 19.5574 57.6351 19.6908 57.6055 19.8181C57.4087 19.8386 57.2105 19.796 57.0391 19.6962C56.8677 19.5964 56.7319 19.4446 56.651 19.2624ZM55.77 24.1078C55.212 24.1596 55.1679 24.167 54.8669 23.9448C54.7274 23.841 54.5071 23.767 54.6026 23.4632C55.0402 23.5928 55.4405 23.8266 55.77 24.1448V24.1078ZM37.0769 15.0912C37.3999 15.5209 37.6202 15.7802 37.8111 16.0544C37.8478 16.1136 37.8111 16.2544 37.745 16.3359C37.7106 16.3524 37.673 16.3609 37.6349 16.3609C37.5968 16.3609 37.5592 16.3524 37.5247 16.3359C37.3323 16.1012 37.1557 15.8537 36.9961 15.595C36.952 15.4987 37.0181 15.3727 37.0769 15.0912ZM35.8654 25.4191C35.5864 25.4858 35.3808 25.5599 35.1312 25.5895C35.0964 25.5937 35.0612 25.5908 35.0276 25.581C34.994 25.5713 34.9626 25.555 34.9353 25.5329C34.9079 25.5109 34.8852 25.4835 34.8685 25.4526C34.8517 25.4216 34.8412 25.3876 34.8375 25.3525C34.8324 25.3108 34.8359 25.2685 34.8478 25.2283C34.8597 25.188 34.8797 25.1507 34.9066 25.1187C34.9336 25.0867 34.9667 25.0606 35.0041 25.0422C35.0415 25.0238 35.0823 25.0134 35.1239 25.0116C35.2753 24.9785 35.4336 25.0014 35.5697 25.0762C35.7059 25.151 35.8108 25.2727 35.8654 25.4191ZM62.3559 23.3298C62.444 23.7521 62.6128 24.1078 62.3559 24.5153C62.2469 24.471 62.1565 24.3899 62.1003 24.2858C62.044 24.1817 62.0254 24.0612 62.0475 23.9448C62.0695 23.7521 62.0108 23.5077 62.3559 23.3298ZM56.7685 18.0473C56.5661 18.2987 56.2782 18.4651 55.9609 18.5141L55.77 18.0918C56.093 17.9955 56.3573 17.8251 56.7685 18.0473ZM28.1341 15.1875C28.2196 15.0979 28.3312 15.0381 28.4527 15.0168C28.5741 14.9955 28.6991 15.0137 28.8096 15.069C28.8516 15.0943 28.8865 15.1301 28.9109 15.1729C28.9354 15.2157 28.9485 15.2641 28.9491 15.3135C28.9359 15.3649 28.9102 15.4121 28.8743 15.451C28.8384 15.4898 28.7934 15.5189 28.7435 15.5357C28.614 15.5752 28.4744 15.5615 28.3548 15.4977C28.2352 15.4339 28.1454 15.3251 28.1048 15.1949L28.1341 15.1875ZM7.39257 10.7422C7.66423 10.8756 7.81108 11.0682 7.73031 11.3349C7.71875 11.3846 7.69696 11.4312 7.66637 11.4718C7.63577 11.5123 7.59704 11.5459 7.55271 11.5704C7.50838 11.5949 7.45944 11.6096 7.40908 11.6137C7.35872 11.6178 7.30806 11.6112 7.26042 11.5942C7.21575 11.4585 7.20114 11.3144 7.21763 11.1724C7.23412 11.0303 7.28131 10.8935 7.35586 10.7719L7.39257 10.7422ZM7.06952 7.77869C7.42928 8.39362 7.42194 8.39362 7.12826 8.66034C6.73912 8.31212 6.73912 8.31212 7.04015 7.80832L7.06952 7.77869ZM49.8155 18.1955C49.4777 18.3659 49.3015 18.114 49.0813 17.951L49.3236 17.4917C49.5702 17.6547 49.7461 17.9063 49.8155 18.1955ZM3.95645 18.5215C4.32356 18.9586 4.27951 19.1735 3.78024 19.3587C3.72018 19.2179 3.70486 19.0618 3.73643 18.9118C3.76799 18.7619 3.84486 18.6255 3.95645 18.5215ZM29.0152 28.968C28.6714 29.0791 28.3017 29.0791 27.9579 28.968C28.7435 28.5605 28.7729 28.5605 29.0152 28.968ZM37.6642 29.1236C38.4866 28.6864 38.6114 28.6864 38.7876 29.1236L37.8992 29.2347H37.8184L37.6642 29.1236ZM6.87128 24.6782C6.83005 24.5258 6.80543 24.3693 6.79786 24.2115C6.79781 24.1762 6.80579 24.1415 6.82119 24.1098C6.8366 24.0782 6.85901 24.0506 6.88669 24.0291C6.91438 24.0076 6.94659 23.9928 6.98084 23.9859C7.01509 23.979 7.05046 23.9801 7.08421 23.9892C7.119 23.9929 7.15273 24.0035 7.18342 24.0205C7.21412 24.0374 7.24118 24.0603 7.26303 24.0879C7.28489 24.1154 7.3011 24.1471 7.31073 24.181C7.32037 24.215 7.32323 24.2505 7.31916 24.2856C7.30447 24.5227 7.23105 24.7079 6.87128 24.6708V24.6782ZM18.7802 23.5669C19.0813 23.5669 19.3236 23.5669 19.5585 23.6188C19.6393 23.6188 19.7053 23.7225 19.8155 23.8114C19.2061 23.9225 19.2061 23.9225 18.7802 23.5669ZM26.1224 30.7016C25.8801 31.0795 25.5424 31.0202 25.1312 30.8794C25.4322 30.472 25.77 30.5386 26.1518 30.7016H26.1224ZM10.5424 25.6784C10.3074 26.0711 10.3001 26.0711 9.89624 26.1082C10.1092 25.5969 10.1092 25.5969 10.5717 25.6784H10.5424ZM45.6672 16.3878C45.5896 16.4872 45.4856 16.5623 45.3672 16.6043C45.2489 16.6462 45.1212 16.6534 44.999 16.6248C44.9624 16.611 44.9299 16.5882 44.9042 16.5584C44.8786 16.5287 44.8607 16.4929 44.8522 16.4544C44.8536 16.4147 44.8643 16.3758 44.8835 16.3411C44.9026 16.3063 44.9296 16.2766 44.9623 16.2544C45.0791 16.2008 45.2095 16.1849 45.3356 16.2087C45.4618 16.2326 45.5775 16.2951 45.6672 16.3878ZM48.1048 17.6102C48.1003 17.5362 48.1003 17.462 48.1048 17.388C48.1097 17.3539 48.1224 17.3215 48.1419 17.2933C48.1613 17.2651 48.187 17.2418 48.2169 17.2253C48.2468 17.2087 48.2801 17.1995 48.3141 17.1981C48.3482 17.1968 48.3821 17.2034 48.4131 17.2175C48.4468 17.2229 48.4789 17.2358 48.5069 17.2554C48.535 17.2749 48.5583 17.3006 48.5752 17.3305C48.5922 17.3603 48.6022 17.3937 48.6047 17.428C48.6071 17.4623 48.6019 17.4967 48.5893 17.5287C48.5371 17.6527 48.4624 17.7658 48.3691 17.8621C48.3487 17.8792 48.3246 17.8913 48.2987 17.8972C48.2728 17.9032 48.2459 17.9029 48.2202 17.8964C48.1944 17.8899 48.1706 17.8774 48.1505 17.8598C48.1305 17.8423 48.1148 17.8202 48.1048 17.7954C48.1268 17.7362 48.1194 17.6843 48.1048 17.6102ZM0.32209 19.092C0.32209 19.455 0.32209 19.6995 0.32209 19.9366C0.32209 19.9366 0.241325 20.0107 0.197273 20.0107C0.172997 20.0064 0.150185 19.996 0.130936 19.9804C0.111687 19.9649 0.0966263 19.9447 0.0871353 19.9218C0.060318 19.7792 0.0676422 19.6321 0.108505 19.493C0.149376 19.3538 0.222603 19.2265 0.32209 19.1216V19.092ZM28.7509 22.663C28.6126 22.689 28.4707 22.689 28.3324 22.663C28.0901 22.5519 27.9946 22.3296 27.9653 21.9222C28.3764 22.1 28.6334 22.2259 28.7509 22.663ZM56.8713 22.589C57.0108 22.4778 57.0915 22.3667 57.1576 22.3741C57.4807 22.4111 57.5614 22.5149 57.6202 22.952L56.8713 22.589ZM20.6011 20.3663C20.5277 20.4997 20.5056 20.5886 20.4763 20.5886C20.2982 20.5718 20.1294 20.5004 19.9929 20.3838C19.8563 20.2672 19.7585 20.1111 19.7127 19.9366C19.8482 20.0027 19.9783 20.0795 20.1018 20.1663C20.2663 20.2356 20.4356 20.2925 20.6084 20.3367L20.6011 20.3663ZM22.4146 19.9885C22.3375 20.113 22.2287 20.2144 22.0996 20.2821C21.9704 20.3499 21.8257 20.3815 21.6804 20.3737C21.5409 20.3737 21.4895 20.2996 21.5556 20.1144L22.4146 19.9885ZM57.7597 30.8276C57.3312 30.9744 56.8666 30.9744 56.4381 30.8276C57.0108 30.7609 57.3779 30.5905 57.7597 30.8276ZM33.7656 25.8785C33.6982 25.9286 33.627 25.9732 33.5526 26.0118C33.3838 26.0859 33.2076 26.0711 33.1415 25.8859C33.1368 25.8364 33.1437 25.7865 33.1615 25.7402C33.1794 25.6939 33.2077 25.6525 33.2443 25.6192C33.2704 25.5867 33.3034 25.5604 33.3409 25.5424C33.3784 25.5244 33.4194 25.5151 33.4609 25.5151C33.5024 25.5151 33.5433 25.5244 33.5808 25.5424C33.6183 25.5604 33.6513 25.5867 33.6775 25.6192C33.7191 25.7008 33.7488 25.7882 33.7656 25.8785ZM3.31034 14.8689C3.41633 14.9566 3.49588 15.0725 3.54 15.2034C3.58412 15.3344 3.59104 15.4751 3.55997 15.6098C3.55997 15.6098 3.47921 15.6913 3.43516 15.6913C3.39111 15.6913 3.303 15.6913 3.29566 15.6469C3.23231 15.5267 3.20041 15.3921 3.20298 15.256C3.20555 15.1199 3.24251 14.9866 3.31034 14.8689ZM42.3045 22.9298C42.1943 23.1446 42.0842 23.3002 41.8566 23.2632C41.629 23.2261 41.673 23.0335 41.7758 22.9001C41.8786 22.7668 42.0915 22.7001 42.3045 22.9298ZM24.7641 23.1372C24.6234 23.0417 24.4886 22.9378 24.3603 22.826C24.3095 22.766 24.281 22.6901 24.2795 22.6112C24.3617 22.5469 24.4619 22.5106 24.5658 22.5075C24.8522 22.5223 24.8522 22.589 24.7567 23.1372H24.7641ZM41.0857 19.2624C41.5556 19.1809 41.8566 18.9438 42.2898 18.8845C41.952 19.4254 41.7391 19.4995 41.0857 19.2624ZM11.1004 21.4035C11.1004 21.0553 11.2619 20.8849 11.5556 20.8701C11.5556 20.8701 11.607 20.8701 11.6143 20.922C11.6143 21.1961 11.4528 21.2924 11.2619 21.3887C11.2102 21.4122 11.156 21.4296 11.1004 21.4406V21.4035ZM61.372 24.7449C61.1077 24.1967 61.1077 24.1967 61.1885 23.7966C61.4675 24.0633 61.3573 24.3523 61.372 24.7449ZM55.6158 21.0405C55.6672 21.0035 55.7479 20.9071 55.8287 20.8997C55.9095 20.8923 56.2031 21.0405 56.1591 21.1665C56.1442 21.2013 56.1221 21.2326 56.0942 21.2582C56.0663 21.2837 56.0334 21.303 55.9976 21.3146C55.9535 21.3291 55.9065 21.3325 55.8608 21.3246C55.8151 21.3167 55.772 21.2978 55.7352 21.2693C55.6983 21.2409 55.6689 21.2039 55.6494 21.1615C55.6299 21.119 55.6209 21.0724 55.6231 21.0257L55.6158 21.0405ZM33.9051 21.7295L33.9711 21.8851C33.7899 21.9951 33.6009 22.0917 33.4058 22.1741C33.3103 22.1741 33.1929 22.137 33.2516 21.937L33.9051 21.7295ZM58.7509 27.9678C58.7876 27.9678 58.8243 27.8715 58.8683 27.8715C58.9226 27.8729 58.9759 27.886 59.0247 27.9099C59.0736 27.9338 59.1168 27.9679 59.1515 28.0099C59.1863 28.052 59.2117 28.1011 59.2262 28.1538C59.2407 28.2066 59.2438 28.2619 59.2355 28.316C59.2164 28.3478 59.1894 28.3741 59.1573 28.3923C59.1251 28.4105 59.0888 28.4199 59.0519 28.4197C58.9585 28.3899 58.8778 28.3289 58.8231 28.2468C58.7685 28.1647 58.743 28.0664 58.7509 27.9678ZM61.629 27.7455C61.5468 27.8792 61.4535 28.0057 61.35 28.1234C61.3161 28.1415 61.2783 28.151 61.2399 28.151C61.2015 28.151 61.1636 28.1415 61.1297 28.1234C61.0857 28.0345 61.0416 27.8937 61.0857 27.8196C61.2031 27.6196 61.3867 27.5973 61.629 27.7455ZM34.7494 22.2259C34.1694 22.5667 34.1694 22.5667 33.8537 22.3889C33.9757 22.2848 34.1227 22.215 34.2799 22.1864C34.4371 22.1577 34.5991 22.1714 34.7494 22.2259ZM15.7846 19.9514C16.0416 19.8921 16.1738 20.0403 16.2619 20.2552C16.2677 20.2666 16.2707 20.2793 16.2707 20.2922C16.2707 20.3051 16.2677 20.3178 16.2619 20.3293C16.2178 20.3293 16.1518 20.4033 16.1224 20.3885C15.9462 20.27 15.7553 20.1959 15.7773 19.9366L15.7846 19.9514ZM2.97995 25.1895C3.06277 25.2834 3.13652 25.3851 3.20021 25.4932C3.23558 25.5933 3.25539 25.6982 3.25895 25.8044C3.25895 25.8044 3.17818 25.8859 3.13413 25.8785C3.09901 25.8767 3.06464 25.8676 3.03313 25.8519C3.00161 25.8362 2.97363 25.8141 2.95092 25.787C2.92821 25.7599 2.91125 25.7284 2.90108 25.6944C2.89092 25.6605 2.88778 25.6248 2.89184 25.5895C2.91202 25.4543 2.94146 25.3206 2.97995 25.1895ZM8.85366 6.85999C8.73619 6.74886 8.6334 6.697 8.59669 6.6155C8.58424 6.58301 8.57904 6.54816 8.58146 6.51341C8.58387 6.47866 8.59385 6.44488 8.61067 6.41447C8.62749 6.38405 8.65075 6.35775 8.67879 6.33743C8.70683 6.31712 8.73896 6.30329 8.7729 6.29692C8.80656 6.29484 8.84027 6.29987 8.87189 6.3117C8.90351 6.32352 8.93235 6.34188 8.95654 6.36559C8.98072 6.3893 8.99974 6.41784 9.01236 6.44939C9.02499 6.48095 9.03096 6.51481 9.02987 6.54882C8.99108 6.65752 8.93666 6.75987 8.86835 6.85258L8.85366 6.85999ZM60.5938 28.4123C60.2266 28.642 60.1973 28.6346 59.9109 28.2271C60.0307 28.1921 60.1576 28.1909 60.278 28.2236C60.3983 28.2562 60.5075 28.3215 60.5938 28.4123ZM31.0857 22.5445C31.3206 22.4556 31.5042 22.3593 31.629 22.6112C31.639 22.6485 31.6396 22.6877 31.6306 22.7253C31.6216 22.7628 31.6034 22.7975 31.5776 22.826C31.3573 22.9668 31.2178 22.8409 31.0857 22.5445ZM29.0886 17.4917L29.2355 17.388C29.3488 17.4581 29.4547 17.5401 29.5512 17.6324C29.5698 17.6665 29.5796 17.7047 29.5796 17.7436C29.5796 17.7824 29.5698 17.8207 29.5512 17.8547C29.5188 17.8736 29.4821 17.8835 29.4447 17.8835C29.4073 17.8835 29.3706 17.8736 29.3382 17.8547C29.2479 17.7405 29.1669 17.6191 29.096 17.4917H29.0886ZM53.4866 21.0331C53.4866 20.9886 53.5453 20.8997 53.5673 20.8997C53.7017 20.9053 53.8349 20.9277 53.9638 20.9664C53.9778 20.9979 53.985 21.032 53.985 21.0664C53.985 21.1009 53.9778 21.135 53.9638 21.1665C53.9246 21.1922 53.8803 21.2093 53.8341 21.2165C53.7878 21.2237 53.7405 21.221 53.6954 21.2083C53.6503 21.1957 53.6083 21.1736 53.5723 21.1434C53.5363 21.1132 53.5071 21.0756 53.4866 21.0331ZM38.9785 17.9955C38.9326 17.8997 38.9138 17.793 38.9241 17.6871C38.9345 17.5812 38.9736 17.4802 39.0372 17.3954C39.0372 17.3954 39.1547 17.3213 39.1767 17.3361C39.1987 17.3509 39.3015 17.4694 39.2868 17.5065C39.2208 17.6843 39.2134 17.8918 38.9711 18.0029L38.9785 17.9955ZM46.4308 19.4772C46.5335 19.3587 46.5703 19.2772 46.6363 19.2476C46.6658 19.2271 46.6994 19.2134 46.7346 19.2076C46.7699 19.2017 46.8061 19.2038 46.8405 19.2137C46.8749 19.2236 46.9067 19.2411 46.9336 19.2649C46.9605 19.2887 46.9818 19.3182 46.9961 19.3513C47.0106 19.3766 47.0181 19.4054 47.0178 19.4346C47.0175 19.4638 47.0095 19.4924 46.9944 19.5174C46.9794 19.5424 46.958 19.5629 46.9325 19.5767C46.9069 19.5905 46.8782 19.5971 46.8493 19.5958C46.7032 19.5772 46.5601 19.5399 46.4234 19.4847L46.4308 19.4772ZM23.5967 18.1585C23.883 17.9214 24.0519 17.9732 24.1914 18.1585C24.2154 18.1895 24.2319 18.2257 24.2396 18.2643C24.2472 18.3029 24.2458 18.3428 24.2355 18.3807C24.2355 18.44 24.0886 18.5067 24.0446 18.4845C23.8853 18.3897 23.7331 18.2832 23.5893 18.1659L23.5967 18.1585ZM3.48655 13.7132C3.51917 13.6608 3.55601 13.6112 3.59669 13.565C3.59669 13.565 3.67011 13.565 3.67745 13.565C3.6848 13.565 3.79492 13.8095 3.83897 13.9354C3.88303 14.0614 3.83898 13.9947 3.79492 13.9947C3.75087 13.9947 3.67011 13.9947 3.64808 13.9947C3.58434 13.9004 3.52788 13.8014 3.47921 13.6983L3.48655 13.7132ZM59.9256 24.0189C59.9969 24.1556 60.0535 24.2997 60.0945 24.4486C60.0945 24.4856 59.999 24.6042 59.9476 24.6042C59.7788 24.6042 59.7274 24.4486 59.7421 24.3078C59.7567 24.167 59.8375 24.1522 59.9256 24.0189ZM38.2589 23.7077V23.8262C38.1121 23.8262 37.9653 23.8262 37.8184 23.7744C37.8184 23.7744 37.7523 23.6781 37.7597 23.6336C37.767 23.5891 37.8404 23.5299 37.8698 23.5447C37.9873 23.6188 38.1194 23.7077 38.2589 23.7077ZM17.2457 15.4024C17.3852 15.3209 17.4587 15.2468 17.5027 15.2616C17.5947 15.2958 17.6812 15.3432 17.7597 15.4024C17.7156 15.4617 17.6569 15.5802 17.6275 15.5728C17.4951 15.5286 17.3672 15.4715 17.2457 15.4024ZM11.7098 21.8481C11.328 22.3519 11.2839 22.3815 11.1444 22.1667C11.2986 22.0481 11.3426 21.7888 11.7098 21.8407V21.8481ZM5.67451 21.1072C5.56438 20.922 5.49096 20.8405 5.47628 20.7516C5.47772 20.712 5.4893 20.6734 5.50988 20.6396C5.53047 20.6059 5.55936 20.5781 5.59375 20.5589C5.61974 20.5485 5.64798 20.545 5.67569 20.5489C5.70341 20.5527 5.72966 20.5638 5.75187 20.581C5.77407 20.5982 5.79147 20.6209 5.80237 20.6469C5.81326 20.6729 5.81728 20.7013 5.81401 20.7293C5.78819 20.8715 5.74115 21.0089 5.67451 21.1368V21.1072ZM26.6143 28.7383C26.7077 28.7766 26.7984 28.8212 26.886 28.8717C26.9193 28.9056 26.9401 28.95 26.9447 28.9976C26.886 29.0421 26.8199 29.1013 26.7612 29.0939C26.5629 29.0717 26.4748 28.968 26.6143 28.7383ZM31.2692 20.9368L31.0123 20.7293C31.093 20.6775 31.1738 20.5738 31.2472 20.5812C31.3206 20.5886 31.3867 20.6997 31.4528 20.7664L31.2692 20.9368ZM10.9902 24.7746L10.9462 24.6708C11.0162 24.6065 11.0924 24.5494 11.1738 24.5004C11.254 24.4869 11.3359 24.4869 11.4161 24.5004C11.3426 24.6116 11.3133 24.6931 11.2545 24.7301C11.1668 24.7591 11.0752 24.7741 10.9829 24.7746H10.9902ZM22.2457 25.1524L22.3779 25.0116C22.4807 25.0931 22.5908 25.1672 22.6936 25.2635C22.7052 25.2838 22.7113 25.3068 22.7113 25.3302C22.7113 25.3536 22.7052 25.3766 22.6936 25.3969C22.6709 25.4086 22.6457 25.4147 22.6202 25.4147C22.5947 25.4147 22.5695 25.4086 22.5468 25.3969C22.4392 25.319 22.3363 25.2349 22.2384 25.145L22.2457 25.1524ZM19.6172 14.9801C19.8029 14.9635 19.9896 14.9635 20.1752 14.9801C20.2266 14.9801 20.2487 15.0986 20.2854 15.1653C20.3221 15.232 20.1385 15.2764 20.0945 15.2616C19.9273 15.1796 19.7676 15.0829 19.6172 14.9727V14.9801ZM22.9506 15.884C22.9506 15.9506 22.9065 15.9803 22.8845 15.9951C22.6863 16.121 22.4219 16.1062 22.3559 15.9951C22.3494 15.9825 22.3461 15.9685 22.3461 15.9543C22.3461 15.9402 22.3494 15.9262 22.3559 15.9136C22.4954 15.7654 22.6642 15.8247 22.8258 15.8543C22.868 15.8572 22.9099 15.8647 22.9506 15.8765V15.884ZM35.5497 19.2624L35.4322 19.3735C35.3221 19.255 35.1459 19.1735 35.2266 18.8253L35.5497 19.2624ZM24.5365 27.1528C24.4671 27.1057 24.4031 27.051 24.3456 26.9898C24.2868 26.9083 24.1767 26.8268 24.3456 26.6712C24.4043 26.7898 24.5805 26.8713 24.5071 27.138L24.5365 27.1528ZM13.3103 17.7806C13.3544 17.6917 13.3691 17.625 13.4058 17.6102C13.4425 17.5954 13.6628 17.6991 13.6628 17.8399C13.6628 17.9807 13.6114 17.9288 13.5893 17.9658L13.3103 17.7806ZM12.2237 5.11151C12.3118 5.06705 12.3926 4.99297 12.4366 5.00778C12.4694 5.02507 12.4974 5.05043 12.5179 5.08151C12.5385 5.11259 12.5509 5.14838 12.5541 5.1856C12.54 5.21801 12.5176 5.24607 12.4892 5.26689C12.4608 5.28772 12.4275 5.30057 12.3926 5.30414C12.3265 5.25968 12.2898 5.1856 12.2164 5.07446L12.2237 5.11151ZM4.14735 10.1051C4.1914 10.0458 4.2428 9.9643 4.25014 9.9717C4.31495 10.008 4.37638 10.0502 4.43369 10.0977L4.30153 10.2532L4.14735 10.1051ZM58.6848 21.7147L58.8023 21.648C58.8023 21.6925 58.8683 21.7443 58.861 21.7814C58.8537 21.8184 58.7876 21.8333 58.7435 21.8555L58.6848 21.7147ZM5.73325 26.16C5.73325 26.16 5.67451 26.16 5.66717 26.16C5.65983 26.16 5.56438 25.997 5.51299 25.9081L5.69654 25.8266C5.69654 25.9229 5.76262 26.0118 5.78465 26.1082C5.80667 26.2045 5.76262 26.1378 5.76262 26.16H5.73325ZM43.5747 22.0185C43.3471 22.137 43.281 22.1963 43.2076 22.1963C43.1307 22.1879 43.056 22.1653 42.9873 22.1296C43.0387 22.0777 43.0827 21.9962 43.1415 21.9814C43.2868 21.975 43.4324 21.9874 43.5747 22.0185ZM31.7171 29.0717C31.5849 29.1285 31.4471 29.1708 31.3059 29.1976C31.2292 29.1843 31.155 29.1593 31.0857 29.1236V29.0198L31.7171 29.0717ZM13.1855 23.9744C13.244 23.9249 13.3081 23.8827 13.3764 23.8485C13.3764 23.8485 13.4572 23.8929 13.4939 23.9151C13.4437 23.969 13.3869 24.0163 13.325 24.0559C13.325 24.0559 13.2516 24.0189 13.1855 23.9744ZM11.35 12.6389L11.1297 12.7797C11.1297 12.7352 11.049 12.6759 11.0563 12.6463C11.0912 12.5807 11.1358 12.5207 11.1885 12.4685L11.35 12.6389ZM7.06218 15.0616L7.16497 14.906C7.22273 14.9424 7.27471 14.9873 7.31916 15.0393C7.31916 15.0393 7.2751 15.1283 7.24573 15.1727L7.06218 15.0616ZM22.3485 15.4765V15.2913C22.4757 15.284 22.6031 15.284 22.7303 15.2913C22.7303 15.2913 22.8111 15.3653 22.8184 15.4098C22.8258 15.4542 22.7597 15.5135 22.7303 15.5135C22.6024 15.5056 22.4749 15.4908 22.3485 15.4691V15.4765ZM8.89037 2.4221L8.75087 2.35542C8.75087 2.31097 8.81695 2.22947 8.83163 2.23688C8.89592 2.26258 8.95742 2.29485 9.01519 2.33319L8.89037 2.4221ZM6.81255 4.75588C6.89794 4.71464 6.98629 4.67997 7.07686 4.65216C7.07686 4.65216 7.15762 4.76329 7.15028 4.7707C7.07484 4.83143 6.99643 4.8883 6.91533 4.9411L6.81255 4.75588ZM9.01519 7.90464L9.28685 7.79351C9.28685 7.79351 9.32355 7.79351 9.34558 7.84537L9.14735 8.04541L9.01519 7.90464ZM25.9021 17.3954C25.9755 17.3139 25.9976 17.262 26.0416 17.2472C26.0857 17.2324 26.2399 17.3287 26.2105 17.462C26.1811 17.5954 26.1518 17.5435 26.1224 17.5806L25.9021 17.3954ZM51.2031 15.7876L51.3353 16.0173C51.2913 16.0173 51.2325 16.0914 51.2178 16.0766C51.1472 16.012 51.081 15.9427 51.0196 15.8691L51.2031 15.7876ZM4.51446 13.8021L4.34558 13.9354C4.34558 13.891 4.26482 13.8317 4.27216 13.8021C4.31336 13.7433 4.36282 13.6909 4.41901 13.6465L4.51446 13.8021ZM39.8081 24.004C39.8449 24.004 39.9036 24.0485 39.9183 24.0855C39.933 24.1226 39.9183 24.167 39.8595 24.2115L39.7054 24.093L39.8081 24.004ZM61.7244 24.7894L61.7832 24.6782C61.8088 24.713 61.831 24.7502 61.8493 24.7894C61.8493 24.7894 61.8493 24.8338 61.8493 24.8561L61.7244 24.7894ZM10.0137 6.0302H10.0725C10.0725 6.0302 10.0725 6.07466 10.0725 6.08947C10.0645 6.0934 10.0557 6.09545 10.0468 6.09545C10.0379 6.09545 10.0291 6.0934 10.0211 6.08947C10.0211 6.08947 10.0284 6.04502 10.0137 6.0302ZM10.7479 5.83016C10.6745 5.79312 10.5938 5.76348 10.5938 5.74126C10.6045 5.67465 10.6243 5.60984 10.6525 5.54863C10.6965 5.54863 10.7773 5.59308 10.7846 5.62272C10.7791 5.69427 10.7617 5.76438 10.7332 5.83016H10.7479ZM54.0666 18.2103L54.1841 18.114C54.1841 18.114 54.2355 18.1585 54.2281 18.1733C54.2126 18.2194 54.1929 18.2641 54.1694 18.3066L54.0666 18.2103ZM10.9021 18.7586C10.8421 18.7019 10.7903 18.6371 10.7479 18.566C10.7479 18.566 10.792 18.44 10.8067 18.44C10.8214 18.44 10.9609 18.4771 10.9902 18.5289C11.0196 18.5808 10.9609 18.64 10.9021 18.7586ZM42.7744 19.6402L42.5908 19.5439L42.7377 19.2772L42.9212 19.3809L42.7744 19.6402ZM7.24573 19.6402L7.43663 19.5291C7.43663 19.581 7.51005 19.6476 7.48802 19.6699C7.44067 19.7177 7.38616 19.7577 7.32649 19.7884L7.24573 19.6402ZM40.3955 17.2101L40.2487 17.1064C40.2927 17.1064 40.3294 17.0249 40.3735 17.0249C40.4175 17.0249 40.4689 17.0249 40.513 17.0694L40.3955 17.2101ZM16.1664 16.5804L16.2472 16.4322L16.4381 16.5508C16.4381 16.6026 16.3573 16.6989 16.3353 16.6915C16.2724 16.6659 16.215 16.6282 16.1664 16.5804ZM18.0901 16.3581C18.0901 16.2914 18.1341 16.2099 18.1488 16.2099C18.2187 16.2176 18.2876 16.2325 18.3544 16.2544L18.281 16.4544L18.0901 16.3581ZM0.256012 20.7442L0.1679 20.8997C0.114464 20.8633 0.067337 20.8183 0.0284042 20.7664C0.0284042 20.7664 0.0651093 20.6775 0.0871353 20.633L0.256012 20.7442ZM27.6349 20.9146C27.6607 20.957 27.6829 21.0016 27.7009 21.0479C27.7009 21.0479 27.6569 21.1072 27.6496 21.1072L27.5394 21.0183L27.6349 20.9146ZM3.40579 22.5149C3.36174 22.5149 3.28098 22.4704 3.28098 22.4556C3.28984 22.3894 3.30712 22.3247 3.33237 22.263C3.38792 22.3105 3.4395 22.3625 3.48655 22.4186C3.48655 22.4186 3.44984 22.4556 3.42781 22.4852L3.40579 22.5149ZM16.6217 22.5149C16.6584 22.4408 16.6804 22.3519 16.7098 22.3519C16.7853 22.3415 16.8618 22.3415 16.9374 22.3519C16.9374 22.4111 16.886 22.5075 16.8346 22.5297C16.7832 22.5519 16.7758 22.5075 16.673 22.4852L16.6217 22.5149ZM38.3177 27.9604L38.4719 28.0641C38.4354 28.1245 38.3936 28.1815 38.3471 28.2345C38.3471 28.2345 38.2296 28.1752 38.2369 28.153C38.2547 28.0853 38.2819 28.0204 38.3177 27.9604ZM26.4675 27.3306L26.6657 27.2269C26.6657 27.2713 26.7171 27.3306 26.7024 27.3677C26.6888 27.389 26.6704 27.4067 26.6487 27.4196C26.627 27.4325 26.6027 27.44 26.5776 27.4417C26.5776 27.4417 26.5189 27.4121 26.4675 27.3306ZM17.51 23.4854H17.4293C17.4293 23.4854 17.4293 23.4484 17.4293 23.4262C17.456 23.4216 17.4833 23.4216 17.51 23.4262C17.51 23.4262 17.51 23.4632 17.51 23.4854ZM2.5541 29.7533L2.66423 29.6348C2.66423 29.6348 2.71563 29.6792 2.71563 29.6866C2.69766 29.7306 2.67554 29.7728 2.64955 29.8126L2.5541 29.7533ZM47.5321 15.558L47.5761 15.6098L47.4807 15.6617C47.4807 15.6617 47.4807 15.6098 47.4807 15.595C47.4807 15.5802 47.5027 15.558 47.5321 15.558ZM39.5365 23.2039V23.2706H39.4484C39.4484 23.2706 39.4484 23.2261 39.4484 23.2187C39.4484 23.2113 39.5365 23.1965 39.5365 23.2039ZM34.7861 14.78L34.6613 14.6985C34.698 14.6985 34.7347 14.6096 34.7788 14.6022C34.8228 14.5948 34.8595 14.6541 34.9036 14.6837L34.7861 14.78ZM33.0681 14.8467C33.0681 14.8467 33.0167 14.9356 32.9799 14.943C32.9432 14.9504 32.8918 14.943 32.8404 14.943C32.8773 14.8921 32.9192 14.8449 32.9653 14.8023C32.9653 14.8023 33.0534 14.8171 33.0901 14.8171L33.0681 14.8467ZM53.9197 17.7288L53.7876 17.6473C53.7876 17.6473 53.8463 17.5435 53.8757 17.5509C53.9514 17.5648 54.0252 17.5872 54.096 17.6176C54.096 17.6176 54.096 17.6695 54.096 17.6769L53.9197 17.7288ZM16.7758 17.4324L16.7098 17.299C16.7512 17.2944 16.7931 17.2944 16.8346 17.299C16.8346 17.299 16.8713 17.3583 16.8346 17.3657C16.8169 17.3896 16.7972 17.4119 16.7758 17.4324ZM9.15469 9.55681L9.22811 9.42345C9.26505 9.447 9.29949 9.47431 9.3309 9.50495V9.57163C9.2718 9.57321 9.21272 9.56824 9.15469 9.55681ZM50.5497 18.5215C50.5938 18.5215 50.6451 18.4771 50.6672 18.5215C50.6892 18.566 50.7259 18.603 50.7553 18.64C50.7846 18.6771 50.6525 18.6919 50.6231 18.64C50.5938 18.5882 50.5938 18.5808 50.5497 18.5215ZM41.6363 16.9286C41.673 16.9286 41.7171 16.8545 41.7612 16.8545C41.8052 16.8545 41.8493 16.8916 41.8933 16.9138C41.9374 16.936 41.8125 16.9879 41.7685 16.9879C41.7244 16.9879 41.6951 16.9656 41.651 16.9434L41.6363 16.9286ZM12.6716 21.2109C12.6716 21.2109 12.6716 21.1665 12.7303 21.1665C12.789 21.1665 12.7744 21.1665 12.7964 21.1665C12.8184 21.1665 12.7964 21.2109 12.7377 21.2109C12.6789 21.2109 12.7156 21.2405 12.6936 21.2257L12.6716 21.2109ZM25.535 28.7531L25.5864 28.7161C25.6086 28.7516 25.6282 28.7888 25.6451 28.8272C25.6451 28.8272 25.6451 28.8272 25.5864 28.8717L25.535 28.7531ZM57.9653 20.3515C57.9653 20.3515 57.9653 20.3959 57.9653 20.4033C57.9435 20.4079 57.921 20.4079 57.8992 20.4033V20.307L57.9653 20.3515ZM37.8698 24.493H37.8037C37.8037 24.493 37.8037 24.4412 37.8037 24.4338C37.8037 24.4263 37.8404 24.4338 37.8625 24.3967L37.8698 24.493ZM22.3045 21.7221L22.3632 21.6777C22.3859 21.713 22.4055 21.7501 22.4219 21.7888C22.4219 21.7888 22.4219 21.7888 22.3705 21.8333L22.3045 21.7221ZM43.9858 23.9448H44.0446L44.0078 24.0189L43.9858 23.9448ZM9.22077 13.1723L9.3309 13.0982C9.3309 13.0982 9.37495 13.0982 9.37495 13.1501C9.38282 13.1716 9.38282 13.1953 9.37495 13.2168L9.22077 13.1723ZM18.4058 22.9075H18.4572H18.3984H18.4058Z" fill="#C25B24"/>
<path d="M12.8625 37.1181H12.1943C9.78611 37.1181 7.37788 37.1181 4.977 37.0514C3.50857 36.9996 1.9814 37.1404 0.483604 37.1107C0.399494 37.1158 0.315979 37.1282 0.233974 37.1478C-0.00831604 37.3774 0.0651054 37.6071 0.233974 37.8294C0.292713 37.8294 0.344109 37.9035 0.395504 37.9035L1.49682 37.822C1.98684 37.7696 2.48188 37.7921 2.96525 37.8886C3.3269 37.9556 3.69759 37.9556 4.05923 37.8886C4.90693 37.7868 5.76123 37.7522 6.6143 37.7849L19.7788 37.8886L30.4836 37.9924C32.5761 37.9924 34.6686 37.9924 36.7685 37.9924C38.4131 37.9924 40.0504 37.9924 41.6951 37.9924H51.4601H55.8654C56.9667 37.9924 58.068 37.9924 59.1767 37.9924C60.1107 37.9395 61.0471 38.0345 61.952 38.2739C62.0128 38.2929 62.0767 38.299 62.1399 38.2919C62.2031 38.2848 62.2642 38.2646 62.3193 38.2326C62.3744 38.2007 62.4224 38.1575 62.4603 38.106C62.4982 38.0545 62.5251 37.9956 62.5394 37.9331C62.5542 37.7917 62.5227 37.6492 62.4498 37.5275C62.3769 37.4058 62.2666 37.3114 62.1356 37.2589C62.0235 37.2445 61.91 37.2445 61.7978 37.2589C60.7259 37.2589 59.6466 37.333 58.5746 37.3256C56.8786 37.3256 55.1826 37.2589 53.4792 37.2367C52.7964 37.2367 52.1209 37.2367 51.4381 37.2367C51.2262 37.2221 51.0154 37.1949 50.8067 37.1552C50.8873 37.0233 50.9942 36.9098 51.1206 36.8218C51.247 36.7338 51.3901 36.6732 51.5409 36.644C51.811 36.5598 52.0443 36.3846 52.2017 36.1476C52.4293 35.8216 52.7156 35.54 52.9359 35.2141C53.3947 34.5103 53.7096 33.7211 53.8622 32.8929C54.0147 32.0647 54.0019 31.214 53.8243 30.3909C53.6921 29.8649 53.6481 29.324 53.5233 28.798C53.2761 28.0061 52.877 27.271 52.3485 26.6346C52.0357 26.3312 51.6762 26.0809 51.2839 25.8937C50.902 25.5488 50.4153 25.3451 49.9036 25.3159C49.2252 25.0356 48.483 24.9509 47.7597 25.0714C47.2191 25.0721 46.6793 25.1117 46.1444 25.1899C45.7871 25.265 45.4397 25.3819 45.1092 25.5381C44.72 25.7011 44.3749 25.8937 44.0299 26.0419L43.0754 27.2051C42.8771 27.4496 42.6716 27.6867 42.488 27.946C42.3627 28.1003 42.2657 28.2759 42.2017 28.4646C42.0328 29.0944 41.886 29.7389 41.7391 30.3761C41.7201 30.5162 41.7201 30.6583 41.7391 30.7984C41.7413 31.4012 41.7879 32.0029 41.8786 32.5987C42.0078 33.2032 42.2074 33.7901 42.4733 34.3472C42.8535 35.0432 43.3503 35.6673 43.9418 36.192C44.1627 36.377 44.4103 36.5269 44.676 36.6366C44.9855 36.783 45.2684 36.9809 45.513 37.2219C45.1826 37.2219 44.9623 37.2811 44.7788 37.2885H40.278H31.952C30.256 37.2885 28.5526 37.2885 26.8566 37.2885C25.4689 37.2885 24.0886 37.2219 22.7009 37.1922C22.1356 37.1922 21.5702 37.1922 21.0049 37.1922C20.7892 37.1662 20.5757 37.1241 20.3661 37.0663C20.5644 36.8514 20.6818 36.7032 20.8213 36.5699C20.9608 36.4365 21.3059 36.1698 21.5556 35.9475C22.3034 35.2338 22.7833 34.281 22.9139 33.2507C22.9799 32.6284 23.0827 32.006 23.1708 31.3837C23.1921 31.2437 23.1921 31.1013 23.1708 30.9614C22.9734 29.9664 22.6004 29.0153 22.0695 28.1534C21.6771 27.4894 21.1172 26.9424 20.4469 26.5679C19.624 26.0716 18.737 25.6927 17.8111 25.4418C17.2563 25.3342 16.6942 25.2698 16.1297 25.2492C15.7626 25.2492 15.3955 25.2492 15.0284 25.2492C14.5454 25.2268 14.0691 25.3705 13.6774 25.6567C13.3752 25.865 13.0468 26.0319 12.7009 26.153C12.148 26.385 11.656 26.7433 11.2636 27.1997C10.8712 27.656 10.5891 28.1981 10.4396 28.7832C9.80148 30.6401 9.91223 32.6757 10.7479 34.4509C11.119 35.0833 11.5388 35.6853 12.0034 36.2513C12.1062 36.4069 12.3191 36.481 12.4807 36.5995L12.9285 36.9403L12.8625 37.1181ZM17.0769 28.7906C17.3734 28.7482 17.6757 28.7894 17.9505 28.9097C18.2252 29.03 18.4615 29.2247 18.6334 29.4722C18.877 29.8127 19.0473 30.2008 19.1333 30.6117C19.2193 31.0226 19.2191 31.4471 19.1327 31.8579C19.1173 31.999 19.062 32.1326 18.9735 32.2429C18.885 32.3533 18.7669 32.4356 18.6334 32.4802C18.5271 32.5141 18.4277 32.5668 18.3397 32.6358C17.8382 32.9451 17.2779 33.1445 16.6951 33.2211C16.544 33.268 16.3837 33.2763 16.2286 33.2453C16.0736 33.2142 15.9286 33.1448 15.8067 33.0433C15.3955 32.6654 15.0724 32.2283 14.6539 31.8134C14.5219 31.5455 14.4502 31.2515 14.444 30.9524C14.4377 30.6533 14.497 30.3565 14.6177 30.0833C14.7384 29.81 14.9174 29.5671 15.142 29.3718C15.3666 29.1765 15.6311 29.0337 15.9168 28.9536C16.3059 28.8943 16.6951 28.8499 17.0769 28.7906ZM46.2986 29.6945C46.8052 29.2796 47.4586 29.3537 47.9579 29.0277C48.0646 28.9886 48.1816 28.9886 48.2883 29.0277C48.8081 29.1709 49.2666 29.4829 49.5931 29.9155C49.9196 30.348 50.0958 30.877 50.0945 31.4207C50.0706 31.9652 49.9061 32.4939 49.6172 32.9544C49.3869 33.2547 49.0738 33.4796 48.7171 33.6009C48.3605 33.7222 47.9763 33.7344 47.6128 33.636C47.2243 33.4907 46.8761 33.2534 46.5976 32.9439C46.319 32.6345 46.1183 32.262 46.0122 31.8579C45.9696 31.7523 45.9544 31.6376 45.9682 31.5245C45.9696 30.8964 46.084 30.2738 46.3059 29.6871L46.2986 29.6945Z" fill="#C25B24"/>
<path d="M17.1503 31.5765C17.2945 31.4973 17.4107 31.375 17.483 31.2264C17.5553 31.0777 17.5802 30.9101 17.5542 30.7467C17.535 30.5755 17.4791 30.4106 17.3903 30.2634C17.3016 30.1163 17.1821 29.9904 17.0402 29.8946C17.005 29.8764 16.966 29.8669 16.9264 29.8669C16.8868 29.8669 16.8478 29.8764 16.8126 29.8946C16.7833 29.9222 16.7598 29.9555 16.7434 29.9924C16.727 30.0293 16.7181 30.0691 16.7171 30.1095C16.7067 30.1556 16.7066 30.2034 16.7167 30.2495C16.7269 30.2957 16.7471 30.3389 16.7759 30.3762C16.9187 30.515 17.0215 30.6903 17.0732 30.8834C17.1249 31.0766 17.1237 31.2803 17.0696 31.4727C17.0696 31.4727 17.0989 31.495 17.1503 31.5765Z" fill="#C25B24"/>
<path d="M48.5306 31.6948C48.7876 31.7911 48.9418 31.7392 48.9711 31.5318C48.9819 31.3344 48.9493 31.1371 48.8757 30.954C48.8021 30.7708 48.6893 30.6063 48.5453 30.4723C48.455 30.4028 48.3429 30.3686 48.2296 30.376C48.1635 30.376 48.046 30.4427 48.0313 30.4945C48.0117 30.5979 48.0272 30.705 48.0754 30.7983C48.0754 30.8576 48.2222 30.865 48.2957 30.9094C48.6554 31.1169 48.6628 31.1169 48.5306 31.6948Z" fill="#C25B24"/>
</svg>
